<?xml version="1.0" encoding="utf-8"?>
<!-- Generator: Adobe Illustrator 27.2.0, SVG Export Plug-In . SVG Version: 6.00 Build 0)  -->
<svg version="1.1" id="Layer_1" xmlns="http://www.w3.org/2000/svg" xmlns:xlink="http://www.w3.org/1999/xlink" x="0px" y="0px"
	 viewBox="0 0 259.7 432.5" style="enable-background:new 0 0 259.7 432.5;" xml:space="preserve">
<style type="text/css">
	.st0{fill:#2367FF;}
</style>
<g>
	<g>
		<g>
			<rect x="84.5" y="170.9" class="st0" width="94.3" height="27.5"/>
		</g>
	</g>
	<g>
		<g>
			<path class="st0" d="M155.7,372.4h-50.9c-18.8,0-34-15.3-34-34V258c0-18.7,15.2-34,33.9-34l13.7-0.1v-38.3h27.5v38.2h9.8
				c18.8,0,34,15.3,34,34v80.4C189.7,357.1,174.5,372.4,155.7,372.4z M132.1,251.3l-27.4,0.1c-3.6,0-6.5,3-6.5,6.6v80.3
				c0,3.6,2.9,6.6,6.6,6.6h50.9c3.6,0,6.6-2.9,6.6-6.6v-80.4c0-3.6-2.9-6.6-6.6-6.6H132.1z"/>
		</g>
	</g>
	<g>
		<g>
			<rect x="117.9" y="86.2" class="st0" width="27.5" height="50.1"/>
		</g>
	</g>
	<g>
		<g>
			<rect x="117.9" class="st0" width="27.5" height="50.1"/>
		</g>
	</g>
	<g>
		<g>
			
				<rect x="175" y="104.9" transform="matrix(0.4244 -0.9055 0.9055 0.4244 7.7205 249.4743)" class="st0" width="50.1" height="27.5"/>
		</g>
	</g>
	<g>
		<g>
			
				<rect x="211.6" y="26.9" transform="matrix(0.4244 -0.9055 0.9055 0.4244 99.4163 237.6699)" class="st0" width="50.1" height="27.5"/>
		</g>
	</g>
	<g>
		<g>
			<rect x="24.3" y="405.1" class="st0" width="212" height="27.5"/>
		</g>
	</g>
	<g>
		<g>
			
				<rect x="49.5" y="93.6" transform="matrix(0.9055 -0.4243 0.4243 0.9055 -44.3785 38.0458)" class="st0" width="27.5" height="50.1"/>
		</g>
	</g>
	<g>
		<g>
			
				<rect x="12.9" y="15.6" transform="matrix(0.9055 -0.4244 0.4244 0.9055 -14.7265 15.1585)" class="st0" width="27.5" height="50.1"/>
		</g>
	</g>
</g>
</svg>
