<?xml version="1.0" encoding="utf-8"?>
<!-- Generator: Adobe Illustrator 27.2.0, SVG Export Plug-In . SVG Version: 6.00 Build 0)  -->
<svg version="1.1" id="Layer_1" xmlns="http://www.w3.org/2000/svg" xmlns:xlink="http://www.w3.org/1999/xlink" x="0px" y="0px"
	 viewBox="0 0 1338.5 432.5" style="enable-background:new 0 0 1338.5 432.5;" xml:space="preserve">
<style type="text/css">
	.st0{fill:#151223;}
	.st1{fill:#2367FF;}
</style>
<g>
	<path class="st0" d="M377.8,344.8c-14.1,0-26.8-3.9-38.3-11.7c-11.5-7.8-20.7-18.4-27.6-31.8c-6.9-13.4-10.4-28.7-10.4-45.8
		c0-17.1,3.5-32.3,10.4-45.8c6.9-13.4,16.3-23.9,28.2-31.5c11.9-7.6,25.3-11.4,40.2-11.4c8.7,0,16.6,1.3,23.7,3.7
		c7.1,2.5,13.4,6,18.8,10.5c5.4,4.5,9.9,9.7,13.5,15.6c3.6,5.8,6,12.1,7.3,18.8l-8.8-2.3v-42.8h40.2v171h-40.6v-40.9l9.4-1.6
		c-1.5,5.8-4.3,11.5-8.3,17c-4,5.5-9,10.4-14.9,14.6c-6,4.2-12.6,7.6-19.8,10.2C393.8,343.5,386,344.8,377.8,344.8z M388.8,309.4
		c9.3,0,17.5-2.3,24.7-6.8c7.1-4.5,12.7-10.9,16.7-19c4-8.1,6-17.5,6-28.1c0-10.4-2-19.6-6-27.6c-4-8-9.6-14.3-16.7-18.8
		c-7.1-4.5-15.4-6.8-24.7-6.8c-9.3,0-17.5,2.3-24.5,6.8c-7,4.5-12.5,10.8-16.4,18.8c-3.9,8-5.8,17.2-5.8,27.6
		c0,10.6,1.9,20,5.8,28.1c3.9,8.1,9.4,14.4,16.4,19C371.4,307.2,379.5,309.4,388.8,309.4z"/>
	<path class="st0" d="M521.6,341.6v-171h39.3l0.6,54.5l-5.5-12.3c2.4-8.6,6.5-16.4,12.3-23.4c5.8-6.9,12.6-12.4,20.3-16.4
		c7.7-4,15.7-6,24.2-6c3.7,0,7.2,0.3,10.5,1c3.4,0.6,6.1,1.4,8.3,2.3L620.9,214c-2.4-1.3-5.3-2.4-8.8-3.2c-3.5-0.9-6.9-1.3-10.4-1.3
		c-5.4,0-10.5,1-15.4,3.1c-4.9,2.1-9.1,4.9-12.8,8.6c-3.7,3.7-6.5,7.9-8.6,12.8c-2.1,4.9-3.1,10.3-3.1,16.4v91.2H521.6z"/>
	<path class="st0" d="M658.2,341.6v-171h39.3l0.6,54.5l-5.5-12.3c2.4-8.6,6.5-16.4,12.3-23.4c5.8-6.9,12.6-12.4,20.3-16.4
		c7.7-4,15.7-6,24.2-6c3.7,0,7.2,0.3,10.5,1c3.4,0.6,6.1,1.4,8.3,2.3L757.5,214c-2.4-1.3-5.3-2.4-8.8-3.2c-3.5-0.9-6.9-1.3-10.4-1.3
		c-5.4,0-10.5,1-15.4,3.1c-4.9,2.1-9.1,4.9-12.8,8.6c-3.7,3.7-6.5,7.9-8.6,12.8c-2.1,4.9-3.1,10.3-3.1,16.4v91.2H658.2z"/>
	<path class="st0" d="M865.9,344.8c-17.1,0-32.3-3.8-45.8-11.5c-13.4-7.7-24-18.2-31.8-31.6c-7.8-13.4-11.7-28.7-11.7-45.8
		c0-17.1,3.9-32.3,11.7-45.8c7.8-13.4,18.4-24,31.8-31.6c13.4-7.7,28.7-11.5,45.8-11.5c16.9,0,32,3.8,45.4,11.5
		c13.4,7.7,24,18.2,31.6,31.6c7.7,13.4,11.5,28.7,11.5,45.8c0,17.1-3.8,32.3-11.5,45.8c-7.7,13.4-18.2,24-31.6,31.6
		C898,341,882.8,344.8,865.9,344.8z M865.9,309.4c9.3,0,17.6-2.4,24.8-7.1c7.2-4.8,13-11.1,17.2-19.1c4.2-8,6.2-17.1,6-27.3
		c0.2-10.4-1.8-19.6-6-27.6c-4.2-8-10-14.3-17.2-19c-7.3-4.7-15.5-7-24.8-7c-9.3,0-17.7,2.3-25.2,7c-7.5,4.7-13.3,11-17.4,19.1
		c-4.1,8.1-6.2,17.3-6.2,27.4c0,10.2,2.1,19.3,6.2,27.3c4.1,8,9.9,14.4,17.4,19.1C848.3,307,856.6,309.4,865.9,309.4z"/>
	<path class="st0" d="M1047.4,344.8c-15.1,0-28.7-2.5-40.7-7.6c-12-5.1-21.8-12.4-29.4-21.9l26-22.4c6.5,7.4,13.7,12.7,21.7,15.9
		c8,3.2,16.4,4.9,25.3,4.9c3.7,0,7-0.4,9.9-1.3c2.9-0.9,5.5-2.2,7.6-3.9c2.2-1.7,3.8-3.7,5-6c1.2-2.3,1.8-4.8,1.8-7.6
		c0-5.2-1.9-9.3-5.8-12.3c-2.2-1.5-5.6-3.1-10.2-4.9c-4.7-1.7-10.7-3.5-18-5.2c-11.7-3-21.4-6.5-29.2-10.5
		c-7.8-4-13.8-8.5-18.2-13.5c-3.7-4.1-6.4-8.8-8.3-14c-1.8-5.2-2.8-10.8-2.8-16.9c0-7.6,1.7-14.4,5-20.6c3.4-6.2,8-11.5,13.8-16.1
		c5.8-4.5,12.7-8,20.4-10.4c7.8-2.4,15.9-3.6,24.3-3.6c8.7,0,17,1.1,25.2,3.2c8.1,2.2,15.7,5.2,22.7,9.2c7,4,13,8.8,18,14.4
		l-22.1,24.3c-4.1-3.9-8.6-7.4-13.5-10.4c-4.9-3-9.8-5.5-14.8-7.3c-5-1.8-9.6-2.8-14-2.8c-4.1,0-7.8,0.4-11,1.1s-6,1.9-8.1,3.4
		c-2.2,1.5-3.8,3.4-5,5.7c-1.2,2.3-1.8,4.9-1.8,8c0.2,2.6,0.9,5,2.1,7.3c1.2,2.3,2.9,4.2,5,5.7c2.4,1.5,5.9,3.2,10.7,5.2
		c4.8,1.9,10.9,3.8,18.5,5.5c10.6,2.8,19.5,6,26.6,9.4c7.1,3.5,12.8,7.5,16.9,12c4.1,3.9,7,8.4,8.8,13.6c1.7,5.2,2.6,10.9,2.6,17.2
		c0,10.2-2.9,19.3-8.6,27.3c-5.7,8-13.5,14.3-23.4,18.8C1070.8,342.5,1059.7,344.8,1047.4,344.8z"/>
	<path class="st0" d="M1171.7,134.2c-8,0-14.2-2-18.7-6c-4.4-4-6.7-9.7-6.7-17c0-6.9,2.3-12.5,6.8-16.9c4.5-4.3,10.7-6.5,18.5-6.5
		c8.2,0,14.6,2,19,6c4.4,4,6.7,9.8,6.7,17.4c0,6.7-2.3,12.2-6.8,16.5C1186,132,1179.7,134.2,1171.7,134.2z M1152.2,341.6v-171h39.9
		v171H1152.2z"/>
	<path class="st0" d="M1227.5,207.5v-37h111v37H1227.5z M1261.3,341.6V127h39.9v214.5H1261.3z"/>
</g>
<g>
	<g>
		<g>
			<rect x="84.5" y="170.9" class="st1" width="94.3" height="27.5"/>
		</g>
	</g>
	<g>
		<g>
			<path class="st1" d="M155.7,372.4h-50.9c-18.8,0-34-15.3-34-34V258c0-18.7,15.2-34,33.9-34l13.7-0.1v-38.3h27.5v38.2h9.8
				c18.8,0,34,15.3,34,34v80.4C189.7,357.1,174.5,372.4,155.7,372.4z M132.1,251.3l-27.4,0.1c-3.6,0-6.5,3-6.5,6.6v80.3
				c0,3.6,2.9,6.6,6.6,6.6h50.9c3.6,0,6.6-2.9,6.6-6.6v-80.4c0-3.6-2.9-6.6-6.6-6.6H132.1z"/>
		</g>
	</g>
	<g>
		<g>
			<rect x="117.9" y="86.2" class="st1" width="27.5" height="50.1"/>
		</g>
	</g>
	<g>
		<g>
			<rect x="117.9" class="st1" width="27.5" height="50.1"/>
		</g>
	</g>
	<g>
		<g>
			
				<rect x="175" y="104.9" transform="matrix(0.4244 -0.9055 0.9055 0.4244 7.7205 249.4743)" class="st1" width="50.1" height="27.5"/>
		</g>
	</g>
	<g>
		<g>
			
				<rect x="211.6" y="26.9" transform="matrix(0.4244 -0.9055 0.9055 0.4244 99.4163 237.6699)" class="st1" width="50.1" height="27.5"/>
		</g>
	</g>
	<g>
		<g>
			<rect x="24.3" y="405.1" class="st1" width="212" height="27.5"/>
		</g>
	</g>
	<g>
		<g>
			
				<rect x="49.5" y="93.6" transform="matrix(0.9055 -0.4243 0.4243 0.9055 -44.3785 38.0458)" class="st1" width="27.5" height="50.1"/>
		</g>
	</g>
	<g>
		<g>
			
				<rect x="12.9" y="15.6" transform="matrix(0.9055 -0.4244 0.4244 0.9055 -14.7265 15.1585)" class="st1" width="27.5" height="50.1"/>
		</g>
	</g>
</g>
</svg>
