<svg width="370" height="306" viewBox="0 0 370 306" fill="none" xmlns="http://www.w3.org/2000/svg">
<rect width="360" height="306" rx="16" fill="white"/>
<path d="M108.2 31C108.2 29.6267 108.507 28.4 109.12 27.32C109.747 26.2267 110.593 25.38 111.66 24.78C112.74 24.1667 113.947 23.86 115.28 23.86C116.84 23.86 118.207 24.26 119.38 25.06C120.553 25.86 121.373 26.9667 121.84 28.38H118.62C118.3 27.7133 117.847 27.2133 117.26 26.88C116.687 26.5467 116.02 26.38 115.26 26.38C114.447 26.38 113.72 26.5733 113.08 26.96C112.453 27.3333 111.96 27.8667 111.6 28.56C111.253 29.2533 111.08 30.0667 111.08 31C111.08 31.92 111.253 32.7333 111.6 33.44C111.96 34.1333 112.453 34.6733 113.08 35.06C113.72 35.4333 114.447 35.62 115.26 35.62C116.02 35.62 116.687 35.4533 117.26 35.12C117.847 34.7733 118.3 34.2667 118.62 33.6H121.84C121.373 35.0267 120.553 36.14 119.38 36.94C118.22 37.7267 116.853 38.12 115.28 38.12C113.947 38.12 112.74 37.82 111.66 37.22C110.593 36.6067 109.747 35.76 109.12 34.68C108.507 33.6 108.2 32.3733 108.2 31ZM127.032 28.64C127.392 28.0533 127.858 27.5933 128.432 27.26C129.018 26.9267 129.685 26.76 130.432 26.76V29.7H129.692C128.812 29.7 128.145 29.9067 127.692 30.32C127.252 30.7333 127.032 31.4533 127.032 32.48V38H124.232V26.92H127.032V28.64ZM137.238 38.18C136.171 38.18 135.211 37.9467 134.358 37.48C133.504 37 132.831 36.3267 132.338 35.46C131.858 34.5933 131.618 33.5933 131.618 32.46C131.618 31.3267 131.864 30.3267 132.358 29.46C132.864 28.5933 133.551 27.9267 134.418 27.46C135.284 26.98 136.251 26.74 137.318 26.74C138.384 26.74 139.351 26.98 140.218 27.46C141.084 27.9267 141.764 28.5933 142.258 29.46C142.764 30.3267 143.018 31.3267 143.018 32.46C143.018 33.5933 142.758 34.5933 142.237 35.46C141.731 36.3267 141.038 37 140.158 37.48C139.291 37.9467 138.318 38.18 137.238 38.18ZM137.238 35.74C137.744 35.74 138.218 35.62 138.658 35.38C139.111 35.1267 139.471 34.7533 139.738 34.26C140.004 33.7667 140.138 33.1667 140.138 32.46C140.138 31.4067 139.858 30.6 139.298 30.04C138.751 29.4667 138.078 29.18 137.278 29.18C136.478 29.18 135.804 29.4667 135.258 30.04C134.724 30.6 134.458 31.4067 134.458 32.46C134.458 33.5133 134.718 34.3267 135.238 34.9C135.771 35.46 136.438 35.74 137.238 35.74ZM147.871 28.52C148.231 28.0133 148.725 27.5933 149.351 27.26C149.991 26.9133 150.718 26.74 151.531 26.74C152.478 26.74 153.331 26.9733 154.091 27.44C154.865 27.9067 155.471 28.5733 155.911 29.44C156.365 30.2933 156.591 31.2867 156.591 32.42C156.591 33.5533 156.365 34.56 155.911 35.44C155.471 36.3067 154.865 36.98 154.091 37.46C153.331 37.94 152.478 38.18 151.531 38.18C150.718 38.18 149.998 38.0133 149.371 37.68C148.758 37.3467 148.258 36.9267 147.871 36.42V43.28H145.071V26.92H147.871V28.52ZM153.731 32.42C153.731 31.7533 153.591 31.18 153.311 30.7C153.045 30.2067 152.685 29.8333 152.231 29.58C151.791 29.3267 151.311 29.2 150.791 29.2C150.285 29.2 149.805 29.3333 149.351 29.6C148.911 29.8533 148.551 30.2267 148.271 30.72C148.005 31.2133 147.871 31.7933 147.871 32.46C147.871 33.1267 148.005 33.7067 148.271 34.2C148.551 34.6933 148.911 35.0733 149.351 35.34C149.805 35.5933 150.285 35.72 150.791 35.72C151.311 35.72 151.791 35.5867 152.231 35.32C152.685 35.0533 153.045 34.6733 153.311 34.18C153.591 33.6867 153.731 33.1 153.731 32.42ZM162.866 38.18C161.959 38.18 161.146 38.02 160.426 37.7C159.706 37.3667 159.133 36.92 158.706 36.36C158.293 35.8 158.066 35.18 158.026 34.5H160.846C160.899 34.9267 161.106 35.28 161.466 35.56C161.839 35.84 162.299 35.98 162.846 35.98C163.379 35.98 163.793 35.8733 164.086 35.66C164.393 35.4467 164.546 35.1733 164.546 34.84C164.546 34.48 164.359 34.2133 163.986 34.04C163.626 33.8533 163.046 33.6533 162.246 33.44C161.419 33.24 160.739 33.0333 160.206 32.82C159.686 32.6067 159.233 32.28 158.846 31.84C158.473 31.4 158.286 30.8067 158.286 30.06C158.286 29.4467 158.459 28.8867 158.806 28.38C159.166 27.8733 159.673 27.4733 160.326 27.18C160.993 26.8867 161.773 26.74 162.666 26.74C163.986 26.74 165.039 27.0733 165.826 27.74C166.613 28.3933 167.046 29.28 167.126 30.4H164.446C164.406 29.96 164.219 29.6133 163.886 29.36C163.566 29.0933 163.133 28.96 162.586 28.96C162.079 28.96 161.686 29.0533 161.406 29.24C161.139 29.4267 161.006 29.6867 161.006 30.02C161.006 30.3933 161.193 30.68 161.566 30.88C161.939 31.0667 162.519 31.26 163.306 31.46C164.106 31.66 164.766 31.8667 165.286 32.08C165.806 32.2933 166.253 32.6267 166.626 33.08C167.013 33.52 167.213 34.1067 167.226 34.84C167.226 35.48 167.046 36.0533 166.686 36.56C166.339 37.0667 165.833 37.4667 165.166 37.76C164.513 38.04 163.746 38.18 162.866 38.18ZM177.09 28.52C177.45 28.0133 177.943 27.5933 178.57 27.26C179.21 26.9133 179.937 26.74 180.75 26.74C181.697 26.74 182.55 26.9733 183.31 27.44C184.083 27.9067 184.69 28.5733 185.13 29.44C185.583 30.2933 185.81 31.2867 185.81 32.42C185.81 33.5533 185.583 34.56 185.13 35.44C184.69 36.3067 184.083 36.98 183.31 37.46C182.55 37.94 181.697 38.18 180.75 38.18C179.937 38.18 179.217 38.0133 178.59 37.68C177.977 37.3467 177.477 36.9267 177.09 36.42V43.28H174.29V26.92H177.09V28.52ZM182.95 32.42C182.95 31.7533 182.81 31.18 182.53 30.7C182.263 30.2067 181.903 29.8333 181.45 29.58C181.01 29.3267 180.53 29.2 180.01 29.2C179.503 29.2 179.023 29.3333 178.57 29.6C178.13 29.8533 177.77 30.2267 177.49 30.72C177.223 31.2133 177.09 31.7933 177.09 32.46C177.09 33.1267 177.223 33.7067 177.49 34.2C177.77 34.6933 178.13 35.0733 178.57 35.34C179.023 35.5933 179.503 35.72 180.01 35.72C180.53 35.72 181.01 35.5867 181.45 35.32C181.903 35.0533 182.263 34.6733 182.53 34.18C182.81 33.6867 182.95 33.1 182.95 32.42ZM190.645 23.2V38H187.845V23.2H190.645ZM192.691 32.42C192.691 31.3 192.911 30.3067 193.351 29.44C193.805 28.5733 194.411 27.9067 195.171 27.44C195.945 26.9733 196.805 26.74 197.751 26.74C198.578 26.74 199.298 26.9067 199.911 27.24C200.538 27.5733 201.038 27.9933 201.411 28.5V26.92H204.231V38H201.411V36.38C201.051 36.9 200.551 37.3333 199.911 37.68C199.285 38.0133 198.558 38.18 197.731 38.18C196.798 38.18 195.945 37.94 195.171 37.46C194.411 36.98 193.805 36.3067 193.351 35.44C192.911 34.56 192.691 33.5533 192.691 32.42ZM201.411 32.46C201.411 31.78 201.278 31.2 201.011 30.72C200.745 30.2267 200.385 29.8533 199.931 29.6C199.478 29.3333 198.991 29.2 198.471 29.2C197.951 29.2 197.471 29.3267 197.031 29.58C196.591 29.8333 196.231 30.2067 195.951 30.7C195.685 31.18 195.551 31.7533 195.551 32.42C195.551 33.0867 195.685 33.6733 195.951 34.18C196.231 34.6733 196.591 35.0533 197.031 35.32C197.485 35.5867 197.965 35.72 198.471 35.72C198.991 35.72 199.478 35.5933 199.931 35.34C200.385 35.0733 200.745 34.7 201.011 34.22C201.278 33.7267 201.411 33.14 201.411 32.46ZM213.106 26.76C214.426 26.76 215.493 27.18 216.306 28.02C217.119 28.8467 217.526 30.0067 217.526 31.5V38H214.726V31.88C214.726 31 214.506 30.3267 214.066 29.86C213.626 29.38 213.026 29.14 212.266 29.14C211.493 29.14 210.879 29.38 210.426 29.86C209.986 30.3267 209.766 31 209.766 31.88V38H206.966V26.92H209.766V28.3C210.139 27.82 210.613 27.4467 211.186 27.18C211.773 26.9 212.413 26.76 213.106 26.76ZM223.449 29.22V34.58C223.449 34.9533 223.535 35.2267 223.709 35.4C223.895 35.56 224.202 35.64 224.629 35.64H225.929V38H224.169C221.809 38 220.629 36.8533 220.629 34.56V29.22H219.309V26.92H220.629V24.18H223.449V26.92H225.929V29.22H223.449ZM238.243 32.22C238.243 32.62 238.216 32.98 238.163 33.3H230.063C230.129 34.1 230.409 34.7267 230.903 35.18C231.396 35.6333 232.003 35.86 232.723 35.86C233.763 35.86 234.503 35.4133 234.943 34.52H237.963C237.643 35.5867 237.029 36.4667 236.123 37.16C235.216 37.84 234.103 38.18 232.783 38.18C231.716 38.18 230.756 37.9467 229.903 37.48C229.063 37 228.403 36.3267 227.923 35.46C227.456 34.5933 227.222 33.5933 227.222 32.46C227.222 31.3133 227.456 30.3067 227.923 29.44C228.389 28.5733 229.043 27.9067 229.883 27.44C230.723 26.9733 231.689 26.74 232.783 26.74C233.836 26.74 234.776 26.9667 235.603 27.42C236.443 27.8733 237.089 28.52 237.543 29.36C238.009 30.1867 238.243 31.14 238.243 32.22ZM235.343 31.42C235.329 30.7 235.069 30.1267 234.563 29.7C234.056 29.26 233.436 29.04 232.703 29.04C232.009 29.04 231.423 29.2533 230.943 29.68C230.476 30.0933 230.189 30.6733 230.083 31.42H235.343ZM239.566 32.42C239.566 31.3 239.786 30.3067 240.226 29.44C240.68 28.5733 241.293 27.9067 242.066 27.44C242.84 26.9733 243.7 26.74 244.646 26.74C245.366 26.74 246.053 26.9 246.706 27.22C247.36 27.5267 247.88 27.94 248.266 28.46V23.2H251.106V38H248.266V36.36C247.92 36.9067 247.433 37.3467 246.806 37.68C246.18 38.0133 245.453 38.18 244.626 38.18C243.693 38.18 242.84 37.94 242.066 37.46C241.293 36.98 240.68 36.3067 240.226 35.44C239.786 34.56 239.566 33.5533 239.566 32.42ZM248.286 32.46C248.286 31.78 248.153 31.2 247.886 30.72C247.62 30.2267 247.26 29.8533 246.806 29.6C246.353 29.3333 245.866 29.2 245.346 29.2C244.826 29.2 244.346 29.3267 243.906 29.58C243.466 29.8333 243.106 30.2067 242.826 30.7C242.56 31.18 242.426 31.7533 242.426 32.42C242.426 33.0867 242.56 33.6733 242.826 34.18C243.106 34.6733 243.466 35.0533 243.906 35.32C244.36 35.5867 244.84 35.72 245.346 35.72C245.866 35.72 246.353 35.5933 246.806 35.34C247.26 35.0733 247.62 34.7 247.886 34.22C248.153 33.7267 248.286 33.14 248.286 32.46Z" fill="#151223"/>
<path d="M180 170L258.125 91.875H265M180 170L288.75 155H296.25M180 170L241.25 261.25H248.75M180 170L101.875 248.125H93.75M180 170L96.25 98.125H88.75" stroke="#151223"/>
<path d="M40.8428 249.25L37.3988 245.434V249.25H36.3068V240.886H37.3988V244.762L40.8548 240.886H42.2348L38.4428 245.074L42.2708 249.25H40.8428ZM46.7544 242.554C47.2504 242.554 47.6984 242.662 48.0984 242.878C48.4984 243.086 48.8104 243.402 49.0344 243.826C49.2664 244.25 49.3824 244.766 49.3824 245.374V249.25H48.3024V245.53C48.3024 244.874 48.1384 244.374 47.8104 244.03C47.4824 243.678 47.0344 243.502 46.4664 243.502C45.8904 243.502 45.4304 243.682 45.0864 244.042C44.7504 244.402 44.5824 244.926 44.5824 245.614V249.25H43.4904V240.37H44.5824V243.61C44.7984 243.274 45.0944 243.014 45.4704 242.83C45.8544 242.646 46.2824 242.554 46.7544 242.554ZM54.0342 249.358C53.4182 249.358 52.8582 249.218 52.3542 248.938C51.8582 248.658 51.4662 248.262 51.1782 247.75C50.8982 247.23 50.7582 246.63 50.7582 245.95C50.7582 245.278 50.9022 244.686 51.1902 244.174C51.4862 243.654 51.8862 243.258 52.3902 242.986C52.8942 242.706 53.4582 242.566 54.0822 242.566C54.7062 242.566 55.2702 242.706 55.7742 242.986C56.2782 243.258 56.6742 243.65 56.9622 244.162C57.2582 244.674 57.4062 245.27 57.4062 245.95C57.4062 246.63 57.2542 247.23 56.9502 247.75C56.6542 248.262 56.2502 248.658 55.7382 248.938C55.2262 249.218 54.6582 249.358 54.0342 249.358ZM54.0342 248.398C54.4262 248.398 54.7942 248.306 55.1382 248.122C55.4822 247.938 55.7582 247.662 55.9662 247.294C56.1822 246.926 56.2902 246.478 56.2902 245.95C56.2902 245.422 56.1862 244.974 55.9782 244.606C55.7702 244.238 55.4982 243.966 55.1622 243.79C54.8262 243.606 54.4622 243.514 54.0702 243.514C53.6702 243.514 53.3022 243.606 52.9662 243.79C52.6382 243.966 52.3742 244.238 52.1742 244.606C51.9742 244.974 51.8742 245.422 51.8742 245.95C51.8742 246.486 51.9702 246.938 52.1622 247.306C52.3622 247.674 52.6262 247.95 52.9542 248.134C53.2822 248.31 53.6422 248.398 54.0342 248.398ZM59.934 243.742C60.126 243.366 60.398 243.074 60.75 242.866C61.11 242.658 61.546 242.554 62.058 242.554V243.682H61.77C60.546 243.682 59.934 244.346 59.934 245.674V249.25H58.842V242.674H59.934V243.742ZM62.9105 245.95C62.9105 245.27 63.0465 244.678 63.3185 244.174C63.5905 243.662 63.9665 243.266 64.4465 242.986C64.9345 242.706 65.4905 242.566 66.1145 242.566C66.9225 242.566 67.5865 242.762 68.1065 243.154C68.6345 243.546 68.9825 244.09 69.1505 244.786H67.9745C67.8625 244.386 67.6425 244.07 67.3145 243.838C66.9945 243.606 66.5945 243.49 66.1145 243.49C65.4905 243.49 64.9865 243.706 64.6025 244.138C64.2185 244.562 64.0265 245.166 64.0265 245.95C64.0265 246.742 64.2185 247.354 64.6025 247.786C64.9865 248.218 65.4905 248.434 66.1145 248.434C66.5945 248.434 66.9945 248.322 67.3145 248.098C67.6345 247.874 67.8545 247.554 67.9745 247.138H69.1505C68.9745 247.81 68.6225 248.35 68.0945 248.758C67.5665 249.158 66.9065 249.358 66.1145 249.358C65.4905 249.358 64.9345 249.218 64.4465 248.938C63.9665 248.658 63.5905 248.262 63.3185 247.75C63.0465 247.238 62.9105 246.638 62.9105 245.95ZM73.8716 242.554C74.3676 242.554 74.8156 242.662 75.2156 242.878C75.6156 243.086 75.9276 243.402 76.1516 243.826C76.3836 244.25 76.4996 244.766 76.4996 245.374V249.25H75.4196V245.53C75.4196 244.874 75.2556 244.374 74.9276 244.03C74.5996 243.678 74.1516 243.502 73.5836 243.502C73.0076 243.502 72.5476 243.682 72.2036 244.042C71.8676 244.402 71.6996 244.926 71.6996 245.614V249.25H70.6076V240.37H71.6996V243.61C71.9156 243.274 72.2116 243.014 72.5876 242.83C72.9716 242.646 73.3996 242.554 73.8716 242.554ZM84.2834 245.71C84.2834 245.918 84.2714 246.138 84.2474 246.37H78.9914C79.0314 247.018 79.2514 247.526 79.6514 247.894C80.0594 248.254 80.5514 248.434 81.1274 248.434C81.5994 248.434 81.9914 248.326 82.3034 248.11C82.6234 247.886 82.8474 247.59 82.9754 247.222H84.1514C83.9754 247.854 83.6234 248.37 83.0954 248.77C82.5674 249.162 81.9114 249.358 81.1274 249.358C80.5034 249.358 79.9434 249.218 79.4474 248.938C78.9594 248.658 78.5754 248.262 78.2954 247.75C78.0154 247.23 77.8754 246.63 77.8754 245.95C77.8754 245.27 78.0114 244.674 78.2834 244.162C78.5554 243.65 78.9354 243.258 79.4234 242.986C79.9194 242.706 80.4874 242.566 81.1274 242.566C81.7514 242.566 82.3034 242.702 82.7834 242.974C83.2634 243.246 83.6314 243.622 83.8874 244.102C84.1514 244.574 84.2834 245.11 84.2834 245.71ZM83.1554 245.482C83.1554 245.066 83.0634 244.71 82.8794 244.414C82.6954 244.11 82.4434 243.882 82.1234 243.73C81.8114 243.57 81.4634 243.49 81.0794 243.49C80.5274 243.49 80.0554 243.666 79.6634 244.018C79.2794 244.37 79.0594 244.858 79.0034 245.482H83.1554ZM88.4008 243.574H87.0208V249.25H85.9288V243.574H85.0768V242.674H85.9288V242.206C85.9288 241.47 86.1168 240.934 86.4928 240.598C86.8768 240.254 87.4888 240.082 88.3288 240.082V240.994C87.8488 240.994 87.5088 241.09 87.3088 241.282C87.1168 241.466 87.0208 241.774 87.0208 242.206V242.674H88.4008V243.574Z" fill="#151223"/>
<path d="M37.4027 93.334C37.4027 94.03 37.1627 94.61 36.6827 95.074C36.2107 95.53 35.4867 95.758 34.5107 95.758H32.9027V99.25H31.8107V90.886H34.5107C35.4547 90.886 36.1707 91.114 36.6587 91.57C37.1547 92.026 37.4027 92.614 37.4027 93.334ZM34.5107 94.858C35.1187 94.858 35.5667 94.726 35.8547 94.462C36.1427 94.198 36.2867 93.822 36.2867 93.334C36.2867 92.302 35.6947 91.786 34.5107 91.786H32.9027V94.858H34.5107ZM41.6279 99.358C41.0119 99.358 40.4519 99.218 39.9479 98.938C39.4519 98.658 39.0599 98.262 38.7719 97.75C38.4919 97.23 38.3519 96.63 38.3519 95.95C38.3519 95.278 38.4959 94.686 38.7839 94.174C39.0799 93.654 39.4799 93.258 39.9839 92.986C40.4879 92.706 41.0519 92.566 41.6759 92.566C42.2999 92.566 42.8639 92.706 43.3679 92.986C43.8719 93.258 44.2679 93.65 44.5559 94.162C44.8519 94.674 44.9999 95.27 44.9999 95.95C44.9999 96.63 44.8479 97.23 44.5439 97.75C44.2479 98.262 43.8439 98.658 43.3319 98.938C42.8199 99.218 42.2519 99.358 41.6279 99.358ZM41.6279 98.398C42.0199 98.398 42.3879 98.306 42.7319 98.122C43.0759 97.938 43.3519 97.662 43.5599 97.294C43.7759 96.926 43.8839 96.478 43.8839 95.95C43.8839 95.422 43.7799 94.974 43.5719 94.606C43.3639 94.238 43.0919 93.966 42.7559 93.79C42.4199 93.606 42.0559 93.514 41.6639 93.514C41.2639 93.514 40.8959 93.606 40.5599 93.79C40.2319 93.966 39.9679 94.238 39.7679 94.606C39.5679 94.974 39.4679 95.422 39.4679 95.95C39.4679 96.486 39.5639 96.938 39.7559 97.306C39.9559 97.674 40.2199 97.95 40.5479 98.134C40.8759 98.31 41.2359 98.398 41.6279 98.398ZM47.7677 93.574V97.45C47.7677 97.77 47.8357 97.998 47.9717 98.134C48.1077 98.262 48.3437 98.326 48.6797 98.326H49.4837V99.25H48.4997C47.8917 99.25 47.4357 99.11 47.1317 98.83C46.8277 98.55 46.6757 98.09 46.6757 97.45V93.574H45.8237V92.674H46.6757V91.018H47.7677V92.674H49.4837V93.574H47.7677ZM50.3988 95.938C50.3988 95.266 50.5348 94.678 50.8068 94.174C51.0788 93.662 51.4508 93.266 51.9228 92.986C52.4028 92.706 52.9348 92.566 53.5188 92.566C54.0948 92.566 54.5948 92.69 55.0188 92.938C55.4428 93.186 55.7588 93.498 55.9668 93.874V92.674H57.0708V99.25H55.9668V98.026C55.7508 98.41 55.4268 98.73 54.9948 98.986C54.5708 99.234 54.0748 99.358 53.5068 99.358C52.9228 99.358 52.3948 99.214 51.9228 98.926C51.4508 98.638 51.0788 98.234 50.8068 97.714C50.5348 97.194 50.3988 96.602 50.3988 95.938ZM55.9668 95.95C55.9668 95.454 55.8668 95.022 55.6668 94.654C55.4668 94.286 55.1948 94.006 54.8508 93.814C54.5148 93.614 54.1428 93.514 53.7348 93.514C53.3268 93.514 52.9548 93.61 52.6188 93.802C52.2828 93.994 52.0148 94.274 51.8148 94.642C51.6148 95.01 51.5148 95.442 51.5148 95.938C51.5148 96.442 51.6148 96.882 51.8148 97.258C52.0148 97.626 52.2828 97.91 52.6188 98.11C52.9548 98.302 53.3268 98.398 53.7348 98.398C54.1428 98.398 54.5148 98.302 54.8508 98.11C55.1948 97.91 55.4668 97.626 55.6668 97.258C55.8668 96.882 55.9668 96.446 55.9668 95.95ZM60.2482 93.574V97.45C60.2482 97.77 60.3162 97.998 60.4522 98.134C60.5882 98.262 60.8242 98.326 61.1602 98.326H61.9642V99.25H60.9802C60.3722 99.25 59.9162 99.11 59.6122 98.83C59.3082 98.55 59.1562 98.09 59.1562 97.45V93.574H58.3042V92.674H59.1562V91.018H60.2482V92.674H61.9642V93.574H60.2482ZM66.1553 99.358C65.5393 99.358 64.9793 99.218 64.4753 98.938C63.9793 98.658 63.5873 98.262 63.2993 97.75C63.0193 97.23 62.8793 96.63 62.8793 95.95C62.8793 95.278 63.0233 94.686 63.3113 94.174C63.6073 93.654 64.0073 93.258 64.5113 92.986C65.0153 92.706 65.5793 92.566 66.2033 92.566C66.8273 92.566 67.3913 92.706 67.8953 92.986C68.3993 93.258 68.7953 93.65 69.0833 94.162C69.3793 94.674 69.5273 95.27 69.5273 95.95C69.5273 96.63 69.3753 97.23 69.0713 97.75C68.7753 98.262 68.3713 98.658 67.8593 98.938C67.3473 99.218 66.7793 99.358 66.1553 99.358ZM66.1553 98.398C66.5473 98.398 66.9153 98.306 67.2593 98.122C67.6033 97.938 67.8793 97.662 68.0873 97.294C68.3033 96.926 68.4113 96.478 68.4113 95.95C68.4113 95.422 68.3073 94.974 68.0993 94.606C67.8913 94.238 67.6193 93.966 67.2833 93.79C66.9473 93.606 66.5833 93.514 66.1913 93.514C65.7913 93.514 65.4233 93.606 65.0873 93.79C64.7593 93.966 64.4953 94.238 64.2953 94.606C64.0953 94.974 63.9953 95.422 63.9953 95.95C63.9953 96.486 64.0913 96.938 64.2833 97.306C64.4833 97.674 64.7473 97.95 65.0753 98.134C65.4033 98.31 65.7633 98.398 66.1553 98.398ZM76.9631 95.71C76.9631 95.918 76.9511 96.138 76.9271 96.37H71.6711C71.7111 97.018 71.9311 97.526 72.3311 97.894C72.7391 98.254 73.2311 98.434 73.8071 98.434C74.2791 98.434 74.6711 98.326 74.9831 98.11C75.3031 97.886 75.5271 97.59 75.6551 97.222H76.8311C76.6551 97.854 76.3031 98.37 75.7751 98.77C75.2471 99.162 74.5911 99.358 73.8071 99.358C73.1831 99.358 72.6231 99.218 72.1271 98.938C71.6391 98.658 71.2551 98.262 70.9751 97.75C70.6951 97.23 70.5551 96.63 70.5551 95.95C70.5551 95.27 70.6911 94.674 70.9631 94.162C71.2351 93.65 71.6151 93.258 72.1031 92.986C72.5991 92.706 73.1671 92.566 73.8071 92.566C74.4311 92.566 74.9831 92.702 75.4631 92.974C75.9431 93.246 76.3111 93.622 76.5671 94.102C76.8311 94.574 76.9631 95.11 76.9631 95.71ZM75.8351 95.482C75.8351 95.066 75.7431 94.71 75.5591 94.414C75.3751 94.11 75.1231 93.882 74.8031 93.73C74.4911 93.57 74.1431 93.49 73.7591 93.49C73.2071 93.49 72.7351 93.666 72.3431 94.018C71.9591 94.37 71.7391 94.858 71.6831 95.482H75.8351ZM80.7325 99.358C80.2285 99.358 79.7765 99.274 79.3765 99.106C78.9765 98.93 78.6605 98.69 78.4285 98.386C78.1965 98.074 78.0685 97.718 78.0445 97.318H79.1725C79.2045 97.646 79.3565 97.914 79.6285 98.122C79.9085 98.33 80.2725 98.434 80.7205 98.434C81.1365 98.434 81.4645 98.342 81.7045 98.158C81.9445 97.974 82.0645 97.742 82.0645 97.462C82.0645 97.174 81.9365 96.962 81.6805 96.826C81.4245 96.682 81.0285 96.542 80.4925 96.406C80.0045 96.278 79.6045 96.15 79.2925 96.022C78.9885 95.886 78.7245 95.69 78.5005 95.434C78.2845 95.17 78.1765 94.826 78.1765 94.402C78.1765 94.066 78.2765 93.758 78.4765 93.478C78.6765 93.198 78.9605 92.978 79.3285 92.818C79.6965 92.65 80.1165 92.566 80.5885 92.566C81.3165 92.566 81.9045 92.75 82.3525 93.118C82.8005 93.486 83.0405 93.99 83.0725 94.63H81.9805C81.9565 94.286 81.8165 94.01 81.5605 93.802C81.3125 93.594 80.9765 93.49 80.5525 93.49C80.1605 93.49 79.8485 93.574 79.6165 93.742C79.3845 93.91 79.2685 94.13 79.2685 94.402C79.2685 94.618 79.3365 94.798 79.4725 94.942C79.6165 95.078 79.7925 95.19 80.0005 95.278C80.2165 95.358 80.5125 95.45 80.8885 95.554C81.3605 95.682 81.7445 95.81 82.0405 95.938C82.3365 96.058 82.5885 96.242 82.7965 96.49C83.0125 96.738 83.1245 97.062 83.1325 97.462C83.1325 97.822 83.0325 98.146 82.8325 98.434C82.6325 98.722 82.3485 98.95 81.9805 99.118C81.6205 99.278 81.2045 99.358 80.7325 99.358Z" fill="#151223"/>
<path d="M301.766 152.562C301.766 151.746 301.95 151.014 302.318 150.366C302.686 149.71 303.186 149.198 303.818 148.83C304.458 148.462 305.166 148.278 305.942 148.278C306.854 148.278 307.65 148.498 308.33 148.938C309.01 149.378 309.506 150.002 309.818 150.81H308.51C308.278 150.306 307.942 149.918 307.502 149.646C307.07 149.374 306.55 149.238 305.942 149.238C305.358 149.238 304.834 149.374 304.37 149.646C303.906 149.918 303.542 150.306 303.278 150.81C303.014 151.306 302.882 151.89 302.882 152.562C302.882 153.226 303.014 153.81 303.278 154.314C303.542 154.81 303.906 155.194 304.37 155.466C304.834 155.738 305.358 155.874 305.942 155.874C306.55 155.874 307.07 155.742 307.502 155.478C307.942 155.206 308.278 154.818 308.51 154.314H309.818C309.506 155.114 309.01 155.734 308.33 156.174C307.65 156.606 306.854 156.822 305.942 156.822C305.166 156.822 304.458 156.642 303.818 156.282C303.186 155.914 302.686 155.406 302.318 154.758C301.95 154.11 301.766 153.378 301.766 152.562ZM311.036 153.438C311.036 152.766 311.172 152.178 311.444 151.674C311.716 151.162 312.088 150.766 312.56 150.486C313.04 150.206 313.572 150.066 314.156 150.066C314.732 150.066 315.232 150.19 315.656 150.438C316.08 150.686 316.396 150.998 316.604 151.374V150.174H317.708V156.75H316.604V155.526C316.388 155.91 316.064 156.23 315.632 156.486C315.208 156.734 314.712 156.858 314.144 156.858C313.56 156.858 313.032 156.714 312.56 156.426C312.088 156.138 311.716 155.734 311.444 155.214C311.172 154.694 311.036 154.102 311.036 153.438ZM316.604 153.45C316.604 152.954 316.504 152.522 316.304 152.154C316.104 151.786 315.832 151.506 315.488 151.314C315.152 151.114 314.78 151.014 314.372 151.014C313.964 151.014 313.592 151.11 313.256 151.302C312.92 151.494 312.652 151.774 312.452 152.142C312.252 152.51 312.152 152.942 312.152 153.438C312.152 153.942 312.252 154.382 312.452 154.758C312.652 155.126 312.92 155.41 313.256 155.61C313.592 155.802 313.964 155.898 314.372 155.898C314.78 155.898 315.152 155.802 315.488 155.61C315.832 155.41 316.104 155.126 316.304 154.758C316.504 154.382 316.604 153.946 316.604 153.45ZM320.645 151.242C320.837 150.866 321.109 150.574 321.461 150.366C321.821 150.158 322.257 150.054 322.769 150.054V151.182H322.481C321.257 151.182 320.645 151.846 320.645 153.174V156.75H319.553V150.174H320.645V151.242ZM325.121 151.242C325.313 150.866 325.585 150.574 325.937 150.366C326.297 150.158 326.733 150.054 327.245 150.054V151.182H326.957C325.733 151.182 325.121 151.846 325.121 153.174V156.75H324.029V150.174H325.121V151.242ZM331.374 156.858C330.758 156.858 330.198 156.718 329.694 156.438C329.198 156.158 328.806 155.762 328.518 155.25C328.238 154.73 328.098 154.13 328.098 153.45C328.098 152.778 328.242 152.186 328.53 151.674C328.826 151.154 329.226 150.758 329.73 150.486C330.234 150.206 330.798 150.066 331.422 150.066C332.046 150.066 332.61 150.206 333.114 150.486C333.618 150.758 334.014 151.15 334.302 151.662C334.598 152.174 334.746 152.77 334.746 153.45C334.746 154.13 334.594 154.73 334.29 155.25C333.994 155.762 333.59 156.158 333.078 156.438C332.566 156.718 331.998 156.858 331.374 156.858ZM331.374 155.898C331.766 155.898 332.134 155.806 332.478 155.622C332.822 155.438 333.098 155.162 333.306 154.794C333.522 154.426 333.63 153.978 333.63 153.45C333.63 152.922 333.526 152.474 333.318 152.106C333.11 151.738 332.838 151.466 332.502 151.29C332.166 151.106 331.802 151.014 331.41 151.014C331.01 151.014 330.642 151.106 330.306 151.29C329.978 151.466 329.714 151.738 329.514 152.106C329.314 152.474 329.214 152.922 329.214 153.45C329.214 153.986 329.31 154.438 329.502 154.806C329.702 155.174 329.966 155.45 330.294 155.634C330.622 155.81 330.982 155.898 331.374 155.898ZM337.514 151.074V154.95C337.514 155.27 337.582 155.498 337.718 155.634C337.854 155.762 338.09 155.826 338.426 155.826H339.23V156.75H338.246C337.638 156.75 337.182 156.61 336.878 156.33C336.574 156.05 336.422 155.59 336.422 154.95V151.074H335.57V150.174H336.422V148.518H337.514V150.174H339.23V151.074H337.514ZM342.881 156.858C342.377 156.858 341.925 156.774 341.525 156.606C341.125 156.43 340.809 156.19 340.577 155.886C340.345 155.574 340.217 155.218 340.193 154.818H341.321C341.353 155.146 341.505 155.414 341.777 155.622C342.057 155.83 342.421 155.934 342.869 155.934C343.285 155.934 343.613 155.842 343.853 155.658C344.093 155.474 344.213 155.242 344.213 154.962C344.213 154.674 344.085 154.462 343.829 154.326C343.573 154.182 343.177 154.042 342.641 153.906C342.153 153.778 341.753 153.65 341.441 153.522C341.137 153.386 340.873 153.19 340.649 152.934C340.433 152.67 340.325 152.326 340.325 151.902C340.325 151.566 340.425 151.258 340.625 150.978C340.825 150.698 341.109 150.478 341.477 150.318C341.845 150.15 342.265 150.066 342.737 150.066C343.465 150.066 344.053 150.25 344.501 150.618C344.949 150.986 345.189 151.49 345.221 152.13H344.129C344.105 151.786 343.965 151.51 343.709 151.302C343.461 151.094 343.125 150.99 342.701 150.99C342.309 150.99 341.997 151.074 341.765 151.242C341.533 151.41 341.417 151.63 341.417 151.902C341.417 152.118 341.485 152.298 341.621 152.442C341.765 152.578 341.941 152.69 342.149 152.778C342.365 152.858 342.661 152.95 343.037 153.054C343.509 153.182 343.893 153.31 344.189 153.438C344.485 153.558 344.737 153.742 344.945 153.99C345.161 154.238 345.273 154.562 345.281 154.962C345.281 155.322 345.181 155.646 344.981 155.934C344.781 156.222 344.497 156.45 344.129 156.618C343.769 156.778 343.353 156.858 342.881 156.858Z" fill="#151223"/>
<path d="M259.822 254.636V255.524H257.542V263H256.45V255.524H254.158V254.636H259.822ZM264.034 263.108C263.418 263.108 262.858 262.968 262.354 262.688C261.858 262.408 261.466 262.012 261.178 261.5C260.898 260.98 260.758 260.38 260.758 259.7C260.758 259.028 260.902 258.436 261.19 257.924C261.486 257.404 261.886 257.008 262.39 256.736C262.894 256.456 263.458 256.316 264.082 256.316C264.706 256.316 265.27 256.456 265.774 256.736C266.278 257.008 266.674 257.4 266.962 257.912C267.258 258.424 267.406 259.02 267.406 259.7C267.406 260.38 267.254 260.98 266.95 261.5C266.654 262.012 266.25 262.408 265.738 262.688C265.226 262.968 264.658 263.108 264.034 263.108ZM264.034 262.148C264.426 262.148 264.794 262.056 265.138 261.872C265.482 261.688 265.758 261.412 265.966 261.044C266.182 260.676 266.29 260.228 266.29 259.7C266.29 259.172 266.186 258.724 265.978 258.356C265.77 257.988 265.498 257.716 265.162 257.54C264.826 257.356 264.462 257.264 264.07 257.264C263.67 257.264 263.302 257.356 262.966 257.54C262.638 257.716 262.374 257.988 262.174 258.356C261.974 258.724 261.874 259.172 261.874 259.7C261.874 260.236 261.97 260.688 262.162 261.056C262.362 261.424 262.626 261.7 262.954 261.884C263.282 262.06 263.642 262.148 264.034 262.148ZM276.75 256.304C277.262 256.304 277.718 256.412 278.118 256.628C278.518 256.836 278.834 257.152 279.066 257.576C279.298 258 279.414 258.516 279.414 259.124V263H278.334V259.28C278.334 258.624 278.17 258.124 277.842 257.78C277.522 257.428 277.086 257.252 276.534 257.252C275.966 257.252 275.514 257.436 275.178 257.804C274.842 258.164 274.674 258.688 274.674 259.376V263H273.594V259.28C273.594 258.624 273.43 258.124 273.102 257.78C272.782 257.428 272.346 257.252 271.794 257.252C271.226 257.252 270.774 257.436 270.438 257.804C270.102 258.164 269.934 258.688 269.934 259.376V263H268.842V256.424H269.934V257.372C270.15 257.028 270.438 256.764 270.798 256.58C271.166 256.396 271.57 256.304 272.01 256.304C272.562 256.304 273.05 256.428 273.474 256.676C273.898 256.924 274.214 257.288 274.422 257.768C274.606 257.304 274.91 256.944 275.334 256.688C275.758 256.432 276.23 256.304 276.75 256.304ZM280.797 259.688C280.797 259.016 280.933 258.428 281.205 257.924C281.477 257.412 281.849 257.016 282.321 256.736C282.801 256.456 283.333 256.316 283.917 256.316C284.493 256.316 284.993 256.44 285.417 256.688C285.841 256.936 286.157 257.248 286.365 257.624V256.424H287.469V263H286.365V261.776C286.149 262.16 285.825 262.48 285.393 262.736C284.969 262.984 284.473 263.108 283.905 263.108C283.321 263.108 282.793 262.964 282.321 262.676C281.849 262.388 281.477 261.984 281.205 261.464C280.933 260.944 280.797 260.352 280.797 259.688ZM286.365 259.7C286.365 259.204 286.265 258.772 286.065 258.404C285.865 258.036 285.593 257.756 285.249 257.564C284.913 257.364 284.541 257.264 284.133 257.264C283.725 257.264 283.353 257.36 283.017 257.552C282.681 257.744 282.413 258.024 282.213 258.392C282.013 258.76 281.913 259.192 281.913 259.688C281.913 260.192 282.013 260.632 282.213 261.008C282.413 261.376 282.681 261.66 283.017 261.86C283.353 262.052 283.725 262.148 284.133 262.148C284.541 262.148 284.913 262.052 285.249 261.86C285.593 261.66 285.865 261.376 286.065 261.008C286.265 260.632 286.365 260.196 286.365 259.7ZM290.647 257.324V261.2C290.647 261.52 290.715 261.748 290.851 261.884C290.987 262.012 291.223 262.076 291.559 262.076H292.363V263H291.379C290.771 263 290.315 262.86 290.011 262.58C289.707 262.3 289.555 261.84 289.555 261.2V257.324H288.703V256.424H289.555V254.768H290.647V256.424H292.363V257.324H290.647ZM296.554 263.108C295.938 263.108 295.378 262.968 294.874 262.688C294.378 262.408 293.986 262.012 293.698 261.5C293.418 260.98 293.278 260.38 293.278 259.7C293.278 259.028 293.422 258.436 293.71 257.924C294.006 257.404 294.406 257.008 294.91 256.736C295.414 256.456 295.978 256.316 296.602 256.316C297.226 256.316 297.79 256.456 298.294 256.736C298.798 257.008 299.194 257.4 299.482 257.912C299.778 258.424 299.926 259.02 299.926 259.7C299.926 260.38 299.774 260.98 299.47 261.5C299.174 262.012 298.77 262.408 298.258 262.688C297.746 262.968 297.178 263.108 296.554 263.108ZM296.554 262.148C296.946 262.148 297.314 262.056 297.658 261.872C298.002 261.688 298.278 261.412 298.486 261.044C298.702 260.676 298.81 260.228 298.81 259.7C298.81 259.172 298.706 258.724 298.498 258.356C298.29 257.988 298.018 257.716 297.682 257.54C297.346 257.356 296.982 257.264 296.59 257.264C296.19 257.264 295.822 257.356 295.486 257.54C295.158 257.716 294.894 257.988 294.694 258.356C294.494 258.724 294.394 259.172 294.394 259.7C294.394 260.236 294.49 260.688 294.682 261.056C294.882 261.424 295.146 261.7 295.474 261.884C295.802 262.06 296.162 262.148 296.554 262.148ZM307.362 259.46C307.362 259.668 307.35 259.888 307.326 260.12H302.07C302.11 260.768 302.33 261.276 302.73 261.644C303.138 262.004 303.63 262.184 304.206 262.184C304.678 262.184 305.07 262.076 305.382 261.86C305.702 261.636 305.926 261.34 306.054 260.972H307.23C307.054 261.604 306.702 262.12 306.174 262.52C305.646 262.912 304.99 263.108 304.206 263.108C303.582 263.108 303.022 262.968 302.526 262.688C302.038 262.408 301.654 262.012 301.374 261.5C301.094 260.98 300.954 260.38 300.954 259.7C300.954 259.02 301.09 258.424 301.362 257.912C301.634 257.4 302.014 257.008 302.502 256.736C302.998 256.456 303.566 256.316 304.206 256.316C304.83 256.316 305.382 256.452 305.862 256.724C306.342 256.996 306.71 257.372 306.966 257.852C307.23 258.324 307.362 258.86 307.362 259.46ZM306.234 259.232C306.234 258.816 306.142 258.46 305.958 258.164C305.774 257.86 305.522 257.632 305.202 257.48C304.89 257.32 304.542 257.24 304.158 257.24C303.606 257.24 303.134 257.416 302.742 257.768C302.358 258.12 302.138 258.608 302.082 259.232H306.234ZM311.131 263.108C310.627 263.108 310.175 263.024 309.775 262.856C309.375 262.68 309.059 262.44 308.827 262.136C308.595 261.824 308.467 261.468 308.443 261.068H309.571C309.603 261.396 309.755 261.664 310.027 261.872C310.307 262.08 310.671 262.184 311.119 262.184C311.535 262.184 311.863 262.092 312.103 261.908C312.343 261.724 312.463 261.492 312.463 261.212C312.463 260.924 312.335 260.712 312.079 260.576C311.823 260.432 311.427 260.292 310.891 260.156C310.403 260.028 310.003 259.9 309.691 259.772C309.387 259.636 309.123 259.44 308.899 259.184C308.683 258.92 308.575 258.576 308.575 258.152C308.575 257.816 308.675 257.508 308.875 257.228C309.075 256.948 309.359 256.728 309.727 256.568C310.095 256.4 310.515 256.316 310.987 256.316C311.715 256.316 312.303 256.5 312.751 256.868C313.199 257.236 313.439 257.74 313.471 258.38H312.379C312.355 258.036 312.215 257.76 311.959 257.552C311.711 257.344 311.375 257.24 310.951 257.24C310.559 257.24 310.247 257.324 310.015 257.492C309.783 257.66 309.667 257.88 309.667 258.152C309.667 258.368 309.735 258.548 309.871 258.692C310.015 258.828 310.191 258.94 310.399 259.028C310.615 259.108 310.911 259.2 311.287 259.304C311.759 259.432 312.143 259.56 312.439 259.688C312.735 259.808 312.987 259.992 313.195 260.24C313.411 260.488 313.523 260.812 313.531 261.212C313.531 261.572 313.431 261.896 313.231 262.184C313.031 262.472 312.747 262.7 312.379 262.868C312.019 263.028 311.603 263.108 311.131 263.108Z" fill="#151223"/>
<path d="M274.716 91.834C273.94 91.834 273.232 91.654 272.592 91.294C271.952 90.926 271.444 90.418 271.068 89.77C270.7 89.114 270.516 88.378 270.516 87.562C270.516 86.746 270.7 86.014 271.068 85.366C271.444 84.71 271.952 84.202 272.592 83.842C273.232 83.474 273.94 83.29 274.716 83.29C275.5 83.29 276.212 83.474 276.852 83.842C277.492 84.202 277.996 84.706 278.364 85.354C278.732 86.002 278.916 86.738 278.916 87.562C278.916 88.386 278.732 89.122 278.364 89.77C277.996 90.418 277.492 90.926 276.852 91.294C276.212 91.654 275.5 91.834 274.716 91.834ZM274.716 90.886C275.3 90.886 275.824 90.75 276.288 90.478C276.76 90.206 277.128 89.818 277.392 89.314C277.664 88.81 277.8 88.226 277.8 87.562C277.8 86.89 277.664 86.306 277.392 85.81C277.128 85.306 276.764 84.918 276.3 84.646C275.836 84.374 275.308 84.238 274.716 84.238C274.124 84.238 273.596 84.374 273.132 84.646C272.668 84.918 272.3 85.306 272.028 85.81C271.764 86.306 271.632 86.89 271.632 87.562C271.632 88.226 271.764 88.81 272.028 89.314C272.3 89.818 272.668 90.206 273.132 90.478C273.604 90.75 274.132 90.886 274.716 90.886ZM283.562 85.054C284.362 85.054 285.01 85.298 285.506 85.786C286.002 86.266 286.25 86.962 286.25 87.874V91.75H285.17V88.03C285.17 87.374 285.006 86.874 284.678 86.53C284.35 86.178 283.902 86.002 283.334 86.002C282.758 86.002 282.298 86.182 281.954 86.542C281.618 86.902 281.45 87.426 281.45 88.114V91.75H280.358V85.174H281.45V86.11C281.666 85.774 281.958 85.514 282.326 85.33C282.702 85.146 283.114 85.054 283.562 85.054ZM288.597 84.106C288.389 84.106 288.213 84.034 288.069 83.89C287.925 83.746 287.853 83.57 287.853 83.362C287.853 83.154 287.925 82.978 288.069 82.834C288.213 82.69 288.389 82.618 288.597 82.618C288.797 82.618 288.965 82.69 289.101 82.834C289.245 82.978 289.317 83.154 289.317 83.362C289.317 83.57 289.245 83.746 289.101 83.89C288.965 84.034 288.797 84.106 288.597 84.106ZM289.125 85.174V91.75H288.033V85.174H289.125ZM293.855 91.858C293.239 91.858 292.679 91.718 292.175 91.438C291.679 91.158 291.287 90.762 290.999 90.25C290.719 89.73 290.579 89.13 290.579 88.45C290.579 87.778 290.723 87.186 291.011 86.674C291.307 86.154 291.707 85.758 292.211 85.486C292.715 85.206 293.279 85.066 293.903 85.066C294.527 85.066 295.091 85.206 295.595 85.486C296.099 85.758 296.495 86.15 296.783 86.662C297.079 87.174 297.227 87.77 297.227 88.45C297.227 89.13 297.075 89.73 296.771 90.25C296.475 90.762 296.071 91.158 295.559 91.438C295.047 91.718 294.479 91.858 293.855 91.858ZM293.855 90.898C294.247 90.898 294.615 90.806 294.959 90.622C295.303 90.438 295.579 90.162 295.787 89.794C296.003 89.426 296.111 88.978 296.111 88.45C296.111 87.922 296.007 87.474 295.799 87.106C295.591 86.738 295.319 86.466 294.983 86.29C294.647 86.106 294.283 86.014 293.891 86.014C293.491 86.014 293.123 86.106 292.787 86.29C292.459 86.466 292.195 86.738 291.995 87.106C291.795 87.474 291.695 87.922 291.695 88.45C291.695 88.986 291.791 89.438 291.983 89.806C292.183 90.174 292.447 90.45 292.775 90.634C293.103 90.81 293.463 90.898 293.855 90.898ZM301.866 85.054C302.666 85.054 303.314 85.298 303.81 85.786C304.306 86.266 304.554 86.962 304.554 87.874V91.75H303.474V88.03C303.474 87.374 303.31 86.874 302.982 86.53C302.654 86.178 302.206 86.002 301.638 86.002C301.062 86.002 300.602 86.182 300.258 86.542C299.922 86.902 299.754 87.426 299.754 88.114V91.75H298.662V85.174H299.754V86.11C299.97 85.774 300.262 85.514 300.63 85.33C301.006 85.146 301.418 85.054 301.866 85.054ZM308.666 91.858C308.162 91.858 307.71 91.774 307.31 91.606C306.91 91.43 306.594 91.19 306.362 90.886C306.13 90.574 306.002 90.218 305.978 89.818H307.106C307.138 90.146 307.29 90.414 307.562 90.622C307.842 90.83 308.206 90.934 308.654 90.934C309.07 90.934 309.398 90.842 309.638 90.658C309.878 90.474 309.998 90.242 309.998 89.962C309.998 89.674 309.87 89.462 309.614 89.326C309.358 89.182 308.962 89.042 308.426 88.906C307.938 88.778 307.538 88.65 307.226 88.522C306.922 88.386 306.658 88.19 306.434 87.934C306.218 87.67 306.11 87.326 306.11 86.902C306.11 86.566 306.21 86.258 306.41 85.978C306.61 85.698 306.894 85.478 307.262 85.318C307.63 85.15 308.05 85.066 308.522 85.066C309.25 85.066 309.838 85.25 310.286 85.618C310.734 85.986 310.974 86.49 311.006 87.13H309.914C309.89 86.786 309.75 86.51 309.494 86.302C309.246 86.094 308.91 85.99 308.486 85.99C308.094 85.99 307.782 86.074 307.55 86.242C307.318 86.41 307.202 86.63 307.202 86.902C307.202 87.118 307.27 87.298 307.406 87.442C307.55 87.578 307.726 87.69 307.934 87.778C308.15 87.858 308.446 87.95 308.822 88.054C309.294 88.182 309.678 88.31 309.974 88.438C310.27 88.558 310.522 88.742 310.73 88.99C310.946 89.238 311.058 89.562 311.066 89.962C311.066 90.322 310.966 90.646 310.766 90.934C310.566 91.222 310.282 91.45 309.914 91.618C309.554 91.778 309.138 91.858 308.666 91.858Z" fill="#151223"/>
<mask id="path-9-inside-1_77_3155" fill="white">
<path d="M280 170C280 187.554 275.379 204.798 266.603 220C257.826 235.202 245.202 247.826 230 256.603C214.798 265.379 197.554 270 180 270C162.446 270 145.202 265.379 130 256.603L180 170H280Z"/>
</mask>
<path d="M280 170C280 187.554 275.379 204.798 266.603 220C257.826 235.202 245.202 247.826 230 256.603C214.798 265.379 197.554 270 180 270C162.446 270 145.202 265.379 130 256.603L180 170H280Z" fill="#1ED6FF" stroke="black" stroke-width="0.4" mask="url(#path-9-inside-1_77_3155)"/>
<mask id="path-10-inside-2_77_3155" fill="white">
<path d="M130 256.603C114.798 247.826 102.174 235.202 93.3975 220L180 170L130 256.603Z"/>
</mask>
<path d="M130 256.603C114.798 247.826 102.174 235.202 93.3975 220L180 170L130 256.603Z" fill="#ADE1FF" stroke="black" stroke-width="0.4" mask="url(#path-10-inside-2_77_3155)"/>
<mask id="path-11-inside-3_77_3155" fill="white">
<path d="M93.3975 220C83.5084 202.872 78.9206 183.195 80.2141 163.46C81.5077 143.724 88.6245 124.815 100.665 109.124C112.705 93.4328 129.128 81.6645 147.856 75.307C166.585 68.9495 186.778 68.2885 205.882 73.4074L180 170L93.3975 220Z"/>
</mask>
<path d="M93.3975 220C83.5084 202.872 78.9206 183.195 80.2141 163.46C81.5077 143.724 88.6245 124.815 100.665 109.124C112.705 93.4328 129.128 81.6645 147.856 75.307C166.585 68.9495 186.778 68.2885 205.882 73.4074L180 170L93.3975 220Z" fill="#3DFFDC" stroke="black" stroke-width="0.4" mask="url(#path-11-inside-3_77_3155)"/>
<mask id="path-12-inside-4_77_3155" fill="white">
<path d="M205.882 73.4074C222.837 77.9506 238.298 86.877 250.711 99.2893C263.123 111.702 272.049 127.163 276.593 144.118L180 170L205.882 73.4074Z"/>
</mask>
<path d="M205.882 73.4074C222.837 77.9506 238.298 86.877 250.711 99.2893C263.123 111.702 272.049 127.163 276.593 144.118L180 170L205.882 73.4074Z" fill="#5A3FFF" stroke="black" stroke-width="0.4" mask="url(#path-12-inside-4_77_3155)"/>
<mask id="path-13-inside-5_77_3155" fill="white">
<path d="M276.593 144.118C278.854 152.559 280 161.261 280 170L180 170L276.593 144.118Z"/>
</mask>
<path d="M276.593 144.118C278.854 152.559 280 161.261 280 170L180 170L276.593 144.118Z" fill="#268AFF" stroke="black" stroke-width="0.4" mask="url(#path-13-inside-5_77_3155)"/>
</svg>
