<svg width="421" height="112" viewBox="0 0 421 112" fill="none" xmlns="http://www.w3.org/2000/svg">
<rect width="129.667" height="112" rx="16" fill="#FFFBFE"/>
<rect width="129.667" height="112" rx="16" fill="#2367FF" fill-opacity="0.05"/>
<path d="M50.0293 40.032C50.0293 36.3413 50.6906 33.4507 52.0133 31.36C53.3573 29.2693 55.5759 28.224 58.6693 28.224C61.7626 28.224 63.9706 29.2693 65.2933 31.36C66.6373 33.4507 67.3093 36.3413 67.3093 40.032C67.3093 43.744 66.6373 46.656 65.2933 48.768C63.9706 50.88 61.7626 51.936 58.6693 51.936C55.5759 51.936 53.3573 50.88 52.0133 48.768C50.6906 46.656 50.0293 43.744 50.0293 40.032ZM62.8933 40.032C62.8933 38.4533 62.7866 37.1307 62.5733 36.064C62.3813 34.976 61.9759 34.0907 61.3573 33.408C60.7599 32.7253 59.8639 32.384 58.6693 32.384C57.4746 32.384 56.5679 32.7253 55.9493 33.408C55.3519 34.0907 54.9466 34.976 54.7333 36.064C54.5413 37.1307 54.4453 38.4533 54.4453 40.032C54.4453 41.6533 54.5413 43.0187 54.7333 44.128C54.9253 45.216 55.3306 46.1013 55.9493 46.784C56.5679 47.4453 57.4746 47.776 58.6693 47.776C59.8639 47.776 60.7706 47.4453 61.3893 46.784C62.0079 46.1013 62.4133 45.216 62.6053 44.128C62.7973 43.0187 62.8933 41.6533 62.8933 40.032ZM70.1728 32.8V28.672H77.8848V52H73.2768V32.8H70.1728Z" fill="#262626"/>
<path d="M50.0293 40.032C50.0293 36.3413 50.6906 33.4507 52.0133 31.36C53.3573 29.2693 55.5759 28.224 58.6693 28.224C61.7626 28.224 63.9706 29.2693 65.2933 31.36C66.6373 33.4507 67.3093 36.3413 67.3093 40.032C67.3093 43.744 66.6373 46.656 65.2933 48.768C63.9706 50.88 61.7626 51.936 58.6693 51.936C55.5759 51.936 53.3573 50.88 52.0133 48.768C50.6906 46.656 50.0293 43.744 50.0293 40.032ZM62.8933 40.032C62.8933 38.4533 62.7866 37.1307 62.5733 36.064C62.3813 34.976 61.9759 34.0907 61.3573 33.408C60.7599 32.7253 59.8639 32.384 58.6693 32.384C57.4746 32.384 56.5679 32.7253 55.9493 33.408C55.3519 34.0907 54.9466 34.976 54.7333 36.064C54.5413 37.1307 54.4453 38.4533 54.4453 40.032C54.4453 41.6533 54.5413 43.0187 54.7333 44.128C54.9253 45.216 55.3306 46.1013 55.9493 46.784C56.5679 47.4453 57.4746 47.776 58.6693 47.776C59.8639 47.776 60.7706 47.4453 61.3893 46.784C62.0079 46.1013 62.4133 45.216 62.6053 44.128C62.7973 43.0187 62.8933 41.6533 62.8933 40.032ZM70.1728 32.8V28.672H77.8848V52H73.2768V32.8H70.1728Z" fill="#2367FF" fill-opacity="0.09"/>
<path d="M45.3733 73.1C46.8533 73.1 48.1466 73.3867 49.2533 73.96C50.3733 74.52 51.2333 75.3333 51.8333 76.4C52.4466 77.4533 52.7533 78.6867 52.7533 80.1C52.7533 81.5133 52.4466 82.74 51.8333 83.78C51.2333 84.82 50.3733 85.62 49.2533 86.18C48.1466 86.7267 46.8533 87 45.3733 87H40.8333V73.1H45.3733ZM45.3733 85.14C46.9999 85.14 48.2466 84.7 49.1133 83.82C49.9799 82.94 50.4133 81.7 50.4133 80.1C50.4133 78.4867 49.9799 77.2267 49.1133 76.32C48.2466 75.4133 46.9999 74.96 45.3733 74.96H43.1133V85.14H45.3733ZM54.2529 81.44C54.2529 80.3333 54.4796 79.3533 54.9329 78.5C55.3996 77.6467 56.0263 76.9867 56.8129 76.52C57.6129 76.04 58.4929 75.8 59.4529 75.8C60.3196 75.8 61.0729 75.9733 61.7129 76.32C62.3663 76.6533 62.8863 77.0733 63.2729 77.58V75.98H65.5729V87H63.2729V85.36C62.8863 85.88 62.3596 86.3133 61.6929 86.66C61.0263 87.0067 60.2663 87.18 59.4129 87.18C58.4663 87.18 57.5996 86.94 56.8129 86.46C56.0263 85.9667 55.3996 85.2867 54.9329 84.42C54.4796 83.54 54.2529 82.5467 54.2529 81.44ZM63.2729 81.48C63.2729 80.72 63.1129 80.06 62.7929 79.5C62.4863 78.94 62.0796 78.5133 61.5729 78.22C61.0663 77.9267 60.5196 77.78 59.9329 77.78C59.3463 77.78 58.7996 77.9267 58.2929 78.22C57.7863 78.5 57.3729 78.92 57.0529 79.48C56.7463 80.0267 56.5929 80.68 56.5929 81.44C56.5929 82.2 56.7463 82.8667 57.0529 83.44C57.3729 84.0133 57.7863 84.4533 58.2929 84.76C58.8129 85.0533 59.3596 85.2 59.9329 85.2C60.5196 85.2 61.0663 85.0533 61.5729 84.76C62.0796 84.4667 62.4863 84.04 62.7929 83.48C63.1129 82.9067 63.2729 82.24 63.2729 81.48ZM78.4876 75.98L71.7276 92.18H69.3676L71.6076 86.82L67.2676 75.98H69.8076L72.9076 84.38L76.1276 75.98H78.4876ZM84.2083 87.18C83.3416 87.18 82.5616 87.0267 81.8683 86.72C81.1883 86.4 80.6483 85.9733 80.2483 85.44C79.8483 84.8933 79.6349 84.2867 79.6083 83.62H81.9683C82.0083 84.0867 82.2283 84.48 82.6283 84.8C83.0416 85.1067 83.5549 85.26 84.1683 85.26C84.8083 85.26 85.3016 85.14 85.6483 84.9C86.0083 84.6467 86.1883 84.3267 86.1883 83.94C86.1883 83.5267 85.9883 83.22 85.5883 83.02C85.2016 82.82 84.5816 82.6 83.7283 82.36C82.9016 82.1333 82.2283 81.9133 81.7083 81.7C81.1883 81.4867 80.7349 81.16 80.3483 80.72C79.9749 80.28 79.7883 79.7 79.7883 78.98C79.7883 78.3933 79.9616 77.86 80.3083 77.38C80.6549 76.8867 81.1483 76.5 81.7883 76.22C82.4416 75.94 83.1883 75.8 84.0283 75.8C85.2816 75.8 86.2883 76.12 87.0483 76.76C87.8216 77.3867 88.2349 78.2467 88.2883 79.34H86.0083C85.9683 78.8467 85.7683 78.4533 85.4083 78.16C85.0483 77.8667 84.5616 77.72 83.9483 77.72C83.3483 77.72 82.8883 77.8333 82.5683 78.06C82.2483 78.2867 82.0883 78.5867 82.0883 78.96C82.0883 79.2533 82.1949 79.5 82.4083 79.7C82.6216 79.9 82.8816 80.06 83.1883 80.18C83.4949 80.2867 83.9483 80.4267 84.5483 80.6C85.3483 80.8133 86.0016 81.0333 86.5083 81.26C87.0283 81.4733 87.4749 81.7933 87.8483 82.22C88.2216 82.6467 88.4149 83.2133 88.4283 83.92C88.4283 84.5467 88.2549 85.1067 87.9083 85.6C87.5616 86.0933 87.0683 86.48 86.4283 86.76C85.8016 87.04 85.0616 87.18 84.2083 87.18Z" fill="#262626"/>
<path d="M45.3733 73.1C46.8533 73.1 48.1466 73.3867 49.2533 73.96C50.3733 74.52 51.2333 75.3333 51.8333 76.4C52.4466 77.4533 52.7533 78.6867 52.7533 80.1C52.7533 81.5133 52.4466 82.74 51.8333 83.78C51.2333 84.82 50.3733 85.62 49.2533 86.18C48.1466 86.7267 46.8533 87 45.3733 87H40.8333V73.1H45.3733ZM45.3733 85.14C46.9999 85.14 48.2466 84.7 49.1133 83.82C49.9799 82.94 50.4133 81.7 50.4133 80.1C50.4133 78.4867 49.9799 77.2267 49.1133 76.32C48.2466 75.4133 46.9999 74.96 45.3733 74.96H43.1133V85.14H45.3733ZM54.2529 81.44C54.2529 80.3333 54.4796 79.3533 54.9329 78.5C55.3996 77.6467 56.0263 76.9867 56.8129 76.52C57.6129 76.04 58.4929 75.8 59.4529 75.8C60.3196 75.8 61.0729 75.9733 61.7129 76.32C62.3663 76.6533 62.8863 77.0733 63.2729 77.58V75.98H65.5729V87H63.2729V85.36C62.8863 85.88 62.3596 86.3133 61.6929 86.66C61.0263 87.0067 60.2663 87.18 59.4129 87.18C58.4663 87.18 57.5996 86.94 56.8129 86.46C56.0263 85.9667 55.3996 85.2867 54.9329 84.42C54.4796 83.54 54.2529 82.5467 54.2529 81.44ZM63.2729 81.48C63.2729 80.72 63.1129 80.06 62.7929 79.5C62.4863 78.94 62.0796 78.5133 61.5729 78.22C61.0663 77.9267 60.5196 77.78 59.9329 77.78C59.3463 77.78 58.7996 77.9267 58.2929 78.22C57.7863 78.5 57.3729 78.92 57.0529 79.48C56.7463 80.0267 56.5929 80.68 56.5929 81.44C56.5929 82.2 56.7463 82.8667 57.0529 83.44C57.3729 84.0133 57.7863 84.4533 58.2929 84.76C58.8129 85.0533 59.3596 85.2 59.9329 85.2C60.5196 85.2 61.0663 85.0533 61.5729 84.76C62.0796 84.4667 62.4863 84.04 62.7929 83.48C63.1129 82.9067 63.2729 82.24 63.2729 81.48ZM78.4876 75.98L71.7276 92.18H69.3676L71.6076 86.82L67.2676 75.98H69.8076L72.9076 84.38L76.1276 75.98H78.4876ZM84.2083 87.18C83.3416 87.18 82.5616 87.0267 81.8683 86.72C81.1883 86.4 80.6483 85.9733 80.2483 85.44C79.8483 84.8933 79.6349 84.2867 79.6083 83.62H81.9683C82.0083 84.0867 82.2283 84.48 82.6283 84.8C83.0416 85.1067 83.5549 85.26 84.1683 85.26C84.8083 85.26 85.3016 85.14 85.6483 84.9C86.0083 84.6467 86.1883 84.3267 86.1883 83.94C86.1883 83.5267 85.9883 83.22 85.5883 83.02C85.2016 82.82 84.5816 82.6 83.7283 82.36C82.9016 82.1333 82.2283 81.9133 81.7083 81.7C81.1883 81.4867 80.7349 81.16 80.3483 80.72C79.9749 80.28 79.7883 79.7 79.7883 78.98C79.7883 78.3933 79.9616 77.86 80.3083 77.38C80.6549 76.8867 81.1483 76.5 81.7883 76.22C82.4416 75.94 83.1883 75.8 84.0283 75.8C85.2816 75.8 86.2883 76.12 87.0483 76.76C87.8216 77.3867 88.2349 78.2467 88.2883 79.34H86.0083C85.9683 78.8467 85.7683 78.4533 85.4083 78.16C85.0483 77.8667 84.5616 77.72 83.9483 77.72C83.3483 77.72 82.8883 77.8333 82.5683 78.06C82.2483 78.2867 82.0883 78.5867 82.0883 78.96C82.0883 79.2533 82.1949 79.5 82.4083 79.7C82.6216 79.9 82.8816 80.06 83.1883 80.18C83.4949 80.2867 83.9483 80.4267 84.5483 80.6C85.3483 80.8133 86.0016 81.0333 86.5083 81.26C87.0283 81.4733 87.4749 81.7933 87.8483 82.22C88.2216 82.6467 88.4149 83.2133 88.4283 83.92C88.4283 84.5467 88.2549 85.1067 87.9083 85.6C87.5616 86.0933 87.0683 86.48 86.4283 86.76C85.8016 87.04 85.0616 87.18 84.2083 87.18Z" fill="#2367FF" fill-opacity="0.09"/>
<rect x="145.667" width="129.667" height="112" rx="16" fill="#FFFBFE"/>
<rect x="145.667" width="129.667" height="112" rx="16" fill="#2367FF" fill-opacity="0.05"/>
<path d="M196.652 32.8V28.672H204.364V52H199.756V32.8H196.652ZM210.198 46.944C212.246 45.2373 213.878 43.8187 215.094 42.688C216.31 41.536 217.323 40.3413 218.134 39.104C218.944 37.8667 219.35 36.6507 219.35 35.456C219.35 34.368 219.094 33.5147 218.582 32.896C218.07 32.2773 217.28 31.968 216.214 31.968C215.147 31.968 214.326 32.3307 213.75 33.056C213.174 33.76 212.875 34.7307 212.854 35.968H208.502C208.587 33.408 209.344 31.4667 210.774 30.144C212.224 28.8213 214.059 28.16 216.278 28.16C218.71 28.16 220.576 28.8107 221.878 30.112C223.179 31.392 223.83 33.088 223.83 35.2C223.83 36.864 223.382 38.4533 222.486 39.968C221.59 41.4827 220.566 42.8053 219.414 43.936C218.262 45.0453 216.758 46.3893 214.902 47.968H224.342V51.68H208.534V48.352L210.198 46.944Z" fill="#262626"/>
<path d="M196.652 32.8V28.672H204.364V52H199.756V32.8H196.652ZM210.198 46.944C212.246 45.2373 213.878 43.8187 215.094 42.688C216.31 41.536 217.323 40.3413 218.134 39.104C218.944 37.8667 219.35 36.6507 219.35 35.456C219.35 34.368 219.094 33.5147 218.582 32.896C218.07 32.2773 217.28 31.968 216.214 31.968C215.147 31.968 214.326 32.3307 213.75 33.056C213.174 33.76 212.875 34.7307 212.854 35.968H208.502C208.587 33.408 209.344 31.4667 210.774 30.144C212.224 28.8213 214.059 28.16 216.278 28.16C218.71 28.16 220.576 28.8107 221.878 30.112C223.179 31.392 223.83 33.088 223.83 35.2C223.83 36.864 223.382 38.4533 222.486 39.968C221.59 41.4827 220.566 42.8053 219.414 43.936C218.262 45.0453 216.758 46.3893 214.902 47.968H224.342V51.68H208.534V48.352L210.198 46.944Z" fill="#2367FF" fill-opacity="0.09"/>
<path d="M193.6 73.1V87H191.32V80.92H184.78V87H182.5V73.1H184.78V79.06H191.32V73.1H193.6ZM201.382 87.18C200.342 87.18 199.402 86.9467 198.562 86.48C197.722 86 197.062 85.3333 196.582 84.48C196.102 83.6133 195.862 82.6133 195.862 81.48C195.862 80.36 196.108 79.3667 196.602 78.5C197.095 77.6333 197.768 76.9667 198.622 76.5C199.475 76.0333 200.428 75.8 201.482 75.8C202.535 75.8 203.488 76.0333 204.342 76.5C205.195 76.9667 205.868 77.6333 206.362 78.5C206.855 79.3667 207.102 80.36 207.102 81.48C207.102 82.6 206.848 83.5933 206.342 84.46C205.835 85.3267 205.142 86 204.262 86.48C203.395 86.9467 202.435 87.18 201.382 87.18ZM201.382 85.2C201.968 85.2 202.515 85.06 203.022 84.78C203.542 84.5 203.962 84.08 204.282 83.52C204.602 82.96 204.762 82.28 204.762 81.48C204.762 80.68 204.608 80.0067 204.302 79.46C203.995 78.9 203.588 78.48 203.082 78.2C202.575 77.92 202.028 77.78 201.442 77.78C200.855 77.78 200.308 77.92 199.802 78.2C199.308 78.48 198.915 78.9 198.622 79.46C198.328 80.0067 198.182 80.68 198.182 81.48C198.182 82.6667 198.482 83.5867 199.082 84.24C199.695 84.88 200.462 85.2 201.382 85.2ZM219.335 75.98V87H217.055V85.7C216.695 86.1533 216.222 86.5133 215.635 86.78C215.062 87.0333 214.449 87.16 213.795 87.16C212.929 87.16 212.149 86.98 211.455 86.62C210.775 86.26 210.235 85.7267 209.835 85.02C209.449 84.3133 209.255 83.46 209.255 82.46V75.98H211.515V82.12C211.515 83.1067 211.762 83.8667 212.255 84.4C212.749 84.92 213.422 85.18 214.275 85.18C215.129 85.18 215.802 84.92 216.295 84.4C216.802 83.8667 217.055 83.1067 217.055 82.12V75.98H219.335ZM224.624 77.58C224.957 77.02 225.397 76.5867 225.944 76.28C226.504 75.96 227.164 75.8 227.924 75.8V78.16H227.344C226.45 78.16 225.77 78.3867 225.304 78.84C224.85 79.2933 224.624 80.08 224.624 81.2V87H222.344V75.98H224.624V77.58ZM234.02 87.18C233.153 87.18 232.373 87.0267 231.68 86.72C231 86.4 230.46 85.9733 230.06 85.44C229.66 84.8933 229.446 84.2867 229.42 83.62H231.78C231.82 84.0867 232.04 84.48 232.44 84.8C232.853 85.1067 233.366 85.26 233.98 85.26C234.62 85.26 235.113 85.14 235.46 84.9C235.82 84.6467 236 84.3267 236 83.94C236 83.5267 235.8 83.22 235.4 83.02C235.013 82.82 234.393 82.6 233.54 82.36C232.713 82.1333 232.04 81.9133 231.52 81.7C231 81.4867 230.546 81.16 230.16 80.72C229.786 80.28 229.6 79.7 229.6 78.98C229.6 78.3933 229.773 77.86 230.12 77.38C230.466 76.8867 230.96 76.5 231.6 76.22C232.253 75.94 233 75.8 233.84 75.8C235.093 75.8 236.1 76.12 236.86 76.76C237.633 77.3867 238.046 78.2467 238.1 79.34H235.82C235.78 78.8467 235.58 78.4533 235.22 78.16C234.86 77.8667 234.373 77.72 233.76 77.72C233.16 77.72 232.7 77.8333 232.38 78.06C232.06 78.2867 231.9 78.5867 231.9 78.96C231.9 79.2533 232.006 79.5 232.22 79.7C232.433 79.9 232.693 80.06 233 80.18C233.306 80.2867 233.76 80.4267 234.36 80.6C235.16 80.8133 235.813 81.0333 236.32 81.26C236.84 81.4733 237.286 81.7933 237.66 82.22C238.033 82.6467 238.226 83.2133 238.24 83.92C238.24 84.5467 238.066 85.1067 237.72 85.6C237.373 86.0933 236.88 86.48 236.24 86.76C235.613 87.04 234.873 87.18 234.02 87.18Z" fill="#262626"/>
<path d="M193.6 73.1V87H191.32V80.92H184.78V87H182.5V73.1H184.78V79.06H191.32V73.1H193.6ZM201.382 87.18C200.342 87.18 199.402 86.9467 198.562 86.48C197.722 86 197.062 85.3333 196.582 84.48C196.102 83.6133 195.862 82.6133 195.862 81.48C195.862 80.36 196.108 79.3667 196.602 78.5C197.095 77.6333 197.768 76.9667 198.622 76.5C199.475 76.0333 200.428 75.8 201.482 75.8C202.535 75.8 203.488 76.0333 204.342 76.5C205.195 76.9667 205.868 77.6333 206.362 78.5C206.855 79.3667 207.102 80.36 207.102 81.48C207.102 82.6 206.848 83.5933 206.342 84.46C205.835 85.3267 205.142 86 204.262 86.48C203.395 86.9467 202.435 87.18 201.382 87.18ZM201.382 85.2C201.968 85.2 202.515 85.06 203.022 84.78C203.542 84.5 203.962 84.08 204.282 83.52C204.602 82.96 204.762 82.28 204.762 81.48C204.762 80.68 204.608 80.0067 204.302 79.46C203.995 78.9 203.588 78.48 203.082 78.2C202.575 77.92 202.028 77.78 201.442 77.78C200.855 77.78 200.308 77.92 199.802 78.2C199.308 78.48 198.915 78.9 198.622 79.46C198.328 80.0067 198.182 80.68 198.182 81.48C198.182 82.6667 198.482 83.5867 199.082 84.24C199.695 84.88 200.462 85.2 201.382 85.2ZM219.335 75.98V87H217.055V85.7C216.695 86.1533 216.222 86.5133 215.635 86.78C215.062 87.0333 214.449 87.16 213.795 87.16C212.929 87.16 212.149 86.98 211.455 86.62C210.775 86.26 210.235 85.7267 209.835 85.02C209.449 84.3133 209.255 83.46 209.255 82.46V75.98H211.515V82.12C211.515 83.1067 211.762 83.8667 212.255 84.4C212.749 84.92 213.422 85.18 214.275 85.18C215.129 85.18 215.802 84.92 216.295 84.4C216.802 83.8667 217.055 83.1067 217.055 82.12V75.98H219.335ZM224.624 77.58C224.957 77.02 225.397 76.5867 225.944 76.28C226.504 75.96 227.164 75.8 227.924 75.8V78.16H227.344C226.45 78.16 225.77 78.3867 225.304 78.84C224.85 79.2933 224.624 80.08 224.624 81.2V87H222.344V75.98H224.624V77.58ZM234.02 87.18C233.153 87.18 232.373 87.0267 231.68 86.72C231 86.4 230.46 85.9733 230.06 85.44C229.66 84.8933 229.446 84.2867 229.42 83.62H231.78C231.82 84.0867 232.04 84.48 232.44 84.8C232.853 85.1067 233.366 85.26 233.98 85.26C234.62 85.26 235.113 85.14 235.46 84.9C235.82 84.6467 236 84.3267 236 83.94C236 83.5267 235.8 83.22 235.4 83.02C235.013 82.82 234.393 82.6 233.54 82.36C232.713 82.1333 232.04 81.9133 231.52 81.7C231 81.4867 230.546 81.16 230.16 80.72C229.786 80.28 229.6 79.7 229.6 78.98C229.6 78.3933 229.773 77.86 230.12 77.38C230.466 76.8867 230.96 76.5 231.6 76.22C232.253 75.94 233 75.8 233.84 75.8C235.093 75.8 236.1 76.12 236.86 76.76C237.633 77.3867 238.046 78.2467 238.1 79.34H235.82C235.78 78.8467 235.58 78.4533 235.22 78.16C234.86 77.8667 234.373 77.72 233.76 77.72C233.16 77.72 232.7 77.8333 232.38 78.06C232.06 78.2867 231.9 78.5867 231.9 78.96C231.9 79.2533 232.006 79.5 232.22 79.7C232.433 79.9 232.693 80.06 233 80.18C233.306 80.2867 233.76 80.4267 234.36 80.6C235.16 80.8133 235.813 81.0333 236.32 81.26C236.84 81.4733 237.286 81.7933 237.66 82.22C238.033 82.6467 238.226 83.2133 238.24 83.92C238.24 84.5467 238.066 85.1067 237.72 85.6C237.373 86.0933 236.88 86.48 236.24 86.76C235.613 87.04 234.873 87.18 234.02 87.18Z" fill="#2367FF" fill-opacity="0.09"/>
<rect x="291.333" width="129.667" height="112" rx="16" fill="#FFFBFE"/>
<rect x="291.333" width="129.667" height="112" rx="16" fill="#2367FF" fill-opacity="0.05"/>
<path d="M338.927 34.816C339.033 32.6827 339.78 31.04 341.167 29.888C342.575 28.7147 344.42 28.128 346.703 28.128C348.26 28.128 349.593 28.4053 350.703 28.96C351.812 29.4933 352.644 30.2293 353.199 31.168C353.775 32.0853 354.063 33.1307 354.063 34.304C354.063 35.648 353.711 36.7893 353.007 37.728C352.324 38.6453 351.503 39.264 350.543 39.584V39.712C351.78 40.096 352.74 40.7787 353.423 41.76C354.127 42.7413 354.479 44 354.479 45.536C354.479 46.816 354.18 47.9573 353.583 48.96C353.007 49.9627 352.143 50.752 350.991 51.328C349.86 51.8827 348.495 52.16 346.895 52.16C344.484 52.16 342.521 51.552 341.007 50.336C339.492 49.12 338.692 47.328 338.607 44.96H342.959C343.001 46.0053 343.353 46.848 344.015 47.488C344.697 48.1067 345.625 48.416 346.799 48.416C347.887 48.416 348.719 48.1173 349.295 47.52C349.892 46.9013 350.191 46.112 350.191 45.152C350.191 43.872 349.785 42.9547 348.975 42.4C348.164 41.8453 346.905 41.568 345.199 41.568H344.271V37.888H345.199C348.228 37.888 349.743 36.8747 349.743 34.848C349.743 33.9307 349.465 33.216 348.911 32.704C348.377 32.192 347.599 31.936 346.575 31.936C345.572 31.936 344.793 32.2133 344.239 32.768C343.705 33.3013 343.396 33.984 343.311 34.816H338.927ZM359.427 46.944C361.475 45.2373 363.107 43.8187 364.323 42.688C365.539 41.536 366.552 40.3413 367.363 39.104C368.173 37.8667 368.579 36.6507 368.579 35.456C368.579 34.368 368.323 33.5147 367.811 32.896C367.299 32.2773 366.509 31.968 365.443 31.968C364.376 31.968 363.555 32.3307 362.979 33.056C362.403 33.76 362.104 34.7307 362.083 35.968H357.731C357.816 33.408 358.573 31.4667 360.003 30.144C361.453 28.8213 363.288 28.16 365.507 28.16C367.939 28.16 369.805 28.8107 371.107 30.112C372.408 31.392 373.059 33.088 373.059 35.2C373.059 36.864 372.611 38.4533 371.715 39.968C370.819 41.4827 369.795 42.8053 368.643 43.936C367.491 45.0453 365.987 46.3893 364.131 47.968H373.571V51.68H357.763V48.352L359.427 46.944Z" fill="#262626"/>
<path d="M338.927 34.816C339.033 32.6827 339.78 31.04 341.167 29.888C342.575 28.7147 344.42 28.128 346.703 28.128C348.26 28.128 349.593 28.4053 350.703 28.96C351.812 29.4933 352.644 30.2293 353.199 31.168C353.775 32.0853 354.063 33.1307 354.063 34.304C354.063 35.648 353.711 36.7893 353.007 37.728C352.324 38.6453 351.503 39.264 350.543 39.584V39.712C351.78 40.096 352.74 40.7787 353.423 41.76C354.127 42.7413 354.479 44 354.479 45.536C354.479 46.816 354.18 47.9573 353.583 48.96C353.007 49.9627 352.143 50.752 350.991 51.328C349.86 51.8827 348.495 52.16 346.895 52.16C344.484 52.16 342.521 51.552 341.007 50.336C339.492 49.12 338.692 47.328 338.607 44.96H342.959C343.001 46.0053 343.353 46.848 344.015 47.488C344.697 48.1067 345.625 48.416 346.799 48.416C347.887 48.416 348.719 48.1173 349.295 47.52C349.892 46.9013 350.191 46.112 350.191 45.152C350.191 43.872 349.785 42.9547 348.975 42.4C348.164 41.8453 346.905 41.568 345.199 41.568H344.271V37.888H345.199C348.228 37.888 349.743 36.8747 349.743 34.848C349.743 33.9307 349.465 33.216 348.911 32.704C348.377 32.192 347.599 31.936 346.575 31.936C345.572 31.936 344.793 32.2133 344.239 32.768C343.705 33.3013 343.396 33.984 343.311 34.816H338.927ZM359.427 46.944C361.475 45.2373 363.107 43.8187 364.323 42.688C365.539 41.536 366.552 40.3413 367.363 39.104C368.173 37.8667 368.579 36.6507 368.579 35.456C368.579 34.368 368.323 33.5147 367.811 32.896C367.299 32.2773 366.509 31.968 365.443 31.968C364.376 31.968 363.555 32.3307 362.979 33.056C362.403 33.76 362.104 34.7307 362.083 35.968H357.731C357.816 33.408 358.573 31.4667 360.003 30.144C361.453 28.8213 363.288 28.16 365.507 28.16C367.939 28.16 369.805 28.8107 371.107 30.112C372.408 31.392 373.059 33.088 373.059 35.2C373.059 36.864 372.611 38.4533 371.715 39.968C370.819 41.4827 369.795 42.8053 368.643 43.936C367.491 45.0453 365.987 46.3893 364.131 47.968H373.571V51.68H357.763V48.352L359.427 46.944Z" fill="#2367FF" fill-opacity="0.09"/>
<path d="M332.307 73.1V87H330.027V77.48L325.787 87H324.207L319.947 77.48V87H317.667V73.1H320.127L325.007 84L329.867 73.1H332.307ZM336.463 74.52C336.05 74.52 335.703 74.38 335.423 74.1C335.143 73.82 335.003 73.4733 335.003 73.06C335.003 72.6467 335.143 72.3 335.423 72.02C335.703 71.74 336.05 71.6 336.463 71.6C336.863 71.6 337.203 71.74 337.483 72.02C337.763 72.3 337.903 72.6467 337.903 73.06C337.903 73.4733 337.763 73.82 337.483 74.1C337.203 74.38 336.863 74.52 336.463 74.52ZM337.583 75.98V87H335.303V75.98H337.583ZM346.137 75.8C347.003 75.8 347.777 75.98 348.457 76.34C349.15 76.7 349.69 77.2333 350.077 77.94C350.463 78.6467 350.657 79.5 350.657 80.5V87H348.397V80.84C348.397 79.8533 348.15 79.1 347.657 78.58C347.163 78.0467 346.49 77.78 345.637 77.78C344.783 77.78 344.103 78.0467 343.597 78.58C343.103 79.1 342.857 79.8533 342.857 80.84V87H340.577V75.98H342.857V77.24C343.23 76.7867 343.703 76.4333 344.277 76.18C344.863 75.9267 345.483 75.8 346.137 75.8ZM363.545 75.98V87H361.265V85.7C360.905 86.1533 360.432 86.5133 359.845 86.78C359.272 87.0333 358.658 87.16 358.005 87.16C357.138 87.16 356.358 86.98 355.665 86.62C354.985 86.26 354.445 85.7267 354.045 85.02C353.658 84.3133 353.465 83.46 353.465 82.46V75.98H355.725V82.12C355.725 83.1067 355.972 83.8667 356.465 84.4C356.958 84.92 357.632 85.18 358.485 85.18C359.338 85.18 360.012 84.92 360.505 84.4C361.012 83.8667 361.265 83.1067 361.265 82.12V75.98H363.545ZM369.213 77.84V83.94C369.213 84.3533 369.307 84.6533 369.493 84.84C369.693 85.0133 370.027 85.1 370.493 85.1H371.893V87H370.093C369.067 87 368.28 86.76 367.733 86.28C367.187 85.8 366.913 85.02 366.913 83.94V77.84H365.613V75.98H366.913V73.24H369.213V75.98H371.893V77.84H369.213ZM384.095 81.22C384.095 81.6333 384.068 82.0067 384.015 82.34H375.595C375.661 83.22 375.988 83.9267 376.575 84.46C377.161 84.9933 377.881 85.26 378.735 85.26C379.961 85.26 380.828 84.7467 381.335 83.72H383.795C383.461 84.7333 382.855 85.5667 381.975 86.22C381.108 86.86 380.028 87.18 378.735 87.18C377.681 87.18 376.735 86.9467 375.895 86.48C375.068 86 374.415 85.3333 373.935 84.48C373.468 83.6133 373.235 82.6133 373.235 81.48C373.235 80.3467 373.461 79.3533 373.915 78.5C374.381 77.6333 375.028 76.9667 375.855 76.5C376.695 76.0333 377.655 75.8 378.735 75.8C379.775 75.8 380.701 76.0267 381.515 76.48C382.328 76.9333 382.961 77.5733 383.415 78.4C383.868 79.2133 384.095 80.1533 384.095 81.22ZM381.715 80.5C381.701 79.66 381.401 78.9867 380.815 78.48C380.228 77.9733 379.501 77.72 378.635 77.72C377.848 77.72 377.175 77.9733 376.615 78.48C376.055 78.9733 375.721 79.6467 375.615 80.5H381.715ZM390.338 87.18C389.472 87.18 388.692 87.0267 387.998 86.72C387.318 86.4 386.778 85.9733 386.378 85.44C385.978 84.8933 385.765 84.2867 385.738 83.62H388.098C388.138 84.0867 388.358 84.48 388.758 84.8C389.172 85.1067 389.685 85.26 390.298 85.26C390.938 85.26 391.432 85.14 391.778 84.9C392.138 84.6467 392.318 84.3267 392.318 83.94C392.318 83.5267 392.118 83.22 391.718 83.02C391.332 82.82 390.712 82.6 389.858 82.36C389.032 82.1333 388.358 81.9133 387.838 81.7C387.318 81.4867 386.865 81.16 386.478 80.72C386.105 80.28 385.918 79.7 385.918 78.98C385.918 78.3933 386.092 77.86 386.438 77.38C386.785 76.8867 387.278 76.5 387.918 76.22C388.572 75.94 389.318 75.8 390.158 75.8C391.412 75.8 392.418 76.12 393.178 76.76C393.952 77.3867 394.365 78.2467 394.418 79.34H392.138C392.098 78.8467 391.898 78.4533 391.538 78.16C391.178 77.8667 390.692 77.72 390.078 77.72C389.478 77.72 389.018 77.8333 388.698 78.06C388.378 78.2867 388.218 78.5867 388.218 78.96C388.218 79.2533 388.325 79.5 388.538 79.7C388.752 79.9 389.012 80.06 389.318 80.18C389.625 80.2867 390.078 80.4267 390.678 80.6C391.478 80.8133 392.132 81.0333 392.638 81.26C393.158 81.4733 393.605 81.7933 393.978 82.22C394.352 82.6467 394.545 83.2133 394.558 83.92C394.558 84.5467 394.385 85.1067 394.038 85.6C393.692 86.0933 393.198 86.48 392.558 86.76C391.932 87.04 391.192 87.18 390.338 87.18Z" fill="#262626"/>
<path d="M332.307 73.1V87H330.027V77.48L325.787 87H324.207L319.947 77.48V87H317.667V73.1H320.127L325.007 84L329.867 73.1H332.307ZM336.463 74.52C336.05 74.52 335.703 74.38 335.423 74.1C335.143 73.82 335.003 73.4733 335.003 73.06C335.003 72.6467 335.143 72.3 335.423 72.02C335.703 71.74 336.05 71.6 336.463 71.6C336.863 71.6 337.203 71.74 337.483 72.02C337.763 72.3 337.903 72.6467 337.903 73.06C337.903 73.4733 337.763 73.82 337.483 74.1C337.203 74.38 336.863 74.52 336.463 74.52ZM337.583 75.98V87H335.303V75.98H337.583ZM346.137 75.8C347.003 75.8 347.777 75.98 348.457 76.34C349.15 76.7 349.69 77.2333 350.077 77.94C350.463 78.6467 350.657 79.5 350.657 80.5V87H348.397V80.84C348.397 79.8533 348.15 79.1 347.657 78.58C347.163 78.0467 346.49 77.78 345.637 77.78C344.783 77.78 344.103 78.0467 343.597 78.58C343.103 79.1 342.857 79.8533 342.857 80.84V87H340.577V75.98H342.857V77.24C343.23 76.7867 343.703 76.4333 344.277 76.18C344.863 75.9267 345.483 75.8 346.137 75.8ZM363.545 75.98V87H361.265V85.7C360.905 86.1533 360.432 86.5133 359.845 86.78C359.272 87.0333 358.658 87.16 358.005 87.16C357.138 87.16 356.358 86.98 355.665 86.62C354.985 86.26 354.445 85.7267 354.045 85.02C353.658 84.3133 353.465 83.46 353.465 82.46V75.98H355.725V82.12C355.725 83.1067 355.972 83.8667 356.465 84.4C356.958 84.92 357.632 85.18 358.485 85.18C359.338 85.18 360.012 84.92 360.505 84.4C361.012 83.8667 361.265 83.1067 361.265 82.12V75.98H363.545ZM369.213 77.84V83.94C369.213 84.3533 369.307 84.6533 369.493 84.84C369.693 85.0133 370.027 85.1 370.493 85.1H371.893V87H370.093C369.067 87 368.28 86.76 367.733 86.28C367.187 85.8 366.913 85.02 366.913 83.94V77.84H365.613V75.98H366.913V73.24H369.213V75.98H371.893V77.84H369.213ZM384.095 81.22C384.095 81.6333 384.068 82.0067 384.015 82.34H375.595C375.661 83.22 375.988 83.9267 376.575 84.46C377.161 84.9933 377.881 85.26 378.735 85.26C379.961 85.26 380.828 84.7467 381.335 83.72H383.795C383.461 84.7333 382.855 85.5667 381.975 86.22C381.108 86.86 380.028 87.18 378.735 87.18C377.681 87.18 376.735 86.9467 375.895 86.48C375.068 86 374.415 85.3333 373.935 84.48C373.468 83.6133 373.235 82.6133 373.235 81.48C373.235 80.3467 373.461 79.3533 373.915 78.5C374.381 77.6333 375.028 76.9667 375.855 76.5C376.695 76.0333 377.655 75.8 378.735 75.8C379.775 75.8 380.701 76.0267 381.515 76.48C382.328 76.9333 382.961 77.5733 383.415 78.4C383.868 79.2133 384.095 80.1533 384.095 81.22ZM381.715 80.5C381.701 79.66 381.401 78.9867 380.815 78.48C380.228 77.9733 379.501 77.72 378.635 77.72C377.848 77.72 377.175 77.9733 376.615 78.48C376.055 78.9733 375.721 79.6467 375.615 80.5H381.715ZM390.338 87.18C389.472 87.18 388.692 87.0267 387.998 86.72C387.318 86.4 386.778 85.9733 386.378 85.44C385.978 84.8933 385.765 84.2867 385.738 83.62H388.098C388.138 84.0867 388.358 84.48 388.758 84.8C389.172 85.1067 389.685 85.26 390.298 85.26C390.938 85.26 391.432 85.14 391.778 84.9C392.138 84.6467 392.318 84.3267 392.318 83.94C392.318 83.5267 392.118 83.22 391.718 83.02C391.332 82.82 390.712 82.6 389.858 82.36C389.032 82.1333 388.358 81.9133 387.838 81.7C387.318 81.4867 386.865 81.16 386.478 80.72C386.105 80.28 385.918 79.7 385.918 78.98C385.918 78.3933 386.092 77.86 386.438 77.38C386.785 76.8867 387.278 76.5 387.918 76.22C388.572 75.94 389.318 75.8 390.158 75.8C391.412 75.8 392.418 76.12 393.178 76.76C393.952 77.3867 394.365 78.2467 394.418 79.34H392.138C392.098 78.8467 391.898 78.4533 391.538 78.16C391.178 77.8667 390.692 77.72 390.078 77.72C389.478 77.72 389.018 77.8333 388.698 78.06C388.378 78.2867 388.218 78.5867 388.218 78.96C388.218 79.2533 388.325 79.5 388.538 79.7C388.752 79.9 389.012 80.06 389.318 80.18C389.625 80.2867 390.078 80.4267 390.678 80.6C391.478 80.8133 392.132 81.0333 392.638 81.26C393.158 81.4733 393.605 81.7933 393.978 82.22C394.352 82.6467 394.545 83.2133 394.558 83.92C394.558 84.5467 394.385 85.1067 394.038 85.6C393.692 86.0933 393.198 86.48 392.558 86.76C391.932 87.04 391.192 87.18 390.338 87.18Z" fill="#2367FF" fill-opacity="0.09"/>
</svg>
