<svg width="28" height="28" viewBox="0 0 28 28" fill="none" xmlns="http://www.w3.org/2000/svg">
<path d="M24.6522 9.52011C25.0282 10.1014 24.5522 10.7916 23.8599 10.7916H3.33331C2.78103 10.7916 2.33331 10.3439 2.33331 9.79159V7.48992C2.33331 4.64325 4.64331 2.33325 7.48998 2.33325H10.1966C12.0983 2.33325 12.6933 2.95159 13.4516 3.96659L15.085 6.13659C15.4466 6.61492 15.4933 6.67325 16.17 6.67325H19.425C21.6151 6.67325 23.5433 7.80587 24.6522 9.52011Z" fill="#151223"/>
<path d="M24.6467 12.5413C25.1976 12.5413 25.6448 12.9869 25.6467 13.5379L25.6666 19.4249C25.6666 22.8666 22.8666 25.6666 19.425 25.6666H8.57498C5.13331 25.6666 2.33331 22.8666 2.33331 19.4249V13.5416C2.33331 12.9893 2.78102 12.5416 3.3333 12.5416L24.6467 12.5413Z" fill="#151223"/>
</svg>
