<svg width="28" height="28" viewBox="0 0 28 28" fill="none" xmlns="http://www.w3.org/2000/svg">
<path fill-rule="evenodd" clip-rule="evenodd" d="M9.52172 3.01097C10.1376 2.70305 10.8624 2.70305 11.4783 3.01097L17.3043 5.924C17.4275 5.98559 17.5725 5.98559 17.6957 5.924L22.2092 3.66722C23.6637 2.93998 25.375 3.99763 25.375 5.62378V20.1889C25.375 21.0175 24.9069 21.775 24.1658 22.1455L18.4783 24.9892C17.8624 25.2972 17.1376 25.2972 16.5217 24.9892L10.6957 22.0762C10.5725 22.0146 10.4275 22.0146 10.3043 22.0762L5.79078 24.333C4.33631 25.0602 2.625 24.0026 2.625 22.3764V7.81128C2.625 6.98272 3.09313 6.22526 3.83422 5.85472L9.52172 3.01097ZM10.5 7.0001C10.9832 7.0001 11.375 7.39185 11.375 7.8751V17.5001C11.375 17.9833 10.9832 18.3751 10.5 18.3751C10.0168 18.3751 9.625 17.9833 9.625 17.5001V7.8751C9.625 7.39185 10.0168 7.0001 10.5 7.0001ZM18.375 10.5001C18.375 10.0168 17.9832 9.6251 17.5 9.6251C17.0168 9.6251 16.625 10.0168 16.625 10.5001V20.1251C16.625 20.6083 17.0168 21.0001 17.5 21.0001C17.9832 21.0001 18.375 20.6083 18.375 20.1251V10.5001Z" fill="#151223"/>
</svg>
