<svg width="954" height="493" viewBox="0 0 954 493" fill="none" xmlns="http://www.w3.org/2000/svg">
<path fill-rule="evenodd" clip-rule="evenodd" d="M473.658 77.3328C582.777 79.6671 690.63 -27.4963 781.669 32.7362C894.221 107.202 993.187 261.34 937.941 384.509C883.769 505.283 707.48 476.028 576.037 491.184C510.251 498.769 457.29 460.372 392.346 447.416C263.717 421.755 89.1556 495.149 24.2633 381.109C-42.1092 264.467 37.5156 94.3359 148.676 19.1952C244.61 -45.6533 357.906 74.8566 473.658 77.3328Z" fill="#D8D8D8"/>
<path fill-rule="evenodd" clip-rule="evenodd" d="M473.658 77.3328C582.777 79.6671 690.63 -27.4963 781.669 32.7362C894.221 107.202 993.187 261.34 937.941 384.509C883.769 505.283 707.48 476.028 576.037 491.184C510.251 498.769 457.29 460.372 392.346 447.416C263.717 421.755 89.1556 495.149 24.2633 381.109C-42.1092 264.467 37.5156 94.3359 148.676 19.1952C244.61 -45.6533 357.906 74.8566 473.658 77.3328Z" fill="#2367FF" fill-opacity="0.01"/>
<path fill-rule="evenodd" clip-rule="evenodd" d="M582.362 53.9026C582.991 53.3635 583.938 53.4364 584.477 54.0653C585.13 54.827 585.78 55.5897 586.426 56.3534C586.962 56.9856 586.883 57.9321 586.251 58.4674C585.619 59.0027 584.672 58.9242 584.137 58.2919C583.494 57.5328 582.848 56.7748 582.199 56.0177C581.66 55.3887 581.733 54.4418 582.362 53.9026ZM588.165 60.7555C588.803 60.228 589.749 60.3182 590.276 60.9569C591.553 62.5027 592.817 64.0528 594.069 65.6073C594.588 66.2526 594.487 67.1968 593.841 67.7164C593.196 68.236 592.252 68.1341 591.732 67.4889C590.488 65.9441 589.232 64.4036 587.963 62.8673C587.436 62.2285 587.526 61.2831 588.165 60.7555ZM595.697 70.0507C596.349 69.5393 597.292 69.653 597.803 70.3048C599.041 71.8824 600.266 73.4646 601.479 75.0514C601.982 75.7096 601.856 76.651 601.198 77.154C600.54 77.6571 599.598 77.5313 599.095 76.8731C597.89 75.2964 596.673 73.7243 595.443 72.1567C594.931 71.505 595.045 70.5621 595.697 70.0507ZM602.995 79.5373C603.66 79.0428 604.6 79.1807 605.094 79.8454C606.291 81.454 607.475 83.0674 608.646 84.6858C609.132 85.3568 608.982 86.2946 608.311 86.7804C607.639 87.2661 606.702 87.1159 606.216 86.4448C605.052 84.8371 603.876 83.2342 602.687 81.6361C602.193 80.9714 602.331 80.0318 602.995 79.5373ZM610.044 89.209C610.722 88.7321 611.657 88.8948 612.134 89.5722C613.288 91.2112 614.429 92.8553 615.557 94.5045C616.025 95.1883 615.849 96.1217 615.166 96.5894C614.482 97.0572 613.548 96.882 613.081 96.1983C611.96 94.5601 610.827 92.927 609.681 91.2989C609.204 90.6215 609.367 89.6858 610.044 89.209ZM616.833 99.063C617.523 98.6045 618.454 98.7922 618.913 99.4822C620.022 101.151 621.118 102.825 622.201 104.505C622.65 105.201 622.45 106.13 621.754 106.579C621.058 107.028 620.129 106.827 619.68 106.131C618.604 104.463 617.516 102.8 616.414 101.142C615.956 100.452 616.143 99.5215 616.833 99.063ZM623.353 109.096C624.056 108.657 624.981 108.87 625.421 109.572C626.483 111.27 627.533 112.974 628.57 114.683C629 115.392 628.774 116.314 628.066 116.744C627.358 117.174 626.435 116.948 626.006 116.24C624.976 114.542 623.933 112.85 622.878 111.164C622.438 110.461 622.651 109.536 623.353 109.096ZM629.596 119.306C630.311 118.886 631.23 119.124 631.65 119.839C632.665 121.565 633.667 123.298 634.657 125.036C635.067 125.756 634.816 126.672 634.096 127.082C633.376 127.492 632.46 127.24 632.05 126.52C631.067 124.794 630.072 123.074 629.064 121.359C628.644 120.645 628.882 119.726 629.596 119.306ZM635.554 129.685C636.28 129.285 637.192 129.549 637.592 130.275C638.558 132.028 639.512 133.788 640.453 135.554C640.842 136.285 640.566 137.193 639.835 137.583C639.103 137.973 638.195 137.696 637.805 136.965C636.871 135.211 635.924 133.464 634.964 131.723C634.564 130.997 634.829 130.085 635.554 129.685ZM641.219 140.226C641.956 139.846 642.86 140.136 643.24 140.872C644.156 142.652 645.06 144.438 645.952 146.23C646.321 146.971 646.018 147.872 645.277 148.241C644.535 148.61 643.635 148.308 643.266 147.566C642.38 145.786 641.483 144.013 640.573 142.246C640.193 141.51 640.483 140.605 641.219 140.226ZM646.587 150.921C647.334 150.563 648.23 150.877 648.588 151.624C649.454 153.428 650.308 155.238 651.149 157.055C651.497 157.807 651.17 158.698 650.418 159.047C649.667 159.395 648.775 159.067 648.427 158.316C647.592 156.512 646.744 154.714 645.884 152.923C645.525 152.176 645.84 151.28 646.587 150.921ZM651.653 161.763C652.41 161.425 653.297 161.765 653.634 162.521C654.449 164.348 655.252 166.182 656.043 168.022C656.37 168.783 656.018 169.665 655.257 169.992C654.496 170.319 653.614 169.967 653.287 169.206C652.502 167.379 651.704 165.558 650.895 163.744C650.557 162.987 650.897 162.1 651.653 161.763ZM656.416 172.742C657.182 172.425 658.059 172.789 658.376 173.555C659.139 175.403 659.891 177.257 660.631 179.118C660.937 179.888 660.561 180.76 659.791 181.066C659.022 181.372 658.149 180.996 657.843 180.227C657.109 178.378 656.362 176.536 655.603 174.701C655.287 173.935 655.651 173.058 656.416 172.742ZM660.874 183.846C661.648 183.551 662.515 183.938 662.811 184.712C663.524 186.58 664.225 188.454 664.914 190.335C665.199 191.113 664.799 191.975 664.022 192.26C663.244 192.545 662.382 192.145 662.097 191.367C661.413 189.499 660.716 187.637 660.008 185.782C659.713 185.009 660.1 184.142 660.874 183.846ZM665.029 195.068C665.811 194.793 666.667 195.204 666.941 195.986C667.604 197.871 668.254 199.764 668.894 201.663C669.158 202.448 668.735 203.299 667.95 203.563C667.165 203.827 666.314 203.405 666.05 202.62C665.415 200.733 664.769 198.853 664.111 196.98C663.837 196.199 664.248 195.342 665.029 195.068ZM668.883 206.397C669.672 206.144 670.517 206.577 670.771 207.366C671.383 209.267 671.984 211.176 672.573 213.092C672.817 213.884 672.372 214.723 671.581 214.967C670.789 215.211 669.949 214.766 669.706 213.974C669.12 212.071 668.523 210.174 667.915 208.285C667.661 207.496 668.095 206.651 668.883 206.397ZM672.44 217.826C673.235 217.592 674.068 218.047 674.302 218.842C674.865 220.758 675.417 222.682 675.957 224.612C676.181 225.41 675.715 226.238 674.917 226.461C674.12 226.685 673.292 226.219 673.068 225.421C672.531 223.503 671.983 221.592 671.423 219.687C671.19 218.893 671.645 218.059 672.44 217.826ZM675.704 229.338C676.504 229.124 677.326 229.6 677.539 230.401C677.65 230.816 677.76 231.231 677.87 231.646C678.011 231.615 678.153 231.584 678.294 231.552C679.103 231.372 679.904 231.882 680.084 232.691C680.263 233.5 679.753 234.301 678.945 234.481C678.839 234.504 678.733 234.528 678.627 234.551C678.769 235.103 678.91 235.655 679.05 236.208C679.254 237.011 678.768 237.827 677.965 238.031C677.162 238.235 676.346 237.749 676.142 236.946C675.991 236.35 675.839 235.755 675.686 235.161C675.014 235.144 674.414 234.674 674.261 233.988C674.116 233.338 674.416 232.693 674.958 232.371C674.853 231.972 674.747 231.573 674.641 231.174C674.427 230.373 674.903 229.551 675.704 229.338ZM678.68 240.927C679.486 240.733 680.296 241.228 680.49 242.034C680.724 243.007 680.956 243.981 681.185 244.958C681.405 245.899 681.623 246.841 681.837 247.783C682.021 248.591 681.516 249.395 680.708 249.579C679.9 249.763 679.096 249.257 678.912 248.449C678.699 247.513 678.483 246.577 678.264 245.643C678.036 244.672 677.806 243.703 677.573 242.736C677.379 241.931 677.875 241.121 678.68 240.927ZM681.308 252.293C682.118 252.119 682.916 252.634 683.09 253.444C683.496 255.334 683.892 257.225 684.278 259.117C684.444 259.929 683.92 260.721 683.109 260.887C682.297 261.052 681.505 260.529 681.339 259.717C680.955 257.834 680.561 255.954 680.157 254.075C679.983 253.265 680.498 252.467 681.308 252.293ZM683.652 263.613C684.465 263.455 685.252 263.986 685.411 264.799C685.78 266.694 686.141 268.591 686.495 270.488C686.647 271.302 686.111 272.086 685.296 272.238C684.482 272.39 683.699 271.853 683.546 271.039C683.193 269.148 682.834 267.259 682.466 265.372C682.308 264.559 682.839 263.772 683.652 263.613ZM685.798 274.972C686.613 274.825 687.393 275.367 687.54 276.182C687.883 278.081 688.22 279.98 688.554 281.88C688.697 282.696 688.152 283.473 687.336 283.617C686.52 283.76 685.743 283.215 685.599 282.399C685.266 280.503 684.93 278.608 684.588 276.715C684.441 275.9 684.983 275.119 685.798 274.972ZM687.812 286.356C688.628 286.215 689.404 286.763 689.545 287.579C689.872 289.479 690.197 291.379 690.52 293.279C690.66 294.096 690.11 294.871 689.294 295.01C688.477 295.149 687.702 294.6 687.563 293.783C687.24 291.884 686.915 289.986 686.588 288.088C686.448 287.272 686.995 286.496 687.812 286.356ZM689.759 297.751C690.576 297.612 691.351 298.161 691.49 298.978C691.813 300.877 692.136 302.776 692.461 304.674C692.6 305.491 692.052 306.266 691.235 306.406C690.419 306.545 689.643 305.997 689.504 305.18C689.178 303.28 688.855 301.38 688.532 299.481C688.393 298.664 688.943 297.889 689.759 297.751ZM691.707 309.145C692.523 309.004 693.3 309.55 693.442 310.367C693.771 312.263 694.104 314.159 694.441 316.053C694.586 316.869 694.042 317.648 693.227 317.793C692.411 317.938 691.632 317.395 691.487 316.579C691.149 314.68 690.816 312.78 690.486 310.88C690.344 310.064 690.891 309.287 691.707 309.145ZM693.72 320.529C694.535 320.379 695.317 320.919 695.467 321.733C695.814 323.626 696.167 325.516 696.527 327.405C696.682 328.219 696.148 329.004 695.335 329.159C694.521 329.314 693.735 328.781 693.58 327.967C693.219 326.071 692.864 324.173 692.516 322.275C692.366 321.46 692.906 320.678 693.72 320.529ZM695.866 331.888C696.679 331.726 697.468 332.253 697.63 333.066C697.818 334.008 698.008 334.95 698.201 335.892C698.42 336.966 698.644 338.039 698.871 339.112C699.042 339.923 698.524 340.719 697.713 340.89C696.903 341.061 696.107 340.543 695.935 339.733C695.707 338.654 695.482 337.573 695.261 336.492C695.068 335.546 694.877 334.599 694.688 333.652C694.526 332.84 695.054 332.05 695.866 331.888ZM698.476 344.407C699.285 344.229 700.086 344.74 700.264 345.549C700.684 347.453 701.109 349.357 701.534 351.264L701.696 351.987C701.876 352.796 701.367 353.597 700.559 353.778C699.75 353.958 698.948 353.449 698.768 352.64L698.607 351.92L698.599 351.884L698.586 351.825C698.167 349.949 697.749 348.073 697.335 346.195C697.156 345.386 697.667 344.586 698.476 344.407ZM701.339 357.291C702.148 357.114 702.948 357.626 703.125 358.436C703.596 360.587 704.061 362.743 704.511 364.903C704.68 365.714 704.16 366.508 703.349 366.678C702.538 366.847 701.743 366.326 701.574 365.515C701.127 363.368 700.665 361.223 700.195 359.078C700.017 358.268 700.53 357.469 701.339 357.291ZM704.057 370.206C704.871 370.05 705.657 370.584 705.813 371.398C706.228 373.567 706.622 375.743 706.988 377.926C707.125 378.743 706.574 379.516 705.757 379.653C704.94 379.79 704.167 379.239 704.03 378.422C703.667 376.265 703.277 374.112 702.866 371.961C702.71 371.148 703.244 370.362 704.057 370.206ZM706.305 383.21C707.126 383.097 707.883 383.67 707.996 384.491C708.148 385.588 708.291 386.687 708.424 387.788C708.539 388.734 708.65 389.679 708.757 390.623C708.851 391.447 708.26 392.19 707.436 392.283C706.613 392.377 705.87 391.786 705.777 390.962C705.67 390.025 705.56 389.087 705.446 388.149C705.315 387.065 705.174 385.983 705.024 384.902C704.911 384.081 705.484 383.324 706.305 383.21ZM707.721 394.955C708.545 394.874 709.28 395.475 709.362 396.3C709.55 398.196 709.725 400.09 709.887 401.983C709.958 402.809 709.346 403.535 708.521 403.606C707.696 403.677 706.969 403.065 706.898 402.24C706.737 400.359 706.563 398.478 706.376 396.596C706.295 395.772 706.896 395.037 707.721 394.955ZM708.733 406.285C709.559 406.225 710.278 406.846 710.338 407.672C710.477 409.57 710.603 411.467 710.719 413.364C710.769 414.191 710.14 414.902 709.313 414.953C708.486 415.003 707.775 414.374 707.725 413.547C707.61 411.661 707.484 409.776 707.346 407.89C707.286 407.064 707.907 406.345 708.733 406.285ZM709.461 417.636C710.289 417.595 710.993 418.232 711.034 419.06C711.129 420.958 711.213 422.857 711.289 424.757C711.322 425.584 710.677 426.282 709.849 426.315C709.022 426.348 708.324 425.703 708.291 424.875C708.216 422.986 708.132 421.097 708.038 419.209C707.997 418.382 708.634 417.677 709.461 417.636ZM709.943 429.001C710.771 428.976 711.463 429.626 711.488 430.454C711.545 432.353 711.595 434.252 711.636 436.152C711.655 436.981 710.998 437.667 710.17 437.685C709.341 437.703 708.655 437.047 708.637 436.218C708.595 434.326 708.546 432.435 708.489 430.545C708.464 429.717 709.115 429.026 709.943 429.001ZM710.218 440.372C711.047 440.36 711.728 441.022 711.74 441.85C711.768 443.747 711.788 445.646 711.804 447.547C711.81 448.375 711.144 449.052 710.316 449.059C709.487 449.066 708.811 448.399 708.804 447.571C708.789 445.676 708.768 443.784 708.74 441.894C708.728 441.065 709.39 440.384 710.218 440.372ZM710.329 451.746C711.158 451.744 711.831 452.414 711.833 453.242C711.835 454.191 711.837 455.14 711.837 456.09C711.837 456.838 711.814 457.814 711.787 458.929C711.781 459.212 711.774 459.505 711.767 459.805C711.749 460.633 711.062 461.289 710.234 461.271C709.406 461.252 708.749 460.565 708.768 459.737C708.775 459.426 708.782 459.126 708.789 458.838C708.815 457.728 708.837 456.8 708.837 456.09C708.837 455.654 708.836 455.219 708.836 454.784C708.835 454.272 708.834 453.761 708.833 453.25C708.831 452.421 709.501 451.748 710.329 451.746ZM710.203 465.637C711.032 465.617 711.719 466.273 711.739 467.101C711.796 469.529 711.944 472.009 712.257 474.277C712.371 475.098 711.797 475.855 710.977 475.968C710.156 476.082 709.399 475.508 709.286 474.687C708.951 472.266 708.799 469.663 708.739 467.173C708.72 466.344 709.375 465.657 710.203 465.637ZM712.045 480.226C712.765 479.815 713.681 480.065 714.091 480.785C714.674 481.806 715.294 482.333 715.913 482.539C716.699 482.801 717.124 483.651 716.862 484.437C716.6 485.223 715.75 485.647 714.964 485.385C713.401 484.864 712.284 483.669 711.486 482.272C711.075 481.553 711.326 480.637 712.045 480.226ZM407.147 66.4141C407.916 66.7217 408.29 67.5947 407.983 68.3639C407.449 69.698 406.869 71.0745 406.243 72.4806C405.907 73.2375 405.02 73.578 404.263 73.2413C403.506 72.9045 403.166 72.0179 403.502 71.261C404.112 69.8899 404.678 68.5485 405.197 67.2497C405.505 66.4805 406.378 66.1064 407.147 66.4141ZM401.701 78.473C402.43 78.8648 402.704 79.7742 402.313 80.5041C401.616 81.8012 400.886 83.1035 400.122 84.4019C399.697 85.124 399.272 85.8723 398.846 86.6424C398.445 87.3672 397.532 87.6296 396.807 87.2284C396.083 86.8273 395.82 85.9145 396.221 85.1897C396.658 84.4013 397.096 83.6297 397.536 82.8808C398.279 81.6174 398.991 80.3493 399.669 79.0851C400.061 78.3552 400.971 78.0811 401.701 78.473ZM395.761 89.2065C396.495 89.5889 396.781 90.4946 396.399 91.2295C396.043 91.9139 395.65 92.6734 395.253 93.4408L395.249 93.4485L395.238 93.4702L395.232 93.4817L395.228 93.49C394.806 94.3062 394.38 95.1299 393.989 95.8804C393.607 96.6152 392.701 96.9008 391.966 96.5183C391.231 96.1358 390.946 95.23 391.328 94.4952C391.753 93.6791 392.139 92.9325 392.523 92.1897L392.544 92.1491L392.556 92.1248C392.939 91.3844 393.32 90.6461 393.738 89.8447C394.12 89.1098 395.026 88.8241 395.761 89.2065ZM390.919 98.4965C391.645 98.8955 391.91 99.8075 391.511 100.533C390.651 102.099 389.767 103.643 388.854 105.13C388.421 105.836 387.497 106.057 386.791 105.624C386.085 105.19 385.864 104.267 386.298 103.561C387.179 102.125 388.038 100.625 388.882 99.0886C389.281 98.3626 390.193 98.0975 390.919 98.4965ZM385.557 107.491C386.224 107.983 386.366 108.922 385.874 109.589C385.329 110.328 384.771 111.041 384.199 111.722C383.435 112.633 382.6 113.501 381.714 114.33C381.109 114.896 380.16 114.865 379.594 114.26C379.028 113.655 379.059 112.706 379.664 112.14C380.475 111.382 381.224 110.6 381.902 109.793C382.428 109.166 382.947 108.503 383.459 107.808C383.951 107.142 384.89 107 385.557 107.491ZM376.555 116.628C377.023 117.312 376.848 118.245 376.165 118.713C374.248 120.025 372.243 121.246 370.259 122.397C369.542 122.812 368.624 122.568 368.209 121.852C367.793 121.135 368.037 120.217 368.754 119.802C370.704 118.671 372.638 117.491 374.47 116.237C375.154 115.769 376.087 115.944 376.555 116.628ZM364.846 123.727C365.251 124.45 364.993 125.364 364.27 125.769C363.246 126.343 362.26 126.902 361.324 127.452C360.47 127.953 359.616 128.454 358.761 128.953C358.046 129.371 357.127 129.131 356.709 128.415C356.291 127.7 356.532 126.781 357.247 126.363C358.1 125.865 358.952 125.365 359.804 124.865C360.766 124.3 361.773 123.729 362.804 123.152C363.527 122.747 364.441 123.005 364.846 123.727ZM354.173 129.89C354.588 130.607 354.343 131.525 353.626 131.94C351.911 132.931 350.195 133.919 348.475 134.902C347.756 135.313 346.84 135.064 346.429 134.345C346.017 133.625 346.267 132.709 346.986 132.298C348.701 131.317 350.413 130.332 352.123 129.343C352.841 128.928 353.758 129.173 354.173 129.89ZM343.878 135.794C344.285 136.516 344.031 137.431 343.309 137.838C341.585 138.812 339.857 139.781 338.127 140.745C337.403 141.148 336.489 140.889 336.086 140.165C335.683 139.441 335.943 138.528 336.667 138.125C338.392 137.163 340.114 136.197 341.834 135.226C342.556 134.818 343.471 135.073 343.878 135.794ZM333.519 141.585C333.918 142.311 333.652 143.223 332.926 143.622C331.189 144.575 329.45 145.523 327.707 146.465C326.978 146.859 326.068 146.588 325.674 145.859C325.28 145.13 325.551 144.22 326.28 143.826C328.017 142.887 329.751 141.942 331.482 140.992C332.208 140.593 333.12 140.859 333.519 141.585ZM323.088 147.245C323.477 147.976 323.199 148.885 322.467 149.273C320.717 150.203 318.964 151.127 317.207 152.044C316.473 152.427 315.567 152.143 315.183 151.408C314.8 150.674 315.085 149.768 315.819 149.384C317.569 148.471 319.316 147.551 321.059 146.624C321.791 146.236 322.699 146.513 323.088 147.245ZM312.577 152.756C312.955 153.493 312.663 154.397 311.926 154.775C311.044 155.226 310.161 155.676 309.277 156.124C308.418 156.56 307.562 156.995 306.709 157.43C305.971 157.807 305.068 157.514 304.691 156.776C304.314 156.038 304.607 155.135 305.345 154.758C306.201 154.322 307.059 153.885 307.92 153.448C308.801 153.002 309.68 152.554 310.559 152.104C311.296 151.727 312.2 152.018 312.577 152.756ZM302.227 158.042C302.608 158.778 302.321 159.683 301.585 160.064C299.873 160.95 298.171 161.837 296.477 162.727C295.744 163.112 294.837 162.83 294.452 162.096C294.067 161.363 294.349 160.456 295.082 160.071C296.781 159.178 298.489 158.288 300.206 157.399C300.942 157.019 301.847 157.306 302.227 158.042ZM292.005 163.391C292.395 164.122 292.119 165.031 291.388 165.421C289.69 166.327 287.999 167.236 286.316 168.149C285.587 168.544 284.677 168.274 284.282 167.545C283.887 166.817 284.157 165.907 284.886 165.512C286.576 164.595 288.272 163.683 289.976 162.774C290.706 162.384 291.615 162.661 292.005 163.391ZM281.852 168.874C282.252 169.599 281.989 170.512 281.263 170.912C279.581 171.839 277.904 172.772 276.231 173.71C275.509 174.116 274.594 173.858 274.189 173.136C273.784 172.413 274.041 171.499 274.763 171.094C276.442 170.152 278.126 169.216 279.814 168.285C280.54 167.885 281.452 168.148 281.852 168.874ZM271.779 174.5C272.19 175.219 271.94 176.135 271.22 176.546C269.554 177.497 267.892 178.455 266.231 179.42C265.515 179.836 264.597 179.593 264.181 178.877C263.764 178.161 264.008 177.243 264.724 176.826C266.391 175.857 268.06 174.896 269.733 173.941C270.452 173.53 271.368 173.78 271.779 174.5ZM261.792 180.278C262.214 180.991 261.978 181.911 261.265 182.332C259.617 183.308 257.969 184.291 256.322 185.284C255.612 185.712 254.69 185.483 254.263 184.773C253.835 184.064 254.064 183.142 254.773 182.714C256.428 181.718 258.082 180.73 259.737 179.751C260.45 179.329 261.37 179.565 261.792 180.278ZM251.897 186.211C252.33 186.918 252.109 187.841 251.403 188.274C249.772 189.274 248.141 190.284 246.507 191.304C245.804 191.742 244.879 191.528 244.44 190.826C244.002 190.123 244.216 189.198 244.918 188.759C246.559 187.735 248.197 186.721 249.834 185.717C250.54 185.284 251.464 185.505 251.897 186.211ZM242.097 192.302C242.541 193.001 242.334 193.928 241.635 194.372C240.827 194.886 240.018 195.402 239.208 195.921C238.356 196.466 237.477 197.051 236.57 197.666C235.885 198.131 234.952 197.953 234.487 197.267C234.022 196.582 234.2 195.649 234.886 195.184C235.807 194.559 236.709 193.959 237.589 193.395C238.402 192.874 239.215 192.356 240.026 191.84C240.725 191.396 241.652 191.602 242.097 192.302ZM231.696 199.218C232.171 199.896 232.007 200.832 231.328 201.307C229.615 202.508 227.842 203.745 226.035 204.964C225.348 205.427 224.416 205.246 223.953 204.559C223.49 203.872 223.671 202.94 224.358 202.476C226.141 201.274 227.894 200.05 229.607 198.85C230.285 198.375 231.221 198.539 231.696 199.218ZM221.093 206.411C221.524 207.119 221.299 208.041 220.591 208.472C218.71 209.616 216.802 210.695 214.888 211.651C214.147 212.021 213.246 211.72 212.876 210.979C212.505 210.238 212.806 209.337 213.547 208.967C215.37 208.057 217.203 207.021 219.032 205.909C219.74 205.478 220.663 205.703 221.093 206.411ZM209.742 212.319C210.004 213.105 209.579 213.954 208.793 214.216C207.713 214.575 206.633 214.879 205.556 215.114C204.545 215.335 203.535 215.554 202.527 215.77C201.717 215.944 200.919 215.428 200.746 214.618C200.572 213.808 201.088 213.01 201.898 212.837C202.902 212.621 203.908 212.404 204.915 212.183C205.877 211.973 206.854 211.699 207.846 211.37C208.632 211.108 209.481 211.533 209.742 212.319ZM197.64 215.27C197.806 216.081 197.284 216.874 196.472 217.041C194.446 217.457 192.424 217.863 190.407 218.26C189.594 218.419 188.805 217.89 188.646 217.077C188.486 216.264 189.015 215.476 189.828 215.316C191.837 214.921 193.85 214.517 195.868 214.102C196.68 213.935 197.473 214.458 197.64 215.27ZM185.529 217.676C185.682 218.49 185.145 219.274 184.331 219.427C182.299 219.808 180.27 220.18 178.246 220.542C177.43 220.688 176.651 220.145 176.505 219.329C176.359 218.514 176.902 217.734 177.718 217.589C179.734 217.228 181.754 216.858 183.778 216.478C184.592 216.325 185.376 216.862 185.529 217.676ZM173.379 219.875C173.517 220.691 172.968 221.466 172.151 221.605C171.815 221.662 171.478 221.719 171.142 221.776C171.563 222.404 171.973 223.047 172.371 223.701C172.802 224.409 172.577 225.332 171.87 225.763C171.162 226.193 170.239 225.969 169.808 225.261C169.317 224.454 168.81 223.669 168.285 222.909C168.153 222.718 168.072 222.507 168.038 222.292C167.374 222.401 166.711 222.509 166.048 222.616C165.23 222.748 164.46 222.191 164.328 221.374C164.196 220.556 164.752 219.786 165.57 219.654C167.593 219.328 169.619 218.992 171.648 218.647C172.465 218.508 173.24 219.058 173.379 219.875ZM161.193 221.866C161.317 222.685 160.755 223.45 159.936 223.575C157.893 223.886 155.854 224.189 153.816 224.482C152.996 224.6 152.236 224.031 152.118 223.211C152 222.391 152.569 221.631 153.389 221.513C155.418 221.221 157.449 220.919 159.483 220.609C160.302 220.484 161.068 221.047 161.193 221.866ZM148.975 223.65C149.086 224.471 148.51 225.227 147.69 225.338C145.643 225.616 143.599 225.884 141.556 226.144C140.734 226.248 139.983 225.667 139.879 224.845C139.774 224.023 140.356 223.272 141.178 223.168C143.212 222.909 145.248 222.642 147.287 222.366C148.108 222.254 148.863 222.83 148.975 223.65ZM136.729 225.233C136.826 226.055 136.239 226.801 135.416 226.899C133.367 227.143 131.318 227.378 129.271 227.605C128.448 227.697 127.706 227.103 127.615 226.28C127.523 225.457 128.117 224.715 128.94 224.624C130.98 224.398 133.02 224.163 135.062 223.92C135.885 223.822 136.631 224.41 136.729 225.233ZM124.459 226.617C124.544 227.441 123.944 228.178 123.12 228.263C121.068 228.474 119.017 228.678 116.965 228.873C116.141 228.952 115.408 228.347 115.33 227.522C115.251 226.698 115.856 225.965 116.681 225.887C118.725 225.692 120.769 225.489 122.813 225.279C123.637 225.194 124.374 225.793 124.459 226.617ZM112.169 227.811C112.241 228.637 111.631 229.364 110.806 229.437C108.752 229.617 106.698 229.79 104.643 229.955C103.817 230.022 103.094 229.406 103.027 228.58C102.961 227.755 103.577 227.031 104.402 226.965C106.45 226.8 108.497 226.628 110.544 226.448C111.369 226.376 112.097 226.986 112.169 227.811ZM99.8629 228.824C99.9235 229.65 99.3029 230.369 98.4767 230.429C96.4217 230.58 94.3655 230.724 92.3077 230.861C91.4811 230.916 90.7664 230.29 90.7114 229.464C90.6564 228.637 91.2819 227.923 92.1085 227.867C94.1597 227.731 96.2091 227.588 98.2571 227.437C99.0833 227.377 99.8023 227.997 99.8629 228.824ZM87.5438 229.664C87.5934 230.491 86.9632 231.201 86.1363 231.251C84.0806 231.374 82.0229 231.491 79.9628 231.601C79.1356 231.646 78.429 231.011 78.3847 230.184C78.3403 229.357 78.975 228.65 79.8023 228.606C81.8562 228.496 83.9076 228.379 85.9568 228.256C86.7837 228.207 87.4943 228.837 87.5438 229.664ZM75.2148 230.344C75.2541 231.171 74.6151 231.874 73.7876 231.913C71.7318 232.011 69.6731 232.103 67.6111 232.189C66.7834 232.223 66.0845 231.58 66.05 230.752C66.0155 229.925 66.6585 229.226 67.4862 229.191C69.5425 229.105 71.5954 229.014 73.6453 228.917C74.4728 228.877 75.1755 229.516 75.2148 230.344ZM62.8784 230.876C62.9083 231.703 62.2614 232.399 61.4335 232.429C59.3778 232.503 57.3185 232.572 55.2552 232.635C54.4271 232.661 53.7352 232.01 53.7096 231.182C53.6841 230.354 54.3347 229.662 55.1627 229.637C57.2209 229.573 59.2749 229.505 61.3253 229.431C62.1532 229.401 62.8485 230.048 62.8784 230.876ZM50.537 231.272C50.5584 232.1 49.9044 232.789 49.0762 232.81C47.0209 232.863 44.9613 232.911 42.8969 232.955C42.0687 232.972 41.3831 232.315 41.3656 231.487C41.3481 230.659 42.0054 229.973 42.8336 229.956C44.8934 229.912 46.9483 229.864 48.9988 229.811C49.8269 229.79 50.5156 230.444 50.537 231.272ZM38.1923 231.547C38.206 232.375 37.5457 233.058 36.7174 233.071C34.6627 233.106 32.603 233.135 30.5379 233.161C29.7096 233.172 29.0297 232.508 29.0194 231.68C29.009 230.852 29.6722 230.172 30.5005 230.161C32.5616 230.136 34.6171 230.106 36.6675 230.072C37.4958 230.058 38.1785 230.718 38.1923 231.547ZM25.8457 231.713C25.8527 232.542 25.187 233.219 24.3586 233.226C22.3046 233.244 20.245 233.257 18.1794 233.268C17.351 233.272 16.6761 232.604 16.672 231.775C16.6679 230.947 17.3361 230.272 18.1646 230.268C20.2267 230.258 22.2826 230.244 24.3329 230.226C25.1613 230.219 25.8386 230.885 25.8457 231.713ZM12.0005 233.288C10.9706 233.289 9.93907 233.29 8.90598 233.29C8.07755 233.29 7.40598 232.619 7.40598 231.79C7.40598 230.962 8.07755 230.29 8.90598 230.29C9.93752 230.29 10.9674 230.289 11.9958 230.288C12.8242 230.286 13.4968 230.957 13.4981 231.785C13.4994 232.614 12.8289 233.286 12.0005 233.288ZM175.195 228.911C174.834 228.165 173.937 227.853 173.191 228.213C172.446 228.574 172.133 229.47 172.494 230.216C173.299 231.884 174.051 233.619 174.753 235.414C175.055 236.185 175.925 236.566 176.696 236.264C177.468 235.963 177.849 235.092 177.547 234.321C176.819 232.461 176.037 230.654 175.195 228.911ZM179.508 239.857C179.255 239.069 178.411 238.634 177.622 238.887C176.833 239.14 176.399 239.985 176.652 240.773C177.225 242.561 177.756 244.389 178.249 246.251C178.461 247.052 179.283 247.529 180.083 247.317C180.884 247.105 181.361 246.284 181.149 245.483C180.644 243.576 180.098 241.697 179.508 239.857ZM182.523 251.167C182.345 250.358 181.545 249.846 180.735 250.024C179.926 250.202 179.415 251.002 179.593 251.811C180 253.665 180.375 255.54 180.72 257.429C180.869 258.244 181.65 258.784 182.465 258.635C183.28 258.486 183.82 257.704 183.671 256.89C183.32 254.968 182.938 253.058 182.523 251.167ZM184.63 262.638C184.506 261.819 183.741 261.256 182.922 261.38C182.103 261.504 181.54 262.269 181.664 263.088C181.952 264.982 182.213 266.882 182.452 268.779C182.555 269.601 183.306 270.183 184.128 270.08C184.95 269.976 185.532 269.226 185.429 268.404C185.187 266.484 184.922 264.559 184.63 262.638ZM186.091 274.183C186.005 273.359 185.267 272.76 184.443 272.846C183.62 272.931 183.021 273.669 183.107 274.493C183.307 276.417 183.486 278.33 183.648 280.223C183.719 281.049 184.445 281.66 185.271 281.59C186.096 281.519 186.708 280.793 186.637 279.967C186.474 278.058 186.293 276.127 186.091 274.183ZM187.088 285.752C187.03 284.926 186.313 284.304 185.486 284.362C184.66 284.421 184.037 285.138 184.096 285.964C184.234 287.919 184.357 289.842 184.469 291.722C184.518 292.549 185.229 293.179 186.056 293.13C186.882 293.081 187.513 292.371 187.464 291.544C187.352 289.654 187.228 287.721 187.088 285.752ZM187.784 297.33C187.741 296.502 187.035 295.866 186.208 295.909C185.381 295.952 184.745 296.658 184.788 297.485C184.808 297.878 184.828 298.269 184.848 298.656L184.891 299.491L184.934 300.364C184.98 301.274 185.027 302.185 185.075 303.095C185.118 303.922 185.824 304.558 186.651 304.514C187.479 304.471 188.114 303.765 188.07 302.937C188.023 302.029 187.976 301.122 187.931 300.214C187.883 299.27 187.835 298.308 187.784 297.33ZM188.366 308.387C188.32 307.56 187.612 306.926 186.785 306.972C185.958 307.018 185.325 307.726 185.37 308.553L185.45 309.982L185.502 310.923L185.551 311.797L185.614 312.939C185.634 313.294 185.654 313.65 185.673 314.006C185.719 314.833 186.427 315.466 187.254 315.421C188.081 315.375 188.714 314.668 188.669 313.84C188.612 312.812 188.555 311.782 188.497 310.753L188.491 310.639C188.449 309.888 188.407 309.137 188.366 308.387ZM188.963 319.299C188.92 318.472 188.214 317.836 187.387 317.879C186.559 317.922 185.924 318.627 185.967 319.455C186.061 321.271 186.151 323.086 186.234 324.9C186.272 325.728 186.973 326.368 187.801 326.33C188.628 326.293 189.269 325.591 189.231 324.763C189.147 322.941 189.057 321.12 188.963 319.299ZM189.457 330.234C189.427 329.406 188.731 328.76 187.903 328.79C187.075 328.82 186.429 329.516 186.459 330.344C186.525 332.158 186.581 333.971 186.625 335.784C186.645 336.612 187.332 337.268 188.16 337.248C188.989 337.228 189.644 336.54 189.624 335.712C189.58 333.885 189.523 332.059 189.457 330.234ZM189.715 341.196C189.708 340.367 189.031 339.702 188.202 339.709C187.374 339.716 186.708 340.394 186.716 341.222C186.723 342.128 186.728 343.034 186.728 343.94C186.728 344.863 186.715 345.778 186.691 346.686C186.669 347.514 187.323 348.204 188.151 348.226C188.979 348.248 189.668 347.594 189.69 346.766C189.715 345.832 189.728 344.89 189.728 343.94C189.728 343.025 189.723 342.11 189.715 341.196ZM189.394 352.407C189.458 351.581 188.841 350.859 188.015 350.795C187.189 350.731 186.467 351.348 186.403 352.174C186.259 354.019 186.071 355.841 185.846 357.648C185.743 358.47 186.326 359.219 187.148 359.322C187.97 359.425 188.72 358.841 188.822 358.019C189.053 356.17 189.246 354.302 189.394 352.407ZM188.011 363.591C188.146 362.774 187.593 362.002 186.776 361.867C185.958 361.732 185.186 362.286 185.051 363.103C184.752 364.919 184.421 366.728 184.065 368.541C183.906 369.354 184.435 370.143 185.248 370.302C186.061 370.461 186.85 369.932 187.009 369.119C187.369 367.281 187.706 365.441 188.011 363.591ZM185.871 374.604C186.046 373.795 185.533 372.996 184.723 372.82C183.914 372.644 183.115 373.158 182.939 373.968C182.549 375.762 182.143 377.566 181.728 379.391C181.544 380.199 182.05 381.003 182.857 381.187C183.665 381.371 184.469 380.865 184.653 380.057C185.07 378.228 185.478 376.412 185.871 374.604ZM183.41 385.49C183.594 384.683 183.089 383.879 182.281 383.694C181.474 383.51 180.669 384.015 180.485 384.823C180.279 385.723 180.073 386.63 179.867 387.544L179.658 388.475L179.32 389.975L179.239 390.338C179.057 391.146 179.565 391.948 180.373 392.13C181.182 392.312 181.984 391.804 182.166 390.996L182.253 390.608L182.276 390.507C182.477 389.61 182.651 388.836 182.794 388.204C182.999 387.293 183.204 386.389 183.41 385.49ZM180.899 396.62C181.082 395.812 180.574 395.009 179.766 394.827C178.958 394.644 178.155 395.152 177.973 395.96C177.582 397.693 177.155 399.582 176.702 401.578C176.518 402.386 177.024 403.19 177.832 403.373C178.64 403.557 179.444 403.05 179.627 402.243C180.081 400.245 180.508 398.354 180.899 396.62ZM178.346 407.866C178.531 407.059 178.026 406.254 177.218 406.07C176.41 405.885 175.606 406.39 175.421 407.197C175.002 409.033 174.57 410.913 174.132 412.808C173.946 413.615 174.449 414.42 175.256 414.607C176.064 414.793 176.869 414.29 177.055 413.483C177.493 411.586 177.926 409.703 178.346 407.866ZM175.751 419.099C175.94 418.293 175.439 417.486 174.632 417.297C173.825 417.109 173.018 417.61 172.83 418.417C172.388 420.311 171.946 422.188 171.511 424.019C171.32 424.825 171.818 425.633 172.624 425.825C173.43 426.016 174.239 425.518 174.43 424.712C174.866 422.877 175.308 420.996 175.751 419.099ZM173.083 430.325C173.279 429.52 172.785 428.709 171.98 428.514C171.175 428.318 170.364 428.812 170.168 429.617C169.685 431.604 169.222 433.481 168.788 435.198C168.586 436.002 169.072 436.817 169.876 437.02C170.679 437.223 171.494 436.736 171.697 435.933C172.133 434.205 172.599 432.319 173.083 430.325ZM170.228 441.54C170.449 440.741 169.98 439.915 169.182 439.695C168.383 439.474 167.557 439.943 167.337 440.742C167.037 441.828 166.772 442.734 166.55 443.434C166.299 444.223 166.735 445.067 167.524 445.318C168.314 445.569 169.157 445.133 169.409 444.343C169.648 443.592 169.923 442.644 170.228 441.54ZM379.105 117.876C379.736 117.339 380.683 117.416 381.219 118.047C381.865 118.807 382.505 119.577 383.139 120.355C383.662 120.997 383.566 121.942 382.924 122.465C382.281 122.989 381.336 122.892 380.813 122.25C380.192 121.487 379.566 120.734 378.933 119.99C378.397 119.359 378.474 118.412 379.105 117.876ZM384.757 124.812C385.419 124.315 386.36 124.448 386.857 125.111C388.057 126.71 389.236 128.341 390.392 130.003C390.865 130.684 390.697 131.618 390.017 132.091C389.337 132.564 388.402 132.397 387.929 131.717C386.793 130.083 385.636 128.481 384.458 126.912C383.961 126.25 384.094 125.309 384.757 124.812ZM391.667 134.551C392.362 134.101 393.291 134.3 393.741 134.995C394.824 136.669 395.887 138.369 396.931 140.094C397.36 140.803 397.133 141.725 396.424 142.154C395.715 142.582 394.793 142.355 394.364 141.647C393.336 139.947 392.289 138.272 391.223 136.626C390.772 135.93 390.971 135.002 391.667 134.551ZM397.927 144.722C398.647 144.313 399.563 144.566 399.971 145.287C400.956 147.024 401.923 148.783 402.871 150.562C403.261 151.293 402.984 152.202 402.253 152.592C401.522 152.981 400.613 152.705 400.224 151.973C399.287 150.217 398.333 148.48 397.362 146.766C396.953 146.046 397.206 145.13 397.927 144.722ZM403.616 155.226C404.356 154.854 405.258 155.153 405.63 155.893C406.525 157.674 407.403 159.473 408.264 161.287C408.62 162.036 408.301 162.93 407.553 163.286C406.804 163.641 405.91 163.322 405.554 162.574C404.702 160.779 403.834 159.001 402.949 157.24C402.577 156.5 402.876 155.598 403.616 155.226ZM408.8 165.987C409.556 165.647 410.444 165.984 410.783 166.74C411.602 168.561 412.405 170.396 413.193 172.243C413.518 173.005 413.164 173.886 412.402 174.211C411.64 174.536 410.758 174.182 410.433 173.42C409.653 171.59 408.858 169.773 408.047 167.97C407.708 167.215 408.045 166.327 408.8 165.987ZM413.541 176.951C414.308 176.64 415.183 177.01 415.494 177.778C416.244 179.628 416.979 181.487 417.7 183.356C417.998 184.128 417.613 184.997 416.84 185.295C416.067 185.593 415.199 185.208 414.901 184.435C414.186 182.583 413.457 180.738 412.714 178.905C412.403 178.137 412.773 177.262 413.541 176.951ZM417.889 188.079C418.666 187.793 419.528 188.192 419.814 188.969C420.503 190.844 421.179 192.725 421.841 194.611C422.115 195.392 421.704 196.248 420.922 196.523C420.14 196.797 419.284 196.386 419.01 195.604C418.353 193.732 417.682 191.865 416.998 190.004C416.712 189.227 417.111 188.365 417.889 188.079ZM421.886 199.335C422.672 199.072 423.522 199.495 423.786 200.281C424.421 202.176 425.044 204.075 425.653 205.976C425.906 206.765 425.472 207.609 424.683 207.862C423.894 208.115 423.049 207.681 422.796 206.892C422.191 205.004 421.573 203.117 420.941 201.234C420.678 200.449 421.101 199.599 421.886 199.335ZM425.572 210.695C426.364 210.452 427.203 210.897 427.446 211.689C428.034 213.603 428.609 215.517 429.172 217.429C429.406 218.223 428.951 219.057 428.156 219.291C427.362 219.525 426.528 219.07 426.294 218.276C425.734 216.375 425.163 214.472 424.578 212.57C424.335 211.778 424.78 210.939 425.572 210.695ZM428.981 222.151C429.778 221.926 430.607 222.39 430.832 223.187C431.376 225.114 431.908 227.038 432.428 228.956C432.645 229.756 432.172 230.58 431.373 230.796C430.573 231.013 429.749 230.541 429.532 229.741C429.015 227.833 428.486 225.919 427.945 224.002C427.72 223.205 428.183 222.376 428.981 222.151ZM432.134 233.663C432.936 233.454 433.755 233.935 433.964 234.736C434.471 236.681 434.965 238.618 435.448 240.546C435.65 241.35 435.161 242.164 434.358 242.366C433.554 242.567 432.74 242.079 432.538 241.275C432.057 239.356 431.565 237.428 431.061 235.493C430.852 234.691 431.333 233.872 432.134 233.663ZM435.068 245.256C435.874 245.062 436.684 245.558 436.878 246.363C437.349 248.315 437.808 250.256 438.256 252.182C438.443 252.989 437.941 253.796 437.134 253.983C436.327 254.171 435.521 253.668 435.334 252.862C434.888 250.943 434.431 249.01 433.962 247.066C433.768 246.261 434.263 245.451 435.068 245.256ZM437.792 256.867C438.601 256.686 439.403 257.195 439.584 258.003C440.026 259.973 440.456 261.927 440.874 263.861C441.05 264.671 440.535 265.469 439.726 265.645C438.916 265.82 438.118 265.305 437.942 264.496C437.525 262.568 437.097 260.622 436.657 258.659C436.476 257.851 436.984 257.049 437.792 256.867ZM440.346 268.561C441.157 268.391 441.952 268.911 442.121 269.722C442.535 271.7 442.937 273.655 443.328 275.583C443.493 276.395 442.968 277.187 442.156 277.351C441.344 277.516 440.552 276.991 440.388 276.179C439.998 274.256 439.597 272.308 439.185 270.336C439.015 269.525 439.535 268.73 440.346 268.561ZM442.737 280.263C443.549 280.103 444.338 280.632 444.498 281.445C444.888 283.433 445.267 285.388 445.634 287.308C445.79 288.122 445.256 288.908 444.442 289.063C443.629 289.219 442.843 288.685 442.687 287.872C442.321 285.956 441.944 284.006 441.554 282.024C441.394 281.211 441.924 280.423 442.737 280.263ZM444.992 291.975C445.806 291.823 446.59 292.36 446.741 293.174C447.115 295.179 447.476 297.138 447.825 299.047C447.974 299.862 447.435 300.643 446.62 300.792C445.805 300.941 445.023 300.401 444.874 299.586C444.526 297.68 444.165 295.725 443.792 293.725C443.64 292.91 444.177 292.127 444.992 291.975ZM447.15 303.718C447.966 303.572 448.746 304.113 448.893 304.929C449.221 306.753 449.539 308.522 449.846 310.231L449.951 310.821C450.098 311.637 449.555 312.416 448.74 312.563C447.924 312.709 447.145 312.166 446.999 311.351L446.895 310.771C446.587 309.059 446.27 307.287 445.94 305.461C445.793 304.646 446.335 303.865 447.15 303.718ZM449.27 315.51C450.085 315.362 450.865 315.903 451.013 316.718C451.39 318.798 451.749 320.758 452.093 322.591C452.246 323.405 451.71 324.189 450.896 324.342C450.081 324.495 449.297 323.958 449.145 323.144C448.799 321.303 448.439 319.336 448.061 317.253C447.913 316.438 448.455 315.657 449.27 315.51ZM451.455 327.233C452.266 327.067 453.059 327.591 453.224 328.403C453.433 329.425 453.636 330.383 453.833 331.274C454.053 332.267 454.274 333.254 454.496 334.236C454.679 335.043 454.172 335.847 453.364 336.03C452.556 336.213 451.753 335.706 451.57 334.898C451.347 333.912 451.125 332.92 450.904 331.922C450.703 331.012 450.497 330.038 450.285 329.003C450.119 328.191 450.643 327.399 451.455 327.233ZM454.059 339.034C454.865 338.844 455.673 339.344 455.862 340.151C456.329 342.137 456.8 344.105 457.271 346.06C457.465 346.865 456.97 347.675 456.164 347.869C455.359 348.064 454.549 347.568 454.354 346.763C453.882 344.804 453.411 342.831 452.942 340.837C452.752 340.031 453.252 339.223 454.059 339.034ZM456.892 350.865C457.697 350.668 458.509 351.162 458.705 351.966L459.056 353.402L459.248 354.187L459.252 354.206C459.552 355.433 459.851 356.657 460.148 357.877C460.344 358.682 459.851 359.493 459.046 359.689C458.241 359.885 457.429 359.392 457.233 358.587C456.945 357.402 456.655 356.216 456.364 355.025L456.335 354.906C456.154 354.165 455.973 353.422 455.791 352.678C455.594 351.873 456.088 351.061 456.892 350.865ZM459.771 362.686C460.577 362.492 461.387 362.989 461.58 363.795C462.053 365.772 462.521 367.748 462.98 369.725C463.167 370.532 462.665 371.338 461.858 371.525C461.051 371.713 460.245 371.21 460.058 370.403C459.601 368.434 459.135 366.466 458.662 364.494C458.469 363.688 458.966 362.879 459.771 362.686ZM462.54 374.532C463.349 374.353 464.15 374.864 464.329 375.673C464.766 377.654 465.193 379.642 465.606 381.64C465.773 382.452 465.252 383.245 464.44 383.413C463.629 383.58 462.835 383.059 462.668 382.247C462.258 380.263 461.834 378.289 461.399 376.32C461.22 375.511 461.731 374.71 462.54 374.532ZM465.04 386.436C465.854 386.282 466.639 386.817 466.793 387.631C467.169 389.62 467.53 391.623 467.874 393.646C468.012 394.462 467.462 395.237 466.646 395.375C465.829 395.514 465.054 394.964 464.916 394.147C464.576 392.145 464.219 390.16 463.845 388.189C463.691 387.375 464.226 386.59 465.04 386.436ZM467.13 398.419C467.95 398.298 468.712 398.864 468.834 399.684C469.129 401.681 469.406 403.7 469.662 405.743C469.765 406.565 469.182 407.315 468.36 407.418C467.538 407.521 466.788 406.938 466.685 406.116C466.432 404.095 466.159 402.099 465.866 400.123C465.745 399.304 466.311 398.541 467.13 398.419ZM468.707 410.481C469.531 410.397 470.267 410.998 470.35 411.822C470.554 413.827 470.735 415.857 470.894 417.917C470.958 418.743 470.34 419.464 469.514 419.528C468.688 419.592 467.967 418.974 467.903 418.148C467.746 416.112 467.566 414.105 467.366 412.125C467.282 411.3 467.883 410.564 468.707 410.481ZM469.714 422.607C470.541 422.563 471.247 423.198 471.291 424.025C471.345 425.037 471.393 426.057 471.435 427.084L471.576 430.53C471.609 431.358 470.966 432.056 470.138 432.09C469.31 432.124 468.612 431.48 468.578 430.653L468.437 427.207C468.396 426.191 468.348 425.184 468.295 424.184C468.252 423.357 468.887 422.651 469.714 422.607ZM470.296 435.994C471.124 435.96 471.822 436.604 471.856 437.432C471.96 440.019 472.051 442.296 472.131 444.31C472.164 445.137 471.52 445.835 470.692 445.868C469.864 445.901 469.166 445.256 469.134 444.428C469.054 442.415 468.963 440.139 468.858 437.553C468.825 436.725 469.469 436.027 470.296 435.994ZM470.843 449.746C471.671 449.715 472.367 450.361 472.399 451.188C472.516 454.287 472.589 456.403 472.641 458.067C472.667 458.895 472.016 459.587 471.188 459.613C470.36 459.638 469.668 458.988 469.642 458.16C469.591 456.505 469.518 454.397 469.401 451.302C469.37 450.474 470.015 449.777 470.843 449.746ZM471.278 463.494C472.106 463.475 472.793 464.131 472.812 464.959C472.824 465.498 472.838 466.085 472.854 466.74C472.867 467.248 472.881 467.798 472.897 468.397C472.919 469.225 472.265 469.914 471.437 469.936C470.609 469.958 469.92 469.304 469.898 468.476C469.862 467.101 469.835 465.989 469.813 465.028C469.794 464.2 470.45 463.513 471.278 463.494ZM903.326 163.303C904.005 162.83 904.173 161.895 903.699 161.215C903.226 160.536 902.291 160.368 901.611 160.842C901.003 161.265 900.156 161.824 899.102 162.496C898.403 162.942 898.198 163.869 898.644 164.567C899.089 165.266 900.017 165.471 900.715 165.025C901.783 164.344 902.669 163.761 903.326 163.303ZM895.456 168.284C896.165 167.854 896.39 166.932 895.96 166.223C895.531 165.515 894.608 165.29 893.9 165.719C892.289 166.697 890.516 167.759 888.629 168.875C887.916 169.297 887.68 170.217 888.102 170.93C888.524 171.643 889.444 171.879 890.157 171.457C892.052 170.336 893.835 169.268 895.456 168.284ZM884.83 174.575C885.547 174.16 885.791 173.242 885.376 172.525C884.96 171.808 884.043 171.564 883.326 171.98C881.589 172.987 879.801 174.013 877.994 175.041C877.274 175.451 877.022 176.367 877.431 177.087C877.841 177.807 878.757 178.059 879.477 177.649C881.292 176.617 883.086 175.586 884.83 174.575ZM874.099 180.676C874.823 180.273 875.083 179.359 874.68 178.635C874.277 177.912 873.363 177.652 872.64 178.055C870.828 179.063 869.025 180.055 867.26 181.012C866.532 181.407 866.262 182.318 866.657 183.046C867.052 183.774 867.963 184.044 868.691 183.649C870.467 182.686 872.279 181.689 874.099 180.676ZM863.236 186.56C863.97 186.176 864.253 185.269 863.869 184.535C863.485 183.801 862.579 183.518 861.845 183.902C859.916 184.911 858.082 185.847 856.389 186.681C855.646 187.047 855.341 187.946 855.707 188.689C856.073 189.432 856.972 189.738 857.715 189.372C859.434 188.525 861.29 187.578 863.236 186.56ZM852.048 192.003C852.81 191.68 853.166 190.799 852.843 190.037C852.519 189.274 851.639 188.918 850.876 189.241C849.793 189.701 848.878 190.051 848.149 190.283C847.639 190.446 847.13 190.608 846.619 190.77C846.189 190.906 845.758 191.042 845.328 191.178C844.537 191.426 844.098 192.269 844.347 193.059C844.596 193.849 845.438 194.288 846.228 194.039C847.173 193.742 848.118 193.443 849.061 193.141C849.912 192.87 850.921 192.481 852.048 192.003ZM840.551 195.801C841.343 195.559 841.789 194.72 841.547 193.928C841.304 193.136 840.465 192.69 839.673 192.932C837.786 193.51 835.897 194.08 834.005 194.643C833.211 194.88 832.759 195.715 832.995 196.509C833.232 197.303 834.067 197.755 834.861 197.519C836.76 196.953 838.657 196.381 840.551 195.801ZM829.159 199.194C829.955 198.963 830.413 198.131 830.182 197.336C829.951 196.54 829.119 196.082 828.324 196.313C826.428 196.862 824.53 197.405 822.63 197.942C821.833 198.167 821.369 198.996 821.595 199.793C821.82 200.591 822.649 201.054 823.446 200.829C825.352 200.29 827.257 199.746 829.159 199.194ZM817.722 202.426C818.521 202.206 818.99 201.38 818.77 200.581C818.55 199.783 817.724 199.314 816.925 199.534C815.022 200.058 813.117 200.577 811.21 201.09C810.41 201.305 809.936 202.128 810.151 202.928C810.367 203.728 811.189 204.202 811.99 203.987C813.902 203.472 815.813 202.952 817.722 202.426ZM806.248 205.513C807.049 205.302 807.528 204.482 807.317 203.681C807.107 202.88 806.287 202.401 805.486 202.611C803.576 203.113 801.665 203.61 799.752 204.101C798.949 204.308 798.466 205.125 798.672 205.928C798.879 206.73 799.696 207.213 800.499 207.007C802.417 206.514 804.333 206.016 806.248 205.513ZM794.742 208.471C795.545 208.269 796.033 207.454 795.831 206.65C795.628 205.847 794.813 205.359 794.01 205.562C792.095 206.043 790.178 206.521 788.26 206.994C787.456 207.192 786.965 208.005 787.163 208.809C787.362 209.614 788.174 210.105 788.979 209.906C790.901 209.432 792.822 208.954 794.742 208.471ZM783.21 211.316C784.015 211.121 784.509 210.31 784.315 209.505C784.12 208.7 783.309 208.205 782.504 208.4C780.584 208.865 778.663 209.325 776.741 209.782C775.935 209.974 775.437 210.783 775.629 211.589C775.82 212.394 776.629 212.892 777.435 212.701C779.361 212.243 781.286 211.781 783.21 211.316ZM771.656 214.064C772.462 213.875 772.963 213.068 772.775 212.261C772.586 211.455 771.779 210.954 770.973 211.143C769.049 211.593 767.124 212.039 765.199 212.483C764.391 212.669 763.888 213.474 764.074 214.281C764.26 215.089 765.065 215.592 765.872 215.406C767.801 214.962 769.729 214.514 771.656 214.064ZM760.085 216.731C760.893 216.547 761.399 215.743 761.215 214.935C761.032 214.128 760.228 213.622 759.42 213.805C757.493 214.243 755.566 214.679 753.638 215.112C752.829 215.293 752.321 216.096 752.503 216.904C752.684 217.712 753.487 218.22 754.295 218.039C756.225 217.605 758.156 217.169 760.085 216.731ZM748.502 219.333C749.311 219.153 749.821 218.352 749.641 217.543C749.461 216.734 748.66 216.225 747.851 216.404C745.922 216.833 743.992 217.26 742.062 217.685C741.253 217.863 740.741 218.663 740.919 219.472C741.098 220.281 741.898 220.793 742.707 220.614C744.639 220.189 746.571 219.762 748.502 219.333ZM736.91 221.886C737.719 221.709 738.232 220.91 738.055 220.1C737.878 219.291 737.079 218.778 736.27 218.955C734.338 219.377 732.407 219.798 730.475 220.218C729.665 220.393 729.152 221.192 729.328 222.002C729.504 222.811 730.302 223.325 731.112 223.149C733.045 222.729 734.977 222.308 736.91 221.886ZM725.313 224.406C726.123 224.231 726.637 223.433 726.462 222.623C726.287 221.813 725.488 221.299 724.679 221.474C723.769 221.671 722.86 221.867 721.95 222.064C720.927 222.285 719.904 222.506 718.881 222.727C718.071 222.901 717.556 223.699 717.731 224.509C717.906 225.319 718.704 225.834 719.514 225.659C721.447 225.242 723.38 224.825 725.313 224.406ZM713.715 226.91C714.524 226.735 715.039 225.937 714.865 225.127C714.69 224.317 713.892 223.803 713.082 223.977C711.149 224.394 709.216 224.811 707.283 225.228C706.473 225.402 705.958 226.2 706.133 227.01C706.308 227.82 707.106 228.335 707.916 228.16C709.764 227.761 711.613 227.363 713.462 226.964L713.715 226.91ZM702.118 229.412C702.927 229.237 703.442 228.439 703.267 227.629C703.092 226.82 702.293 226.305 701.484 226.48C699.55 226.899 697.617 227.317 695.685 227.737C694.875 227.913 694.361 228.712 694.537 229.521C694.713 230.331 695.512 230.844 696.321 230.669C697.353 230.444 698.386 230.221 699.419 229.997C700.318 229.802 701.218 229.607 702.118 229.412ZM690.527 231.931C691.336 231.754 691.849 230.954 691.672 230.145C691.495 229.336 690.696 228.823 689.886 229C687.953 229.422 686.021 229.846 684.089 230.271C683.28 230.449 682.769 231.249 682.947 232.058C683.125 232.867 683.925 233.379 684.734 233.201C686.664 232.776 688.595 232.353 690.527 231.931Z" fill="#1949B5"/>
<path d="M189.547 105.46H178.427L176.587 110.78H170.707L180.747 82.8203H187.267L197.307 110.78H191.387L189.547 105.46ZM188.027 100.98L183.987 89.3003L179.947 100.98H188.027Z" fill="#262626"/>
<path d="M189.547 105.46H178.427L176.587 110.78H170.707L180.747 82.8203H187.267L197.307 110.78H191.387L189.547 105.46ZM188.027 100.98L183.987 89.3003L179.947 100.98H188.027Z" fill="#2367FF" fill-opacity="0.09"/>
<path d="M96.5167 299.422C98.09 299.716 99.3833 300.502 100.397 301.782C101.41 303.062 101.917 304.529 101.917 306.182C101.917 307.676 101.543 308.996 100.797 310.142C100.077 311.262 99.0233 312.142 97.6367 312.782C96.25 313.422 94.61 313.742 92.7167 313.742H80.6767V285.822H92.1967C94.09 285.822 95.7167 286.129 97.0767 286.742C98.4633 287.356 99.5033 288.209 100.197 289.302C100.917 290.396 101.277 291.636 101.277 293.022C101.277 294.649 100.837 296.009 99.9567 297.102C99.1033 298.196 97.9567 298.969 96.5167 299.422ZM86.2767 297.342H91.3967C92.73 297.342 93.7567 297.049 94.4767 296.462C95.1967 295.849 95.5567 294.982 95.5567 293.862C95.5567 292.742 95.1967 291.876 94.4767 291.262C93.7567 290.649 92.73 290.342 91.3967 290.342H86.2767V297.342ZM91.9167 309.182C93.2767 309.182 94.33 308.862 95.0767 308.222C95.85 307.582 96.2367 306.676 96.2367 305.502C96.2367 304.302 95.8367 303.369 95.0367 302.702C94.2367 302.009 93.1567 301.662 91.7967 301.662H86.2767V309.182H91.9167Z" fill="#262626"/>
<path d="M96.5167 299.422C98.09 299.716 99.3833 300.502 100.397 301.782C101.41 303.062 101.917 304.529 101.917 306.182C101.917 307.676 101.543 308.996 100.797 310.142C100.077 311.262 99.0233 312.142 97.6367 312.782C96.25 313.422 94.61 313.742 92.7167 313.742H80.6767V285.822H92.1967C94.09 285.822 95.7167 286.129 97.0767 286.742C98.4633 287.356 99.5033 288.209 100.197 289.302C100.917 290.396 101.277 291.636 101.277 293.022C101.277 294.649 100.837 296.009 99.9567 297.102C99.1033 298.196 97.9567 298.969 96.5167 299.422ZM86.2767 297.342H91.3967C92.73 297.342 93.7567 297.049 94.4767 296.462C95.1967 295.849 95.5567 294.982 95.5567 293.862C95.5567 292.742 95.1967 291.876 94.4767 291.262C93.7567 290.649 92.73 290.342 91.3967 290.342H86.2767V297.342ZM91.9167 309.182C93.2767 309.182 94.33 308.862 95.0767 308.222C95.85 307.582 96.2367 306.676 96.2367 305.502C96.2367 304.302 95.8367 303.369 95.0367 302.702C94.2367 302.009 93.1567 301.662 91.7967 301.662H86.2767V309.182H91.9167Z" fill="#2367FF" fill-opacity="0.09"/>
<path d="M301.741 277.5C301.741 274.753 302.354 272.3 303.581 270.14C304.834 267.953 306.528 266.26 308.661 265.06C310.821 263.833 313.234 263.22 315.901 263.22C319.021 263.22 321.754 264.02 324.101 265.62C326.448 267.22 328.088 269.433 329.021 272.26H322.581C321.941 270.927 321.034 269.927 319.861 269.26C318.714 268.593 317.381 268.26 315.861 268.26C314.234 268.26 312.781 268.647 311.501 269.42C310.248 270.167 309.261 271.233 308.541 272.62C307.848 274.007 307.501 275.633 307.501 277.5C307.501 279.34 307.848 280.967 308.541 282.38C309.261 283.767 310.248 284.847 311.501 285.62C312.781 286.367 314.234 286.74 315.861 286.74C317.381 286.74 318.714 286.407 319.861 285.74C321.034 285.047 321.941 284.033 322.581 282.7H329.021C328.088 285.553 326.448 287.78 324.101 289.38C321.781 290.953 319.048 291.74 315.901 291.74C313.234 291.74 310.821 291.14 308.661 289.94C306.528 288.713 304.834 287.02 303.581 284.86C302.354 282.7 301.741 280.247 301.741 277.5Z" fill="#262626"/>
<path d="M301.741 277.5C301.741 274.753 302.354 272.3 303.581 270.14C304.834 267.953 306.528 266.26 308.661 265.06C310.821 263.833 313.234 263.22 315.901 263.22C319.021 263.22 321.754 264.02 324.101 265.62C326.448 267.22 328.088 269.433 329.021 272.26H322.581C321.941 270.927 321.034 269.927 319.861 269.26C318.714 268.593 317.381 268.26 315.861 268.26C314.234 268.26 312.781 268.647 311.501 269.42C310.248 270.167 309.261 271.233 308.541 272.62C307.848 274.007 307.501 275.633 307.501 277.5C307.501 279.34 307.848 280.967 308.541 282.38C309.261 283.767 310.248 284.847 311.501 285.62C312.781 286.367 314.234 286.74 315.861 286.74C317.381 286.74 318.714 286.407 319.861 285.74C321.034 285.047 321.941 284.033 322.581 282.7H329.021C328.088 285.553 326.448 287.78 324.101 289.38C321.781 290.953 319.048 291.74 315.901 291.74C313.234 291.74 310.821 291.14 308.661 289.94C306.528 288.713 304.834 287.02 303.581 284.86C302.354 282.7 301.741 280.247 301.741 277.5Z" fill="#2367FF" fill-opacity="0.09"/>
<path d="M543.626 213.535C546.559 213.535 549.133 214.108 551.346 215.255C553.586 216.401 555.306 218.041 556.506 220.175C557.733 222.281 558.346 224.735 558.346 227.535C558.346 230.335 557.733 232.788 556.506 234.895C555.306 236.975 553.586 238.588 551.346 239.735C549.133 240.881 546.559 241.455 543.626 241.455H533.866V213.535H543.626ZM543.426 236.695C546.359 236.695 548.626 235.895 550.226 234.295C551.826 232.695 552.626 230.441 552.626 227.535C552.626 224.628 551.826 222.361 550.226 220.735C548.626 219.081 546.359 218.255 543.426 218.255H539.466V236.695H543.426Z" fill="#262626"/>
<path d="M543.626 213.535C546.559 213.535 549.133 214.108 551.346 215.255C553.586 216.401 555.306 218.041 556.506 220.175C557.733 222.281 558.346 224.735 558.346 227.535C558.346 230.335 557.733 232.788 556.506 234.895C555.306 236.975 553.586 238.588 551.346 239.735C549.133 240.881 546.559 241.455 543.626 241.455H533.866V213.535H543.626ZM543.426 236.695C546.359 236.695 548.626 235.895 550.226 234.295C551.826 232.695 552.626 230.441 552.626 227.535C552.626 224.628 551.826 222.361 550.226 220.735C548.626 219.081 546.359 218.255 543.426 218.255H539.466V236.695H543.426Z" fill="#2367FF" fill-opacity="0.09"/>
<path d="M722.966 87.3803V94.3803H732.366V98.8203H722.966V106.22H733.566V110.78H717.366V82.8203H733.566V87.3803H722.966Z" fill="#262626"/>
<path d="M722.966 87.3803V94.3803H732.366V98.8203H722.966V106.22H733.566V110.78H717.366V82.8203H733.566V87.3803H722.966Z" fill="#2367FF" fill-opacity="0.09"/>
<path d="M823.576 313.625V318.145H811.936V325.305H820.856V329.745H811.936V341.545H806.336V313.625H823.576Z" fill="#262626"/>
<path d="M823.576 313.625V318.145H811.936V325.305H820.856V329.745H811.936V341.545H806.336V313.625H823.576Z" fill="#2367FF" fill-opacity="0.09"/>
</svg>
