<svg width="396" height="396" viewBox="0 0 396 396" fill="none" xmlns="http://www.w3.org/2000/svg">
<rect width="396" height="396" rx="16" fill="white"/>
<path fill-rule="evenodd" clip-rule="evenodd" d="M226.334 51.9884C256.896 51.3053 292.616 38.0464 315.997 57.7849C339.723 77.8148 333.394 115.707 338.198 146.425C341.757 169.176 338.858 191.102 340.442 214.076C342.563 244.821 363.231 276.882 349.083 304.244C334.957 331.563 301.373 348.788 270.676 348.999C240.903 349.204 222.31 316.702 194.792 305.307C171.44 295.637 144.886 299.699 122.637 287.697C92.3137 271.339 35.0608 257.276 43.9207 223.92C54.9346 182.455 133.486 202.047 155.209 165.073C173.221 134.415 120.275 91.8329 139.205 61.7359C155.112 36.4447 196.514 52.6548 226.334 51.9884Z" fill="#CBCACD"/>
<path fill-rule="evenodd" clip-rule="evenodd" d="M232.312 53.2716C231.909 52.5474 230.996 52.2865 230.272 52.6888C229.548 53.0911 229.287 54.0043 229.689 54.7285C230.126 55.5153 230.575 56.3215 231.033 57.1439C231.437 57.8674 232.35 58.1268 233.074 57.7232C233.797 57.3197 234.057 56.406 233.653 55.6825C233.196 54.8625 232.749 54.058 232.312 53.2716ZM236.36 60.4909C235.95 59.771 235.034 59.5199 234.314 59.9299C233.595 60.3399 233.343 61.2559 233.753 61.9757C234.648 63.5471 235.576 65.1542 236.535 66.7803C236.955 67.4939 237.875 67.7314 238.589 67.3108C239.302 66.8901 239.54 65.9705 239.119 65.2569C238.17 63.6461 237.249 62.0522 236.36 60.4909ZM241.958 69.9678C241.523 69.2628 240.598 69.0439 239.893 69.4789C239.188 69.9139 238.97 70.8381 239.405 71.5431C240.373 73.1122 241.368 74.6847 242.388 76.246C242.841 76.9396 243.771 77.1344 244.464 76.6813C245.158 76.2281 245.352 75.2986 244.899 74.6051C243.895 73.068 242.914 71.5176 241.958 69.9678ZM247.969 79.1463C247.494 78.4679 246.558 78.3034 245.88 78.779C245.202 79.2545 245.037 80.1899 245.513 80.8682C246.588 82.4027 247.689 83.9125 248.812 85.3829C249.315 86.0411 250.257 86.167 250.915 85.664C251.573 85.161 251.699 84.2196 251.196 83.5614C250.1 82.1271 249.024 80.6508 247.969 79.1463ZM254.613 87.8079C254.077 87.177 253.13 87.1008 252.499 87.6377C251.868 88.1746 251.792 89.1212 252.329 89.7522C253.566 91.206 254.829 92.6009 256.117 93.9188C256.695 94.5114 257.645 94.5224 258.238 93.9435C258.83 93.3646 258.841 92.4149 258.262 91.8224C257.029 90.5593 255.812 89.2159 254.613 87.8079ZM262.194 95.5095C261.563 94.9729 260.616 95.0496 260.08 95.6808C259.543 96.3119 259.62 97.2586 260.251 97.7952C260.985 98.4187 261.726 99.0142 262.475 99.5784C262.822 99.8402 263.17 100.102 263.519 100.364C262.75 100.975 261.967 101.565 261.171 102.136C260.497 102.618 260.342 103.555 260.825 104.229C261.308 104.902 262.245 105.057 262.918 104.574C263.77 103.964 264.609 103.331 265.435 102.673C265.685 102.474 265.855 102.21 265.939 101.925C266.452 101.984 266.981 101.776 267.312 101.333C267.809 100.67 267.674 99.7301 267.01 99.2337C266.097 98.5498 265.187 97.8658 264.28 97.1826C263.582 96.6561 262.886 96.0976 262.194 95.5095ZM272.493 103.299C271.825 102.809 270.886 102.954 270.396 103.622C269.906 104.29 270.05 105.228 270.718 105.718C272.558 107.068 274.411 108.41 276.277 109.739C276.952 110.22 277.889 110.063 278.369 109.388C278.85 108.713 278.692 107.776 278.018 107.296C276.164 105.976 274.323 104.642 272.493 103.299ZM283.602 111.198C282.918 110.73 281.984 110.905 281.516 111.588C281.049 112.272 281.223 113.205 281.907 113.673C283.8 114.969 285.706 116.244 287.624 117.492C288.318 117.944 289.247 117.747 289.699 117.053C290.151 116.358 289.954 115.429 289.26 114.977C287.364 113.744 285.478 112.482 283.602 111.198ZM295.008 118.605C294.301 118.173 293.377 118.396 292.946 119.103C292.514 119.81 292.737 120.734 293.444 121.165C294.426 121.765 295.411 122.356 296.399 122.936C297.437 123.547 298.425 124.122 299.368 124.663C300.086 125.075 301.003 124.827 301.415 124.108C301.828 123.39 301.579 122.473 300.861 122.061C299.929 121.526 298.95 120.957 297.919 120.35C296.947 119.778 295.976 119.196 295.008 118.605ZM306.799 125.338C306.065 124.953 305.159 125.236 304.774 125.97C304.389 126.704 304.673 127.61 305.406 127.995C307.673 129.183 309.699 130.158 311.66 131.009C312.42 131.338 313.303 130.99 313.633 130.23C313.963 129.47 313.614 128.586 312.854 128.257C310.971 127.439 309.012 126.497 306.799 125.338ZM319.115 130.653C318.331 130.388 317.479 130.809 317.214 131.594C316.949 132.378 317.37 133.23 318.155 133.495C320.17 134.176 322.306 134.831 324.732 135.549C325.526 135.785 326.361 135.332 326.596 134.537C326.831 133.743 326.378 132.908 325.584 132.673C323.171 131.958 321.077 131.316 319.115 130.653ZM332.142 134.594C331.348 134.361 330.514 134.817 330.281 135.612C330.048 136.407 330.504 137.24 331.299 137.473C332.336 137.777 333.425 138.097 334.574 138.438C335.368 138.674 336.203 138.221 336.438 137.427C336.674 136.633 336.221 135.798 335.427 135.562C334.274 135.22 333.182 134.898 332.142 134.594ZM339.649 219.352C340.396 218.994 340.711 218.098 340.353 217.351C339.994 216.604 339.098 216.289 338.351 216.648C337.604 217.007 336.645 217.402 335.523 217.822C334.747 218.112 334.353 218.976 334.643 219.752C334.934 220.528 335.798 220.922 336.574 220.632C337.739 220.196 338.789 219.765 339.649 219.352ZM330.433 222.7C331.224 222.454 331.665 221.613 331.419 220.822C331.172 220.031 330.331 219.59 329.54 219.836C327.545 220.458 325.456 221.074 323.439 221.651C322.643 221.879 322.182 222.71 322.41 223.506C322.638 224.303 323.469 224.763 324.265 224.535C326.296 223.954 328.409 223.331 330.433 222.7ZM318.086 226.259C318.885 226.041 319.356 225.216 319.138 224.417C318.919 223.617 318.094 223.147 317.295 223.365C316.565 223.564 315.889 223.748 315.276 223.915L315.215 223.931C314.857 224.029 314.522 224.12 314.211 224.205C313.133 224.498 312.05 224.787 310.964 225.074C310.163 225.286 309.685 226.107 309.897 226.908C310.108 227.708 310.929 228.186 311.73 227.975C312.821 227.686 313.911 227.396 314.999 227.099C315.324 227.011 315.678 226.914 316.058 226.811C316.673 226.644 317.355 226.458 318.086 226.259ZM305.214 229.696C306.014 229.481 306.488 228.658 306.273 227.858C306.058 227.058 305.235 226.584 304.435 226.799C302.256 227.385 300.072 227.991 297.9 228.646C297.107 228.885 296.658 229.721 296.897 230.515C297.136 231.308 297.973 231.757 298.766 231.518C300.898 230.876 303.05 230.278 305.214 229.696ZM292.44 233.604C293.219 233.321 293.62 232.46 293.337 231.682C293.054 230.903 292.193 230.502 291.415 230.785C290.341 231.175 289.274 231.585 288.214 232.017C287.283 232.396 286.349 232.787 285.413 233.189C284.652 233.515 284.299 234.397 284.626 235.159C284.953 235.92 285.835 236.272 286.596 235.945C287.515 235.551 288.432 235.168 289.346 234.795C290.368 234.378 291.4 233.983 292.44 233.604ZM281.166 238.4C281.914 238.044 282.232 237.149 281.875 236.401C281.519 235.653 280.624 235.336 279.876 235.692C278.056 236.558 276.24 237.468 274.441 238.42C273.709 238.807 273.43 239.715 273.818 240.447C274.205 241.18 275.113 241.459 275.845 241.071C277.603 240.14 279.381 239.25 281.166 238.4ZM270.658 243.976C271.371 243.553 271.606 242.633 271.183 241.921C270.761 241.208 269.841 240.973 269.128 241.395C267.373 242.435 265.648 243.519 263.967 244.646C263.278 245.107 263.094 246.039 263.556 246.727C264.017 247.415 264.949 247.599 265.637 247.138C267.269 246.044 268.947 244.99 270.658 243.976ZM260.826 250.587C261.483 250.082 261.606 249.14 261.101 248.484C260.596 247.827 259.654 247.704 258.997 248.209C258.184 248.834 257.385 249.471 256.603 250.12C255.75 250.827 254.921 251.526 254.113 252.216C253.484 252.754 253.41 253.701 253.948 254.331C254.486 254.96 255.433 255.034 256.063 254.496C256.859 253.816 257.677 253.127 258.518 252.429C259.271 251.805 260.04 251.191 260.826 250.587ZM251.262 258.743C251.872 258.183 251.913 257.234 251.353 256.624C250.793 256.014 249.844 255.973 249.234 256.533C247.566 258.063 246.002 259.56 244.526 261.034C243.94 261.62 243.94 262.569 244.525 263.155C245.111 263.741 246.061 263.742 246.647 263.156C248.09 261.714 249.624 260.246 251.262 258.743ZM242.629 266.862C242.609 267.19 242.482 267.514 242.244 267.776C240.774 269.4 239.4 271.006 238.098 272.613C237.577 273.256 236.632 273.355 235.988 272.834C235.345 272.312 235.246 271.367 235.768 270.724C237.037 269.157 238.373 267.591 239.796 266.011C239.117 265.621 238.468 265.217 237.842 264.799C237.153 264.339 236.967 263.408 237.427 262.719C237.887 262.029 238.818 261.844 239.508 262.303C240.495 262.962 241.541 263.583 242.681 264.163C243.419 264.539 243.713 265.443 243.337 266.181C243.178 266.493 242.924 266.726 242.629 266.862ZM234.222 277.67C234.708 277 234.559 276.062 233.889 275.575C233.218 275.089 232.28 275.238 231.794 275.909C230.514 277.673 229.289 279.456 228.09 281.274C227.634 281.966 227.826 282.896 228.517 283.352C229.209 283.808 230.139 283.617 230.595 282.925C231.772 281.139 232.972 279.394 234.222 277.67ZM227.161 288.333C227.595 287.627 227.375 286.703 226.669 286.269C225.964 285.835 225.04 286.055 224.606 286.761C223.501 288.556 222.395 290.401 221.263 292.31C220.841 293.023 221.076 293.943 221.789 294.366C222.501 294.788 223.421 294.553 223.844 293.84C224.971 291.939 226.068 290.109 227.161 288.333ZM220.57 299.401C220.989 298.686 220.75 297.767 220.036 297.348C219.321 296.928 218.402 297.167 217.983 297.882C216.935 299.667 215.85 301.512 214.712 303.431C214.29 304.144 214.525 305.064 215.238 305.487C215.95 305.909 216.87 305.674 217.293 304.961C218.435 303.036 219.522 301.186 220.57 299.401ZM213.966 310.517C214.395 309.809 214.168 308.886 213.46 308.457C212.751 308.028 211.829 308.255 211.4 308.963C210.854 309.864 210.295 310.782 209.722 311.716C209.289 312.422 209.51 313.345 210.216 313.779C210.922 314.212 211.845 313.991 212.279 313.285C212.855 312.345 213.417 311.423 213.966 310.517ZM258.177 105.946C258.6 106.658 258.366 107.579 257.654 108.002C255.859 109.068 254.029 110.065 252.179 111.013C251.442 111.391 250.538 111.1 250.16 110.362C249.782 109.625 250.073 108.721 250.811 108.343C252.616 107.418 254.39 106.451 256.121 105.423C256.833 104.999 257.754 105.234 258.177 105.946ZM247.319 111.736C247.668 112.488 247.342 113.38 246.59 113.729C244.719 114.598 242.837 115.441 240.961 116.277C240.204 116.614 239.318 116.274 238.98 115.517C238.643 114.76 238.983 113.873 239.74 113.536C241.614 112.701 243.478 111.866 245.327 111.008C246.078 110.659 246.97 110.985 247.319 111.736ZM236.098 116.801C236.441 117.555 236.107 118.444 235.353 118.787C234.422 119.21 233.496 119.636 232.575 120.068C231.847 120.41 231.119 120.754 230.391 121.1C229.643 121.456 228.748 121.137 228.392 120.389C228.037 119.641 228.355 118.746 229.104 118.39C229.834 118.043 230.567 117.697 231.3 117.352C232.235 116.914 233.173 116.482 234.112 116.056C234.866 115.713 235.755 116.047 236.098 116.801ZM226.727 121.184C227.081 121.934 226.76 122.828 226.011 123.181C224.546 123.873 223.073 124.559 221.588 125.226C220.833 125.566 219.945 125.229 219.605 124.474C219.265 123.718 219.603 122.83 220.358 122.49C221.819 121.833 223.274 121.156 224.731 120.468C225.48 120.115 226.374 120.435 226.727 121.184ZM217.912 125.207C218.226 125.974 217.858 126.85 217.091 127.163C216.334 127.473 215.573 127.775 214.807 128.068C213.878 128.423 212.944 128.76 212.008 129.081C211.224 129.351 210.371 128.934 210.102 128.15C209.833 127.367 210.249 126.513 211.033 126.244C211.941 125.932 212.842 125.607 213.736 125.266C214.478 124.982 215.218 124.688 215.956 124.387C216.723 124.073 217.598 124.44 217.912 125.207ZM207.38 129.001C207.613 129.796 207.158 130.63 206.364 130.864C204.545 131.398 202.719 131.906 200.905 132.411L200.713 132.465C199.915 132.687 199.088 132.22 198.866 131.422C198.644 130.624 199.11 129.797 199.909 129.575L200.093 129.523L200.094 129.523L200.094 129.523C201.913 129.016 203.72 128.513 205.518 127.985C206.313 127.752 207.146 128.207 207.38 129.001ZM196.121 132.195C196.356 132.989 195.903 133.824 195.108 134.059C194.181 134.334 193.257 134.615 192.339 134.907C191.422 135.198 190.549 135.479 189.713 135.75C188.925 136.006 188.079 135.574 187.823 134.786C187.568 133.998 187.999 133.152 188.787 132.896C189.628 132.624 190.508 132.341 191.431 132.048C192.371 131.749 193.314 131.461 194.257 131.182C195.051 130.947 195.886 131.4 196.121 132.195ZM185.424 135.58C185.686 136.366 185.262 137.215 184.476 137.477L183.728 137.727C182.135 138.258 180.654 138.752 179.215 139.218C178.427 139.474 177.581 139.042 177.326 138.254C177.071 137.465 177.503 136.62 178.291 136.364C179.716 135.903 181.184 135.413 182.778 134.881L183.527 134.631C184.313 134.369 185.162 134.794 185.424 135.58ZM174.911 139C175.138 139.796 174.676 140.626 173.879 140.853C172.185 141.335 170.42 141.799 168.463 142.261C167.657 142.452 166.849 141.953 166.658 141.147C166.468 140.34 166.967 139.532 167.773 139.342C169.685 138.89 171.407 138.438 173.057 137.968C173.854 137.741 174.684 138.203 174.911 139ZM164.188 141.679C164.351 142.491 163.824 143.282 163.012 143.445C162.141 143.619 161.232 143.795 160.277 143.974C159.463 144.127 158.679 143.591 158.526 142.776C158.373 141.962 158.91 141.178 159.724 141.026C160.668 140.849 161.565 140.675 162.423 140.503C163.235 140.34 164.025 140.867 164.188 141.679ZM100.882 192.049C100.08 191.839 99.2603 192.318 99.0496 193.119C98.839 193.92 99.3178 194.74 100.119 194.951C101.039 195.193 101.999 195.452 102.992 195.728C103.791 195.95 104.617 195.482 104.839 194.684C105.061 193.886 104.593 193.059 103.795 192.837C102.789 192.558 101.816 192.295 100.882 192.049ZM109.586 194.513C108.792 194.275 107.956 194.725 107.718 195.519C107.479 196.312 107.93 197.149 108.723 197.387C110.564 197.939 112.474 198.53 114.432 199.154C115.221 199.405 116.065 198.969 116.316 198.18C116.568 197.39 116.132 196.547 115.342 196.295C113.369 195.667 111.443 195.071 109.586 194.513ZM121.068 198.167C120.283 197.904 119.433 198.327 119.169 199.112C118.906 199.898 119.33 200.748 120.115 201.011C121.985 201.638 123.876 202.287 125.77 202.953C126.551 203.228 127.408 202.817 127.683 202.036C127.958 201.255 127.547 200.398 126.766 200.123C124.857 199.452 122.952 198.798 121.068 198.167ZM132.434 202.167C131.656 201.88 130.794 202.277 130.507 203.054C130.219 203.831 130.616 204.693 131.393 204.981C133.277 205.677 135.145 206.385 136.979 207.101C137.751 207.402 138.621 207.02 138.922 206.248C139.223 205.477 138.841 204.607 138.069 204.306C136.217 203.583 134.332 202.869 132.434 202.167ZM143.668 206.557C142.902 206.239 142.025 206.602 141.707 207.367C141.389 208.132 141.752 209.01 142.517 209.328C144.411 210.114 146.242 210.902 147.989 211.686C148.745 212.026 149.632 211.688 149.972 210.932C150.311 210.176 149.973 209.289 149.218 208.949C147.442 208.152 145.584 207.353 143.668 206.557ZM154.696 211.536C153.955 211.166 153.054 211.467 152.684 212.208C152.314 212.949 152.614 213.85 153.355 214.22C154.271 214.677 155.146 215.13 155.977 215.577C156.875 216.061 157.774 216.543 158.673 217.025C159.404 217.416 160.313 217.141 160.704 216.411C161.095 215.68 160.82 214.771 160.09 214.38C159.192 213.899 158.295 213.418 157.398 212.935C156.538 212.473 155.636 212.006 154.696 211.536ZM165.481 217.255C164.749 216.866 163.841 217.144 163.452 217.876C163.064 218.608 163.342 219.516 164.074 219.904C165.876 220.861 167.679 221.814 169.484 222.765C170.217 223.151 171.124 222.87 171.51 222.137C171.896 221.404 171.615 220.497 170.882 220.111C169.08 219.161 167.279 218.209 165.481 217.255ZM176.293 222.952C175.559 222.567 174.652 222.851 174.268 223.585C173.884 224.319 174.167 225.225 174.901 225.61C176.708 226.555 178.516 227.499 180.325 228.44C181.06 228.823 181.966 228.537 182.349 227.802C182.731 227.067 182.445 226.162 181.711 225.779C179.903 224.839 178.097 223.896 176.293 222.952ZM187.135 228.596C186.399 228.215 185.494 228.502 185.113 229.238C184.732 229.973 185.019 230.879 185.755 231.26C187.565 232.198 189.376 233.135 191.187 234.071C191.923 234.451 192.828 234.162 193.209 233.426C193.589 232.69 193.3 231.785 192.564 231.405C190.754 230.47 188.944 229.534 187.135 228.596ZM197.997 234.209C197.261 233.829 196.356 234.118 195.977 234.855C195.597 235.591 195.886 236.496 196.623 236.875C198.435 237.809 200.247 238.743 202.059 239.676C202.796 240.055 203.7 239.766 204.079 239.029C204.459 238.293 204.169 237.388 203.433 237.009C201.621 236.076 199.809 235.142 197.997 234.209ZM208.869 239.809C208.133 239.429 207.228 239.719 206.849 240.455C206.469 241.192 206.759 242.096 207.495 242.476C208.401 242.942 209.307 243.409 210.213 243.876C211.073 244.319 211.913 244.772 212.736 245.235C213.458 245.642 214.372 245.386 214.779 244.665C215.185 243.943 214.93 243.028 214.208 242.621C213.352 242.14 212.48 241.669 211.587 241.209C210.681 240.742 209.775 240.276 208.869 239.809ZM219.282 245.739C218.593 245.279 217.662 245.464 217.202 246.153C216.742 246.842 216.927 247.773 217.616 248.233C219.207 249.297 220.749 250.413 222.263 251.591C222.917 252.099 223.86 251.982 224.368 251.328C224.877 250.674 224.759 249.731 224.105 249.223C222.537 248.003 220.937 246.844 219.282 245.739ZM228.671 253.011C228.049 252.464 227.102 252.524 226.554 253.146C226.007 253.768 226.067 254.715 226.689 255.263C227.402 255.891 228.115 256.536 228.828 257.196C229.14 257.485 229.45 257.773 229.757 258.059L229.772 258.073L229.773 258.073C230.413 258.669 231.044 259.255 231.666 259.823C232.278 260.382 233.227 260.338 233.786 259.727C234.344 259.115 234.301 258.166 233.689 257.607C233.078 257.05 232.466 256.481 231.833 255.892L231.828 255.888C231.514 255.595 231.194 255.298 230.867 254.995C230.136 254.318 229.405 253.657 228.671 253.011Z" fill="#CD2929"/>
<path d="M241.5 268.5L211.5 313C213.667 315 197.8 312.3 117 285.5C36.1998 258.7 38.3332 224.667 49.4998 211C58.1665 204.5 80.6998 191.9 101.5 193.5C122.3 195.1 190.167 230.5 221.5 248L241.5 268.5Z" fill="#388EFE" fill-opacity="0.75"/>
</svg>
