<svg width="400" height="216" viewBox="0 0 400 216" fill="none" xmlns="http://www.w3.org/2000/svg">
<rect width="400" height="216" rx="16" fill="white"/>
<g opacity="0.3">
<path fill-rule="evenodd" clip-rule="evenodd" d="M199.058 47.0762C238.702 47.9243 277.885 8.99119 310.96 30.874C351.851 57.928 387.806 113.927 367.735 158.675C348.054 202.553 284.007 191.925 236.253 197.431C212.352 200.187 193.111 186.237 169.517 181.53C122.785 172.207 59.366 198.871 35.7902 157.44C11.6767 115.063 40.6049 53.2536 80.9901 25.9545C115.844 2.39464 157.005 46.1766 199.058 47.0762Z" fill="#D8D8D8"/>
<path fill-rule="evenodd" clip-rule="evenodd" d="M199.058 47.0762C238.702 47.9243 277.885 8.99119 310.96 30.874C351.851 57.928 387.806 113.927 367.735 158.675C348.054 202.553 284.007 191.925 236.253 197.431C212.352 200.187 193.111 186.237 169.517 181.53C122.785 172.207 59.366 198.871 35.7902 157.44C11.6767 115.063 40.6049 53.2536 80.9901 25.9545C115.844 2.39464 157.005 46.1766 199.058 47.0762Z" fill="#2367FF" fill-opacity="0.01"/>
</g>
<path d="M91.2272 97.8989C68.2272 101.399 31.7272 106.899 29.7359 100.288C27.7445 93.6766 28.9579 79.431 48.4835 56.7693C63.4819 39.3619 66.4163 38.1439 72.8557 32.5233C84.7222 22.1657 93.017 17.1165 110.351 19.468C124.099 21.3331 140.347 30.4512 155.97 35.6319C176.593 42.4705 175.968 44.3354 165.969 56.7693C156.499 68.5457 142.007 73.2831 129.099 79.7718C113.664 87.5302 105.949 95.6587 91.2272 97.8989Z" fill="#6C99FF"/>
<path opacity="0.6" fill-rule="evenodd" clip-rule="evenodd" d="M237.929 37.8387C238.558 37.2995 239.505 37.3724 240.045 38.0014C240.658 38.7171 241.264 39.4353 241.862 40.1561C242.392 40.7934 242.304 41.7391 241.667 42.2683C241.029 42.7976 240.084 42.7099 239.554 42.0726C238.966 41.3639 238.37 40.6576 237.767 39.9538C237.228 39.3248 237.3 38.3778 237.929 37.8387ZM243.29 44.2877C243.944 43.7793 244.886 43.8973 245.395 44.5514C246.554 46.0429 247.683 47.5459 248.782 49.0607C249.268 49.7313 249.119 50.6692 248.448 51.1556C247.778 51.642 246.84 51.4926 246.353 50.822C245.274 49.3344 244.166 47.8581 243.026 46.3926C242.518 45.7385 242.636 44.7961 243.29 44.2877ZM249.933 53.2774C250.62 52.8142 251.552 52.9956 252.015 53.6825C253.07 55.2471 254.094 56.8245 255.087 58.4153C255.526 59.118 255.312 60.0433 254.609 60.4821C253.907 60.9209 252.981 60.7069 252.543 60.0042C251.568 58.4433 250.563 56.8953 249.528 55.3596C249.065 54.6727 249.246 53.7405 249.933 53.2774ZM255.942 62.7032C256.66 62.2898 257.577 62.5365 257.991 63.2544C258.931 64.8867 259.84 66.5331 260.719 68.1944C261.106 68.9266 260.827 69.8343 260.095 70.2217C259.362 70.6091 258.455 70.3296 258.067 69.5973C257.205 67.9679 256.313 66.3529 255.391 64.7517C254.977 64.0338 255.224 63.1167 255.942 62.7032ZM261.265 72.5326C262.01 72.1718 262.907 72.4839 263.268 73.2296C264.087 74.9219 264.875 76.6294 265.634 78.3529C265.968 79.1111 265.624 79.9963 264.866 80.3301C264.108 80.664 263.223 80.32 262.889 79.5618C262.144 77.8711 261.371 76.1961 260.568 74.5362C260.207 73.7904 260.519 72.8934 261.265 72.5326ZM265.867 82.719C266.637 82.4123 267.509 82.7874 267.816 83.557C268.511 85.2996 269.176 87.0583 269.813 88.8338C270.093 89.6136 269.688 90.4725 268.908 90.7523C268.128 91.032 267.269 90.6267 266.99 89.847C266.364 88.104 265.711 86.3778 265.029 84.6678C264.723 83.8983 265.098 83.0257 265.867 82.719ZM269.741 93.2043C270.53 92.9512 271.374 93.3854 271.627 94.1742C272.199 95.9564 272.744 97.7553 273.261 99.5715C273.488 100.368 273.026 101.198 272.23 101.425C271.433 101.652 270.603 101.19 270.376 100.393C269.867 98.6086 269.332 96.8413 268.771 95.0909C268.518 94.3021 268.952 93.4574 269.741 93.2043ZM274.689 104.915C274.7 104.948 274.71 104.983 274.719 105.018C274.947 105.927 275.169 106.84 275.384 107.757C275.599 108.675 275.806 109.594 276.005 110.513C276.181 111.322 275.667 112.121 274.858 112.297C274.048 112.473 273.249 111.959 273.073 111.149C272.877 110.245 272.674 109.342 272.463 108.442C272.251 107.54 272.033 106.642 271.809 105.748C271.763 105.563 271.753 105.378 271.775 105.2C271.397 105.003 271.106 104.646 271.006 104.198C270.826 103.389 271.335 102.588 272.143 102.407C273.196 102.172 274.25 101.939 275.304 101.707C276.113 101.529 276.913 102.04 277.091 102.849C277.269 103.658 276.758 104.459 275.949 104.637C275.529 104.729 275.109 104.822 274.689 104.915ZM275.372 114.845C276.186 114.69 276.971 115.224 277.126 116.038C277.478 117.882 277.81 119.726 278.132 121.57C278.275 122.386 277.729 123.163 276.913 123.306C276.097 123.449 275.32 122.903 275.177 122.087C274.856 120.253 274.527 118.424 274.179 116.6C274.024 115.786 274.558 115 275.372 114.845ZM277.35 125.869C278.167 125.73 278.942 126.279 279.081 127.096C279.393 128.937 279.706 130.773 280.028 132.607C280.171 133.423 279.626 134.2 278.81 134.344C277.994 134.487 277.217 133.942 277.073 133.126C276.75 131.283 276.436 129.439 276.123 127.599C275.984 126.782 276.534 126.007 277.35 125.869ZM279.275 136.902C280.089 136.745 280.875 137.278 281.031 138.092C281.206 139.003 281.386 139.913 281.572 140.821C281.73 141.596 281.895 142.372 282.063 143.149C282.239 143.959 281.725 144.757 280.915 144.933C280.105 145.108 279.307 144.594 279.131 143.785C278.961 142.999 278.794 142.212 278.632 141.422C278.444 140.501 278.262 139.579 278.085 138.658C277.929 137.844 278.462 137.058 279.275 136.902ZM281.309 146.684C282.118 146.505 282.919 147.015 283.099 147.823C283.445 149.386 283.788 150.96 284.106 152.543C284.269 153.355 283.743 154.145 282.93 154.308C282.118 154.471 281.328 153.945 281.165 153.133C280.853 151.581 280.516 150.031 280.17 148.473C279.99 147.665 280.501 146.864 281.309 146.684ZM283.253 156.074C284.072 155.949 284.838 156.51 284.964 157.329C285.088 158.132 285.2 158.94 285.298 159.751C285.424 160.791 285.538 161.828 285.641 162.864C285.723 163.689 285.121 164.423 284.297 164.505C283.472 164.587 282.738 163.985 282.656 163.161C282.555 162.146 282.443 161.13 282.32 160.112C282.226 159.335 282.118 158.56 281.999 157.785C281.873 156.966 282.435 156.2 283.253 156.074ZM284.549 167.694C285.375 167.644 286.087 168.273 286.137 169.1C286.264 171.181 286.355 173.259 286.418 175.338C286.443 176.166 285.792 176.858 284.964 176.883C284.136 176.908 283.444 176.257 283.419 175.429C283.357 173.376 283.267 171.329 283.143 169.283C283.092 168.456 283.722 167.745 284.549 167.694ZM285.021 180.082C285.849 180.075 286.526 180.741 286.533 181.569C286.541 182.605 286.545 183.642 286.545 184.681C286.545 184.964 286.536 185.328 286.527 185.724V185.726V185.727L286.524 185.851C286.513 186.306 286.502 186.819 286.499 187.365C286.494 188.193 285.818 188.861 284.99 188.856C284.161 188.851 283.494 188.175 283.499 187.347C283.502 186.773 283.514 186.238 283.525 185.781L283.528 185.667L283.528 185.665C283.537 185.254 283.545 184.927 283.545 184.681C283.545 183.649 283.541 182.62 283.533 181.594C283.526 180.765 284.193 180.088 285.021 180.082ZM285.076 191.226C285.877 191.016 286.697 191.495 286.907 192.297C287.027 192.753 287.16 193.061 287.28 193.247C287.312 193.297 287.338 193.331 287.358 193.355C287.375 193.374 287.387 193.385 287.395 193.392C288.167 193.662 288.581 194.503 288.322 195.281C288.06 196.067 287.21 196.492 286.424 196.23C285.649 195.972 285.114 195.426 284.756 194.87C284.403 194.32 284.169 193.682 284.005 193.058C283.795 192.256 284.275 191.436 285.076 191.226ZM287.4 193.396C287.403 193.397 287.404 193.398 287.404 193.398L287.403 193.398L287.4 193.396ZM175.249 42.2225C176.018 42.5302 176.392 43.4032 176.085 44.1723C175.886 44.6683 175.671 45.1796 175.439 45.7015C175.102 46.4584 174.215 46.799 173.458 46.4622C172.701 46.1254 172.361 45.2388 172.698 44.4819C172.914 43.9949 173.115 43.5188 173.299 43.0582C173.607 42.289 174.48 41.9149 175.249 42.2225ZM173.367 46.6489C174.097 47.0408 174.371 47.9501 173.979 48.68C173.721 49.1618 173.449 49.6457 173.165 50.1286C172.73 50.8688 172.292 51.69 171.837 52.5657C171.454 53.3006 170.548 53.5864 169.814 53.2039C169.079 52.8215 168.793 51.9158 169.175 51.1809C169.635 50.2968 170.103 49.4182 170.579 48.6075C170.843 48.1597 171.095 47.7098 171.336 47.261C171.728 46.5311 172.637 46.2571 173.367 46.6489ZM168.569 55.6117C169.275 56.0451 169.496 56.9688 169.062 57.6748C168.518 58.5621 167.93 59.4203 167.289 60.184C166.962 60.5731 166.607 60.9392 166.232 61.2845C166.87 62.036 167.491 62.8113 168.096 63.6084C168.597 64.2682 168.468 65.2092 167.808 65.7101C167.149 66.2111 166.208 66.0824 165.707 65.4226C165.124 64.6548 164.527 63.9108 163.916 63.1924C163.674 62.9073 163.557 62.5578 163.559 62.2108C163.408 62.1192 163.27 61.999 163.154 61.8513C162.644 61.1989 162.759 60.2562 163.411 59.7455C164.027 59.2636 164.56 58.7689 164.991 58.2551C165.507 57.641 166.009 56.9149 166.506 56.1052C166.939 55.3992 167.863 55.1782 168.569 55.6117ZM161.446 62.8588C161.851 63.5817 161.593 64.4957 160.87 64.9004C160.685 65.0041 160.503 65.1054 160.325 65.2047L160.323 65.2054C159.757 65.5207 159.227 65.8162 158.73 66.1081C157.953 66.5644 157.175 67.0187 156.396 67.4708C155.679 67.8865 154.761 67.6425 154.346 66.9259C153.93 66.2093 154.174 65.2914 154.891 64.8758C155.665 64.4266 156.438 63.975 157.211 63.5214C157.74 63.2105 158.312 62.8918 158.885 62.5725C159.058 62.4758 159.232 62.3791 159.405 62.2825C160.127 61.8779 161.041 62.1359 161.446 62.8588ZM152.271 68.1124C152.678 68.8344 152.422 69.749 151.7 70.1553C150.128 71.04 148.55 71.9139 146.963 72.7747C146.235 73.1698 145.325 72.8998 144.93 72.1717C144.534 71.4436 144.804 70.533 145.533 70.1379C147.104 69.285 148.669 68.4188 150.229 67.541C150.95 67.1347 151.865 67.3905 152.271 68.1124ZM142.82 73.2934C143.202 74.0286 142.915 74.9341 142.18 75.3161C141.379 75.7323 140.575 76.1449 139.769 76.5534C138.674 77.1085 137.591 77.6639 136.519 78.221C135.784 78.6029 134.878 78.3165 134.496 77.5813C134.115 76.8461 134.401 75.9406 135.136 75.5587C136.218 74.9969 137.309 74.437 138.413 73.8776C139.21 73.4737 140.004 73.0657 140.797 72.6539C141.532 72.272 142.438 72.5583 142.82 73.2934ZM130.671 79.6221C131.07 80.3482 130.804 81.2601 130.078 81.6589C127.941 82.8321 125.831 84.0257 123.728 85.253C123.013 85.6707 122.094 85.4293 121.677 84.7139C121.259 83.9985 121.5 83.0799 122.216 82.6622C124.342 81.4211 126.475 80.2145 128.634 79.0292C129.36 78.6305 130.272 78.8959 130.671 79.6221ZM117.963 86.9514C118.4 87.655 118.184 88.5799 117.481 89.0172C116.455 89.6545 115.428 90.3029 114.396 90.964C113.589 91.4813 112.713 92.0949 111.761 92.7623L111.566 92.8989C110.888 93.3742 109.953 93.2096 109.477 92.5311C109.002 91.8527 109.166 90.9173 109.845 90.4419L110.054 90.2951L110.055 90.2946C110.991 89.6386 111.916 88.9904 112.778 88.4381C113.821 87.7696 114.86 87.1138 115.897 86.4693C116.601 86.032 117.525 86.2478 117.963 86.9514ZM106.144 94.7169C106.514 95.4581 106.213 96.3589 105.472 96.7291C104.304 97.3122 103.087 97.7973 101.859 98.0659C100.875 98.2812 99.8935 98.49 98.9156 98.6924C98.1043 98.8602 97.3106 98.3386 97.1428 97.5274C96.9749 96.7161 97.4965 95.9224 98.3077 95.7546C99.2746 95.5545 100.245 95.3481 101.218 95.1352C102.126 94.9365 103.102 94.5593 104.132 94.0452C104.873 93.6751 105.774 93.9758 106.144 94.7169ZM94.2171 98.0981C94.3664 98.9129 93.8269 99.6946 93.012 99.8439C92.2429 99.9848 91.4753 100.122 90.7092 100.255C91.0729 100.891 91.4095 101.552 91.7213 102.233C92.0661 102.987 91.7349 103.877 90.9817 104.222C90.2284 104.566 89.3382 104.235 88.9935 103.482C88.5483 102.509 88.0582 101.608 87.5193 100.791C87.4403 100.803 87.3614 100.816 87.2825 100.829C87.2157 100.839 87.149 100.85 87.0823 100.861C86.2642 100.991 85.4951 100.434 85.3644 99.6162C85.2336 98.7982 85.7908 98.029 86.6089 97.8983C88.5544 97.5874 90.5077 97.2528 92.4713 96.893C93.2862 96.7437 94.0678 97.2832 94.2171 98.0981ZM82.4155 100.053C82.5279 100.874 81.9536 101.631 81.1328 101.743C79.1393 102.016 77.1513 102.266 75.1662 102.494C74.3432 102.588 73.5993 101.998 73.5048 101.175C73.4102 100.352 74.0007 99.608 74.8237 99.5134C76.7879 99.2877 78.7543 99.0407 80.7258 98.7708C81.5466 98.6584 82.3031 99.2327 82.4155 100.053ZM70.5391 101.484C70.6166 102.309 70.0109 103.04 69.1861 103.118C67.1906 103.305 65.1952 103.473 63.197 103.622C62.3708 103.683 61.6512 103.064 61.5896 102.237C61.528 101.411 62.1478 100.692 62.9739 100.63C64.9536 100.483 66.9297 100.317 68.9053 100.131C69.73 100.053 70.4615 100.659 70.5391 101.484ZM58.6142 102.432C58.6611 103.259 58.0287 103.968 57.2016 104.014C55.2086 104.128 53.2102 104.224 51.2035 104.306C50.3758 104.34 49.6774 103.696 49.6437 102.868C49.61 102.04 50.2537 101.342 51.0814 101.308C53.0731 101.227 55.0555 101.131 57.0316 101.019C57.8587 100.972 58.5673 101.605 58.6142 102.432ZM46.6642 102.967C46.6863 103.796 46.0328 104.485 45.2047 104.507C43.2165 104.56 41.2176 104.6 39.2055 104.629C38.3771 104.641 37.6959 103.98 37.6838 103.151C37.6718 102.323 38.3336 101.642 39.1619 101.63C41.1629 101.601 43.1496 101.561 45.1248 101.508C45.9529 101.486 46.6421 102.139 46.6642 102.967ZM34.7032 103.178C34.7068 104.007 34.0382 104.681 33.2097 104.685C32.214 104.689 31.2145 104.691 30.2109 104.691C29.3825 104.691 28.7109 104.02 28.7109 103.191C28.7109 102.363 29.3825 101.691 30.2109 101.691C31.2104 101.691 32.2055 101.689 33.1967 101.685C34.0251 101.681 34.6996 102.35 34.7032 103.178ZM94.101 109.499C93.9151 108.691 93.1099 108.188 92.3026 108.374C91.4953 108.56 90.9916 109.365 91.1775 110.172C91.7053 112.464 92.0893 114.866 92.3767 117.261C92.4754 118.084 93.2222 118.671 94.0447 118.572C94.8672 118.473 95.454 117.727 95.3553 116.904C95.0591 114.435 94.6592 111.922 94.101 109.499ZM96.0035 124.316C95.9522 123.489 95.2404 122.86 94.4136 122.911C93.5868 122.962 92.958 123.674 93.0092 124.501C93.088 125.774 93.1515 126.998 93.2093 128.152C93.2733 129.433 93.3446 130.714 93.4156 131.989L93.4156 131.99L93.4157 131.991L93.4157 131.992L93.4231 132.124C93.4691 132.951 94.177 133.584 95.0041 133.538C95.8313 133.492 96.4645 132.784 96.4184 131.957L96.4113 131.828L96.4112 131.827L96.4112 131.826L96.4111 131.824C96.34 130.547 96.2691 129.275 96.2055 128.003C96.1476 126.845 96.0834 125.607 96.0035 124.316ZM96.7941 139.922C96.7688 139.094 96.0769 138.444 95.2489 138.469C94.4209 138.494 93.7702 139.186 93.7955 140.014C93.8357 141.324 93.8596 142.631 93.8596 143.936C93.8596 145.272 93.7861 146.561 93.657 147.826C93.5728 148.65 94.1727 149.386 94.9968 149.47C95.821 149.554 96.5573 148.954 96.6414 148.13C96.7799 146.774 96.8596 145.383 96.8596 143.936C96.8596 142.595 96.835 141.256 96.7941 139.922ZM95.2164 156.277C95.3973 155.469 94.8885 154.667 94.0801 154.486C93.2717 154.305 92.4697 154.814 92.2888 155.622C92.1326 156.32 91.9757 157.004 91.8159 157.701L91.8151 157.705L91.8148 157.706L91.8143 157.709C91.6757 158.313 91.5349 158.927 91.3905 159.568L91.1925 160.448L91.148 160.646C91.0516 161.075 90.9405 161.569 90.8175 162.114C90.6354 162.923 91.1429 163.725 91.9511 163.907C92.7592 164.09 93.562 163.582 93.7441 162.774C93.8673 162.228 93.9785 161.733 94.075 161.304L94.1209 161.1L94.3171 160.227C94.4537 159.621 94.5947 159.006 94.7349 158.394C94.8992 157.677 95.0625 156.965 95.2164 156.277ZM92.5836 167.884C92.7687 167.077 92.2642 166.272 91.4567 166.087C90.6492 165.902 89.8446 166.406 89.6595 167.214C89.2766 168.884 88.8708 170.637 88.4774 172.301C88.2869 173.107 88.786 173.915 89.5922 174.106C90.3985 174.296 91.2065 173.797 91.397 172.991C91.7924 171.318 92.1999 169.558 92.5836 167.884ZM90.1496 178.104C90.3552 177.302 89.8713 176.484 89.0688 176.279C88.2663 176.073 87.4491 176.557 87.2435 177.36C86.9654 178.445 86.7356 179.285 86.5738 179.793C86.3226 180.583 86.759 181.426 87.5484 181.677C88.3378 181.929 89.1814 181.492 89.4326 180.703C89.6227 180.105 89.8707 179.193 90.1496 178.104ZM169.438 68.0952C170.142 67.6574 171.067 67.8726 171.505 68.5759C172.548 70.2522 173.538 71.9942 174.477 73.7868C174.862 74.5205 174.578 75.4271 173.845 75.8116C173.111 76.1961 172.204 75.913 171.82 75.1792C170.912 73.446 169.958 71.7689 168.958 70.1613C168.52 69.458 168.735 68.5329 169.438 68.0952ZM175.103 78.4137C175.859 78.074 176.747 78.4111 177.087 79.1667C177.897 80.9694 178.665 82.8071 179.392 84.667C179.694 85.4385 179.313 86.3086 178.542 86.6104C177.77 86.9122 176.9 86.5315 176.599 85.76C175.887 83.9423 175.139 82.1505 174.35 80.3969C174.011 79.6413 174.348 78.7534 175.103 78.4137ZM179.536 89.3246C180.319 89.055 181.173 89.4715 181.442 90.2549C182.088 92.1329 182.698 94.0213 183.274 95.9077C183.516 96.7 183.069 97.5384 182.277 97.7802C181.485 98.0221 180.646 97.5758 180.404 96.7835C179.838 94.9279 179.239 93.0731 178.605 91.231C178.336 90.4477 178.752 89.5941 179.536 89.3246ZM183.077 100.557C183.876 100.339 184.701 100.81 184.919 101.61C185.445 103.542 185.939 105.46 186.402 107.349C186.6 108.154 186.107 108.966 185.303 109.163C184.498 109.361 183.686 108.868 183.489 108.064C183.031 106.197 182.544 104.304 182.024 102.399C181.806 101.599 182.278 100.775 183.077 100.557ZM185.958 111.98C186.767 111.801 187.568 112.311 187.748 113.119C188.189 115.106 188.596 117.043 188.975 118.912C189.14 119.724 188.615 120.516 187.803 120.68C186.991 120.845 186.199 120.32 186.035 119.508C185.659 117.654 185.255 115.736 184.819 113.769C184.639 112.961 185.15 112.159 185.958 111.98ZM188.353 123.514C189.168 123.361 189.952 123.897 190.105 124.711C190.495 126.789 190.847 128.738 191.168 130.523C191.314 131.339 190.772 132.119 189.957 132.265C189.141 132.412 188.362 131.869 188.215 131.054C187.895 129.27 187.544 127.33 187.156 125.265C187.003 124.45 187.539 123.666 188.353 123.514ZM190.465 135.105C191.279 134.951 192.064 135.486 192.218 136.3C192.424 137.388 192.613 138.335 192.788 139.128C193.002 140.094 193.219 141.045 193.439 141.985C193.628 142.792 193.127 143.598 192.32 143.787C191.513 143.976 190.707 143.475 190.518 142.668C190.296 141.718 190.076 140.755 189.859 139.776C189.674 138.939 189.479 137.959 189.27 136.857C189.116 136.043 189.651 135.259 190.465 135.105ZM193.003 146.598C193.807 146.401 194.619 146.894 194.816 147.699C195.286 149.623 195.751 151.532 196.193 153.449C196.379 154.257 195.875 155.062 195.068 155.248C194.26 155.434 193.455 154.93 193.269 154.123C192.832 152.228 192.372 150.336 191.901 148.411C191.705 147.606 192.198 146.794 193.003 146.598ZM195.676 158.076C196.49 157.92 197.276 158.453 197.433 159.266C197.801 161.183 198.132 163.138 198.408 165.159C198.521 165.979 197.946 166.736 197.125 166.848C196.305 166.96 195.548 166.386 195.436 165.565C195.168 163.606 194.847 161.704 194.487 159.833C194.33 159.019 194.863 158.233 195.676 158.076ZM197.429 169.725C198.255 169.665 198.974 170.286 199.034 171.112C199.106 172.09 199.163 173.087 199.205 174.104C199.263 175.527 199.314 176.772 199.358 177.864C199.391 178.691 198.747 179.39 197.919 179.423C197.092 179.456 196.394 178.813 196.36 177.985C196.316 176.893 196.265 175.65 196.207 174.226C196.167 173.242 196.111 172.277 196.042 171.331C195.982 170.504 196.603 169.786 197.429 169.725ZM198.098 183.917C198.926 183.891 199.618 184.542 199.643 185.37C199.666 186.115 199.678 186.621 199.691 187.237C199.702 187.734 199.715 188.303 199.736 189.127C199.758 189.955 199.104 190.644 198.276 190.666C197.448 190.688 196.759 190.034 196.737 189.206C196.715 188.346 196.702 187.776 196.691 187.284C196.678 186.687 196.668 186.205 196.645 185.462C196.619 184.634 197.269 183.942 198.098 183.917ZM355.705 79.0935C356.385 78.6201 356.552 77.6852 356.079 77.0053C355.605 76.3255 354.67 76.1582 353.99 76.6317C353.56 76.9315 352.767 77.437 351.711 78.0837C351.004 78.5162 350.782 79.4396 351.214 80.1461C351.647 80.8527 352.57 81.0749 353.277 80.6424C354.337 79.9936 355.195 79.4482 355.705 79.0935ZM348.43 83.5134C349.148 83.0994 349.394 82.1821 348.98 81.4646C348.566 80.747 347.649 80.5009 346.931 80.9149C345.355 81.8241 343.687 82.7654 342.087 83.6394C341.36 84.0366 341.093 84.948 341.49 85.675C341.887 86.402 342.798 86.6693 343.525 86.2721C345.149 85.385 346.838 84.4322 348.43 83.5134ZM338.494 88.8889C339.241 88.5296 339.554 87.6332 339.195 86.8868C338.836 86.1403 337.939 85.8265 337.193 86.1858C336.132 86.6965 335.324 87.0419 334.823 87.2019C333.802 87.5277 332.779 87.8472 331.754 88.1609C330.962 88.4033 330.516 89.242 330.759 90.0342C331.001 90.8263 331.84 91.272 332.632 91.0296C333.668 90.7125 334.703 90.3894 335.735 90.0599C336.449 89.8318 337.418 89.4072 338.494 88.8889ZM326.398 92.8621C327.195 92.6369 327.659 91.808 327.434 91.0108C327.208 90.2136 326.379 89.7499 325.582 89.9751C323.519 90.5581 321.448 91.121 319.37 91.6669C318.569 91.8775 318.09 92.6977 318.301 93.4989C318.511 94.3001 319.332 94.779 320.133 94.5684C322.227 94.0182 324.315 93.4505 326.398 92.8621ZM313.845 96.1682C314.649 95.9698 315.14 95.157 314.942 94.3526C314.744 93.5483 313.931 93.0571 313.126 93.2554C311.041 93.7697 308.951 94.2702 306.857 94.7601C306.05 94.9488 305.549 95.7556 305.738 96.5623C305.927 97.3689 306.733 97.8699 307.54 97.6812C309.644 97.189 311.746 96.6857 313.845 96.1682ZM301.225 99.1273C302.033 98.9458 302.541 98.1434 302.359 97.3351C302.178 96.5268 301.375 96.0187 300.567 96.2002C298.468 96.6717 296.366 97.1357 294.263 97.5953C293.453 97.7722 292.941 98.5717 293.117 99.381C293.294 100.19 294.094 100.703 294.903 100.526C297.01 100.066 299.118 99.6004 301.225 99.1273ZM288.581 101.897C289.39 101.723 289.905 100.925 289.73 100.115C289.556 99.3051 288.758 98.7903 287.948 98.965L285.766 99.4355C284.386 99.7331 283.005 100.031 281.627 100.329C280.817 100.504 280.303 101.302 280.478 102.112C280.653 102.922 281.451 103.436 282.261 103.261C283.635 102.964 285.01 102.668 286.385 102.371L286.397 102.368L288.581 101.897Z" fill="#1949B5"/>
<path d="M98.556 62.5822H92.996L92.076 65.2422H89.136L94.156 51.2622H97.416L102.436 65.2422H99.476L98.556 62.5822ZM97.796 60.3422L95.776 54.5022L93.756 60.3422H97.796Z" fill="#262626"/>
<path d="M98.556 62.5822H92.996L92.076 65.2422H89.136L94.156 51.2622H97.416L102.436 65.2422H99.476L98.556 62.5822ZM97.796 60.3422L95.776 54.5022L93.756 60.3422H97.796Z" fill="#2367FF" fill-opacity="0.09"/>
<path d="M64.5827 131.819C65.3694 131.966 66.016 132.359 66.5227 132.999C67.0294 133.639 67.2827 134.373 67.2827 135.199C67.2827 135.946 67.096 136.606 66.7227 137.179C66.3627 137.739 65.836 138.179 65.1427 138.499C64.4494 138.819 63.6294 138.979 62.6827 138.979H56.6627V125.019H62.4227C63.3694 125.019 64.1827 125.173 64.8627 125.479C65.556 125.786 66.076 126.213 66.4227 126.759C66.7827 127.306 66.9627 127.926 66.9627 128.619C66.9627 129.433 66.7427 130.113 66.3027 130.659C65.876 131.206 65.3027 131.593 64.5827 131.819ZM59.4627 130.779H62.0227C62.6894 130.779 63.2027 130.633 63.5627 130.339C63.9227 130.033 64.1027 129.599 64.1027 129.039C64.1027 128.479 63.9227 128.046 63.5627 127.739C63.2027 127.433 62.6894 127.279 62.0227 127.279H59.4627V130.779ZM62.2827 136.699C62.9627 136.699 63.4894 136.539 63.8627 136.219C64.2494 135.899 64.4427 135.446 64.4427 134.859C64.4427 134.259 64.2427 133.793 63.8427 133.459C63.4427 133.113 62.9027 132.939 62.2227 132.939H59.4627V136.699H62.2827Z" fill="#999999"/>
<path d="M64.5827 131.819C65.3694 131.966 66.016 132.359 66.5227 132.999C67.0294 133.639 67.2827 134.373 67.2827 135.199C67.2827 135.946 67.096 136.606 66.7227 137.179C66.3627 137.739 65.836 138.179 65.1427 138.499C64.4494 138.819 63.6294 138.979 62.6827 138.979H56.6627V125.019H62.4227C63.3694 125.019 64.1827 125.173 64.8627 125.479C65.556 125.786 66.076 126.213 66.4227 126.759C66.7827 127.306 66.9627 127.926 66.9627 128.619C66.9627 129.433 66.7427 130.113 66.3027 130.659C65.876 131.206 65.3027 131.593 64.5827 131.819ZM59.4627 130.779H62.0227C62.6894 130.779 63.2027 130.633 63.5627 130.339C63.9227 130.033 64.1027 129.599 64.1027 129.039C64.1027 128.479 63.9227 128.046 63.5627 127.739C63.2027 127.433 62.6894 127.279 62.0227 127.279H59.4627V130.779ZM62.2827 136.699C62.9627 136.699 63.4894 136.539 63.8627 136.219C64.2494 135.899 64.4427 135.446 64.4427 134.859C64.4427 134.259 64.2427 133.793 63.8427 133.459C63.4427 133.113 62.9027 132.939 62.2227 132.939H59.4627V136.699H62.2827Z" fill="#2367FF" fill-opacity="0.05"/>
<path d="M136.791 123.899C136.791 122.526 137.097 121.299 137.711 120.219C138.337 119.126 139.184 118.279 140.251 117.679C141.331 117.066 142.537 116.759 143.871 116.759C145.431 116.759 146.797 117.159 147.971 117.959C149.144 118.759 149.964 119.866 150.431 121.279H147.211C146.891 120.612 146.437 120.112 145.851 119.779C145.277 119.446 144.611 119.279 143.851 119.279C143.037 119.279 142.311 119.472 141.671 119.859C141.044 120.232 140.551 120.766 140.191 121.459C139.844 122.152 139.671 122.966 139.671 123.899C139.671 124.819 139.844 125.632 140.191 126.339C140.551 127.032 141.044 127.572 141.671 127.959C142.311 128.332 143.037 128.519 143.851 128.519C144.611 128.519 145.277 128.352 145.851 128.019C146.437 127.672 146.891 127.166 147.211 126.499H150.431C149.964 127.926 149.144 129.039 147.971 129.839C146.811 130.626 145.444 131.019 143.871 131.019C142.537 131.019 141.331 130.719 140.251 130.119C139.184 129.506 138.337 128.659 137.711 127.579C137.097 126.499 136.791 125.272 136.791 123.899Z" fill="#999999"/>
<path d="M136.791 123.899C136.791 122.526 137.097 121.299 137.711 120.219C138.337 119.126 139.184 118.279 140.251 117.679C141.331 117.066 142.537 116.759 143.871 116.759C145.431 116.759 146.797 117.159 147.971 117.959C149.144 118.759 149.964 119.866 150.431 121.279H147.211C146.891 120.612 146.437 120.112 145.851 119.779C145.277 119.446 144.611 119.279 143.851 119.279C143.037 119.279 142.311 119.472 141.671 119.859C141.044 120.232 140.551 120.766 140.191 121.459C139.844 122.152 139.671 122.966 139.671 123.899C139.671 124.819 139.844 125.632 140.191 126.339C140.551 127.032 141.044 127.572 141.671 127.959C142.311 128.332 143.037 128.519 143.851 128.519C144.611 128.519 145.277 128.352 145.851 128.019C146.437 127.672 146.891 127.166 147.211 126.499H150.431C149.964 127.926 149.144 129.039 147.971 129.839C146.811 130.626 145.444 131.019 143.871 131.019C142.537 131.019 141.331 130.719 140.251 130.119C139.184 129.506 138.337 128.659 137.711 127.579C137.097 126.499 136.791 125.272 136.791 123.899Z" fill="#2367FF" fill-opacity="0.05"/>
<path d="M226.189 98.7568C227.656 98.7568 228.943 99.0435 230.049 99.6168C231.169 100.19 232.029 101.01 232.629 102.077C233.243 103.13 233.549 104.357 233.549 105.757C233.549 107.157 233.243 108.383 232.629 109.437C232.029 110.477 231.169 111.283 230.049 111.857C228.943 112.43 227.656 112.717 226.189 112.717H221.309V98.7568H226.189ZM226.089 110.337C227.556 110.337 228.689 109.937 229.489 109.137C230.289 108.337 230.689 107.21 230.689 105.757C230.689 104.303 230.289 103.17 229.489 102.357C228.689 101.53 227.556 101.117 226.089 101.117H224.109V110.337H226.089Z" fill="#999999"/>
<path d="M226.189 98.7568C227.656 98.7568 228.943 99.0435 230.049 99.6168C231.169 100.19 232.029 101.01 232.629 102.077C233.243 103.13 233.549 104.357 233.549 105.757C233.549 107.157 233.243 108.383 232.629 109.437C232.029 110.477 231.169 111.283 230.049 111.857C228.943 112.43 227.656 112.717 226.189 112.717H221.309V98.7568H226.189ZM226.089 110.337C227.556 110.337 228.689 109.937 229.489 109.137C230.289 108.337 230.689 107.21 230.689 105.757C230.689 104.303 230.289 103.17 229.489 102.357C228.689 101.53 227.556 101.117 226.089 101.117H224.109V110.337H226.089Z" fill="#2367FF" fill-opacity="0.05"/>
<path d="M290.776 53.5422V57.0422H295.476V59.2622H290.776V62.9622H296.076V65.2422H287.976V51.2622H296.076V53.5422H290.776Z" fill="#999999"/>
<path d="M290.776 53.5422V57.0422H295.476V59.2622H290.776V62.9622H296.076V65.2422H287.976V51.2622H296.076V53.5422H290.776Z" fill="#2367FF" fill-opacity="0.05"/>
<path d="M328.919 135.121V137.381H323.099V140.961H327.559V143.181H323.099V149.081H320.299V135.121H328.919Z" fill="#999999"/>
<path d="M328.919 135.121V137.381H323.099V140.961H327.559V143.181H323.099V149.081H320.299V135.121H328.919Z" fill="#2367FF" fill-opacity="0.05"/>
</svg>
