<svg width="421" height="112" viewBox="0 0 421 112" fill="none" xmlns="http://www.w3.org/2000/svg">
<rect width="129.667" height="112" rx="16" fill="#FFFBFE"/>
<rect width="129.667" height="112" rx="16" fill="#2367FF" fill-opacity="0.05"/>
<path d="M45.5293 40.032C45.5293 36.3413 46.1906 33.4507 47.5133 31.36C48.8573 29.2693 51.0759 28.224 54.1693 28.224C57.2626 28.224 59.4706 29.2693 60.7933 31.36C62.1373 33.4507 62.8093 36.3413 62.8093 40.032C62.8093 43.744 62.1373 46.656 60.7933 48.768C59.4706 50.88 57.2626 51.936 54.1693 51.936C51.0759 51.936 48.8573 50.88 47.5133 48.768C46.1906 46.656 45.5293 43.744 45.5293 40.032ZM58.3933 40.032C58.3933 38.4533 58.2866 37.1307 58.0733 36.064C57.8813 34.976 57.4759 34.0907 56.8573 33.408C56.2599 32.7253 55.3639 32.384 54.1693 32.384C52.9746 32.384 52.0679 32.7253 51.4493 33.408C50.8519 34.0907 50.4466 34.976 50.2333 36.064C50.0413 37.1307 49.9453 38.4533 49.9453 40.032C49.9453 41.6533 50.0413 43.0187 50.2333 44.128C50.4253 45.216 50.8306 46.1013 51.4493 46.784C52.0679 47.4453 52.9746 47.776 54.1693 47.776C55.3639 47.776 56.2706 47.4453 56.8893 46.784C57.5079 46.1013 57.9133 45.216 58.1053 44.128C58.2973 43.0187 58.3933 41.6533 58.3933 40.032ZM66.2168 40.032C66.2168 36.3413 66.8781 33.4507 68.2008 31.36C69.5448 29.2693 71.7634 28.224 74.8568 28.224C77.9501 28.224 80.1581 29.2693 81.4808 31.36C82.8248 33.4507 83.4968 36.3413 83.4968 40.032C83.4968 43.744 82.8248 46.656 81.4808 48.768C80.1581 50.88 77.9501 51.936 74.8568 51.936C71.7634 51.936 69.5448 50.88 68.2008 48.768C66.8781 46.656 66.2168 43.744 66.2168 40.032ZM79.0808 40.032C79.0808 38.4533 78.9741 37.1307 78.7608 36.064C78.5688 34.976 78.1634 34.0907 77.5448 33.408C76.9474 32.7253 76.0514 32.384 74.8568 32.384C73.6621 32.384 72.7554 32.7253 72.1368 33.408C71.5394 34.0907 71.1341 34.976 70.9208 36.064C70.7288 37.1307 70.6328 38.4533 70.6328 40.032C70.6328 41.6533 70.7288 43.0187 70.9208 44.128C71.1128 45.216 71.5181 46.1013 72.1368 46.784C72.7554 47.4453 73.6621 47.776 74.8568 47.776C76.0514 47.776 76.9581 47.4453 77.5768 46.784C78.1954 46.1013 78.6008 45.216 78.7928 44.128C78.9848 43.0187 79.0808 41.6533 79.0808 40.032Z" fill="#262626"/>
<path d="M45.5293 40.032C45.5293 36.3413 46.1906 33.4507 47.5133 31.36C48.8573 29.2693 51.0759 28.224 54.1693 28.224C57.2626 28.224 59.4706 29.2693 60.7933 31.36C62.1373 33.4507 62.8093 36.3413 62.8093 40.032C62.8093 43.744 62.1373 46.656 60.7933 48.768C59.4706 50.88 57.2626 51.936 54.1693 51.936C51.0759 51.936 48.8573 50.88 47.5133 48.768C46.1906 46.656 45.5293 43.744 45.5293 40.032ZM58.3933 40.032C58.3933 38.4533 58.2866 37.1307 58.0733 36.064C57.8813 34.976 57.4759 34.0907 56.8573 33.408C56.2599 32.7253 55.3639 32.384 54.1693 32.384C52.9746 32.384 52.0679 32.7253 51.4493 33.408C50.8519 34.0907 50.4466 34.976 50.2333 36.064C50.0413 37.1307 49.9453 38.4533 49.9453 40.032C49.9453 41.6533 50.0413 43.0187 50.2333 44.128C50.4253 45.216 50.8306 46.1013 51.4493 46.784C52.0679 47.4453 52.9746 47.776 54.1693 47.776C55.3639 47.776 56.2706 47.4453 56.8893 46.784C57.5079 46.1013 57.9133 45.216 58.1053 44.128C58.2973 43.0187 58.3933 41.6533 58.3933 40.032ZM66.2168 40.032C66.2168 36.3413 66.8781 33.4507 68.2008 31.36C69.5448 29.2693 71.7634 28.224 74.8568 28.224C77.9501 28.224 80.1581 29.2693 81.4808 31.36C82.8248 33.4507 83.4968 36.3413 83.4968 40.032C83.4968 43.744 82.8248 46.656 81.4808 48.768C80.1581 50.88 77.9501 51.936 74.8568 51.936C71.7634 51.936 69.5448 50.88 68.2008 48.768C66.8781 46.656 66.2168 43.744 66.2168 40.032ZM79.0808 40.032C79.0808 38.4533 78.9741 37.1307 78.7608 36.064C78.5688 34.976 78.1634 34.0907 77.5448 33.408C76.9474 32.7253 76.0514 32.384 74.8568 32.384C73.6621 32.384 72.7554 32.7253 72.1368 33.408C71.5394 34.0907 71.1341 34.976 70.9208 36.064C70.7288 37.1307 70.6328 38.4533 70.6328 40.032C70.6328 41.6533 70.7288 43.0187 70.9208 44.128C71.1128 45.216 71.5181 46.1013 72.1368 46.784C72.7554 47.4453 73.6621 47.776 74.8568 47.776C76.0514 47.776 76.9581 47.4453 77.5768 46.784C78.1954 46.1013 78.6008 45.216 78.7928 44.128C78.9848 43.0187 79.0808 41.6533 79.0808 40.032Z" fill="#2367FF" fill-opacity="0.09"/>
<path d="M45.3733 73.1C46.8533 73.1 48.1466 73.3867 49.2533 73.96C50.3733 74.52 51.2333 75.3333 51.8333 76.4C52.4466 77.4533 52.7533 78.6867 52.7533 80.1C52.7533 81.5133 52.4466 82.74 51.8333 83.78C51.2333 84.82 50.3733 85.62 49.2533 86.18C48.1466 86.7267 46.8533 87 45.3733 87H40.8333V73.1H45.3733ZM45.3733 85.14C46.9999 85.14 48.2466 84.7 49.1133 83.82C49.9799 82.94 50.4133 81.7 50.4133 80.1C50.4133 78.4867 49.9799 77.2267 49.1133 76.32C48.2466 75.4133 46.9999 74.96 45.3733 74.96H43.1133V85.14H45.3733ZM54.2529 81.44C54.2529 80.3333 54.4796 79.3533 54.9329 78.5C55.3996 77.6467 56.0263 76.9867 56.8129 76.52C57.6129 76.04 58.4929 75.8 59.4529 75.8C60.3196 75.8 61.0729 75.9733 61.7129 76.32C62.3663 76.6533 62.8863 77.0733 63.2729 77.58V75.98H65.5729V87H63.2729V85.36C62.8863 85.88 62.3596 86.3133 61.6929 86.66C61.0263 87.0067 60.2663 87.18 59.4129 87.18C58.4663 87.18 57.5996 86.94 56.8129 86.46C56.0263 85.9667 55.3996 85.2867 54.9329 84.42C54.4796 83.54 54.2529 82.5467 54.2529 81.44ZM63.2729 81.48C63.2729 80.72 63.1129 80.06 62.7929 79.5C62.4863 78.94 62.0796 78.5133 61.5729 78.22C61.0663 77.9267 60.5196 77.78 59.9329 77.78C59.3463 77.78 58.7996 77.9267 58.2929 78.22C57.7863 78.5 57.3729 78.92 57.0529 79.48C56.7463 80.0267 56.5929 80.68 56.5929 81.44C56.5929 82.2 56.7463 82.8667 57.0529 83.44C57.3729 84.0133 57.7863 84.4533 58.2929 84.76C58.8129 85.0533 59.3596 85.2 59.9329 85.2C60.5196 85.2 61.0663 85.0533 61.5729 84.76C62.0796 84.4667 62.4863 84.04 62.7929 83.48C63.1129 82.9067 63.2729 82.24 63.2729 81.48ZM78.4876 75.98L71.7276 92.18H69.3676L71.6076 86.82L67.2676 75.98H69.8076L72.9076 84.38L76.1276 75.98H78.4876ZM84.2083 87.18C83.3416 87.18 82.5616 87.0267 81.8683 86.72C81.1883 86.4 80.6483 85.9733 80.2483 85.44C79.8483 84.8933 79.6349 84.2867 79.6083 83.62H81.9683C82.0083 84.0867 82.2283 84.48 82.6283 84.8C83.0416 85.1067 83.5549 85.26 84.1683 85.26C84.8083 85.26 85.3016 85.14 85.6483 84.9C86.0083 84.6467 86.1883 84.3267 86.1883 83.94C86.1883 83.5267 85.9883 83.22 85.5883 83.02C85.2016 82.82 84.5816 82.6 83.7283 82.36C82.9016 82.1333 82.2283 81.9133 81.7083 81.7C81.1883 81.4867 80.7349 81.16 80.3483 80.72C79.9749 80.28 79.7883 79.7 79.7883 78.98C79.7883 78.3933 79.9616 77.86 80.3083 77.38C80.6549 76.8867 81.1483 76.5 81.7883 76.22C82.4416 75.94 83.1883 75.8 84.0283 75.8C85.2816 75.8 86.2883 76.12 87.0483 76.76C87.8216 77.3867 88.2349 78.2467 88.2883 79.34H86.0083C85.9683 78.8467 85.7683 78.4533 85.4083 78.16C85.0483 77.8667 84.5616 77.72 83.9483 77.72C83.3483 77.72 82.8883 77.8333 82.5683 78.06C82.2483 78.2867 82.0883 78.5867 82.0883 78.96C82.0883 79.2533 82.1949 79.5 82.4083 79.7C82.6216 79.9 82.8816 80.06 83.1883 80.18C83.4949 80.2867 83.9483 80.4267 84.5483 80.6C85.3483 80.8133 86.0016 81.0333 86.5083 81.26C87.0283 81.4733 87.4749 81.7933 87.8483 82.22C88.2216 82.6467 88.4149 83.2133 88.4283 83.92C88.4283 84.5467 88.2549 85.1067 87.9083 85.6C87.5616 86.0933 87.0683 86.48 86.4283 86.76C85.8016 87.04 85.0616 87.18 84.2083 87.18Z" fill="#262626"/>
<path d="M45.3733 73.1C46.8533 73.1 48.1466 73.3867 49.2533 73.96C50.3733 74.52 51.2333 75.3333 51.8333 76.4C52.4466 77.4533 52.7533 78.6867 52.7533 80.1C52.7533 81.5133 52.4466 82.74 51.8333 83.78C51.2333 84.82 50.3733 85.62 49.2533 86.18C48.1466 86.7267 46.8533 87 45.3733 87H40.8333V73.1H45.3733ZM45.3733 85.14C46.9999 85.14 48.2466 84.7 49.1133 83.82C49.9799 82.94 50.4133 81.7 50.4133 80.1C50.4133 78.4867 49.9799 77.2267 49.1133 76.32C48.2466 75.4133 46.9999 74.96 45.3733 74.96H43.1133V85.14H45.3733ZM54.2529 81.44C54.2529 80.3333 54.4796 79.3533 54.9329 78.5C55.3996 77.6467 56.0263 76.9867 56.8129 76.52C57.6129 76.04 58.4929 75.8 59.4529 75.8C60.3196 75.8 61.0729 75.9733 61.7129 76.32C62.3663 76.6533 62.8863 77.0733 63.2729 77.58V75.98H65.5729V87H63.2729V85.36C62.8863 85.88 62.3596 86.3133 61.6929 86.66C61.0263 87.0067 60.2663 87.18 59.4129 87.18C58.4663 87.18 57.5996 86.94 56.8129 86.46C56.0263 85.9667 55.3996 85.2867 54.9329 84.42C54.4796 83.54 54.2529 82.5467 54.2529 81.44ZM63.2729 81.48C63.2729 80.72 63.1129 80.06 62.7929 79.5C62.4863 78.94 62.0796 78.5133 61.5729 78.22C61.0663 77.9267 60.5196 77.78 59.9329 77.78C59.3463 77.78 58.7996 77.9267 58.2929 78.22C57.7863 78.5 57.3729 78.92 57.0529 79.48C56.7463 80.0267 56.5929 80.68 56.5929 81.44C56.5929 82.2 56.7463 82.8667 57.0529 83.44C57.3729 84.0133 57.7863 84.4533 58.2929 84.76C58.8129 85.0533 59.3596 85.2 59.9329 85.2C60.5196 85.2 61.0663 85.0533 61.5729 84.76C62.0796 84.4667 62.4863 84.04 62.7929 83.48C63.1129 82.9067 63.2729 82.24 63.2729 81.48ZM78.4876 75.98L71.7276 92.18H69.3676L71.6076 86.82L67.2676 75.98H69.8076L72.9076 84.38L76.1276 75.98H78.4876ZM84.2083 87.18C83.3416 87.18 82.5616 87.0267 81.8683 86.72C81.1883 86.4 80.6483 85.9733 80.2483 85.44C79.8483 84.8933 79.6349 84.2867 79.6083 83.62H81.9683C82.0083 84.0867 82.2283 84.48 82.6283 84.8C83.0416 85.1067 83.5549 85.26 84.1683 85.26C84.8083 85.26 85.3016 85.14 85.6483 84.9C86.0083 84.6467 86.1883 84.3267 86.1883 83.94C86.1883 83.5267 85.9883 83.22 85.5883 83.02C85.2016 82.82 84.5816 82.6 83.7283 82.36C82.9016 82.1333 82.2283 81.9133 81.7083 81.7C81.1883 81.4867 80.7349 81.16 80.3483 80.72C79.9749 80.28 79.7883 79.7 79.7883 78.98C79.7883 78.3933 79.9616 77.86 80.3083 77.38C80.6549 76.8867 81.1483 76.5 81.7883 76.22C82.4416 75.94 83.1883 75.8 84.0283 75.8C85.2816 75.8 86.2883 76.12 87.0483 76.76C87.8216 77.3867 88.2349 78.2467 88.2883 79.34H86.0083C85.9683 78.8467 85.7683 78.4533 85.4083 78.16C85.0483 77.8667 84.5616 77.72 83.9483 77.72C83.3483 77.72 82.8883 77.8333 82.5683 78.06C82.2483 78.2867 82.0883 78.5867 82.0883 78.96C82.0883 79.2533 82.1949 79.5 82.4083 79.7C82.6216 79.9 82.8816 80.06 83.1883 80.18C83.4949 80.2867 83.9483 80.4267 84.5483 80.6C85.3483 80.8133 86.0016 81.0333 86.5083 81.26C87.0283 81.4733 87.4749 81.7933 87.8483 82.22C88.2216 82.6467 88.4149 83.2133 88.4283 83.92C88.4283 84.5467 88.2549 85.1067 87.9083 85.6C87.5616 86.0933 87.0683 86.48 86.4283 86.76C85.8016 87.04 85.0616 87.18 84.2083 87.18Z" fill="#2367FF" fill-opacity="0.09"/>
<rect x="145.667" width="129.667" height="112" rx="16" fill="#FFFBFE"/>
<rect x="145.667" width="129.667" height="112" rx="16" fill="#2367FF" fill-opacity="0.05"/>
<path d="M195.152 32.8V28.672H202.864V52H198.256V32.8H195.152ZM219.386 34.496C219.172 33.6 218.799 32.928 218.266 32.48C217.754 32.032 217.007 31.808 216.026 31.808C214.554 31.808 213.466 32.4053 212.762 33.6C212.079 34.7733 211.727 36.6933 211.706 39.36C212.218 38.5067 212.964 37.8453 213.946 37.376C214.927 36.8853 215.994 36.64 217.146 36.64C218.532 36.64 219.759 36.9387 220.826 37.536C221.892 38.1333 222.724 39.008 223.322 40.16C223.919 41.2907 224.218 42.656 224.218 44.256C224.218 45.7707 223.908 47.1253 223.29 48.32C222.692 49.4933 221.807 50.4107 220.634 51.072C219.46 51.7333 218.063 52.064 216.442 52.064C214.223 52.064 212.474 51.5733 211.194 50.592C209.935 49.6107 209.05 48.2453 208.538 46.496C208.047 44.7253 207.802 42.5493 207.802 39.968C207.802 36.064 208.474 33.12 209.818 31.136C211.162 29.1307 213.284 28.128 216.186 28.128C218.426 28.128 220.164 28.736 221.402 29.952C222.639 31.168 223.354 32.6827 223.546 34.496H219.386ZM216.122 40.32C214.991 40.32 214.042 40.6507 213.274 41.312C212.506 41.9733 212.122 42.9333 212.122 44.192C212.122 45.4507 212.474 46.4427 213.178 47.168C213.903 47.8933 214.916 48.256 216.218 48.256C217.37 48.256 218.276 47.904 218.938 47.2C219.62 46.496 219.962 45.5467 219.962 44.352C219.962 43.1147 219.631 42.1333 218.97 41.408C218.33 40.6827 217.38 40.32 216.122 40.32Z" fill="#262626"/>
<path d="M195.152 32.8V28.672H202.864V52H198.256V32.8H195.152ZM219.386 34.496C219.172 33.6 218.799 32.928 218.266 32.48C217.754 32.032 217.007 31.808 216.026 31.808C214.554 31.808 213.466 32.4053 212.762 33.6C212.079 34.7733 211.727 36.6933 211.706 39.36C212.218 38.5067 212.964 37.8453 213.946 37.376C214.927 36.8853 215.994 36.64 217.146 36.64C218.532 36.64 219.759 36.9387 220.826 37.536C221.892 38.1333 222.724 39.008 223.322 40.16C223.919 41.2907 224.218 42.656 224.218 44.256C224.218 45.7707 223.908 47.1253 223.29 48.32C222.692 49.4933 221.807 50.4107 220.634 51.072C219.46 51.7333 218.063 52.064 216.442 52.064C214.223 52.064 212.474 51.5733 211.194 50.592C209.935 49.6107 209.05 48.2453 208.538 46.496C208.047 44.7253 207.802 42.5493 207.802 39.968C207.802 36.064 208.474 33.12 209.818 31.136C211.162 29.1307 213.284 28.128 216.186 28.128C218.426 28.128 220.164 28.736 221.402 29.952C222.639 31.168 223.354 32.6827 223.546 34.496H219.386ZM216.122 40.32C214.991 40.32 214.042 40.6507 213.274 41.312C212.506 41.9733 212.122 42.9333 212.122 44.192C212.122 45.4507 212.474 46.4427 213.178 47.168C213.903 47.8933 214.916 48.256 216.218 48.256C217.37 48.256 218.276 47.904 218.938 47.2C219.62 46.496 219.962 45.5467 219.962 44.352C219.962 43.1147 219.631 42.1333 218.97 41.408C218.33 40.6827 217.38 40.32 216.122 40.32Z" fill="#2367FF" fill-opacity="0.09"/>
<path d="M193.6 73.1V87H191.32V80.92H184.78V87H182.5V73.1H184.78V79.06H191.32V73.1H193.6ZM201.382 87.18C200.342 87.18 199.402 86.9467 198.562 86.48C197.722 86 197.062 85.3333 196.582 84.48C196.102 83.6133 195.862 82.6133 195.862 81.48C195.862 80.36 196.108 79.3667 196.602 78.5C197.095 77.6333 197.768 76.9667 198.622 76.5C199.475 76.0333 200.428 75.8 201.482 75.8C202.535 75.8 203.488 76.0333 204.342 76.5C205.195 76.9667 205.868 77.6333 206.362 78.5C206.855 79.3667 207.102 80.36 207.102 81.48C207.102 82.6 206.848 83.5933 206.342 84.46C205.835 85.3267 205.142 86 204.262 86.48C203.395 86.9467 202.435 87.18 201.382 87.18ZM201.382 85.2C201.968 85.2 202.515 85.06 203.022 84.78C203.542 84.5 203.962 84.08 204.282 83.52C204.602 82.96 204.762 82.28 204.762 81.48C204.762 80.68 204.608 80.0067 204.302 79.46C203.995 78.9 203.588 78.48 203.082 78.2C202.575 77.92 202.028 77.78 201.442 77.78C200.855 77.78 200.308 77.92 199.802 78.2C199.308 78.48 198.915 78.9 198.622 79.46C198.328 80.0067 198.182 80.68 198.182 81.48C198.182 82.6667 198.482 83.5867 199.082 84.24C199.695 84.88 200.462 85.2 201.382 85.2ZM219.335 75.98V87H217.055V85.7C216.695 86.1533 216.222 86.5133 215.635 86.78C215.062 87.0333 214.449 87.16 213.795 87.16C212.929 87.16 212.149 86.98 211.455 86.62C210.775 86.26 210.235 85.7267 209.835 85.02C209.449 84.3133 209.255 83.46 209.255 82.46V75.98H211.515V82.12C211.515 83.1067 211.762 83.8667 212.255 84.4C212.749 84.92 213.422 85.18 214.275 85.18C215.129 85.18 215.802 84.92 216.295 84.4C216.802 83.8667 217.055 83.1067 217.055 82.12V75.98H219.335ZM224.624 77.58C224.957 77.02 225.397 76.5867 225.944 76.28C226.504 75.96 227.164 75.8 227.924 75.8V78.16H227.344C226.45 78.16 225.77 78.3867 225.304 78.84C224.85 79.2933 224.624 80.08 224.624 81.2V87H222.344V75.98H224.624V77.58ZM234.02 87.18C233.153 87.18 232.373 87.0267 231.68 86.72C231 86.4 230.46 85.9733 230.06 85.44C229.66 84.8933 229.446 84.2867 229.42 83.62H231.78C231.82 84.0867 232.04 84.48 232.44 84.8C232.853 85.1067 233.366 85.26 233.98 85.26C234.62 85.26 235.113 85.14 235.46 84.9C235.82 84.6467 236 84.3267 236 83.94C236 83.5267 235.8 83.22 235.4 83.02C235.013 82.82 234.393 82.6 233.54 82.36C232.713 82.1333 232.04 81.9133 231.52 81.7C231 81.4867 230.546 81.16 230.16 80.72C229.786 80.28 229.6 79.7 229.6 78.98C229.6 78.3933 229.773 77.86 230.12 77.38C230.466 76.8867 230.96 76.5 231.6 76.22C232.253 75.94 233 75.8 233.84 75.8C235.093 75.8 236.1 76.12 236.86 76.76C237.633 77.3867 238.046 78.2467 238.1 79.34H235.82C235.78 78.8467 235.58 78.4533 235.22 78.16C234.86 77.8667 234.373 77.72 233.76 77.72C233.16 77.72 232.7 77.8333 232.38 78.06C232.06 78.2867 231.9 78.5867 231.9 78.96C231.9 79.2533 232.006 79.5 232.22 79.7C232.433 79.9 232.693 80.06 233 80.18C233.306 80.2867 233.76 80.4267 234.36 80.6C235.16 80.8133 235.813 81.0333 236.32 81.26C236.84 81.4733 237.286 81.7933 237.66 82.22C238.033 82.6467 238.226 83.2133 238.24 83.92C238.24 84.5467 238.066 85.1067 237.72 85.6C237.373 86.0933 236.88 86.48 236.24 86.76C235.613 87.04 234.873 87.18 234.02 87.18Z" fill="#262626"/>
<path d="M193.6 73.1V87H191.32V80.92H184.78V87H182.5V73.1H184.78V79.06H191.32V73.1H193.6ZM201.382 87.18C200.342 87.18 199.402 86.9467 198.562 86.48C197.722 86 197.062 85.3333 196.582 84.48C196.102 83.6133 195.862 82.6133 195.862 81.48C195.862 80.36 196.108 79.3667 196.602 78.5C197.095 77.6333 197.768 76.9667 198.622 76.5C199.475 76.0333 200.428 75.8 201.482 75.8C202.535 75.8 203.488 76.0333 204.342 76.5C205.195 76.9667 205.868 77.6333 206.362 78.5C206.855 79.3667 207.102 80.36 207.102 81.48C207.102 82.6 206.848 83.5933 206.342 84.46C205.835 85.3267 205.142 86 204.262 86.48C203.395 86.9467 202.435 87.18 201.382 87.18ZM201.382 85.2C201.968 85.2 202.515 85.06 203.022 84.78C203.542 84.5 203.962 84.08 204.282 83.52C204.602 82.96 204.762 82.28 204.762 81.48C204.762 80.68 204.608 80.0067 204.302 79.46C203.995 78.9 203.588 78.48 203.082 78.2C202.575 77.92 202.028 77.78 201.442 77.78C200.855 77.78 200.308 77.92 199.802 78.2C199.308 78.48 198.915 78.9 198.622 79.46C198.328 80.0067 198.182 80.68 198.182 81.48C198.182 82.6667 198.482 83.5867 199.082 84.24C199.695 84.88 200.462 85.2 201.382 85.2ZM219.335 75.98V87H217.055V85.7C216.695 86.1533 216.222 86.5133 215.635 86.78C215.062 87.0333 214.449 87.16 213.795 87.16C212.929 87.16 212.149 86.98 211.455 86.62C210.775 86.26 210.235 85.7267 209.835 85.02C209.449 84.3133 209.255 83.46 209.255 82.46V75.98H211.515V82.12C211.515 83.1067 211.762 83.8667 212.255 84.4C212.749 84.92 213.422 85.18 214.275 85.18C215.129 85.18 215.802 84.92 216.295 84.4C216.802 83.8667 217.055 83.1067 217.055 82.12V75.98H219.335ZM224.624 77.58C224.957 77.02 225.397 76.5867 225.944 76.28C226.504 75.96 227.164 75.8 227.924 75.8V78.16H227.344C226.45 78.16 225.77 78.3867 225.304 78.84C224.85 79.2933 224.624 80.08 224.624 81.2V87H222.344V75.98H224.624V77.58ZM234.02 87.18C233.153 87.18 232.373 87.0267 231.68 86.72C231 86.4 230.46 85.9733 230.06 85.44C229.66 84.8933 229.446 84.2867 229.42 83.62H231.78C231.82 84.0867 232.04 84.48 232.44 84.8C232.853 85.1067 233.366 85.26 233.98 85.26C234.62 85.26 235.113 85.14 235.46 84.9C235.82 84.6467 236 84.3267 236 83.94C236 83.5267 235.8 83.22 235.4 83.02C235.013 82.82 234.393 82.6 233.54 82.36C232.713 82.1333 232.04 81.9133 231.52 81.7C231 81.4867 230.546 81.16 230.16 80.72C229.786 80.28 229.6 79.7 229.6 78.98C229.6 78.3933 229.773 77.86 230.12 77.38C230.466 76.8867 230.96 76.5 231.6 76.22C232.253 75.94 233 75.8 233.84 75.8C235.093 75.8 236.1 76.12 236.86 76.76C237.633 77.3867 238.046 78.2467 238.1 79.34H235.82C235.78 78.8467 235.58 78.4533 235.22 78.16C234.86 77.8667 234.373 77.72 233.76 77.72C233.16 77.72 232.7 77.8333 232.38 78.06C232.06 78.2867 231.9 78.5867 231.9 78.96C231.9 79.2533 232.006 79.5 232.22 79.7C232.433 79.9 232.693 80.06 233 80.18C233.306 80.2867 233.76 80.4267 234.36 80.6C235.16 80.8133 235.813 81.0333 236.32 81.26C236.84 81.4733 237.286 81.7933 237.66 82.22C238.033 82.6467 238.226 83.2133 238.24 83.92C238.24 84.5467 238.066 85.1067 237.72 85.6C237.373 86.0933 236.88 86.48 236.24 86.76C235.613 87.04 234.873 87.18 234.02 87.18Z" fill="#2367FF" fill-opacity="0.09"/>
<rect x="291.333" width="129.667" height="112" rx="16" fill="#FFFBFE"/>
<rect x="291.333" width="129.667" height="112" rx="16" fill="#2367FF" fill-opacity="0.05"/>
<path d="M340.771 46.944C342.819 45.2373 344.451 43.8187 345.667 42.688C346.883 41.536 347.896 40.3413 348.707 39.104C349.517 37.8667 349.923 36.6507 349.923 35.456C349.923 34.368 349.667 33.5147 349.155 32.896C348.643 32.2773 347.853 31.968 346.787 31.968C345.72 31.968 344.899 32.3307 344.323 33.056C343.747 33.76 343.448 34.7307 343.427 35.968H339.075C339.16 33.408 339.917 31.4667 341.347 30.144C342.797 28.8213 344.632 28.16 346.851 28.16C349.283 28.16 351.149 28.8107 352.451 30.112C353.752 31.392 354.403 33.088 354.403 35.2C354.403 36.864 353.955 38.4533 353.059 39.968C352.163 41.4827 351.139 42.8053 349.987 43.936C348.835 45.0453 347.331 46.3893 345.475 47.968H354.915V51.68H339.107V48.352L340.771 46.944ZM359.146 46.944C361.194 45.2373 362.826 43.8187 364.042 42.688C365.258 41.536 366.271 40.3413 367.082 39.104C367.892 37.8667 368.298 36.6507 368.298 35.456C368.298 34.368 368.042 33.5147 367.53 32.896C367.018 32.2773 366.228 31.968 365.162 31.968C364.095 31.968 363.274 32.3307 362.698 33.056C362.122 33.76 361.823 34.7307 361.802 35.968H357.45C357.535 33.408 358.292 31.4667 359.722 30.144C361.172 28.8213 363.007 28.16 365.226 28.16C367.658 28.16 369.524 28.8107 370.826 30.112C372.127 31.392 372.778 33.088 372.778 35.2C372.778 36.864 372.33 38.4533 371.434 39.968C370.538 41.4827 369.514 42.8053 368.362 43.936C367.21 45.0453 365.706 46.3893 363.85 47.968H373.29V51.68H357.482V48.352L359.146 46.944Z" fill="#262626"/>
<path d="M340.771 46.944C342.819 45.2373 344.451 43.8187 345.667 42.688C346.883 41.536 347.896 40.3413 348.707 39.104C349.517 37.8667 349.923 36.6507 349.923 35.456C349.923 34.368 349.667 33.5147 349.155 32.896C348.643 32.2773 347.853 31.968 346.787 31.968C345.72 31.968 344.899 32.3307 344.323 33.056C343.747 33.76 343.448 34.7307 343.427 35.968H339.075C339.16 33.408 339.917 31.4667 341.347 30.144C342.797 28.8213 344.632 28.16 346.851 28.16C349.283 28.16 351.149 28.8107 352.451 30.112C353.752 31.392 354.403 33.088 354.403 35.2C354.403 36.864 353.955 38.4533 353.059 39.968C352.163 41.4827 351.139 42.8053 349.987 43.936C348.835 45.0453 347.331 46.3893 345.475 47.968H354.915V51.68H339.107V48.352L340.771 46.944ZM359.146 46.944C361.194 45.2373 362.826 43.8187 364.042 42.688C365.258 41.536 366.271 40.3413 367.082 39.104C367.892 37.8667 368.298 36.6507 368.298 35.456C368.298 34.368 368.042 33.5147 367.53 32.896C367.018 32.2773 366.228 31.968 365.162 31.968C364.095 31.968 363.274 32.3307 362.698 33.056C362.122 33.76 361.823 34.7307 361.802 35.968H357.45C357.535 33.408 358.292 31.4667 359.722 30.144C361.172 28.8213 363.007 28.16 365.226 28.16C367.658 28.16 369.524 28.8107 370.826 30.112C372.127 31.392 372.778 33.088 372.778 35.2C372.778 36.864 372.33 38.4533 371.434 39.968C370.538 41.4827 369.514 42.8053 368.362 43.936C367.21 45.0453 365.706 46.3893 363.85 47.968H373.29V51.68H357.482V48.352L359.146 46.944Z" fill="#2367FF" fill-opacity="0.09"/>
<path d="M332.307 73.1V87H330.027V77.48L325.787 87H324.207L319.947 77.48V87H317.667V73.1H320.127L325.007 84L329.867 73.1H332.307ZM336.463 74.52C336.05 74.52 335.703 74.38 335.423 74.1C335.143 73.82 335.003 73.4733 335.003 73.06C335.003 72.6467 335.143 72.3 335.423 72.02C335.703 71.74 336.05 71.6 336.463 71.6C336.863 71.6 337.203 71.74 337.483 72.02C337.763 72.3 337.903 72.6467 337.903 73.06C337.903 73.4733 337.763 73.82 337.483 74.1C337.203 74.38 336.863 74.52 336.463 74.52ZM337.583 75.98V87H335.303V75.98H337.583ZM346.137 75.8C347.003 75.8 347.777 75.98 348.457 76.34C349.15 76.7 349.69 77.2333 350.077 77.94C350.463 78.6467 350.657 79.5 350.657 80.5V87H348.397V80.84C348.397 79.8533 348.15 79.1 347.657 78.58C347.163 78.0467 346.49 77.78 345.637 77.78C344.783 77.78 344.103 78.0467 343.597 78.58C343.103 79.1 342.857 79.8533 342.857 80.84V87H340.577V75.98H342.857V77.24C343.23 76.7867 343.703 76.4333 344.277 76.18C344.863 75.9267 345.483 75.8 346.137 75.8ZM363.545 75.98V87H361.265V85.7C360.905 86.1533 360.432 86.5133 359.845 86.78C359.272 87.0333 358.658 87.16 358.005 87.16C357.138 87.16 356.358 86.98 355.665 86.62C354.985 86.26 354.445 85.7267 354.045 85.02C353.658 84.3133 353.465 83.46 353.465 82.46V75.98H355.725V82.12C355.725 83.1067 355.972 83.8667 356.465 84.4C356.958 84.92 357.632 85.18 358.485 85.18C359.338 85.18 360.012 84.92 360.505 84.4C361.012 83.8667 361.265 83.1067 361.265 82.12V75.98H363.545ZM369.213 77.84V83.94C369.213 84.3533 369.307 84.6533 369.493 84.84C369.693 85.0133 370.027 85.1 370.493 85.1H371.893V87H370.093C369.067 87 368.28 86.76 367.733 86.28C367.187 85.8 366.913 85.02 366.913 83.94V77.84H365.613V75.98H366.913V73.24H369.213V75.98H371.893V77.84H369.213ZM384.095 81.22C384.095 81.6333 384.068 82.0067 384.015 82.34H375.595C375.661 83.22 375.988 83.9267 376.575 84.46C377.161 84.9933 377.881 85.26 378.735 85.26C379.961 85.26 380.828 84.7467 381.335 83.72H383.795C383.461 84.7333 382.855 85.5667 381.975 86.22C381.108 86.86 380.028 87.18 378.735 87.18C377.681 87.18 376.735 86.9467 375.895 86.48C375.068 86 374.415 85.3333 373.935 84.48C373.468 83.6133 373.235 82.6133 373.235 81.48C373.235 80.3467 373.461 79.3533 373.915 78.5C374.381 77.6333 375.028 76.9667 375.855 76.5C376.695 76.0333 377.655 75.8 378.735 75.8C379.775 75.8 380.701 76.0267 381.515 76.48C382.328 76.9333 382.961 77.5733 383.415 78.4C383.868 79.2133 384.095 80.1533 384.095 81.22ZM381.715 80.5C381.701 79.66 381.401 78.9867 380.815 78.48C380.228 77.9733 379.501 77.72 378.635 77.72C377.848 77.72 377.175 77.9733 376.615 78.48C376.055 78.9733 375.721 79.6467 375.615 80.5H381.715ZM390.338 87.18C389.472 87.18 388.692 87.0267 387.998 86.72C387.318 86.4 386.778 85.9733 386.378 85.44C385.978 84.8933 385.765 84.2867 385.738 83.62H388.098C388.138 84.0867 388.358 84.48 388.758 84.8C389.172 85.1067 389.685 85.26 390.298 85.26C390.938 85.26 391.432 85.14 391.778 84.9C392.138 84.6467 392.318 84.3267 392.318 83.94C392.318 83.5267 392.118 83.22 391.718 83.02C391.332 82.82 390.712 82.6 389.858 82.36C389.032 82.1333 388.358 81.9133 387.838 81.7C387.318 81.4867 386.865 81.16 386.478 80.72C386.105 80.28 385.918 79.7 385.918 78.98C385.918 78.3933 386.092 77.86 386.438 77.38C386.785 76.8867 387.278 76.5 387.918 76.22C388.572 75.94 389.318 75.8 390.158 75.8C391.412 75.8 392.418 76.12 393.178 76.76C393.952 77.3867 394.365 78.2467 394.418 79.34H392.138C392.098 78.8467 391.898 78.4533 391.538 78.16C391.178 77.8667 390.692 77.72 390.078 77.72C389.478 77.72 389.018 77.8333 388.698 78.06C388.378 78.2867 388.218 78.5867 388.218 78.96C388.218 79.2533 388.325 79.5 388.538 79.7C388.752 79.9 389.012 80.06 389.318 80.18C389.625 80.2867 390.078 80.4267 390.678 80.6C391.478 80.8133 392.132 81.0333 392.638 81.26C393.158 81.4733 393.605 81.7933 393.978 82.22C394.352 82.6467 394.545 83.2133 394.558 83.92C394.558 84.5467 394.385 85.1067 394.038 85.6C393.692 86.0933 393.198 86.48 392.558 86.76C391.932 87.04 391.192 87.18 390.338 87.18Z" fill="#262626"/>
<path d="M332.307 73.1V87H330.027V77.48L325.787 87H324.207L319.947 77.48V87H317.667V73.1H320.127L325.007 84L329.867 73.1H332.307ZM336.463 74.52C336.05 74.52 335.703 74.38 335.423 74.1C335.143 73.82 335.003 73.4733 335.003 73.06C335.003 72.6467 335.143 72.3 335.423 72.02C335.703 71.74 336.05 71.6 336.463 71.6C336.863 71.6 337.203 71.74 337.483 72.02C337.763 72.3 337.903 72.6467 337.903 73.06C337.903 73.4733 337.763 73.82 337.483 74.1C337.203 74.38 336.863 74.52 336.463 74.52ZM337.583 75.98V87H335.303V75.98H337.583ZM346.137 75.8C347.003 75.8 347.777 75.98 348.457 76.34C349.15 76.7 349.69 77.2333 350.077 77.94C350.463 78.6467 350.657 79.5 350.657 80.5V87H348.397V80.84C348.397 79.8533 348.15 79.1 347.657 78.58C347.163 78.0467 346.49 77.78 345.637 77.78C344.783 77.78 344.103 78.0467 343.597 78.58C343.103 79.1 342.857 79.8533 342.857 80.84V87H340.577V75.98H342.857V77.24C343.23 76.7867 343.703 76.4333 344.277 76.18C344.863 75.9267 345.483 75.8 346.137 75.8ZM363.545 75.98V87H361.265V85.7C360.905 86.1533 360.432 86.5133 359.845 86.78C359.272 87.0333 358.658 87.16 358.005 87.16C357.138 87.16 356.358 86.98 355.665 86.62C354.985 86.26 354.445 85.7267 354.045 85.02C353.658 84.3133 353.465 83.46 353.465 82.46V75.98H355.725V82.12C355.725 83.1067 355.972 83.8667 356.465 84.4C356.958 84.92 357.632 85.18 358.485 85.18C359.338 85.18 360.012 84.92 360.505 84.4C361.012 83.8667 361.265 83.1067 361.265 82.12V75.98H363.545ZM369.213 77.84V83.94C369.213 84.3533 369.307 84.6533 369.493 84.84C369.693 85.0133 370.027 85.1 370.493 85.1H371.893V87H370.093C369.067 87 368.28 86.76 367.733 86.28C367.187 85.8 366.913 85.02 366.913 83.94V77.84H365.613V75.98H366.913V73.24H369.213V75.98H371.893V77.84H369.213ZM384.095 81.22C384.095 81.6333 384.068 82.0067 384.015 82.34H375.595C375.661 83.22 375.988 83.9267 376.575 84.46C377.161 84.9933 377.881 85.26 378.735 85.26C379.961 85.26 380.828 84.7467 381.335 83.72H383.795C383.461 84.7333 382.855 85.5667 381.975 86.22C381.108 86.86 380.028 87.18 378.735 87.18C377.681 87.18 376.735 86.9467 375.895 86.48C375.068 86 374.415 85.3333 373.935 84.48C373.468 83.6133 373.235 82.6133 373.235 81.48C373.235 80.3467 373.461 79.3533 373.915 78.5C374.381 77.6333 375.028 76.9667 375.855 76.5C376.695 76.0333 377.655 75.8 378.735 75.8C379.775 75.8 380.701 76.0267 381.515 76.48C382.328 76.9333 382.961 77.5733 383.415 78.4C383.868 79.2133 384.095 80.1533 384.095 81.22ZM381.715 80.5C381.701 79.66 381.401 78.9867 380.815 78.48C380.228 77.9733 379.501 77.72 378.635 77.72C377.848 77.72 377.175 77.9733 376.615 78.48C376.055 78.9733 375.721 79.6467 375.615 80.5H381.715ZM390.338 87.18C389.472 87.18 388.692 87.0267 387.998 86.72C387.318 86.4 386.778 85.9733 386.378 85.44C385.978 84.8933 385.765 84.2867 385.738 83.62H388.098C388.138 84.0867 388.358 84.48 388.758 84.8C389.172 85.1067 389.685 85.26 390.298 85.26C390.938 85.26 391.432 85.14 391.778 84.9C392.138 84.6467 392.318 84.3267 392.318 83.94C392.318 83.5267 392.118 83.22 391.718 83.02C391.332 82.82 390.712 82.6 389.858 82.36C389.032 82.1333 388.358 81.9133 387.838 81.7C387.318 81.4867 386.865 81.16 386.478 80.72C386.105 80.28 385.918 79.7 385.918 78.98C385.918 78.3933 386.092 77.86 386.438 77.38C386.785 76.8867 387.278 76.5 387.918 76.22C388.572 75.94 389.318 75.8 390.158 75.8C391.412 75.8 392.418 76.12 393.178 76.76C393.952 77.3867 394.365 78.2467 394.418 79.34H392.138C392.098 78.8467 391.898 78.4533 391.538 78.16C391.178 77.8667 390.692 77.72 390.078 77.72C389.478 77.72 389.018 77.8333 388.698 78.06C388.378 78.2867 388.218 78.5867 388.218 78.96C388.218 79.2533 388.325 79.5 388.538 79.7C388.752 79.9 389.012 80.06 389.318 80.18C389.625 80.2867 390.078 80.4267 390.678 80.6C391.478 80.8133 392.132 81.0333 392.638 81.26C393.158 81.4733 393.605 81.7933 393.978 82.22C394.352 82.6467 394.545 83.2133 394.558 83.92C394.558 84.5467 394.385 85.1067 394.038 85.6C393.692 86.0933 393.198 86.48 392.558 86.76C391.932 87.04 391.192 87.18 390.338 87.18Z" fill="#2367FF" fill-opacity="0.09"/>
</svg>
