<svg width="1536" height="120" viewBox="0 0 1536 120" fill="none" xmlns="http://www.w3.org/2000/svg">
<rect width="1536" height="120" rx="16" fill="white"/>
<path d="M45.872 30.432C45.872 31.328 45.656 32.168 45.224 32.952C44.808 33.736 44.144 34.368 43.232 34.848C42.336 35.328 41.2 35.568 39.824 35.568H37.016V42H33.656V25.248H39.824C41.12 25.248 42.224 25.472 43.136 25.92C44.048 26.368 44.728 26.984 45.176 27.768C45.64 28.552 45.872 29.44 45.872 30.432ZM39.68 32.856C40.608 32.856 41.296 32.648 41.744 32.232C42.192 31.8 42.416 31.2 42.416 30.432C42.416 28.8 41.504 27.984 39.68 27.984H37.016V32.856H39.68ZM51.6176 24.24V42H48.2576V24.24H51.6176ZM60.8413 42.216C59.5613 42.216 58.4093 41.936 57.3853 41.376C56.3613 40.8 55.5533 39.992 54.9613 38.952C54.3853 37.912 54.0973 36.712 54.0973 35.352C54.0973 33.992 54.3933 32.792 54.9853 31.752C55.5933 30.712 56.4173 29.912 57.4573 29.352C58.4973 28.776 59.6573 28.488 60.9373 28.488C62.2173 28.488 63.3773 28.776 64.4173 29.352C65.4573 29.912 66.2733 30.712 66.8653 31.752C67.4733 32.792 67.7773 33.992 67.7773 35.352C67.7773 36.712 67.4653 37.912 66.8412 38.952C66.2333 39.992 65.4013 40.8 64.3453 41.376C63.3053 41.936 62.1373 42.216 60.8413 42.216ZM60.8413 39.288C61.4493 39.288 62.0173 39.144 62.5453 38.856C63.0893 38.552 63.5213 38.104 63.8413 37.512C64.1613 36.92 64.3213 36.2 64.3213 35.352C64.3213 34.088 63.9853 33.12 63.3133 32.448C62.6573 31.76 61.8493 31.416 60.8893 31.416C59.9293 31.416 59.1213 31.76 58.4653 32.448C57.8253 33.12 57.5053 34.088 57.5053 35.352C57.5053 36.616 57.8173 37.592 58.4413 38.28C59.0813 38.952 59.8813 39.288 60.8413 39.288ZM74.1539 31.464V37.896C74.1539 38.344 74.2579 38.672 74.4659 38.88C74.6899 39.072 75.0579 39.168 75.5699 39.168H77.1299V42H75.0179C72.1859 42 70.7699 40.624 70.7699 37.872V31.464H69.1859V28.704H70.7699V25.416H74.1539V28.704H77.1299V31.464H74.1539ZM97.8174 28.704V42H94.4334V40.32C94.0014 40.896 93.4334 41.352 92.7294 41.688C92.0414 42.008 91.2894 42.168 90.4734 42.168C89.4334 42.168 88.5134 41.952 87.7134 41.52C86.9134 41.072 86.2814 40.424 85.8174 39.576C85.3694 38.712 85.1454 37.688 85.1454 36.504V28.704H88.5054V36.024C88.5054 37.08 88.7694 37.896 89.2974 38.472C89.8254 39.032 90.5454 39.312 91.4574 39.312C92.3854 39.312 93.1134 39.032 93.6414 38.472C94.1694 37.896 94.4334 37.08 94.4334 36.024V28.704H97.8174ZM106.221 42.216C105.133 42.216 104.157 42.024 103.293 41.64C102.429 41.24 101.741 40.704 101.229 40.032C100.733 39.36 100.461 38.616 100.413 37.8H103.797C103.861 38.312 104.109 38.736 104.541 39.072C104.989 39.408 105.541 39.576 106.197 39.576C106.837 39.576 107.333 39.448 107.685 39.192C108.053 38.936 108.237 38.608 108.237 38.208C108.237 37.776 108.013 37.456 107.565 37.248C107.133 37.024 106.437 36.784 105.477 36.528C104.485 36.288 103.669 36.04 103.029 35.784C102.405 35.528 101.861 35.136 101.397 34.608C100.949 34.08 100.725 33.368 100.725 32.472C100.725 31.736 100.933 31.064 101.349 30.456C101.781 29.848 102.389 29.368 103.173 29.016C103.973 28.664 104.909 28.488 105.981 28.488C107.565 28.488 108.829 28.888 109.773 29.688C110.717 30.472 111.237 31.536 111.333 32.88H108.117C108.069 32.352 107.845 31.936 107.445 31.632C107.061 31.312 106.541 31.152 105.885 31.152C105.277 31.152 104.805 31.264 104.469 31.488C104.149 31.712 103.989 32.024 103.989 32.424C103.989 32.872 104.213 33.216 104.661 33.456C105.109 33.68 105.805 33.912 106.749 34.152C107.709 34.392 108.501 34.64 109.125 34.896C109.749 35.152 110.285 35.552 110.733 36.096C111.197 36.624 111.437 37.328 111.453 38.208C111.453 38.976 111.237 39.664 110.805 40.272C110.389 40.88 109.781 41.36 108.981 41.712C108.197 42.048 107.277 42.216 106.221 42.216ZM126.571 35.064C126.571 35.544 126.539 35.976 126.475 36.36H116.755C116.835 37.32 117.171 38.072 117.763 38.616C118.355 39.16 119.083 39.432 119.947 39.432C121.195 39.432 122.083 38.896 122.611 37.824H126.235C125.851 39.104 125.115 40.16 124.027 40.992C122.939 41.808 121.603 42.216 120.019 42.216C118.739 42.216 117.587 41.936 116.563 41.376C115.555 40.8 114.763 39.992 114.187 38.952C113.627 37.912 113.347 36.712 113.347 35.352C113.347 33.976 113.627 32.768 114.187 31.728C114.747 30.688 115.531 29.888 116.539 29.328C117.547 28.768 118.707 28.488 120.019 28.488C121.283 28.488 122.411 28.76 123.403 29.304C124.411 29.848 125.187 30.624 125.731 31.632C126.291 32.624 126.571 33.768 126.571 35.064ZM123.091 34.104C123.075 33.24 122.763 32.552 122.155 32.04C121.547 31.512 120.803 31.248 119.923 31.248C119.091 31.248 118.387 31.504 117.811 32.016C117.251 32.512 116.907 33.208 116.779 34.104H123.091ZM140.55 46.464C139.014 44.96 137.814 43.048 136.95 40.728C136.102 38.408 135.678 35.904 135.678 33.216C135.678 30.464 136.126 27.896 137.022 25.512C137.934 23.112 139.23 21.136 140.91 19.584H143.19V19.8C141.398 21.48 140.046 23.504 139.134 25.872C138.238 28.224 137.79 30.672 137.79 33.216C137.79 35.696 138.214 38.064 139.062 40.32C139.926 42.576 141.182 44.552 142.83 46.248V46.464H140.55ZM148.64 32.976C147.744 32.624 147.056 32.112 146.576 31.44C146.096 30.768 145.856 29.952 145.856 28.992C145.856 28.128 146.072 27.352 146.504 26.664C146.936 25.96 147.576 25.408 148.424 25.008C149.288 24.592 150.328 24.384 151.544 24.384C152.76 24.384 153.792 24.592 154.64 25.008C155.504 25.408 156.152 25.96 156.584 26.664C157.032 27.352 157.256 28.128 157.256 28.992C157.256 29.92 157.008 30.736 156.512 31.44C156.016 32.128 155.336 32.64 154.472 32.976C155.464 33.28 156.248 33.816 156.824 34.584C157.416 35.336 157.712 36.248 157.712 37.32C157.712 38.36 157.456 39.272 156.944 40.056C156.432 40.824 155.704 41.424 154.76 41.856C153.832 42.272 152.76 42.48 151.544 42.48C150.328 42.48 149.256 42.272 148.328 41.856C147.416 41.424 146.704 40.824 146.192 40.056C145.68 39.272 145.424 38.36 145.424 37.32C145.424 36.248 145.712 35.328 146.288 34.56C146.864 33.792 147.648 33.264 148.64 32.976ZM155.144 29.256C155.144 28.28 154.824 27.528 154.184 27C153.544 26.472 152.664 26.208 151.544 26.208C150.44 26.208 149.568 26.472 148.928 27C148.288 27.528 147.968 28.288 147.968 29.28C147.968 30.176 148.296 30.896 148.952 31.44C149.624 31.984 150.488 32.256 151.544 32.256C152.616 32.256 153.48 31.984 154.136 31.44C154.808 30.88 155.144 30.152 155.144 29.256ZM151.544 33.936C150.36 33.936 149.392 34.216 148.64 34.776C147.888 35.32 147.512 36.144 147.512 37.248C147.512 38.272 147.872 39.096 148.592 39.72C149.328 40.344 150.312 40.656 151.544 40.656C152.776 40.656 153.752 40.344 154.472 39.72C155.192 39.096 155.552 38.272 155.552 37.248C155.552 36.176 155.184 35.36 154.448 34.8C153.712 34.224 152.744 33.936 151.544 33.936ZM160.565 29.016C160.677 27.544 161.245 26.392 162.269 25.56C163.293 24.728 164.621 24.312 166.253 24.312C167.341 24.312 168.277 24.512 169.061 24.912C169.861 25.296 170.461 25.824 170.861 26.496C171.277 27.168 171.485 27.928 171.485 28.776C171.485 29.768 171.197 30.624 170.621 31.344C170.061 32.064 169.325 32.528 168.413 32.736V32.856C169.453 33.112 170.277 33.616 170.885 34.368C171.493 35.12 171.797 36.104 171.797 37.32C171.797 38.232 171.589 39.056 171.173 39.792C170.757 40.512 170.133 41.08 169.301 41.496C168.469 41.912 167.469 42.12 166.301 42.12C164.605 42.12 163.213 41.68 162.125 40.8C161.037 39.904 160.429 38.64 160.301 37.008H162.413C162.525 37.968 162.917 38.752 163.589 39.36C164.261 39.968 165.157 40.272 166.277 40.272C167.397 40.272 168.245 39.984 168.821 39.408C169.413 38.816 169.709 38.056 169.709 37.128C169.709 35.928 169.309 35.064 168.509 34.536C167.709 34.008 166.501 33.744 164.885 33.744H164.333V31.92H164.909C166.381 31.904 167.493 31.664 168.245 31.2C168.997 30.72 169.373 29.984 169.373 28.992C169.373 28.144 169.093 27.464 168.533 26.952C167.989 26.44 167.205 26.184 166.181 26.184C165.189 26.184 164.389 26.44 163.781 26.952C163.173 27.464 162.813 28.152 162.701 29.016H160.565ZM174.266 28.56C174.266 27.472 174.594 26.608 175.25 25.968C175.906 25.312 176.746 24.984 177.77 24.984C178.794 24.984 179.634 25.312 180.29 25.968C180.946 26.608 181.274 27.472 181.274 28.56C181.274 29.664 180.946 30.544 180.29 31.2C179.634 31.84 178.794 32.16 177.77 32.16C176.746 32.16 175.906 31.84 175.25 31.2C174.594 30.544 174.266 29.664 174.266 28.56ZM188.282 25.248L178.562 42H176.402L186.122 25.248H188.282ZM177.77 26.328C177.226 26.328 176.794 26.52 176.474 26.904C176.17 27.272 176.018 27.824 176.018 28.56C176.018 29.296 176.17 29.856 176.474 30.24C176.794 30.624 177.226 30.816 177.77 30.816C178.314 30.816 178.746 30.624 179.066 30.24C179.386 29.84 179.546 29.28 179.546 28.56C179.546 27.824 179.386 27.272 179.066 26.904C178.746 26.52 178.314 26.328 177.77 26.328ZM183.458 38.688C183.458 37.584 183.786 36.712 184.442 36.072C185.098 35.416 185.938 35.088 186.962 35.088C187.986 35.088 188.818 35.416 189.458 36.072C190.114 36.712 190.442 37.584 190.442 38.688C190.442 39.776 190.114 40.648 189.458 41.304C188.818 41.96 187.986 42.288 186.962 42.288C185.938 42.288 185.098 41.968 184.442 41.328C183.786 40.672 183.458 39.792 183.458 38.688ZM186.938 36.456C186.394 36.456 185.962 36.648 185.642 37.032C185.322 37.4 185.162 37.952 185.162 38.688C185.162 39.408 185.322 39.96 185.642 40.344C185.962 40.712 186.394 40.896 186.938 40.896C187.482 40.896 187.914 40.712 188.234 40.344C188.554 39.96 188.714 39.408 188.714 38.688C188.714 37.952 188.554 37.4 188.234 37.032C187.914 36.648 187.482 36.456 186.938 36.456ZM192.621 46.464V46.248C194.269 44.552 195.517 42.576 196.365 40.32C197.229 38.064 197.661 35.696 197.661 33.216C197.661 30.672 197.205 28.224 196.293 25.872C195.397 23.504 194.053 21.48 192.261 19.8V19.584H194.541C196.221 21.136 197.509 23.112 198.405 25.512C199.317 27.896 199.773 30.464 199.773 33.216C199.773 35.904 199.341 38.408 198.477 40.728C197.629 43.048 196.437 44.96 194.901 46.464H192.621Z" fill="#151223"/>
<path d="M236.272 33.024C236.272 30.256 236.768 28.088 237.76 26.52C238.768 24.952 240.432 24.168 242.752 24.168C245.072 24.168 246.728 24.952 247.72 26.52C248.728 28.088 249.232 30.256 249.232 33.024C249.232 35.808 248.728 37.992 247.72 39.576C246.728 41.16 245.072 41.952 242.752 41.952C240.432 41.952 238.768 41.16 237.76 39.576C236.768 37.992 236.272 35.808 236.272 33.024ZM245.92 33.024C245.92 31.84 245.84 30.848 245.68 30.048C245.536 29.232 245.232 28.568 244.768 28.056C244.32 27.544 243.648 27.288 242.752 27.288C241.856 27.288 241.176 27.544 240.712 28.056C240.264 28.568 239.96 29.232 239.8 30.048C239.656 30.848 239.584 31.84 239.584 33.024C239.584 34.24 239.656 35.264 239.8 36.096C239.944 36.912 240.248 37.576 240.712 38.088C241.176 38.584 241.856 38.832 242.752 38.832C243.648 38.832 244.328 38.584 244.792 38.088C245.256 37.576 245.56 36.912 245.704 36.096C245.848 35.264 245.92 34.24 245.92 33.024ZM251.404 28.8C251.404 27.584 251.756 26.632 252.46 25.944C253.18 25.256 254.1 24.912 255.22 24.912C256.34 24.912 257.252 25.256 257.956 25.944C258.676 26.632 259.036 27.584 259.036 28.8C259.036 30.032 258.676 30.992 257.956 31.68C257.252 32.368 256.34 32.712 255.22 32.712C254.1 32.712 253.18 32.368 252.46 31.68C251.756 30.992 251.404 30.032 251.404 28.8ZM266.812 25.2L257.38 42H254.116L263.524 25.2H266.812ZM255.196 26.928C254.316 26.928 253.876 27.552 253.876 28.8C253.876 30.064 254.316 30.696 255.196 30.696C255.628 30.696 255.964 30.544 256.204 30.24C256.444 29.92 256.564 29.44 256.564 28.8C256.564 27.552 256.108 26.928 255.196 26.928ZM261.94 38.376C261.94 37.144 262.292 36.192 262.996 35.52C263.716 34.832 264.636 34.488 265.756 34.488C266.876 34.488 267.78 34.832 268.468 35.52C269.172 36.192 269.524 37.144 269.524 38.376C269.524 39.608 269.172 40.568 268.468 41.256C267.78 41.944 266.876 42.288 265.756 42.288C264.62 42.288 263.7 41.944 262.996 41.256C262.292 40.568 261.94 39.608 261.94 38.376ZM265.732 36.504C264.82 36.504 264.364 37.128 264.364 38.376C264.364 39.64 264.82 40.272 265.732 40.272C266.628 40.272 267.076 39.64 267.076 38.376C267.076 37.128 266.628 36.504 265.732 36.504Z" fill="#151223"/>
<rect x="287" y="28" width="1141" height="12" rx="6" fill="#CBCACD"/>
<rect x="287" y="28" width="993.683" height="12" rx="6" fill="#268AFF"/>
<rect x="287" y="28" width="933.631" height="12" rx="6" fill="#3DFFDC"/>
<rect x="287" y="28" width="611.786" height="12" rx="6" fill="#1ED6FF"/>
<rect x="287" y="28" width="294.633" height="12" rx="6" fill="#5A3FFF"/>
<path d="M1444.86 27.6V24.504H1450.65V42H1447.19V27.6H1444.86ZM1453.97 33.024C1453.97 30.256 1454.46 28.088 1455.46 26.52C1456.46 24.952 1458.13 24.168 1460.45 24.168C1462.77 24.168 1464.42 24.952 1465.42 26.52C1466.42 28.088 1466.93 30.256 1466.93 33.024C1466.93 35.808 1466.42 37.992 1465.42 39.576C1464.42 41.16 1462.77 41.952 1460.45 41.952C1458.13 41.952 1456.46 41.16 1455.46 39.576C1454.46 37.992 1453.97 35.808 1453.97 33.024ZM1463.62 33.024C1463.62 31.84 1463.54 30.848 1463.38 30.048C1463.23 29.232 1462.93 28.568 1462.46 28.056C1462.02 27.544 1461.34 27.288 1460.45 27.288C1459.55 27.288 1458.87 27.544 1458.41 28.056C1457.96 28.568 1457.66 29.232 1457.5 30.048C1457.35 30.848 1457.28 31.84 1457.28 33.024C1457.28 34.24 1457.35 35.264 1457.5 36.096C1457.64 36.912 1457.94 37.576 1458.41 38.088C1458.87 38.584 1459.55 38.832 1460.45 38.832C1461.34 38.832 1462.02 38.584 1462.49 38.088C1462.95 37.576 1463.26 36.912 1463.4 36.096C1463.54 35.264 1463.62 34.24 1463.62 33.024ZM1469.48 33.024C1469.48 30.256 1469.98 28.088 1470.97 26.52C1471.98 24.952 1473.64 24.168 1475.96 24.168C1478.28 24.168 1479.94 24.952 1480.93 26.52C1481.94 28.088 1482.44 30.256 1482.44 33.024C1482.44 35.808 1481.94 37.992 1480.93 39.576C1479.94 41.16 1478.28 41.952 1475.96 41.952C1473.64 41.952 1471.98 41.16 1470.97 39.576C1469.98 37.992 1469.48 35.808 1469.48 33.024ZM1479.13 33.024C1479.13 31.84 1479.05 30.848 1478.89 30.048C1478.75 29.232 1478.44 28.568 1477.98 28.056C1477.53 27.544 1476.86 27.288 1475.96 27.288C1475.07 27.288 1474.39 27.544 1473.92 28.056C1473.47 28.568 1473.17 29.232 1473.01 30.048C1472.87 30.848 1472.79 31.84 1472.79 33.024C1472.79 34.24 1472.87 35.264 1473.01 36.096C1473.15 36.912 1473.46 37.576 1473.92 38.088C1474.39 38.584 1475.07 38.832 1475.96 38.832C1476.86 38.832 1477.54 38.584 1478 38.088C1478.47 37.576 1478.77 36.912 1478.91 36.096C1479.06 35.264 1479.13 34.24 1479.13 33.024ZM1484.61 28.8C1484.61 27.584 1484.97 26.632 1485.67 25.944C1486.39 25.256 1487.31 24.912 1488.43 24.912C1489.55 24.912 1490.46 25.256 1491.17 25.944C1491.89 26.632 1492.25 27.584 1492.25 28.8C1492.25 30.032 1491.89 30.992 1491.17 31.68C1490.46 32.368 1489.55 32.712 1488.43 32.712C1487.31 32.712 1486.39 32.368 1485.67 31.68C1484.97 30.992 1484.61 30.032 1484.61 28.8ZM1500.02 25.2L1490.59 42H1487.33L1496.73 25.2H1500.02ZM1488.41 26.928C1487.53 26.928 1487.09 27.552 1487.09 28.8C1487.09 30.064 1487.53 30.696 1488.41 30.696C1488.84 30.696 1489.17 30.544 1489.41 30.24C1489.65 29.92 1489.77 29.44 1489.77 28.8C1489.77 27.552 1489.32 26.928 1488.41 26.928ZM1495.15 38.376C1495.15 37.144 1495.5 36.192 1496.21 35.52C1496.93 34.832 1497.85 34.488 1498.97 34.488C1500.09 34.488 1500.99 34.832 1501.68 35.52C1502.38 36.192 1502.73 37.144 1502.73 38.376C1502.73 39.608 1502.38 40.568 1501.68 41.256C1500.99 41.944 1500.09 42.288 1498.97 42.288C1497.83 42.288 1496.91 41.944 1496.21 41.256C1495.5 40.568 1495.15 39.608 1495.15 38.376ZM1498.94 36.504C1498.03 36.504 1497.57 37.128 1497.57 38.376C1497.57 39.64 1498.03 40.272 1498.94 40.272C1499.84 40.272 1500.29 39.64 1500.29 38.376C1500.29 37.128 1499.84 36.504 1498.94 36.504Z" fill="#151223"/>
<rect x="817" y="76" width="20" height="20" rx="10" fill="#5A3FFF"/>
<path d="M850.088 91.168H857.624V94H846.2V91.408L853.688 80.08H846.2V77.248H857.624V79.84L850.088 91.168ZM866.388 94.216C865.108 94.216 863.956 93.936 862.932 93.376C861.908 92.8 861.1 91.992 860.508 90.952C859.932 89.912 859.644 88.712 859.644 87.352C859.644 85.992 859.94 84.792 860.532 83.752C861.14 82.712 861.964 81.912 863.004 81.352C864.044 80.776 865.204 80.488 866.484 80.488C867.764 80.488 868.924 80.776 869.964 81.352C871.004 81.912 871.82 82.712 872.412 83.752C873.02 84.792 873.324 85.992 873.324 87.352C873.324 88.712 873.012 89.912 872.388 90.952C871.78 91.992 870.948 92.8 869.892 93.376C868.852 93.936 867.684 94.216 866.388 94.216ZM866.388 91.288C866.996 91.288 867.564 91.144 868.092 90.856C868.636 90.552 869.068 90.104 869.388 89.512C869.708 88.92 869.868 88.2 869.868 87.352C869.868 86.088 869.532 85.12 868.86 84.448C868.204 83.76 867.396 83.416 866.436 83.416C865.476 83.416 864.668 83.76 864.012 84.448C863.372 85.12 863.052 86.088 863.052 87.352C863.052 88.616 863.364 89.592 863.988 90.28C864.628 90.952 865.428 91.288 866.388 91.288ZM883.157 80.512C884.741 80.512 886.021 81.016 886.997 82.024C887.973 83.016 888.461 84.408 888.461 86.2V94H885.101V86.656C885.101 85.6 884.837 84.792 884.309 84.232C883.781 83.656 883.061 83.368 882.149 83.368C881.221 83.368 880.485 83.656 879.941 84.232C879.413 84.792 879.149 85.6 879.149 86.656V94H875.789V80.704H879.149V82.36C879.597 81.784 880.165 81.336 880.853 81.016C881.557 80.68 882.325 80.512 883.157 80.512ZM904.016 87.064C904.016 87.544 903.984 87.976 903.92 88.36H894.2C894.28 89.32 894.616 90.072 895.208 90.616C895.8 91.16 896.528 91.432 897.392 91.432C898.64 91.432 899.528 90.896 900.056 89.824H903.68C903.296 91.104 902.56 92.16 901.472 92.992C900.384 93.808 899.048 94.216 897.464 94.216C896.184 94.216 895.032 93.936 894.008 93.376C893 92.8 892.208 91.992 891.632 90.952C891.072 89.912 890.792 88.712 890.792 87.352C890.792 85.976 891.072 84.768 891.632 83.728C892.192 82.688 892.976 81.888 893.984 81.328C894.992 80.768 896.152 80.488 897.464 80.488C898.728 80.488 899.856 80.76 900.848 81.304C901.856 81.848 902.632 82.624 903.176 83.632C903.736 84.624 904.016 85.768 904.016 87.064ZM900.536 86.104C900.52 85.24 900.208 84.552 899.6 84.04C898.992 83.512 898.248 83.248 897.368 83.248C896.536 83.248 895.832 83.504 895.256 84.016C894.696 84.512 894.352 85.208 894.224 86.104H900.536ZM922.459 90.808H915.787L914.683 94H911.155L917.179 77.224H921.091L927.115 94H923.563L922.459 90.808ZM921.547 88.12L919.123 81.112L916.699 88.12H921.547Z" fill="#151223"/>
<rect x="944" y="76" width="20" height="20" rx="10" fill="#1ED6FF"/>
<path d="M977.088 91.168H984.624V94H973.2V91.408L980.688 80.08H973.2V77.248H984.624V79.84L977.088 91.168ZM993.388 94.216C992.108 94.216 990.956 93.936 989.932 93.376C988.908 92.8 988.1 91.992 987.508 90.952C986.932 89.912 986.644 88.712 986.644 87.352C986.644 85.992 986.94 84.792 987.532 83.752C988.14 82.712 988.964 81.912 990.004 81.352C991.044 80.776 992.204 80.488 993.484 80.488C994.764 80.488 995.924 80.776 996.964 81.352C998.004 81.912 998.82 82.712 999.412 83.752C1000.02 84.792 1000.32 85.992 1000.32 87.352C1000.32 88.712 1000.01 89.912 999.388 90.952C998.78 91.992 997.948 92.8 996.892 93.376C995.852 93.936 994.684 94.216 993.388 94.216ZM993.388 91.288C993.996 91.288 994.564 91.144 995.092 90.856C995.636 90.552 996.068 90.104 996.388 89.512C996.708 88.92 996.868 88.2 996.868 87.352C996.868 86.088 996.532 85.12 995.86 84.448C995.204 83.76 994.396 83.416 993.436 83.416C992.476 83.416 991.668 83.76 991.012 84.448C990.372 85.12 990.052 86.088 990.052 87.352C990.052 88.616 990.364 89.592 990.988 90.28C991.628 90.952 992.428 91.288 993.388 91.288ZM1010.16 80.512C1011.74 80.512 1013.02 81.016 1014 82.024C1014.97 83.016 1015.46 84.408 1015.46 86.2V94H1012.1V86.656C1012.1 85.6 1011.84 84.792 1011.31 84.232C1010.78 83.656 1010.06 83.368 1009.15 83.368C1008.22 83.368 1007.48 83.656 1006.94 84.232C1006.41 84.792 1006.15 85.6 1006.15 86.656V94H1002.79V80.704H1006.15V82.36C1006.6 81.784 1007.16 81.336 1007.85 81.016C1008.56 80.68 1009.32 80.512 1010.16 80.512ZM1031.02 87.064C1031.02 87.544 1030.98 87.976 1030.92 88.36H1021.2C1021.28 89.32 1021.62 90.072 1022.21 90.616C1022.8 91.16 1023.53 91.432 1024.39 91.432C1025.64 91.432 1026.53 90.896 1027.06 89.824H1030.68C1030.3 91.104 1029.56 92.16 1028.47 92.992C1027.38 93.808 1026.05 94.216 1024.46 94.216C1023.18 94.216 1022.03 93.936 1021.01 93.376C1020 92.8 1019.21 91.992 1018.63 90.952C1018.07 89.912 1017.79 88.712 1017.79 87.352C1017.79 85.976 1018.07 84.768 1018.63 83.728C1019.19 82.688 1019.98 81.888 1020.98 81.328C1021.99 80.768 1023.15 80.488 1024.46 80.488C1025.73 80.488 1026.86 80.76 1027.85 81.304C1028.86 81.848 1029.63 82.624 1030.18 83.632C1030.74 84.624 1031.02 85.768 1031.02 87.064ZM1027.54 86.104C1027.52 85.24 1027.21 84.552 1026.6 84.04C1025.99 83.512 1025.25 83.248 1024.37 83.248C1023.54 83.248 1022.83 83.504 1022.26 84.016C1021.7 84.512 1021.35 85.208 1021.22 86.104H1027.54ZM1048.69 85.408C1049.64 85.584 1050.41 86.056 1051.02 86.824C1051.63 87.592 1051.93 88.472 1051.93 89.464C1051.93 90.36 1051.71 91.152 1051.26 91.84C1050.83 92.512 1050.2 93.04 1049.36 93.424C1048.53 93.808 1047.55 94 1046.41 94H1039.19V77.248H1046.1C1047.24 77.248 1048.21 77.432 1049.03 77.8C1049.86 78.168 1050.48 78.68 1050.9 79.336C1051.33 79.992 1051.55 80.736 1051.55 81.568C1051.55 82.544 1051.28 83.36 1050.76 84.016C1050.24 84.672 1049.56 85.136 1048.69 85.408ZM1042.55 84.16H1045.62C1046.42 84.16 1047.04 83.984 1047.47 83.632C1047.9 83.264 1048.12 82.744 1048.12 82.072C1048.12 81.4 1047.9 80.88 1047.47 80.512C1047.04 80.144 1046.42 79.96 1045.62 79.96H1042.55V84.16ZM1045.93 91.264C1046.75 91.264 1047.38 91.072 1047.83 90.688C1048.29 90.304 1048.52 89.76 1048.52 89.056C1048.52 88.336 1048.28 87.776 1047.8 87.376C1047.32 86.96 1046.68 86.752 1045.86 86.752H1042.55V91.264H1045.93Z" fill="#151223"/>
<rect x="1069" y="76" width="20" height="20" rx="10" fill="#3DFFDC"/>
<path d="M1102.09 91.168H1109.62V94H1098.2V91.408L1105.69 80.08H1098.2V77.248H1109.62V79.84L1102.09 91.168ZM1118.39 94.216C1117.11 94.216 1115.96 93.936 1114.93 93.376C1113.91 92.8 1113.1 91.992 1112.51 90.952C1111.93 89.912 1111.64 88.712 1111.64 87.352C1111.64 85.992 1111.94 84.792 1112.53 83.752C1113.14 82.712 1113.96 81.912 1115 81.352C1116.04 80.776 1117.2 80.488 1118.48 80.488C1119.76 80.488 1120.92 80.776 1121.96 81.352C1123 81.912 1123.82 82.712 1124.41 83.752C1125.02 84.792 1125.32 85.992 1125.32 87.352C1125.32 88.712 1125.01 89.912 1124.39 90.952C1123.78 91.992 1122.95 92.8 1121.89 93.376C1120.85 93.936 1119.68 94.216 1118.39 94.216ZM1118.39 91.288C1119 91.288 1119.56 91.144 1120.09 90.856C1120.64 90.552 1121.07 90.104 1121.39 89.512C1121.71 88.92 1121.87 88.2 1121.87 87.352C1121.87 86.088 1121.53 85.12 1120.86 84.448C1120.2 83.76 1119.4 83.416 1118.44 83.416C1117.48 83.416 1116.67 83.76 1116.01 84.448C1115.37 85.12 1115.05 86.088 1115.05 87.352C1115.05 88.616 1115.36 89.592 1115.99 90.28C1116.63 90.952 1117.43 91.288 1118.39 91.288ZM1135.16 80.512C1136.74 80.512 1138.02 81.016 1139 82.024C1139.97 83.016 1140.46 84.408 1140.46 86.2V94H1137.1V86.656C1137.1 85.6 1136.84 84.792 1136.31 84.232C1135.78 83.656 1135.06 83.368 1134.15 83.368C1133.22 83.368 1132.48 83.656 1131.94 84.232C1131.41 84.792 1131.15 85.6 1131.15 86.656V94H1127.79V80.704H1131.15V82.36C1131.6 81.784 1132.16 81.336 1132.85 81.016C1133.56 80.68 1134.32 80.512 1135.16 80.512ZM1156.02 87.064C1156.02 87.544 1155.98 87.976 1155.92 88.36H1146.2C1146.28 89.32 1146.62 90.072 1147.21 90.616C1147.8 91.16 1148.53 91.432 1149.39 91.432C1150.64 91.432 1151.53 90.896 1152.06 89.824H1155.68C1155.3 91.104 1154.56 92.16 1153.47 92.992C1152.38 93.808 1151.05 94.216 1149.46 94.216C1148.18 94.216 1147.03 93.936 1146.01 93.376C1145 92.8 1144.21 91.992 1143.63 90.952C1143.07 89.912 1142.79 88.712 1142.79 87.352C1142.79 85.976 1143.07 84.768 1143.63 83.728C1144.19 82.688 1144.98 81.888 1145.98 81.328C1146.99 80.768 1148.15 80.488 1149.46 80.488C1150.73 80.488 1151.86 80.76 1152.85 81.304C1153.86 81.848 1154.63 82.624 1155.18 83.632C1155.74 84.624 1156.02 85.768 1156.02 87.064ZM1152.54 86.104C1152.52 85.24 1152.21 84.552 1151.6 84.04C1150.99 83.512 1150.25 83.248 1149.37 83.248C1148.54 83.248 1147.83 83.504 1147.26 84.016C1146.7 84.512 1146.35 85.208 1146.22 86.104H1152.54ZM1163.37 85.6C1163.37 83.952 1163.74 82.48 1164.48 81.184C1165.23 79.872 1166.24 78.856 1167.52 78.136C1168.82 77.4 1170.27 77.032 1171.87 77.032C1173.74 77.032 1175.38 77.512 1176.79 78.472C1178.2 79.432 1179.18 80.76 1179.74 82.456H1175.88C1175.49 81.656 1174.95 81.056 1174.24 80.656C1173.56 80.256 1172.76 80.056 1171.84 80.056C1170.87 80.056 1170 80.288 1169.23 80.752C1168.48 81.2 1167.88 81.84 1167.45 82.672C1167.04 83.504 1166.83 84.48 1166.83 85.6C1166.83 86.704 1167.04 87.68 1167.45 88.528C1167.88 89.36 1168.48 90.008 1169.23 90.472C1170 90.92 1170.87 91.144 1171.84 91.144C1172.76 91.144 1173.56 90.944 1174.24 90.544C1174.95 90.128 1175.49 89.52 1175.88 88.72H1179.74C1179.18 90.432 1178.2 91.768 1176.79 92.728C1175.4 93.672 1173.76 94.144 1171.87 94.144C1170.27 94.144 1168.82 93.784 1167.52 93.064C1166.24 92.328 1165.23 91.312 1164.48 90.016C1163.74 88.72 1163.37 87.248 1163.37 85.6Z" fill="#151223"/>
<rect x="1197" y="76" width="20" height="20" rx="10" fill="#268AFF"/>
<path d="M1230.09 91.168H1237.62V94H1226.2V91.408L1233.69 80.08H1226.2V77.248H1237.62V79.84L1230.09 91.168ZM1246.39 94.216C1245.11 94.216 1243.96 93.936 1242.93 93.376C1241.91 92.8 1241.1 91.992 1240.51 90.952C1239.93 89.912 1239.64 88.712 1239.64 87.352C1239.64 85.992 1239.94 84.792 1240.53 83.752C1241.14 82.712 1241.96 81.912 1243 81.352C1244.04 80.776 1245.2 80.488 1246.48 80.488C1247.76 80.488 1248.92 80.776 1249.96 81.352C1251 81.912 1251.82 82.712 1252.41 83.752C1253.02 84.792 1253.32 85.992 1253.32 87.352C1253.32 88.712 1253.01 89.912 1252.39 90.952C1251.78 91.992 1250.95 92.8 1249.89 93.376C1248.85 93.936 1247.68 94.216 1246.39 94.216ZM1246.39 91.288C1247 91.288 1247.56 91.144 1248.09 90.856C1248.64 90.552 1249.07 90.104 1249.39 89.512C1249.71 88.92 1249.87 88.2 1249.87 87.352C1249.87 86.088 1249.53 85.12 1248.86 84.448C1248.2 83.76 1247.4 83.416 1246.44 83.416C1245.48 83.416 1244.67 83.76 1244.01 84.448C1243.37 85.12 1243.05 86.088 1243.05 87.352C1243.05 88.616 1243.36 89.592 1243.99 90.28C1244.63 90.952 1245.43 91.288 1246.39 91.288ZM1263.16 80.512C1264.74 80.512 1266.02 81.016 1267 82.024C1267.97 83.016 1268.46 84.408 1268.46 86.2V94H1265.1V86.656C1265.1 85.6 1264.84 84.792 1264.31 84.232C1263.78 83.656 1263.06 83.368 1262.15 83.368C1261.22 83.368 1260.48 83.656 1259.94 84.232C1259.41 84.792 1259.15 85.6 1259.15 86.656V94H1255.79V80.704H1259.15V82.36C1259.6 81.784 1260.16 81.336 1260.85 81.016C1261.56 80.68 1262.32 80.512 1263.16 80.512ZM1284.02 87.064C1284.02 87.544 1283.98 87.976 1283.92 88.36H1274.2C1274.28 89.32 1274.62 90.072 1275.21 90.616C1275.8 91.16 1276.53 91.432 1277.39 91.432C1278.64 91.432 1279.53 90.896 1280.06 89.824H1283.68C1283.3 91.104 1282.56 92.16 1281.47 92.992C1280.38 93.808 1279.05 94.216 1277.46 94.216C1276.18 94.216 1275.03 93.936 1274.01 93.376C1273 92.8 1272.21 91.992 1271.63 90.952C1271.07 89.912 1270.79 88.712 1270.79 87.352C1270.79 85.976 1271.07 84.768 1271.63 83.728C1272.19 82.688 1272.98 81.888 1273.98 81.328C1274.99 80.768 1276.15 80.488 1277.46 80.488C1278.73 80.488 1279.86 80.76 1280.85 81.304C1281.86 81.848 1282.63 82.624 1283.18 83.632C1283.74 84.624 1284.02 85.768 1284.02 87.064ZM1280.54 86.104C1280.52 85.24 1280.21 84.552 1279.6 84.04C1278.99 83.512 1278.25 83.248 1277.37 83.248C1276.54 83.248 1275.83 83.504 1275.26 84.016C1274.7 84.512 1274.35 85.208 1274.22 86.104H1280.54ZM1298.04 77.248C1299.8 77.248 1301.35 77.592 1302.68 78.28C1304.02 78.968 1305.05 79.952 1305.77 81.232C1306.51 82.496 1306.88 83.968 1306.88 85.648C1306.88 87.328 1306.51 88.8 1305.77 90.064C1305.05 91.312 1304.02 92.28 1302.68 92.968C1301.35 93.656 1299.8 94 1298.04 94H1292.19V77.248H1298.04ZM1297.92 91.144C1299.68 91.144 1301.04 90.664 1302 89.704C1302.96 88.744 1303.44 87.392 1303.44 85.648C1303.44 83.904 1302.96 82.544 1302 81.568C1301.04 80.576 1299.68 80.08 1297.92 80.08H1295.55V91.144H1297.92Z" fill="#151223"/>
<rect x="1324" y="76" width="20" height="20" rx="10" fill="#CBCACD"/>
<path d="M1357.09 91.168H1364.62V94H1353.2V91.408L1360.69 80.08H1353.2V77.248H1364.62V79.84L1357.09 91.168ZM1373.39 94.216C1372.11 94.216 1370.96 93.936 1369.93 93.376C1368.91 92.8 1368.1 91.992 1367.51 90.952C1366.93 89.912 1366.64 88.712 1366.64 87.352C1366.64 85.992 1366.94 84.792 1367.53 83.752C1368.14 82.712 1368.96 81.912 1370 81.352C1371.04 80.776 1372.2 80.488 1373.48 80.488C1374.76 80.488 1375.92 80.776 1376.96 81.352C1378 81.912 1378.82 82.712 1379.41 83.752C1380.02 84.792 1380.32 85.992 1380.32 87.352C1380.32 88.712 1380.01 89.912 1379.39 90.952C1378.78 91.992 1377.95 92.8 1376.89 93.376C1375.85 93.936 1374.68 94.216 1373.39 94.216ZM1373.39 91.288C1374 91.288 1374.56 91.144 1375.09 90.856C1375.64 90.552 1376.07 90.104 1376.39 89.512C1376.71 88.92 1376.87 88.2 1376.87 87.352C1376.87 86.088 1376.53 85.12 1375.86 84.448C1375.2 83.76 1374.4 83.416 1373.44 83.416C1372.48 83.416 1371.67 83.76 1371.01 84.448C1370.37 85.12 1370.05 86.088 1370.05 87.352C1370.05 88.616 1370.36 89.592 1370.99 90.28C1371.63 90.952 1372.43 91.288 1373.39 91.288ZM1390.16 80.512C1391.74 80.512 1393.02 81.016 1394 82.024C1394.97 83.016 1395.46 84.408 1395.46 86.2V94H1392.1V86.656C1392.1 85.6 1391.84 84.792 1391.31 84.232C1390.78 83.656 1390.06 83.368 1389.15 83.368C1388.22 83.368 1387.48 83.656 1386.94 84.232C1386.41 84.792 1386.15 85.6 1386.15 86.656V94H1382.79V80.704H1386.15V82.36C1386.6 81.784 1387.16 81.336 1387.85 81.016C1388.56 80.68 1389.32 80.512 1390.16 80.512ZM1411.02 87.064C1411.02 87.544 1410.98 87.976 1410.92 88.36H1401.2C1401.28 89.32 1401.62 90.072 1402.21 90.616C1402.8 91.16 1403.53 91.432 1404.39 91.432C1405.64 91.432 1406.53 90.896 1407.06 89.824H1410.68C1410.3 91.104 1409.56 92.16 1408.47 92.992C1407.38 93.808 1406.05 94.216 1404.46 94.216C1403.18 94.216 1402.03 93.936 1401.01 93.376C1400 92.8 1399.21 91.992 1398.63 90.952C1398.07 89.912 1397.79 88.712 1397.79 87.352C1397.79 85.976 1398.07 84.768 1398.63 83.728C1399.19 82.688 1399.98 81.888 1400.98 81.328C1401.99 80.768 1403.15 80.488 1404.46 80.488C1405.73 80.488 1406.86 80.76 1407.85 81.304C1408.86 81.848 1409.63 82.624 1410.18 83.632C1410.74 84.624 1411.02 85.768 1411.02 87.064ZM1407.54 86.104C1407.52 85.24 1407.21 84.552 1406.6 84.04C1405.99 83.512 1405.25 83.248 1404.37 83.248C1403.54 83.248 1402.83 83.504 1402.26 84.016C1401.7 84.512 1401.35 85.208 1401.22 86.104H1407.54ZM1422.55 79.96V84.16H1428.19V86.824H1422.55V91.264H1428.91V94H1419.19V77.224H1428.91V79.96H1422.55Z" fill="#151223"/>
</svg>
