<svg width="28" height="28" viewBox="0 0 28 28" fill="none" xmlns="http://www.w3.org/2000/svg">
<path fill-rule="evenodd" clip-rule="evenodd" d="M8.75002 7C8.75002 4.10051 11.1005 1.75 14 1.75C16.8995 1.75 19.25 4.10051 19.25 7C19.25 9.89949 16.8995 12.25 14 12.25C11.1005 12.25 8.75002 9.89949 8.75002 7Z" fill="#0F172A"/>
<path fill-rule="evenodd" clip-rule="evenodd" d="M4.37647 23.4562C4.4667 18.2182 8.74067 14 14 14C19.2595 14 23.5335 18.2184 23.6236 23.4566C23.6295 23.804 23.4294 24.122 23.1136 24.2669C20.3382 25.5404 17.251 26.25 14.0004 26.25C10.7495 26.25 7.66203 25.5403 4.8864 24.2665C4.57061 24.1216 4.37049 23.8036 4.37647 23.4562Z" fill="#0F172A"/>
</svg>
