<svg width="370" height="306" viewBox="0 0 370 306" fill="none" xmlns="http://www.w3.org/2000/svg">
<rect width="360" height="306" rx="16" fill="white"/>
<path d="M84.08 38L81 32.56H79.68V38H76.88V24.04H82.12C83.2 24.04 84.12 24.2333 84.88 24.62C85.64 24.9933 86.2067 25.5067 86.58 26.16C86.9667 26.8 87.16 27.52 87.16 28.32C87.16 29.24 86.8933 30.0733 86.36 30.82C85.8267 31.5533 85.0333 32.06 83.98 32.34L87.32 38H84.08ZM79.68 30.46H82.02C82.78 30.46 83.3467 30.28 83.72 29.92C84.0933 29.5467 84.28 29.0333 84.28 28.38C84.28 27.74 84.0933 27.2467 83.72 26.9C83.3467 26.54 82.78 26.36 82.02 26.36H79.68V30.46ZM99.9925 32.22C99.9925 32.62 99.9658 32.98 99.9125 33.3H91.8125C91.8792 34.1 92.1592 34.7267 92.6525 35.18C93.1458 35.6333 93.7525 35.86 94.4725 35.86C95.5125 35.86 96.2525 35.4133 96.6925 34.52H99.7125C99.3925 35.5867 98.7792 36.4667 97.8725 37.16C96.9658 37.84 95.8525 38.18 94.5325 38.18C93.4658 38.18 92.5058 37.9467 91.6525 37.48C90.8125 37 90.1525 36.3267 89.6725 35.46C89.2058 34.5933 88.9725 33.5933 88.9725 32.46C88.9725 31.3133 89.2058 30.3067 89.6725 29.44C90.1392 28.5733 90.7925 27.9067 91.6325 27.44C92.4725 26.9733 93.4392 26.74 94.5325 26.74C95.5858 26.74 96.5258 26.9667 97.3525 27.42C98.1925 27.8733 98.8392 28.52 99.2925 29.36C99.7592 30.1867 99.9925 31.14 99.9925 32.22ZM97.0925 31.42C97.0792 30.7 96.8192 30.1267 96.3125 29.7C95.8058 29.26 95.1858 29.04 94.4525 29.04C93.7592 29.04 93.1725 29.2533 92.6925 29.68C92.2258 30.0933 91.9392 30.6733 91.8325 31.42H97.0925ZM101.316 32.46C101.316 31.3133 101.55 30.3133 102.016 29.46C102.483 28.5933 103.13 27.9267 103.956 27.46C104.783 26.98 105.73 26.74 106.796 26.74C108.17 26.74 109.303 27.0867 110.196 27.78C111.103 28.46 111.71 29.42 112.016 30.66H108.996C108.836 30.18 108.563 29.8067 108.176 29.54C107.803 29.26 107.336 29.12 106.776 29.12C105.976 29.12 105.343 29.4133 104.876 30C104.41 30.5733 104.176 31.3933 104.176 32.46C104.176 33.5133 104.41 34.3333 104.876 34.92C105.343 35.4933 105.976 35.78 106.776 35.78C107.91 35.78 108.65 35.2733 108.996 34.26H112.016C111.71 35.46 111.103 36.4133 110.196 37.12C109.29 37.8267 108.156 38.18 106.796 38.18C105.73 38.18 104.783 37.9467 103.956 37.48C103.13 37 102.483 36.3333 102.016 35.48C101.55 34.6133 101.316 33.6067 101.316 32.46ZM118.988 38.18C117.921 38.18 116.961 37.9467 116.108 37.48C115.254 37 114.581 36.3267 114.088 35.46C113.608 34.5933 113.368 33.5933 113.368 32.46C113.368 31.3267 113.614 30.3267 114.108 29.46C114.614 28.5933 115.301 27.9267 116.168 27.46C117.034 26.98 118.001 26.74 119.068 26.74C120.134 26.74 121.101 26.98 121.968 27.46C122.834 27.9267 123.514 28.5933 124.008 29.46C124.514 30.3267 124.768 31.3267 124.768 32.46C124.768 33.5933 124.508 34.5933 123.987 35.46C123.481 36.3267 122.788 37 121.908 37.48C121.041 37.9467 120.068 38.18 118.988 38.18ZM118.988 35.74C119.494 35.74 119.968 35.62 120.408 35.38C120.861 35.1267 121.221 34.7533 121.488 34.26C121.754 33.7667 121.888 33.1667 121.888 32.46C121.888 31.4067 121.608 30.6 121.048 30.04C120.501 29.4667 119.828 29.18 119.028 29.18C118.228 29.18 117.554 29.4667 117.008 30.04C116.474 30.6 116.208 31.4067 116.208 32.46C116.208 33.5133 116.468 34.3267 116.988 34.9C117.521 35.46 118.188 35.74 118.988 35.74ZM140.581 26.76C141.941 26.76 143.035 27.18 143.861 28.02C144.701 28.8467 145.121 30.0067 145.121 31.5V38H142.321V31.88C142.321 31.0133 142.101 30.3533 141.661 29.9C141.221 29.4333 140.621 29.2 139.861 29.2C139.101 29.2 138.495 29.4333 138.041 29.9C137.601 30.3533 137.381 31.0133 137.381 31.88V38H134.581V31.88C134.581 31.0133 134.361 30.3533 133.921 29.9C133.481 29.4333 132.881 29.2 132.121 29.2C131.348 29.2 130.735 29.4333 130.281 29.9C129.841 30.3533 129.621 31.0133 129.621 31.88V38H126.821V26.92H129.621V28.26C129.981 27.7933 130.441 27.4267 131.001 27.16C131.575 26.8933 132.201 26.76 132.881 26.76C133.748 26.76 134.521 26.9467 135.201 27.32C135.881 27.68 136.408 28.2 136.781 28.88C137.141 28.24 137.661 27.7267 138.341 27.34C139.035 26.9533 139.781 26.76 140.581 26.76ZM161.538 26.76C162.898 26.76 163.992 27.18 164.818 28.02C165.658 28.8467 166.078 30.0067 166.078 31.5V38H163.278V31.88C163.278 31.0133 163.058 30.3533 162.618 29.9C162.178 29.4333 161.578 29.2 160.818 29.2C160.058 29.2 159.452 29.4333 158.998 29.9C158.558 30.3533 158.338 31.0133 158.338 31.88V38H155.538V31.88C155.538 31.0133 155.318 30.3533 154.878 29.9C154.438 29.4333 153.838 29.2 153.078 29.2C152.305 29.2 151.692 29.4333 151.238 29.9C150.798 30.3533 150.578 31.0133 150.578 31.88V38H147.778V26.92H150.578V28.26C150.938 27.7933 151.398 27.4267 151.958 27.16C152.532 26.8933 153.158 26.76 153.838 26.76C154.705 26.76 155.478 26.9467 156.158 27.32C156.838 27.68 157.365 28.2 157.738 28.88C158.098 28.24 158.618 27.7267 159.298 27.34C159.992 26.9533 160.738 26.76 161.538 26.76ZM179.035 32.22C179.035 32.62 179.009 32.98 178.955 33.3H170.855C170.922 34.1 171.202 34.7267 171.695 35.18C172.189 35.6333 172.795 35.86 173.515 35.86C174.555 35.86 175.295 35.4133 175.735 34.52H178.755C178.435 35.5867 177.822 36.4667 176.915 37.16C176.009 37.84 174.895 38.18 173.575 38.18C172.509 38.18 171.549 37.9467 170.695 37.48C169.855 37 169.195 36.3267 168.715 35.46C168.249 34.5933 168.015 33.5933 168.015 32.46C168.015 31.3133 168.249 30.3067 168.715 29.44C169.182 28.5733 169.835 27.9067 170.675 27.44C171.515 26.9733 172.482 26.74 173.575 26.74C174.629 26.74 175.569 26.9667 176.395 27.42C177.235 27.8733 177.882 28.52 178.335 29.36C178.802 30.1867 179.035 31.14 179.035 32.22ZM176.135 31.42C176.122 30.7 175.862 30.1267 175.355 29.7C174.849 29.26 174.229 29.04 173.495 29.04C172.802 29.04 172.215 29.2533 171.735 29.68C171.269 30.0933 170.982 30.6733 170.875 31.42H176.135ZM187.219 26.76C188.539 26.76 189.606 27.18 190.419 28.02C191.233 28.8467 191.639 30.0067 191.639 31.5V38H188.839V31.88C188.839 31 188.619 30.3267 188.179 29.86C187.739 29.38 187.139 29.14 186.379 29.14C185.606 29.14 184.993 29.38 184.539 29.86C184.099 30.3267 183.879 31 183.879 31.88V38H181.079V26.92H183.879V28.3C184.253 27.82 184.726 27.4467 185.299 27.18C185.886 26.9 186.526 26.76 187.219 26.76ZM193.582 32.42C193.582 31.3 193.802 30.3067 194.242 29.44C194.695 28.5733 195.309 27.9067 196.082 27.44C196.855 26.9733 197.715 26.74 198.662 26.74C199.382 26.74 200.069 26.9 200.722 27.22C201.375 27.5267 201.895 27.94 202.282 28.46V23.2H205.122V38H202.282V36.36C201.935 36.9067 201.449 37.3467 200.822 37.68C200.195 38.0133 199.469 38.18 198.642 38.18C197.709 38.18 196.855 37.94 196.082 37.46C195.309 36.98 194.695 36.3067 194.242 35.44C193.802 34.56 193.582 33.5533 193.582 32.42ZM202.302 32.46C202.302 31.78 202.169 31.2 201.902 30.72C201.635 30.2267 201.275 29.8533 200.822 29.6C200.369 29.3333 199.882 29.2 199.362 29.2C198.842 29.2 198.362 29.3267 197.922 29.58C197.482 29.8333 197.122 30.2067 196.842 30.7C196.575 31.18 196.442 31.7533 196.442 32.42C196.442 33.0867 196.575 33.6733 196.842 34.18C197.122 34.6733 197.482 35.0533 197.922 35.32C198.375 35.5867 198.855 35.72 199.362 35.72C199.882 35.72 200.369 35.5933 200.822 35.34C201.275 35.0733 201.635 34.7 201.902 34.22C202.169 33.7267 202.302 33.14 202.302 32.46ZM218.157 32.22C218.157 32.62 218.13 32.98 218.077 33.3H209.977C210.043 34.1 210.323 34.7267 210.817 35.18C211.31 35.6333 211.917 35.86 212.637 35.86C213.677 35.86 214.417 35.4133 214.857 34.52H217.877C217.557 35.5867 216.943 36.4667 216.037 37.16C215.13 37.84 214.017 38.18 212.697 38.18C211.63 38.18 210.67 37.9467 209.817 37.48C208.977 37 208.317 36.3267 207.837 35.46C207.37 34.5933 207.137 33.5933 207.137 32.46C207.137 31.3133 207.37 30.3067 207.837 29.44C208.303 28.5733 208.957 27.9067 209.797 27.44C210.637 26.9733 211.603 26.74 212.697 26.74C213.75 26.74 214.69 26.9667 215.517 27.42C216.357 27.8733 217.003 28.52 217.457 29.36C217.923 30.1867 218.157 31.14 218.157 32.22ZM215.257 31.42C215.243 30.7 214.983 30.1267 214.477 29.7C213.97 29.26 213.35 29.04 212.617 29.04C211.923 29.04 211.337 29.2533 210.857 29.68C210.39 30.0933 210.103 30.6733 209.997 31.42H215.257ZM219.48 32.42C219.48 31.3 219.7 30.3067 220.14 29.44C220.594 28.5733 221.207 27.9067 221.98 27.44C222.754 26.9733 223.614 26.74 224.56 26.74C225.28 26.74 225.967 26.9 226.62 27.22C227.274 27.5267 227.794 27.94 228.18 28.46V23.2H231.02V38H228.18V36.36C227.834 36.9067 227.347 37.3467 226.72 37.68C226.094 38.0133 225.367 38.18 224.54 38.18C223.607 38.18 222.754 37.94 221.98 37.46C221.207 36.98 220.594 36.3067 220.14 35.44C219.7 34.56 219.48 33.5533 219.48 32.42ZM228.2 32.46C228.2 31.78 228.067 31.2 227.8 30.72C227.534 30.2267 227.174 29.8533 226.72 29.6C226.267 29.3333 225.78 29.2 225.26 29.2C224.74 29.2 224.26 29.3267 223.82 29.58C223.38 29.8333 223.02 30.2067 222.74 30.7C222.474 31.18 222.34 31.7533 222.34 32.42C222.34 33.0867 222.474 33.6733 222.74 34.18C223.02 34.6733 223.38 35.0533 223.82 35.32C224.274 35.5867 224.754 35.72 225.26 35.72C225.78 35.72 226.267 35.5933 226.72 35.34C227.174 35.0733 227.534 34.7 227.8 34.22C228.067 33.7267 228.2 33.14 228.2 32.46ZM237.801 32.46C237.801 31.3133 238.034 30.3133 238.501 29.46C238.967 28.5933 239.614 27.9267 240.441 27.46C241.267 26.98 242.214 26.74 243.281 26.74C244.654 26.74 245.787 27.0867 246.681 27.78C247.587 28.46 248.194 29.42 248.501 30.66H245.481C245.321 30.18 245.047 29.8067 244.661 29.54C244.287 29.26 243.821 29.12 243.261 29.12C242.461 29.12 241.827 29.4133 241.361 30C240.894 30.5733 240.661 31.3933 240.661 32.46C240.661 33.5133 240.894 34.3333 241.361 34.92C241.827 35.4933 242.461 35.78 243.261 35.78C244.394 35.78 245.134 35.2733 245.481 34.26H248.501C248.194 35.46 247.587 36.4133 246.681 37.12C245.774 37.8267 244.641 38.18 243.281 38.18C242.214 38.18 241.267 37.9467 240.441 37.48C239.614 37 238.967 36.3333 238.501 35.48C238.034 34.6133 237.801 33.6067 237.801 32.46ZM253.352 28.64C253.712 28.0533 254.179 27.5933 254.752 27.26C255.339 26.9267 256.005 26.76 256.752 26.76V29.7H256.012C255.132 29.7 254.465 29.9067 254.012 30.32C253.572 30.7333 253.352 31.4533 253.352 32.48V38H250.552V26.92H253.352V28.64ZM263.558 38.18C262.491 38.18 261.531 37.9467 260.678 37.48C259.824 37 259.151 36.3267 258.658 35.46C258.178 34.5933 257.938 33.5933 257.938 32.46C257.938 31.3267 258.184 30.3267 258.678 29.46C259.184 28.5933 259.871 27.9267 260.738 27.46C261.604 26.98 262.571 26.74 263.638 26.74C264.704 26.74 265.671 26.98 266.538 27.46C267.404 27.9267 268.084 28.5933 268.578 29.46C269.084 30.3267 269.338 31.3267 269.338 32.46C269.338 33.5933 269.078 34.5933 268.558 35.46C268.051 36.3267 267.358 37 266.478 37.48C265.611 37.9467 264.638 38.18 263.558 38.18ZM263.558 35.74C264.064 35.74 264.538 35.62 264.978 35.38C265.431 35.1267 265.791 34.7533 266.058 34.26C266.324 33.7667 266.458 33.1667 266.458 32.46C266.458 31.4067 266.178 30.6 265.618 30.04C265.071 29.4667 264.398 29.18 263.598 29.18C262.798 29.18 262.124 29.4667 261.578 30.04C261.044 30.6 260.778 31.4067 260.778 32.46C260.778 33.5133 261.038 34.3267 261.558 34.9C262.091 35.46 262.758 35.74 263.558 35.74ZM274.192 28.52C274.552 28.0133 275.045 27.5933 275.672 27.26C276.312 26.9133 277.038 26.74 277.852 26.74C278.798 26.74 279.652 26.9733 280.412 27.44C281.185 27.9067 281.792 28.5733 282.232 29.44C282.685 30.2933 282.912 31.2867 282.912 32.42C282.912 33.5533 282.685 34.56 282.232 35.44C281.792 36.3067 281.185 36.98 280.412 37.46C279.652 37.94 278.798 38.18 277.852 38.18C277.038 38.18 276.318 38.0133 275.692 37.68C275.078 37.3467 274.578 36.9267 274.192 36.42V43.28H271.392V26.92H274.192V28.52ZM280.052 32.42C280.052 31.7533 279.912 31.18 279.632 30.7C279.365 30.2067 279.005 29.8333 278.552 29.58C278.112 29.3267 277.632 29.2 277.112 29.2C276.605 29.2 276.125 29.3333 275.672 29.6C275.232 29.8533 274.872 30.2267 274.592 30.72C274.325 31.2133 274.192 31.7933 274.192 32.46C274.192 33.1267 274.325 33.7067 274.592 34.2C274.872 34.6933 275.232 35.0733 275.672 35.34C276.125 35.5933 276.605 35.72 277.112 35.72C277.632 35.72 278.112 35.5867 278.552 35.32C279.005 35.0533 279.365 34.6733 279.632 34.18C279.912 33.6867 280.052 33.1 280.052 32.42Z" fill="#262626"/>
<path d="M84.08 38L81 32.56H79.68V38H76.88V24.04H82.12C83.2 24.04 84.12 24.2333 84.88 24.62C85.64 24.9933 86.2067 25.5067 86.58 26.16C86.9667 26.8 87.16 27.52 87.16 28.32C87.16 29.24 86.8933 30.0733 86.36 30.82C85.8267 31.5533 85.0333 32.06 83.98 32.34L87.32 38H84.08ZM79.68 30.46H82.02C82.78 30.46 83.3467 30.28 83.72 29.92C84.0933 29.5467 84.28 29.0333 84.28 28.38C84.28 27.74 84.0933 27.2467 83.72 26.9C83.3467 26.54 82.78 26.36 82.02 26.36H79.68V30.46ZM99.9925 32.22C99.9925 32.62 99.9658 32.98 99.9125 33.3H91.8125C91.8792 34.1 92.1592 34.7267 92.6525 35.18C93.1458 35.6333 93.7525 35.86 94.4725 35.86C95.5125 35.86 96.2525 35.4133 96.6925 34.52H99.7125C99.3925 35.5867 98.7792 36.4667 97.8725 37.16C96.9658 37.84 95.8525 38.18 94.5325 38.18C93.4658 38.18 92.5058 37.9467 91.6525 37.48C90.8125 37 90.1525 36.3267 89.6725 35.46C89.2058 34.5933 88.9725 33.5933 88.9725 32.46C88.9725 31.3133 89.2058 30.3067 89.6725 29.44C90.1392 28.5733 90.7925 27.9067 91.6325 27.44C92.4725 26.9733 93.4392 26.74 94.5325 26.74C95.5858 26.74 96.5258 26.9667 97.3525 27.42C98.1925 27.8733 98.8392 28.52 99.2925 29.36C99.7592 30.1867 99.9925 31.14 99.9925 32.22ZM97.0925 31.42C97.0792 30.7 96.8192 30.1267 96.3125 29.7C95.8058 29.26 95.1858 29.04 94.4525 29.04C93.7592 29.04 93.1725 29.2533 92.6925 29.68C92.2258 30.0933 91.9392 30.6733 91.8325 31.42H97.0925ZM101.316 32.46C101.316 31.3133 101.55 30.3133 102.016 29.46C102.483 28.5933 103.13 27.9267 103.956 27.46C104.783 26.98 105.73 26.74 106.796 26.74C108.17 26.74 109.303 27.0867 110.196 27.78C111.103 28.46 111.71 29.42 112.016 30.66H108.996C108.836 30.18 108.563 29.8067 108.176 29.54C107.803 29.26 107.336 29.12 106.776 29.12C105.976 29.12 105.343 29.4133 104.876 30C104.41 30.5733 104.176 31.3933 104.176 32.46C104.176 33.5133 104.41 34.3333 104.876 34.92C105.343 35.4933 105.976 35.78 106.776 35.78C107.91 35.78 108.65 35.2733 108.996 34.26H112.016C111.71 35.46 111.103 36.4133 110.196 37.12C109.29 37.8267 108.156 38.18 106.796 38.18C105.73 38.18 104.783 37.9467 103.956 37.48C103.13 37 102.483 36.3333 102.016 35.48C101.55 34.6133 101.316 33.6067 101.316 32.46ZM118.988 38.18C117.921 38.18 116.961 37.9467 116.108 37.48C115.254 37 114.581 36.3267 114.088 35.46C113.608 34.5933 113.368 33.5933 113.368 32.46C113.368 31.3267 113.614 30.3267 114.108 29.46C114.614 28.5933 115.301 27.9267 116.168 27.46C117.034 26.98 118.001 26.74 119.068 26.74C120.134 26.74 121.101 26.98 121.968 27.46C122.834 27.9267 123.514 28.5933 124.008 29.46C124.514 30.3267 124.768 31.3267 124.768 32.46C124.768 33.5933 124.508 34.5933 123.987 35.46C123.481 36.3267 122.788 37 121.908 37.48C121.041 37.9467 120.068 38.18 118.988 38.18ZM118.988 35.74C119.494 35.74 119.968 35.62 120.408 35.38C120.861 35.1267 121.221 34.7533 121.488 34.26C121.754 33.7667 121.888 33.1667 121.888 32.46C121.888 31.4067 121.608 30.6 121.048 30.04C120.501 29.4667 119.828 29.18 119.028 29.18C118.228 29.18 117.554 29.4667 117.008 30.04C116.474 30.6 116.208 31.4067 116.208 32.46C116.208 33.5133 116.468 34.3267 116.988 34.9C117.521 35.46 118.188 35.74 118.988 35.74ZM140.581 26.76C141.941 26.76 143.035 27.18 143.861 28.02C144.701 28.8467 145.121 30.0067 145.121 31.5V38H142.321V31.88C142.321 31.0133 142.101 30.3533 141.661 29.9C141.221 29.4333 140.621 29.2 139.861 29.2C139.101 29.2 138.495 29.4333 138.041 29.9C137.601 30.3533 137.381 31.0133 137.381 31.88V38H134.581V31.88C134.581 31.0133 134.361 30.3533 133.921 29.9C133.481 29.4333 132.881 29.2 132.121 29.2C131.348 29.2 130.735 29.4333 130.281 29.9C129.841 30.3533 129.621 31.0133 129.621 31.88V38H126.821V26.92H129.621V28.26C129.981 27.7933 130.441 27.4267 131.001 27.16C131.575 26.8933 132.201 26.76 132.881 26.76C133.748 26.76 134.521 26.9467 135.201 27.32C135.881 27.68 136.408 28.2 136.781 28.88C137.141 28.24 137.661 27.7267 138.341 27.34C139.035 26.9533 139.781 26.76 140.581 26.76ZM161.538 26.76C162.898 26.76 163.992 27.18 164.818 28.02C165.658 28.8467 166.078 30.0067 166.078 31.5V38H163.278V31.88C163.278 31.0133 163.058 30.3533 162.618 29.9C162.178 29.4333 161.578 29.2 160.818 29.2C160.058 29.2 159.452 29.4333 158.998 29.9C158.558 30.3533 158.338 31.0133 158.338 31.88V38H155.538V31.88C155.538 31.0133 155.318 30.3533 154.878 29.9C154.438 29.4333 153.838 29.2 153.078 29.2C152.305 29.2 151.692 29.4333 151.238 29.9C150.798 30.3533 150.578 31.0133 150.578 31.88V38H147.778V26.92H150.578V28.26C150.938 27.7933 151.398 27.4267 151.958 27.16C152.532 26.8933 153.158 26.76 153.838 26.76C154.705 26.76 155.478 26.9467 156.158 27.32C156.838 27.68 157.365 28.2 157.738 28.88C158.098 28.24 158.618 27.7267 159.298 27.34C159.992 26.9533 160.738 26.76 161.538 26.76ZM179.035 32.22C179.035 32.62 179.009 32.98 178.955 33.3H170.855C170.922 34.1 171.202 34.7267 171.695 35.18C172.189 35.6333 172.795 35.86 173.515 35.86C174.555 35.86 175.295 35.4133 175.735 34.52H178.755C178.435 35.5867 177.822 36.4667 176.915 37.16C176.009 37.84 174.895 38.18 173.575 38.18C172.509 38.18 171.549 37.9467 170.695 37.48C169.855 37 169.195 36.3267 168.715 35.46C168.249 34.5933 168.015 33.5933 168.015 32.46C168.015 31.3133 168.249 30.3067 168.715 29.44C169.182 28.5733 169.835 27.9067 170.675 27.44C171.515 26.9733 172.482 26.74 173.575 26.74C174.629 26.74 175.569 26.9667 176.395 27.42C177.235 27.8733 177.882 28.52 178.335 29.36C178.802 30.1867 179.035 31.14 179.035 32.22ZM176.135 31.42C176.122 30.7 175.862 30.1267 175.355 29.7C174.849 29.26 174.229 29.04 173.495 29.04C172.802 29.04 172.215 29.2533 171.735 29.68C171.269 30.0933 170.982 30.6733 170.875 31.42H176.135ZM187.219 26.76C188.539 26.76 189.606 27.18 190.419 28.02C191.233 28.8467 191.639 30.0067 191.639 31.5V38H188.839V31.88C188.839 31 188.619 30.3267 188.179 29.86C187.739 29.38 187.139 29.14 186.379 29.14C185.606 29.14 184.993 29.38 184.539 29.86C184.099 30.3267 183.879 31 183.879 31.88V38H181.079V26.92H183.879V28.3C184.253 27.82 184.726 27.4467 185.299 27.18C185.886 26.9 186.526 26.76 187.219 26.76ZM193.582 32.42C193.582 31.3 193.802 30.3067 194.242 29.44C194.695 28.5733 195.309 27.9067 196.082 27.44C196.855 26.9733 197.715 26.74 198.662 26.74C199.382 26.74 200.069 26.9 200.722 27.22C201.375 27.5267 201.895 27.94 202.282 28.46V23.2H205.122V38H202.282V36.36C201.935 36.9067 201.449 37.3467 200.822 37.68C200.195 38.0133 199.469 38.18 198.642 38.18C197.709 38.18 196.855 37.94 196.082 37.46C195.309 36.98 194.695 36.3067 194.242 35.44C193.802 34.56 193.582 33.5533 193.582 32.42ZM202.302 32.46C202.302 31.78 202.169 31.2 201.902 30.72C201.635 30.2267 201.275 29.8533 200.822 29.6C200.369 29.3333 199.882 29.2 199.362 29.2C198.842 29.2 198.362 29.3267 197.922 29.58C197.482 29.8333 197.122 30.2067 196.842 30.7C196.575 31.18 196.442 31.7533 196.442 32.42C196.442 33.0867 196.575 33.6733 196.842 34.18C197.122 34.6733 197.482 35.0533 197.922 35.32C198.375 35.5867 198.855 35.72 199.362 35.72C199.882 35.72 200.369 35.5933 200.822 35.34C201.275 35.0733 201.635 34.7 201.902 34.22C202.169 33.7267 202.302 33.14 202.302 32.46ZM218.157 32.22C218.157 32.62 218.13 32.98 218.077 33.3H209.977C210.043 34.1 210.323 34.7267 210.817 35.18C211.31 35.6333 211.917 35.86 212.637 35.86C213.677 35.86 214.417 35.4133 214.857 34.52H217.877C217.557 35.5867 216.943 36.4667 216.037 37.16C215.13 37.84 214.017 38.18 212.697 38.18C211.63 38.18 210.67 37.9467 209.817 37.48C208.977 37 208.317 36.3267 207.837 35.46C207.37 34.5933 207.137 33.5933 207.137 32.46C207.137 31.3133 207.37 30.3067 207.837 29.44C208.303 28.5733 208.957 27.9067 209.797 27.44C210.637 26.9733 211.603 26.74 212.697 26.74C213.75 26.74 214.69 26.9667 215.517 27.42C216.357 27.8733 217.003 28.52 217.457 29.36C217.923 30.1867 218.157 31.14 218.157 32.22ZM215.257 31.42C215.243 30.7 214.983 30.1267 214.477 29.7C213.97 29.26 213.35 29.04 212.617 29.04C211.923 29.04 211.337 29.2533 210.857 29.68C210.39 30.0933 210.103 30.6733 209.997 31.42H215.257ZM219.48 32.42C219.48 31.3 219.7 30.3067 220.14 29.44C220.594 28.5733 221.207 27.9067 221.98 27.44C222.754 26.9733 223.614 26.74 224.56 26.74C225.28 26.74 225.967 26.9 226.62 27.22C227.274 27.5267 227.794 27.94 228.18 28.46V23.2H231.02V38H228.18V36.36C227.834 36.9067 227.347 37.3467 226.72 37.68C226.094 38.0133 225.367 38.18 224.54 38.18C223.607 38.18 222.754 37.94 221.98 37.46C221.207 36.98 220.594 36.3067 220.14 35.44C219.7 34.56 219.48 33.5533 219.48 32.42ZM228.2 32.46C228.2 31.78 228.067 31.2 227.8 30.72C227.534 30.2267 227.174 29.8533 226.72 29.6C226.267 29.3333 225.78 29.2 225.26 29.2C224.74 29.2 224.26 29.3267 223.82 29.58C223.38 29.8333 223.02 30.2067 222.74 30.7C222.474 31.18 222.34 31.7533 222.34 32.42C222.34 33.0867 222.474 33.6733 222.74 34.18C223.02 34.6733 223.38 35.0533 223.82 35.32C224.274 35.5867 224.754 35.72 225.26 35.72C225.78 35.72 226.267 35.5933 226.72 35.34C227.174 35.0733 227.534 34.7 227.8 34.22C228.067 33.7267 228.2 33.14 228.2 32.46ZM237.801 32.46C237.801 31.3133 238.034 30.3133 238.501 29.46C238.967 28.5933 239.614 27.9267 240.441 27.46C241.267 26.98 242.214 26.74 243.281 26.74C244.654 26.74 245.787 27.0867 246.681 27.78C247.587 28.46 248.194 29.42 248.501 30.66H245.481C245.321 30.18 245.047 29.8067 244.661 29.54C244.287 29.26 243.821 29.12 243.261 29.12C242.461 29.12 241.827 29.4133 241.361 30C240.894 30.5733 240.661 31.3933 240.661 32.46C240.661 33.5133 240.894 34.3333 241.361 34.92C241.827 35.4933 242.461 35.78 243.261 35.78C244.394 35.78 245.134 35.2733 245.481 34.26H248.501C248.194 35.46 247.587 36.4133 246.681 37.12C245.774 37.8267 244.641 38.18 243.281 38.18C242.214 38.18 241.267 37.9467 240.441 37.48C239.614 37 238.967 36.3333 238.501 35.48C238.034 34.6133 237.801 33.6067 237.801 32.46ZM253.352 28.64C253.712 28.0533 254.179 27.5933 254.752 27.26C255.339 26.9267 256.005 26.76 256.752 26.76V29.7H256.012C255.132 29.7 254.465 29.9067 254.012 30.32C253.572 30.7333 253.352 31.4533 253.352 32.48V38H250.552V26.92H253.352V28.64ZM263.558 38.18C262.491 38.18 261.531 37.9467 260.678 37.48C259.824 37 259.151 36.3267 258.658 35.46C258.178 34.5933 257.938 33.5933 257.938 32.46C257.938 31.3267 258.184 30.3267 258.678 29.46C259.184 28.5933 259.871 27.9267 260.738 27.46C261.604 26.98 262.571 26.74 263.638 26.74C264.704 26.74 265.671 26.98 266.538 27.46C267.404 27.9267 268.084 28.5933 268.578 29.46C269.084 30.3267 269.338 31.3267 269.338 32.46C269.338 33.5933 269.078 34.5933 268.558 35.46C268.051 36.3267 267.358 37 266.478 37.48C265.611 37.9467 264.638 38.18 263.558 38.18ZM263.558 35.74C264.064 35.74 264.538 35.62 264.978 35.38C265.431 35.1267 265.791 34.7533 266.058 34.26C266.324 33.7667 266.458 33.1667 266.458 32.46C266.458 31.4067 266.178 30.6 265.618 30.04C265.071 29.4667 264.398 29.18 263.598 29.18C262.798 29.18 262.124 29.4667 261.578 30.04C261.044 30.6 260.778 31.4067 260.778 32.46C260.778 33.5133 261.038 34.3267 261.558 34.9C262.091 35.46 262.758 35.74 263.558 35.74ZM274.192 28.52C274.552 28.0133 275.045 27.5933 275.672 27.26C276.312 26.9133 277.038 26.74 277.852 26.74C278.798 26.74 279.652 26.9733 280.412 27.44C281.185 27.9067 281.792 28.5733 282.232 29.44C282.685 30.2933 282.912 31.2867 282.912 32.42C282.912 33.5533 282.685 34.56 282.232 35.44C281.792 36.3067 281.185 36.98 280.412 37.46C279.652 37.94 278.798 38.18 277.852 38.18C277.038 38.18 276.318 38.0133 275.692 37.68C275.078 37.3467 274.578 36.9267 274.192 36.42V43.28H271.392V26.92H274.192V28.52ZM280.052 32.42C280.052 31.7533 279.912 31.18 279.632 30.7C279.365 30.2067 279.005 29.8333 278.552 29.58C278.112 29.3267 277.632 29.2 277.112 29.2C276.605 29.2 276.125 29.3333 275.672 29.6C275.232 29.8533 274.872 30.2267 274.592 30.72C274.325 31.2133 274.192 31.7933 274.192 32.46C274.192 33.1267 274.325 33.7067 274.592 34.2C274.872 34.6933 275.232 35.0733 275.672 35.34C276.125 35.5933 276.605 35.72 277.112 35.72C277.632 35.72 278.112 35.5867 278.552 35.32C279.005 35.0533 279.365 34.6733 279.632 34.18C279.912 33.6867 280.052 33.1 280.052 32.42Z" fill="#2367FF" fill-opacity="0.09"/>
<path d="M180 170L258.125 91.875H265M180 170L288.75 155H296.25M180 170L241.25 261.25H248.75M180 170L101.875 248.125H93.75M180 170L96.25 98.125H88.75" stroke="#262626"/>
<path d="M180 170L258.125 91.875H265M180 170L288.75 155H296.25M180 170L241.25 261.25H248.75M180 170L101.875 248.125H93.75M180 170L96.25 98.125H88.75" stroke="#2367FF" stroke-opacity="0.09"/>
<path d="M69.8246 248.362H72.7526V249.25H68.7326V240.886H69.8246V248.362ZM79.9123 245.71C79.9123 245.918 79.9003 246.138 79.8763 246.37H74.6203C74.6603 247.018 74.8803 247.526 75.2803 247.894C75.6883 248.254 76.1803 248.434 76.7563 248.434C77.2283 248.434 77.6203 248.326 77.9323 248.11C78.2523 247.886 78.4763 247.59 78.6043 247.222H79.7803C79.6043 247.854 79.2523 248.37 78.7243 248.77C78.1963 249.162 77.5403 249.358 76.7563 249.358C76.1323 249.358 75.5723 249.218 75.0763 248.938C74.5883 248.658 74.2043 248.262 73.9243 247.75C73.6443 247.23 73.5043 246.63 73.5043 245.95C73.5043 245.27 73.6403 244.674 73.9123 244.162C74.1843 243.65 74.5643 243.258 75.0523 242.986C75.5483 242.706 76.1163 242.566 76.7563 242.566C77.3803 242.566 77.9323 242.702 78.4123 242.974C78.8923 243.246 79.2603 243.622 79.5163 244.102C79.7803 244.574 79.9123 245.11 79.9123 245.71ZM78.7843 245.482C78.7843 245.066 78.6923 244.71 78.5083 244.414C78.3243 244.11 78.0723 243.882 77.7523 243.73C77.4403 243.57 77.0923 243.49 76.7083 243.49C76.1563 243.49 75.6843 243.666 75.2923 244.018C74.9083 244.37 74.6883 244.858 74.6323 245.482H78.7843ZM84.0297 243.574H82.6497V249.25H81.5577V243.574H80.7057V242.674H81.5577V242.206C81.5577 241.47 81.7457 240.934 82.1217 240.598C82.5057 240.254 83.1177 240.082 83.9577 240.082V240.994C83.4777 240.994 83.1377 241.09 82.9377 241.282C82.7457 241.466 82.6497 241.774 82.6497 242.206V242.674H84.0297V243.574ZM86.6349 243.574V247.45C86.6349 247.77 86.7029 247.998 86.8389 248.134C86.9749 248.262 87.2109 248.326 87.5469 248.326H88.3509V249.25H87.3669C86.7589 249.25 86.3029 249.11 85.9989 248.83C85.6949 248.55 85.5429 248.09 85.5429 247.45V243.574H84.6909V242.674H85.5429V241.018H86.6349V242.674H88.3509V243.574H86.6349Z" fill="#262626"/>
<path d="M69.8246 248.362H72.7526V249.25H68.7326V240.886H69.8246V248.362ZM79.9123 245.71C79.9123 245.918 79.9003 246.138 79.8763 246.37H74.6203C74.6603 247.018 74.8803 247.526 75.2803 247.894C75.6883 248.254 76.1803 248.434 76.7563 248.434C77.2283 248.434 77.6203 248.326 77.9323 248.11C78.2523 247.886 78.4763 247.59 78.6043 247.222H79.7803C79.6043 247.854 79.2523 248.37 78.7243 248.77C78.1963 249.162 77.5403 249.358 76.7563 249.358C76.1323 249.358 75.5723 249.218 75.0763 248.938C74.5883 248.658 74.2043 248.262 73.9243 247.75C73.6443 247.23 73.5043 246.63 73.5043 245.95C73.5043 245.27 73.6403 244.674 73.9123 244.162C74.1843 243.65 74.5643 243.258 75.0523 242.986C75.5483 242.706 76.1163 242.566 76.7563 242.566C77.3803 242.566 77.9323 242.702 78.4123 242.974C78.8923 243.246 79.2603 243.622 79.5163 244.102C79.7803 244.574 79.9123 245.11 79.9123 245.71ZM78.7843 245.482C78.7843 245.066 78.6923 244.71 78.5083 244.414C78.3243 244.11 78.0723 243.882 77.7523 243.73C77.4403 243.57 77.0923 243.49 76.7083 243.49C76.1563 243.49 75.6843 243.666 75.2923 244.018C74.9083 244.37 74.6883 244.858 74.6323 245.482H78.7843ZM84.0297 243.574H82.6497V249.25H81.5577V243.574H80.7057V242.674H81.5577V242.206C81.5577 241.47 81.7457 240.934 82.1217 240.598C82.5057 240.254 83.1177 240.082 83.9577 240.082V240.994C83.4777 240.994 83.1377 241.09 82.9377 241.282C82.7457 241.466 82.6497 241.774 82.6497 242.206V242.674H84.0297V243.574ZM86.6349 243.574V247.45C86.6349 247.77 86.7029 247.998 86.8389 248.134C86.9749 248.262 87.2109 248.326 87.5469 248.326H88.3509V249.25H87.3669C86.7589 249.25 86.3029 249.11 85.9989 248.83C85.6949 248.55 85.5429 248.09 85.5429 247.45V243.574H84.6909V242.674H85.5429V241.018H86.6349V242.674H88.3509V243.574H86.6349Z" fill="#2367FF" fill-opacity="0.09"/>
<path d="M37.4027 93.334C37.4027 94.03 37.1627 94.61 36.6827 95.074C36.2107 95.53 35.4867 95.758 34.5107 95.758H32.9027V99.25H31.8107V90.886H34.5107C35.4547 90.886 36.1707 91.114 36.6587 91.57C37.1547 92.026 37.4027 92.614 37.4027 93.334ZM34.5107 94.858C35.1187 94.858 35.5667 94.726 35.8547 94.462C36.1427 94.198 36.2867 93.822 36.2867 93.334C36.2867 92.302 35.6947 91.786 34.5107 91.786H32.9027V94.858H34.5107ZM41.6279 99.358C41.0119 99.358 40.4519 99.218 39.9479 98.938C39.4519 98.658 39.0599 98.262 38.7719 97.75C38.4919 97.23 38.3519 96.63 38.3519 95.95C38.3519 95.278 38.4959 94.686 38.7839 94.174C39.0799 93.654 39.4799 93.258 39.9839 92.986C40.4879 92.706 41.0519 92.566 41.6759 92.566C42.2999 92.566 42.8639 92.706 43.3679 92.986C43.8719 93.258 44.2679 93.65 44.5559 94.162C44.8519 94.674 44.9999 95.27 44.9999 95.95C44.9999 96.63 44.8479 97.23 44.5439 97.75C44.2479 98.262 43.8439 98.658 43.3319 98.938C42.8199 99.218 42.2519 99.358 41.6279 99.358ZM41.6279 98.398C42.0199 98.398 42.3879 98.306 42.7319 98.122C43.0759 97.938 43.3519 97.662 43.5599 97.294C43.7759 96.926 43.8839 96.478 43.8839 95.95C43.8839 95.422 43.7799 94.974 43.5719 94.606C43.3639 94.238 43.0919 93.966 42.7559 93.79C42.4199 93.606 42.0559 93.514 41.6639 93.514C41.2639 93.514 40.8959 93.606 40.5599 93.79C40.2319 93.966 39.9679 94.238 39.7679 94.606C39.5679 94.974 39.4679 95.422 39.4679 95.95C39.4679 96.486 39.5639 96.938 39.7559 97.306C39.9559 97.674 40.2199 97.95 40.5479 98.134C40.8759 98.31 41.2359 98.398 41.6279 98.398ZM47.7677 93.574V97.45C47.7677 97.77 47.8357 97.998 47.9717 98.134C48.1077 98.262 48.3437 98.326 48.6797 98.326H49.4837V99.25H48.4997C47.8917 99.25 47.4357 99.11 47.1317 98.83C46.8277 98.55 46.6757 98.09 46.6757 97.45V93.574H45.8237V92.674H46.6757V91.018H47.7677V92.674H49.4837V93.574H47.7677ZM50.3988 95.938C50.3988 95.266 50.5348 94.678 50.8068 94.174C51.0788 93.662 51.4508 93.266 51.9228 92.986C52.4028 92.706 52.9348 92.566 53.5188 92.566C54.0948 92.566 54.5948 92.69 55.0188 92.938C55.4428 93.186 55.7588 93.498 55.9668 93.874V92.674H57.0708V99.25H55.9668V98.026C55.7508 98.41 55.4268 98.73 54.9948 98.986C54.5708 99.234 54.0748 99.358 53.5068 99.358C52.9228 99.358 52.3948 99.214 51.9228 98.926C51.4508 98.638 51.0788 98.234 50.8068 97.714C50.5348 97.194 50.3988 96.602 50.3988 95.938ZM55.9668 95.95C55.9668 95.454 55.8668 95.022 55.6668 94.654C55.4668 94.286 55.1948 94.006 54.8508 93.814C54.5148 93.614 54.1428 93.514 53.7348 93.514C53.3268 93.514 52.9548 93.61 52.6188 93.802C52.2828 93.994 52.0148 94.274 51.8148 94.642C51.6148 95.01 51.5148 95.442 51.5148 95.938C51.5148 96.442 51.6148 96.882 51.8148 97.258C52.0148 97.626 52.2828 97.91 52.6188 98.11C52.9548 98.302 53.3268 98.398 53.7348 98.398C54.1428 98.398 54.5148 98.302 54.8508 98.11C55.1948 97.91 55.4668 97.626 55.6668 97.258C55.8668 96.882 55.9668 96.446 55.9668 95.95ZM60.2482 93.574V97.45C60.2482 97.77 60.3162 97.998 60.4522 98.134C60.5882 98.262 60.8242 98.326 61.1602 98.326H61.9642V99.25H60.9802C60.3722 99.25 59.9162 99.11 59.6122 98.83C59.3082 98.55 59.1562 98.09 59.1562 97.45V93.574H58.3042V92.674H59.1562V91.018H60.2482V92.674H61.9642V93.574H60.2482ZM66.1553 99.358C65.5393 99.358 64.9793 99.218 64.4753 98.938C63.9793 98.658 63.5873 98.262 63.2993 97.75C63.0193 97.23 62.8793 96.63 62.8793 95.95C62.8793 95.278 63.0233 94.686 63.3113 94.174C63.6073 93.654 64.0073 93.258 64.5113 92.986C65.0153 92.706 65.5793 92.566 66.2033 92.566C66.8273 92.566 67.3913 92.706 67.8953 92.986C68.3993 93.258 68.7953 93.65 69.0833 94.162C69.3793 94.674 69.5273 95.27 69.5273 95.95C69.5273 96.63 69.3753 97.23 69.0713 97.75C68.7753 98.262 68.3713 98.658 67.8593 98.938C67.3473 99.218 66.7793 99.358 66.1553 99.358ZM66.1553 98.398C66.5473 98.398 66.9153 98.306 67.2593 98.122C67.6033 97.938 67.8793 97.662 68.0873 97.294C68.3033 96.926 68.4113 96.478 68.4113 95.95C68.4113 95.422 68.3073 94.974 68.0993 94.606C67.8913 94.238 67.6193 93.966 67.2833 93.79C66.9473 93.606 66.5833 93.514 66.1913 93.514C65.7913 93.514 65.4233 93.606 65.0873 93.79C64.7593 93.966 64.4953 94.238 64.2953 94.606C64.0953 94.974 63.9953 95.422 63.9953 95.95C63.9953 96.486 64.0913 96.938 64.2833 97.306C64.4833 97.674 64.7473 97.95 65.0753 98.134C65.4033 98.31 65.7633 98.398 66.1553 98.398ZM76.9631 95.71C76.9631 95.918 76.9511 96.138 76.9271 96.37H71.6711C71.7111 97.018 71.9311 97.526 72.3311 97.894C72.7391 98.254 73.2311 98.434 73.8071 98.434C74.2791 98.434 74.6711 98.326 74.9831 98.11C75.3031 97.886 75.5271 97.59 75.6551 97.222H76.8311C76.6551 97.854 76.3031 98.37 75.7751 98.77C75.2471 99.162 74.5911 99.358 73.8071 99.358C73.1831 99.358 72.6231 99.218 72.1271 98.938C71.6391 98.658 71.2551 98.262 70.9751 97.75C70.6951 97.23 70.5551 96.63 70.5551 95.95C70.5551 95.27 70.6911 94.674 70.9631 94.162C71.2351 93.65 71.6151 93.258 72.1031 92.986C72.5991 92.706 73.1671 92.566 73.8071 92.566C74.4311 92.566 74.9831 92.702 75.4631 92.974C75.9431 93.246 76.3111 93.622 76.5671 94.102C76.8311 94.574 76.9631 95.11 76.9631 95.71ZM75.8351 95.482C75.8351 95.066 75.7431 94.71 75.5591 94.414C75.3751 94.11 75.1231 93.882 74.8031 93.73C74.4911 93.57 74.1431 93.49 73.7591 93.49C73.2071 93.49 72.7351 93.666 72.3431 94.018C71.9591 94.37 71.7391 94.858 71.6831 95.482H75.8351ZM80.7325 99.358C80.2285 99.358 79.7765 99.274 79.3765 99.106C78.9765 98.93 78.6605 98.69 78.4285 98.386C78.1965 98.074 78.0685 97.718 78.0445 97.318H79.1725C79.2045 97.646 79.3565 97.914 79.6285 98.122C79.9085 98.33 80.2725 98.434 80.7205 98.434C81.1365 98.434 81.4645 98.342 81.7045 98.158C81.9445 97.974 82.0645 97.742 82.0645 97.462C82.0645 97.174 81.9365 96.962 81.6805 96.826C81.4245 96.682 81.0285 96.542 80.4925 96.406C80.0045 96.278 79.6045 96.15 79.2925 96.022C78.9885 95.886 78.7245 95.69 78.5005 95.434C78.2845 95.17 78.1765 94.826 78.1765 94.402C78.1765 94.066 78.2765 93.758 78.4765 93.478C78.6765 93.198 78.9605 92.978 79.3285 92.818C79.6965 92.65 80.1165 92.566 80.5885 92.566C81.3165 92.566 81.9045 92.75 82.3525 93.118C82.8005 93.486 83.0405 93.99 83.0725 94.63H81.9805C81.9565 94.286 81.8165 94.01 81.5605 93.802C81.3125 93.594 80.9765 93.49 80.5525 93.49C80.1605 93.49 79.8485 93.574 79.6165 93.742C79.3845 93.91 79.2685 94.13 79.2685 94.402C79.2685 94.618 79.3365 94.798 79.4725 94.942C79.6165 95.078 79.7925 95.19 80.0005 95.278C80.2165 95.358 80.5125 95.45 80.8885 95.554C81.3605 95.682 81.7445 95.81 82.0405 95.938C82.3365 96.058 82.5885 96.242 82.7965 96.49C83.0125 96.738 83.1245 97.062 83.1325 97.462C83.1325 97.822 83.0325 98.146 82.8325 98.434C82.6325 98.722 82.3485 98.95 81.9805 99.118C81.6205 99.278 81.2045 99.358 80.7325 99.358Z" fill="#262626"/>
<path d="M37.4027 93.334C37.4027 94.03 37.1627 94.61 36.6827 95.074C36.2107 95.53 35.4867 95.758 34.5107 95.758H32.9027V99.25H31.8107V90.886H34.5107C35.4547 90.886 36.1707 91.114 36.6587 91.57C37.1547 92.026 37.4027 92.614 37.4027 93.334ZM34.5107 94.858C35.1187 94.858 35.5667 94.726 35.8547 94.462C36.1427 94.198 36.2867 93.822 36.2867 93.334C36.2867 92.302 35.6947 91.786 34.5107 91.786H32.9027V94.858H34.5107ZM41.6279 99.358C41.0119 99.358 40.4519 99.218 39.9479 98.938C39.4519 98.658 39.0599 98.262 38.7719 97.75C38.4919 97.23 38.3519 96.63 38.3519 95.95C38.3519 95.278 38.4959 94.686 38.7839 94.174C39.0799 93.654 39.4799 93.258 39.9839 92.986C40.4879 92.706 41.0519 92.566 41.6759 92.566C42.2999 92.566 42.8639 92.706 43.3679 92.986C43.8719 93.258 44.2679 93.65 44.5559 94.162C44.8519 94.674 44.9999 95.27 44.9999 95.95C44.9999 96.63 44.8479 97.23 44.5439 97.75C44.2479 98.262 43.8439 98.658 43.3319 98.938C42.8199 99.218 42.2519 99.358 41.6279 99.358ZM41.6279 98.398C42.0199 98.398 42.3879 98.306 42.7319 98.122C43.0759 97.938 43.3519 97.662 43.5599 97.294C43.7759 96.926 43.8839 96.478 43.8839 95.95C43.8839 95.422 43.7799 94.974 43.5719 94.606C43.3639 94.238 43.0919 93.966 42.7559 93.79C42.4199 93.606 42.0559 93.514 41.6639 93.514C41.2639 93.514 40.8959 93.606 40.5599 93.79C40.2319 93.966 39.9679 94.238 39.7679 94.606C39.5679 94.974 39.4679 95.422 39.4679 95.95C39.4679 96.486 39.5639 96.938 39.7559 97.306C39.9559 97.674 40.2199 97.95 40.5479 98.134C40.8759 98.31 41.2359 98.398 41.6279 98.398ZM47.7677 93.574V97.45C47.7677 97.77 47.8357 97.998 47.9717 98.134C48.1077 98.262 48.3437 98.326 48.6797 98.326H49.4837V99.25H48.4997C47.8917 99.25 47.4357 99.11 47.1317 98.83C46.8277 98.55 46.6757 98.09 46.6757 97.45V93.574H45.8237V92.674H46.6757V91.018H47.7677V92.674H49.4837V93.574H47.7677ZM50.3988 95.938C50.3988 95.266 50.5348 94.678 50.8068 94.174C51.0788 93.662 51.4508 93.266 51.9228 92.986C52.4028 92.706 52.9348 92.566 53.5188 92.566C54.0948 92.566 54.5948 92.69 55.0188 92.938C55.4428 93.186 55.7588 93.498 55.9668 93.874V92.674H57.0708V99.25H55.9668V98.026C55.7508 98.41 55.4268 98.73 54.9948 98.986C54.5708 99.234 54.0748 99.358 53.5068 99.358C52.9228 99.358 52.3948 99.214 51.9228 98.926C51.4508 98.638 51.0788 98.234 50.8068 97.714C50.5348 97.194 50.3988 96.602 50.3988 95.938ZM55.9668 95.95C55.9668 95.454 55.8668 95.022 55.6668 94.654C55.4668 94.286 55.1948 94.006 54.8508 93.814C54.5148 93.614 54.1428 93.514 53.7348 93.514C53.3268 93.514 52.9548 93.61 52.6188 93.802C52.2828 93.994 52.0148 94.274 51.8148 94.642C51.6148 95.01 51.5148 95.442 51.5148 95.938C51.5148 96.442 51.6148 96.882 51.8148 97.258C52.0148 97.626 52.2828 97.91 52.6188 98.11C52.9548 98.302 53.3268 98.398 53.7348 98.398C54.1428 98.398 54.5148 98.302 54.8508 98.11C55.1948 97.91 55.4668 97.626 55.6668 97.258C55.8668 96.882 55.9668 96.446 55.9668 95.95ZM60.2482 93.574V97.45C60.2482 97.77 60.3162 97.998 60.4522 98.134C60.5882 98.262 60.8242 98.326 61.1602 98.326H61.9642V99.25H60.9802C60.3722 99.25 59.9162 99.11 59.6122 98.83C59.3082 98.55 59.1562 98.09 59.1562 97.45V93.574H58.3042V92.674H59.1562V91.018H60.2482V92.674H61.9642V93.574H60.2482ZM66.1553 99.358C65.5393 99.358 64.9793 99.218 64.4753 98.938C63.9793 98.658 63.5873 98.262 63.2993 97.75C63.0193 97.23 62.8793 96.63 62.8793 95.95C62.8793 95.278 63.0233 94.686 63.3113 94.174C63.6073 93.654 64.0073 93.258 64.5113 92.986C65.0153 92.706 65.5793 92.566 66.2033 92.566C66.8273 92.566 67.3913 92.706 67.8953 92.986C68.3993 93.258 68.7953 93.65 69.0833 94.162C69.3793 94.674 69.5273 95.27 69.5273 95.95C69.5273 96.63 69.3753 97.23 69.0713 97.75C68.7753 98.262 68.3713 98.658 67.8593 98.938C67.3473 99.218 66.7793 99.358 66.1553 99.358ZM66.1553 98.398C66.5473 98.398 66.9153 98.306 67.2593 98.122C67.6033 97.938 67.8793 97.662 68.0873 97.294C68.3033 96.926 68.4113 96.478 68.4113 95.95C68.4113 95.422 68.3073 94.974 68.0993 94.606C67.8913 94.238 67.6193 93.966 67.2833 93.79C66.9473 93.606 66.5833 93.514 66.1913 93.514C65.7913 93.514 65.4233 93.606 65.0873 93.79C64.7593 93.966 64.4953 94.238 64.2953 94.606C64.0953 94.974 63.9953 95.422 63.9953 95.95C63.9953 96.486 64.0913 96.938 64.2833 97.306C64.4833 97.674 64.7473 97.95 65.0753 98.134C65.4033 98.31 65.7633 98.398 66.1553 98.398ZM76.9631 95.71C76.9631 95.918 76.9511 96.138 76.9271 96.37H71.6711C71.7111 97.018 71.9311 97.526 72.3311 97.894C72.7391 98.254 73.2311 98.434 73.8071 98.434C74.2791 98.434 74.6711 98.326 74.9831 98.11C75.3031 97.886 75.5271 97.59 75.6551 97.222H76.8311C76.6551 97.854 76.3031 98.37 75.7751 98.77C75.2471 99.162 74.5911 99.358 73.8071 99.358C73.1831 99.358 72.6231 99.218 72.1271 98.938C71.6391 98.658 71.2551 98.262 70.9751 97.75C70.6951 97.23 70.5551 96.63 70.5551 95.95C70.5551 95.27 70.6911 94.674 70.9631 94.162C71.2351 93.65 71.6151 93.258 72.1031 92.986C72.5991 92.706 73.1671 92.566 73.8071 92.566C74.4311 92.566 74.9831 92.702 75.4631 92.974C75.9431 93.246 76.3111 93.622 76.5671 94.102C76.8311 94.574 76.9631 95.11 76.9631 95.71ZM75.8351 95.482C75.8351 95.066 75.7431 94.71 75.5591 94.414C75.3751 94.11 75.1231 93.882 74.8031 93.73C74.4911 93.57 74.1431 93.49 73.7591 93.49C73.2071 93.49 72.7351 93.666 72.3431 94.018C71.9591 94.37 71.7391 94.858 71.6831 95.482H75.8351ZM80.7325 99.358C80.2285 99.358 79.7765 99.274 79.3765 99.106C78.9765 98.93 78.6605 98.69 78.4285 98.386C78.1965 98.074 78.0685 97.718 78.0445 97.318H79.1725C79.2045 97.646 79.3565 97.914 79.6285 98.122C79.9085 98.33 80.2725 98.434 80.7205 98.434C81.1365 98.434 81.4645 98.342 81.7045 98.158C81.9445 97.974 82.0645 97.742 82.0645 97.462C82.0645 97.174 81.9365 96.962 81.6805 96.826C81.4245 96.682 81.0285 96.542 80.4925 96.406C80.0045 96.278 79.6045 96.15 79.2925 96.022C78.9885 95.886 78.7245 95.69 78.5005 95.434C78.2845 95.17 78.1765 94.826 78.1765 94.402C78.1765 94.066 78.2765 93.758 78.4765 93.478C78.6765 93.198 78.9605 92.978 79.3285 92.818C79.6965 92.65 80.1165 92.566 80.5885 92.566C81.3165 92.566 81.9045 92.75 82.3525 93.118C82.8005 93.486 83.0405 93.99 83.0725 94.63H81.9805C81.9565 94.286 81.8165 94.01 81.5605 93.802C81.3125 93.594 80.9765 93.49 80.5525 93.49C80.1605 93.49 79.8485 93.574 79.6165 93.742C79.3845 93.91 79.2685 94.13 79.2685 94.402C79.2685 94.618 79.3365 94.798 79.4725 94.942C79.6165 95.078 79.7925 95.19 80.0005 95.278C80.2165 95.358 80.5125 95.45 80.8885 95.554C81.3605 95.682 81.7445 95.81 82.0405 95.938C82.3365 96.058 82.5885 96.242 82.7965 96.49C83.0125 96.738 83.1245 97.062 83.1325 97.462C83.1325 97.822 83.0325 98.146 82.8325 98.434C82.6325 98.722 82.3485 98.95 81.9805 99.118C81.6205 99.278 81.2045 99.358 80.7325 99.358Z" fill="#2367FF" fill-opacity="0.09"/>
<path d="M303.266 155.862H306.194V156.75H302.174V148.386H303.266V155.862ZM310.222 156.858C309.606 156.858 309.046 156.718 308.542 156.438C308.046 156.158 307.654 155.762 307.366 155.25C307.086 154.73 306.946 154.13 306.946 153.45C306.946 152.778 307.09 152.186 307.378 151.674C307.674 151.154 308.074 150.758 308.578 150.486C309.082 150.206 309.646 150.066 310.27 150.066C310.894 150.066 311.458 150.206 311.962 150.486C312.466 150.758 312.862 151.15 313.15 151.662C313.446 152.174 313.594 152.77 313.594 153.45C313.594 154.13 313.442 154.73 313.138 155.25C312.842 155.762 312.438 156.158 311.926 156.438C311.414 156.718 310.846 156.858 310.222 156.858ZM310.222 155.898C310.614 155.898 310.982 155.806 311.326 155.622C311.67 155.438 311.946 155.162 312.154 154.794C312.37 154.426 312.478 153.978 312.478 153.45C312.478 152.922 312.374 152.474 312.166 152.106C311.958 151.738 311.686 151.466 311.35 151.29C311.014 151.106 310.65 151.014 310.258 151.014C309.858 151.014 309.49 151.106 309.154 151.29C308.826 151.466 308.562 151.738 308.362 152.106C308.162 152.474 308.062 152.922 308.062 153.45C308.062 153.986 308.158 154.438 308.35 154.806C308.55 155.174 308.814 155.45 309.142 155.634C309.47 155.81 309.83 155.898 310.222 155.898ZM320.861 150.174V156.75H319.769V155.778C319.561 156.114 319.269 156.378 318.893 156.57C318.525 156.754 318.117 156.846 317.669 156.846C317.157 156.846 316.697 156.742 316.289 156.534C315.881 156.318 315.557 155.998 315.317 155.574C315.085 155.15 314.969 154.634 314.969 154.026V150.174H316.049V153.882C316.049 154.53 316.213 155.03 316.541 155.382C316.869 155.726 317.317 155.898 317.885 155.898C318.469 155.898 318.929 155.718 319.265 155.358C319.601 154.998 319.769 154.474 319.769 153.786V150.174H320.861ZM323.797 151.398C324.021 151.006 324.349 150.686 324.781 150.438C325.213 150.19 325.705 150.066 326.257 150.066C326.849 150.066 327.381 150.206 327.853 150.486C328.325 150.766 328.697 151.162 328.969 151.674C329.241 152.178 329.377 152.766 329.377 153.438C329.377 154.102 329.241 154.694 328.969 155.214C328.697 155.734 328.321 156.138 327.841 156.426C327.369 156.714 326.841 156.858 326.257 156.858C325.689 156.858 325.189 156.734 324.757 156.486C324.333 156.238 324.013 155.922 323.797 155.538V156.75H322.705V147.87H323.797V151.398ZM328.261 153.438C328.261 152.942 328.161 152.51 327.961 152.142C327.761 151.774 327.489 151.494 327.145 151.302C326.809 151.11 326.437 151.014 326.029 151.014C325.629 151.014 325.257 151.114 324.913 151.314C324.577 151.506 324.305 151.79 324.097 152.166C323.897 152.534 323.797 152.962 323.797 153.45C323.797 153.946 323.897 154.382 324.097 154.758C324.305 155.126 324.577 155.41 324.913 155.61C325.257 155.802 325.629 155.898 326.029 155.898C326.437 155.898 326.809 155.802 327.145 155.61C327.489 155.41 327.761 155.126 327.961 154.758C328.161 154.382 328.261 153.942 328.261 153.438ZM331.379 149.106C331.171 149.106 330.995 149.034 330.851 148.89C330.707 148.746 330.635 148.57 330.635 148.362C330.635 148.154 330.707 147.978 330.851 147.834C330.995 147.69 331.171 147.618 331.379 147.618C331.579 147.618 331.747 147.69 331.883 147.834C332.027 147.978 332.099 148.154 332.099 148.362C332.099 148.57 332.027 148.746 331.883 148.89C331.747 149.034 331.579 149.106 331.379 149.106ZM331.907 150.174V156.75H330.815V150.174H331.907ZM333.36 153.438C333.36 152.766 333.496 152.178 333.768 151.674C334.04 151.162 334.412 150.766 334.884 150.486C335.364 150.206 335.896 150.066 336.48 150.066C337.056 150.066 337.556 150.19 337.98 150.438C338.404 150.686 338.72 150.998 338.928 151.374V150.174H340.032V156.75H338.928V155.526C338.712 155.91 338.388 156.23 337.956 156.486C337.532 156.734 337.036 156.858 336.468 156.858C335.884 156.858 335.356 156.714 334.884 156.426C334.412 156.138 334.04 155.734 333.768 155.214C333.496 154.694 333.36 154.102 333.36 153.438ZM338.928 153.45C338.928 152.954 338.828 152.522 338.628 152.154C338.428 151.786 338.156 151.506 337.812 151.314C337.476 151.114 337.104 151.014 336.696 151.014C336.288 151.014 335.916 151.11 335.58 151.302C335.244 151.494 334.976 151.774 334.776 152.142C334.576 152.51 334.476 152.942 334.476 153.438C334.476 153.942 334.576 154.382 334.776 154.758C334.976 155.126 335.244 155.41 335.58 155.61C335.916 155.802 336.288 155.898 336.696 155.898C337.104 155.898 337.476 155.802 337.812 155.61C338.156 155.41 338.428 155.126 338.628 154.758C338.828 154.382 338.928 153.946 338.928 153.45Z" fill="#262626"/>
<path d="M303.266 155.862H306.194V156.75H302.174V148.386H303.266V155.862ZM310.222 156.858C309.606 156.858 309.046 156.718 308.542 156.438C308.046 156.158 307.654 155.762 307.366 155.25C307.086 154.73 306.946 154.13 306.946 153.45C306.946 152.778 307.09 152.186 307.378 151.674C307.674 151.154 308.074 150.758 308.578 150.486C309.082 150.206 309.646 150.066 310.27 150.066C310.894 150.066 311.458 150.206 311.962 150.486C312.466 150.758 312.862 151.15 313.15 151.662C313.446 152.174 313.594 152.77 313.594 153.45C313.594 154.13 313.442 154.73 313.138 155.25C312.842 155.762 312.438 156.158 311.926 156.438C311.414 156.718 310.846 156.858 310.222 156.858ZM310.222 155.898C310.614 155.898 310.982 155.806 311.326 155.622C311.67 155.438 311.946 155.162 312.154 154.794C312.37 154.426 312.478 153.978 312.478 153.45C312.478 152.922 312.374 152.474 312.166 152.106C311.958 151.738 311.686 151.466 311.35 151.29C311.014 151.106 310.65 151.014 310.258 151.014C309.858 151.014 309.49 151.106 309.154 151.29C308.826 151.466 308.562 151.738 308.362 152.106C308.162 152.474 308.062 152.922 308.062 153.45C308.062 153.986 308.158 154.438 308.35 154.806C308.55 155.174 308.814 155.45 309.142 155.634C309.47 155.81 309.83 155.898 310.222 155.898ZM320.861 150.174V156.75H319.769V155.778C319.561 156.114 319.269 156.378 318.893 156.57C318.525 156.754 318.117 156.846 317.669 156.846C317.157 156.846 316.697 156.742 316.289 156.534C315.881 156.318 315.557 155.998 315.317 155.574C315.085 155.15 314.969 154.634 314.969 154.026V150.174H316.049V153.882C316.049 154.53 316.213 155.03 316.541 155.382C316.869 155.726 317.317 155.898 317.885 155.898C318.469 155.898 318.929 155.718 319.265 155.358C319.601 154.998 319.769 154.474 319.769 153.786V150.174H320.861ZM323.797 151.398C324.021 151.006 324.349 150.686 324.781 150.438C325.213 150.19 325.705 150.066 326.257 150.066C326.849 150.066 327.381 150.206 327.853 150.486C328.325 150.766 328.697 151.162 328.969 151.674C329.241 152.178 329.377 152.766 329.377 153.438C329.377 154.102 329.241 154.694 328.969 155.214C328.697 155.734 328.321 156.138 327.841 156.426C327.369 156.714 326.841 156.858 326.257 156.858C325.689 156.858 325.189 156.734 324.757 156.486C324.333 156.238 324.013 155.922 323.797 155.538V156.75H322.705V147.87H323.797V151.398ZM328.261 153.438C328.261 152.942 328.161 152.51 327.961 152.142C327.761 151.774 327.489 151.494 327.145 151.302C326.809 151.11 326.437 151.014 326.029 151.014C325.629 151.014 325.257 151.114 324.913 151.314C324.577 151.506 324.305 151.79 324.097 152.166C323.897 152.534 323.797 152.962 323.797 153.45C323.797 153.946 323.897 154.382 324.097 154.758C324.305 155.126 324.577 155.41 324.913 155.61C325.257 155.802 325.629 155.898 326.029 155.898C326.437 155.898 326.809 155.802 327.145 155.61C327.489 155.41 327.761 155.126 327.961 154.758C328.161 154.382 328.261 153.942 328.261 153.438ZM331.379 149.106C331.171 149.106 330.995 149.034 330.851 148.89C330.707 148.746 330.635 148.57 330.635 148.362C330.635 148.154 330.707 147.978 330.851 147.834C330.995 147.69 331.171 147.618 331.379 147.618C331.579 147.618 331.747 147.69 331.883 147.834C332.027 147.978 332.099 148.154 332.099 148.362C332.099 148.57 332.027 148.746 331.883 148.89C331.747 149.034 331.579 149.106 331.379 149.106ZM331.907 150.174V156.75H330.815V150.174H331.907ZM333.36 153.438C333.36 152.766 333.496 152.178 333.768 151.674C334.04 151.162 334.412 150.766 334.884 150.486C335.364 150.206 335.896 150.066 336.48 150.066C337.056 150.066 337.556 150.19 337.98 150.438C338.404 150.686 338.72 150.998 338.928 151.374V150.174H340.032V156.75H338.928V155.526C338.712 155.91 338.388 156.23 337.956 156.486C337.532 156.734 337.036 156.858 336.468 156.858C335.884 156.858 335.356 156.714 334.884 156.426C334.412 156.138 334.04 155.734 333.768 155.214C333.496 154.694 333.36 154.102 333.36 153.438ZM338.928 153.45C338.928 152.954 338.828 152.522 338.628 152.154C338.428 151.786 338.156 151.506 337.812 151.314C337.476 151.114 337.104 151.014 336.696 151.014C336.288 151.014 335.916 151.11 335.58 151.302C335.244 151.494 334.976 151.774 334.776 152.142C334.576 152.51 334.476 152.942 334.476 153.438C334.476 153.942 334.576 154.382 334.776 154.758C334.976 155.126 335.244 155.41 335.58 155.61C335.916 155.802 336.288 155.898 336.696 155.898C337.104 155.898 337.476 155.802 337.812 155.61C338.156 155.41 338.428 155.126 338.628 154.758C338.828 154.382 338.928 153.946 338.928 153.45Z" fill="#2367FF" fill-opacity="0.09"/>
<path d="M259.822 254.636V255.524H257.542V263H256.45V255.524H254.158V254.636H259.822ZM264.034 263.108C263.418 263.108 262.858 262.968 262.354 262.688C261.858 262.408 261.466 262.012 261.178 261.5C260.898 260.98 260.758 260.38 260.758 259.7C260.758 259.028 260.902 258.436 261.19 257.924C261.486 257.404 261.886 257.008 262.39 256.736C262.894 256.456 263.458 256.316 264.082 256.316C264.706 256.316 265.27 256.456 265.774 256.736C266.278 257.008 266.674 257.4 266.962 257.912C267.258 258.424 267.406 259.02 267.406 259.7C267.406 260.38 267.254 260.98 266.95 261.5C266.654 262.012 266.25 262.408 265.738 262.688C265.226 262.968 264.658 263.108 264.034 263.108ZM264.034 262.148C264.426 262.148 264.794 262.056 265.138 261.872C265.482 261.688 265.758 261.412 265.966 261.044C266.182 260.676 266.29 260.228 266.29 259.7C266.29 259.172 266.186 258.724 265.978 258.356C265.77 257.988 265.498 257.716 265.162 257.54C264.826 257.356 264.462 257.264 264.07 257.264C263.67 257.264 263.302 257.356 262.966 257.54C262.638 257.716 262.374 257.988 262.174 258.356C261.974 258.724 261.874 259.172 261.874 259.7C261.874 260.236 261.97 260.688 262.162 261.056C262.362 261.424 262.626 261.7 262.954 261.884C263.282 262.06 263.642 262.148 264.034 262.148ZM276.75 256.304C277.262 256.304 277.718 256.412 278.118 256.628C278.518 256.836 278.834 257.152 279.066 257.576C279.298 258 279.414 258.516 279.414 259.124V263H278.334V259.28C278.334 258.624 278.17 258.124 277.842 257.78C277.522 257.428 277.086 257.252 276.534 257.252C275.966 257.252 275.514 257.436 275.178 257.804C274.842 258.164 274.674 258.688 274.674 259.376V263H273.594V259.28C273.594 258.624 273.43 258.124 273.102 257.78C272.782 257.428 272.346 257.252 271.794 257.252C271.226 257.252 270.774 257.436 270.438 257.804C270.102 258.164 269.934 258.688 269.934 259.376V263H268.842V256.424H269.934V257.372C270.15 257.028 270.438 256.764 270.798 256.58C271.166 256.396 271.57 256.304 272.01 256.304C272.562 256.304 273.05 256.428 273.474 256.676C273.898 256.924 274.214 257.288 274.422 257.768C274.606 257.304 274.91 256.944 275.334 256.688C275.758 256.432 276.23 256.304 276.75 256.304ZM280.797 259.688C280.797 259.016 280.933 258.428 281.205 257.924C281.477 257.412 281.849 257.016 282.321 256.736C282.801 256.456 283.333 256.316 283.917 256.316C284.493 256.316 284.993 256.44 285.417 256.688C285.841 256.936 286.157 257.248 286.365 257.624V256.424H287.469V263H286.365V261.776C286.149 262.16 285.825 262.48 285.393 262.736C284.969 262.984 284.473 263.108 283.905 263.108C283.321 263.108 282.793 262.964 282.321 262.676C281.849 262.388 281.477 261.984 281.205 261.464C280.933 260.944 280.797 260.352 280.797 259.688ZM286.365 259.7C286.365 259.204 286.265 258.772 286.065 258.404C285.865 258.036 285.593 257.756 285.249 257.564C284.913 257.364 284.541 257.264 284.133 257.264C283.725 257.264 283.353 257.36 283.017 257.552C282.681 257.744 282.413 258.024 282.213 258.392C282.013 258.76 281.913 259.192 281.913 259.688C281.913 260.192 282.013 260.632 282.213 261.008C282.413 261.376 282.681 261.66 283.017 261.86C283.353 262.052 283.725 262.148 284.133 262.148C284.541 262.148 284.913 262.052 285.249 261.86C285.593 261.66 285.865 261.376 286.065 261.008C286.265 260.632 286.365 260.196 286.365 259.7ZM290.647 257.324V261.2C290.647 261.52 290.715 261.748 290.851 261.884C290.987 262.012 291.223 262.076 291.559 262.076H292.363V263H291.379C290.771 263 290.315 262.86 290.011 262.58C289.707 262.3 289.555 261.84 289.555 261.2V257.324H288.703V256.424H289.555V254.768H290.647V256.424H292.363V257.324H290.647ZM296.554 263.108C295.938 263.108 295.378 262.968 294.874 262.688C294.378 262.408 293.986 262.012 293.698 261.5C293.418 260.98 293.278 260.38 293.278 259.7C293.278 259.028 293.422 258.436 293.71 257.924C294.006 257.404 294.406 257.008 294.91 256.736C295.414 256.456 295.978 256.316 296.602 256.316C297.226 256.316 297.79 256.456 298.294 256.736C298.798 257.008 299.194 257.4 299.482 257.912C299.778 258.424 299.926 259.02 299.926 259.7C299.926 260.38 299.774 260.98 299.47 261.5C299.174 262.012 298.77 262.408 298.258 262.688C297.746 262.968 297.178 263.108 296.554 263.108ZM296.554 262.148C296.946 262.148 297.314 262.056 297.658 261.872C298.002 261.688 298.278 261.412 298.486 261.044C298.702 260.676 298.81 260.228 298.81 259.7C298.81 259.172 298.706 258.724 298.498 258.356C298.29 257.988 298.018 257.716 297.682 257.54C297.346 257.356 296.982 257.264 296.59 257.264C296.19 257.264 295.822 257.356 295.486 257.54C295.158 257.716 294.894 257.988 294.694 258.356C294.494 258.724 294.394 259.172 294.394 259.7C294.394 260.236 294.49 260.688 294.682 261.056C294.882 261.424 295.146 261.7 295.474 261.884C295.802 262.06 296.162 262.148 296.554 262.148ZM307.362 259.46C307.362 259.668 307.35 259.888 307.326 260.12H302.07C302.11 260.768 302.33 261.276 302.73 261.644C303.138 262.004 303.63 262.184 304.206 262.184C304.678 262.184 305.07 262.076 305.382 261.86C305.702 261.636 305.926 261.34 306.054 260.972H307.23C307.054 261.604 306.702 262.12 306.174 262.52C305.646 262.912 304.99 263.108 304.206 263.108C303.582 263.108 303.022 262.968 302.526 262.688C302.038 262.408 301.654 262.012 301.374 261.5C301.094 260.98 300.954 260.38 300.954 259.7C300.954 259.02 301.09 258.424 301.362 257.912C301.634 257.4 302.014 257.008 302.502 256.736C302.998 256.456 303.566 256.316 304.206 256.316C304.83 256.316 305.382 256.452 305.862 256.724C306.342 256.996 306.71 257.372 306.966 257.852C307.23 258.324 307.362 258.86 307.362 259.46ZM306.234 259.232C306.234 258.816 306.142 258.46 305.958 258.164C305.774 257.86 305.522 257.632 305.202 257.48C304.89 257.32 304.542 257.24 304.158 257.24C303.606 257.24 303.134 257.416 302.742 257.768C302.358 258.12 302.138 258.608 302.082 259.232H306.234ZM311.131 263.108C310.627 263.108 310.175 263.024 309.775 262.856C309.375 262.68 309.059 262.44 308.827 262.136C308.595 261.824 308.467 261.468 308.443 261.068H309.571C309.603 261.396 309.755 261.664 310.027 261.872C310.307 262.08 310.671 262.184 311.119 262.184C311.535 262.184 311.863 262.092 312.103 261.908C312.343 261.724 312.463 261.492 312.463 261.212C312.463 260.924 312.335 260.712 312.079 260.576C311.823 260.432 311.427 260.292 310.891 260.156C310.403 260.028 310.003 259.9 309.691 259.772C309.387 259.636 309.123 259.44 308.899 259.184C308.683 258.92 308.575 258.576 308.575 258.152C308.575 257.816 308.675 257.508 308.875 257.228C309.075 256.948 309.359 256.728 309.727 256.568C310.095 256.4 310.515 256.316 310.987 256.316C311.715 256.316 312.303 256.5 312.751 256.868C313.199 257.236 313.439 257.74 313.471 258.38H312.379C312.355 258.036 312.215 257.76 311.959 257.552C311.711 257.344 311.375 257.24 310.951 257.24C310.559 257.24 310.247 257.324 310.015 257.492C309.783 257.66 309.667 257.88 309.667 258.152C309.667 258.368 309.735 258.548 309.871 258.692C310.015 258.828 310.191 258.94 310.399 259.028C310.615 259.108 310.911 259.2 311.287 259.304C311.759 259.432 312.143 259.56 312.439 259.688C312.735 259.808 312.987 259.992 313.195 260.24C313.411 260.488 313.523 260.812 313.531 261.212C313.531 261.572 313.431 261.896 313.231 262.184C313.031 262.472 312.747 262.7 312.379 262.868C312.019 263.028 311.603 263.108 311.131 263.108Z" fill="#262626"/>
<path d="M259.822 254.636V255.524H257.542V263H256.45V255.524H254.158V254.636H259.822ZM264.034 263.108C263.418 263.108 262.858 262.968 262.354 262.688C261.858 262.408 261.466 262.012 261.178 261.5C260.898 260.98 260.758 260.38 260.758 259.7C260.758 259.028 260.902 258.436 261.19 257.924C261.486 257.404 261.886 257.008 262.39 256.736C262.894 256.456 263.458 256.316 264.082 256.316C264.706 256.316 265.27 256.456 265.774 256.736C266.278 257.008 266.674 257.4 266.962 257.912C267.258 258.424 267.406 259.02 267.406 259.7C267.406 260.38 267.254 260.98 266.95 261.5C266.654 262.012 266.25 262.408 265.738 262.688C265.226 262.968 264.658 263.108 264.034 263.108ZM264.034 262.148C264.426 262.148 264.794 262.056 265.138 261.872C265.482 261.688 265.758 261.412 265.966 261.044C266.182 260.676 266.29 260.228 266.29 259.7C266.29 259.172 266.186 258.724 265.978 258.356C265.77 257.988 265.498 257.716 265.162 257.54C264.826 257.356 264.462 257.264 264.07 257.264C263.67 257.264 263.302 257.356 262.966 257.54C262.638 257.716 262.374 257.988 262.174 258.356C261.974 258.724 261.874 259.172 261.874 259.7C261.874 260.236 261.97 260.688 262.162 261.056C262.362 261.424 262.626 261.7 262.954 261.884C263.282 262.06 263.642 262.148 264.034 262.148ZM276.75 256.304C277.262 256.304 277.718 256.412 278.118 256.628C278.518 256.836 278.834 257.152 279.066 257.576C279.298 258 279.414 258.516 279.414 259.124V263H278.334V259.28C278.334 258.624 278.17 258.124 277.842 257.78C277.522 257.428 277.086 257.252 276.534 257.252C275.966 257.252 275.514 257.436 275.178 257.804C274.842 258.164 274.674 258.688 274.674 259.376V263H273.594V259.28C273.594 258.624 273.43 258.124 273.102 257.78C272.782 257.428 272.346 257.252 271.794 257.252C271.226 257.252 270.774 257.436 270.438 257.804C270.102 258.164 269.934 258.688 269.934 259.376V263H268.842V256.424H269.934V257.372C270.15 257.028 270.438 256.764 270.798 256.58C271.166 256.396 271.57 256.304 272.01 256.304C272.562 256.304 273.05 256.428 273.474 256.676C273.898 256.924 274.214 257.288 274.422 257.768C274.606 257.304 274.91 256.944 275.334 256.688C275.758 256.432 276.23 256.304 276.75 256.304ZM280.797 259.688C280.797 259.016 280.933 258.428 281.205 257.924C281.477 257.412 281.849 257.016 282.321 256.736C282.801 256.456 283.333 256.316 283.917 256.316C284.493 256.316 284.993 256.44 285.417 256.688C285.841 256.936 286.157 257.248 286.365 257.624V256.424H287.469V263H286.365V261.776C286.149 262.16 285.825 262.48 285.393 262.736C284.969 262.984 284.473 263.108 283.905 263.108C283.321 263.108 282.793 262.964 282.321 262.676C281.849 262.388 281.477 261.984 281.205 261.464C280.933 260.944 280.797 260.352 280.797 259.688ZM286.365 259.7C286.365 259.204 286.265 258.772 286.065 258.404C285.865 258.036 285.593 257.756 285.249 257.564C284.913 257.364 284.541 257.264 284.133 257.264C283.725 257.264 283.353 257.36 283.017 257.552C282.681 257.744 282.413 258.024 282.213 258.392C282.013 258.76 281.913 259.192 281.913 259.688C281.913 260.192 282.013 260.632 282.213 261.008C282.413 261.376 282.681 261.66 283.017 261.86C283.353 262.052 283.725 262.148 284.133 262.148C284.541 262.148 284.913 262.052 285.249 261.86C285.593 261.66 285.865 261.376 286.065 261.008C286.265 260.632 286.365 260.196 286.365 259.7ZM290.647 257.324V261.2C290.647 261.52 290.715 261.748 290.851 261.884C290.987 262.012 291.223 262.076 291.559 262.076H292.363V263H291.379C290.771 263 290.315 262.86 290.011 262.58C289.707 262.3 289.555 261.84 289.555 261.2V257.324H288.703V256.424H289.555V254.768H290.647V256.424H292.363V257.324H290.647ZM296.554 263.108C295.938 263.108 295.378 262.968 294.874 262.688C294.378 262.408 293.986 262.012 293.698 261.5C293.418 260.98 293.278 260.38 293.278 259.7C293.278 259.028 293.422 258.436 293.71 257.924C294.006 257.404 294.406 257.008 294.91 256.736C295.414 256.456 295.978 256.316 296.602 256.316C297.226 256.316 297.79 256.456 298.294 256.736C298.798 257.008 299.194 257.4 299.482 257.912C299.778 258.424 299.926 259.02 299.926 259.7C299.926 260.38 299.774 260.98 299.47 261.5C299.174 262.012 298.77 262.408 298.258 262.688C297.746 262.968 297.178 263.108 296.554 263.108ZM296.554 262.148C296.946 262.148 297.314 262.056 297.658 261.872C298.002 261.688 298.278 261.412 298.486 261.044C298.702 260.676 298.81 260.228 298.81 259.7C298.81 259.172 298.706 258.724 298.498 258.356C298.29 257.988 298.018 257.716 297.682 257.54C297.346 257.356 296.982 257.264 296.59 257.264C296.19 257.264 295.822 257.356 295.486 257.54C295.158 257.716 294.894 257.988 294.694 258.356C294.494 258.724 294.394 259.172 294.394 259.7C294.394 260.236 294.49 260.688 294.682 261.056C294.882 261.424 295.146 261.7 295.474 261.884C295.802 262.06 296.162 262.148 296.554 262.148ZM307.362 259.46C307.362 259.668 307.35 259.888 307.326 260.12H302.07C302.11 260.768 302.33 261.276 302.73 261.644C303.138 262.004 303.63 262.184 304.206 262.184C304.678 262.184 305.07 262.076 305.382 261.86C305.702 261.636 305.926 261.34 306.054 260.972H307.23C307.054 261.604 306.702 262.12 306.174 262.52C305.646 262.912 304.99 263.108 304.206 263.108C303.582 263.108 303.022 262.968 302.526 262.688C302.038 262.408 301.654 262.012 301.374 261.5C301.094 260.98 300.954 260.38 300.954 259.7C300.954 259.02 301.09 258.424 301.362 257.912C301.634 257.4 302.014 257.008 302.502 256.736C302.998 256.456 303.566 256.316 304.206 256.316C304.83 256.316 305.382 256.452 305.862 256.724C306.342 256.996 306.71 257.372 306.966 257.852C307.23 258.324 307.362 258.86 307.362 259.46ZM306.234 259.232C306.234 258.816 306.142 258.46 305.958 258.164C305.774 257.86 305.522 257.632 305.202 257.48C304.89 257.32 304.542 257.24 304.158 257.24C303.606 257.24 303.134 257.416 302.742 257.768C302.358 258.12 302.138 258.608 302.082 259.232H306.234ZM311.131 263.108C310.627 263.108 310.175 263.024 309.775 262.856C309.375 262.68 309.059 262.44 308.827 262.136C308.595 261.824 308.467 261.468 308.443 261.068H309.571C309.603 261.396 309.755 261.664 310.027 261.872C310.307 262.08 310.671 262.184 311.119 262.184C311.535 262.184 311.863 262.092 312.103 261.908C312.343 261.724 312.463 261.492 312.463 261.212C312.463 260.924 312.335 260.712 312.079 260.576C311.823 260.432 311.427 260.292 310.891 260.156C310.403 260.028 310.003 259.9 309.691 259.772C309.387 259.636 309.123 259.44 308.899 259.184C308.683 258.92 308.575 258.576 308.575 258.152C308.575 257.816 308.675 257.508 308.875 257.228C309.075 256.948 309.359 256.728 309.727 256.568C310.095 256.4 310.515 256.316 310.987 256.316C311.715 256.316 312.303 256.5 312.751 256.868C313.199 257.236 313.439 257.74 313.471 258.38H312.379C312.355 258.036 312.215 257.76 311.959 257.552C311.711 257.344 311.375 257.24 310.951 257.24C310.559 257.24 310.247 257.324 310.015 257.492C309.783 257.66 309.667 257.88 309.667 258.152C309.667 258.368 309.735 258.548 309.871 258.692C310.015 258.828 310.191 258.94 310.399 259.028C310.615 259.108 310.911 259.2 311.287 259.304C311.759 259.432 312.143 259.56 312.439 259.688C312.735 259.808 312.987 259.992 313.195 260.24C313.411 260.488 313.523 260.812 313.531 261.212C313.531 261.572 313.431 261.896 313.231 262.184C313.031 262.472 312.747 262.7 312.379 262.868C312.019 263.028 311.603 263.108 311.131 263.108Z" fill="#2367FF" fill-opacity="0.09"/>
<path d="M274.716 91.834C273.94 91.834 273.232 91.654 272.592 91.294C271.952 90.926 271.444 90.418 271.068 89.77C270.7 89.114 270.516 88.378 270.516 87.562C270.516 86.746 270.7 86.014 271.068 85.366C271.444 84.71 271.952 84.202 272.592 83.842C273.232 83.474 273.94 83.29 274.716 83.29C275.5 83.29 276.212 83.474 276.852 83.842C277.492 84.202 277.996 84.706 278.364 85.354C278.732 86.002 278.916 86.738 278.916 87.562C278.916 88.386 278.732 89.122 278.364 89.77C277.996 90.418 277.492 90.926 276.852 91.294C276.212 91.654 275.5 91.834 274.716 91.834ZM274.716 90.886C275.3 90.886 275.824 90.75 276.288 90.478C276.76 90.206 277.128 89.818 277.392 89.314C277.664 88.81 277.8 88.226 277.8 87.562C277.8 86.89 277.664 86.306 277.392 85.81C277.128 85.306 276.764 84.918 276.3 84.646C275.836 84.374 275.308 84.238 274.716 84.238C274.124 84.238 273.596 84.374 273.132 84.646C272.668 84.918 272.3 85.306 272.028 85.81C271.764 86.306 271.632 86.89 271.632 87.562C271.632 88.226 271.764 88.81 272.028 89.314C272.3 89.818 272.668 90.206 273.132 90.478C273.604 90.75 274.132 90.886 274.716 90.886ZM283.562 85.054C284.362 85.054 285.01 85.298 285.506 85.786C286.002 86.266 286.25 86.962 286.25 87.874V91.75H285.17V88.03C285.17 87.374 285.006 86.874 284.678 86.53C284.35 86.178 283.902 86.002 283.334 86.002C282.758 86.002 282.298 86.182 281.954 86.542C281.618 86.902 281.45 87.426 281.45 88.114V91.75H280.358V85.174H281.45V86.11C281.666 85.774 281.958 85.514 282.326 85.33C282.702 85.146 283.114 85.054 283.562 85.054ZM288.597 84.106C288.389 84.106 288.213 84.034 288.069 83.89C287.925 83.746 287.853 83.57 287.853 83.362C287.853 83.154 287.925 82.978 288.069 82.834C288.213 82.69 288.389 82.618 288.597 82.618C288.797 82.618 288.965 82.69 289.101 82.834C289.245 82.978 289.317 83.154 289.317 83.362C289.317 83.57 289.245 83.746 289.101 83.89C288.965 84.034 288.797 84.106 288.597 84.106ZM289.125 85.174V91.75H288.033V85.174H289.125ZM293.855 91.858C293.239 91.858 292.679 91.718 292.175 91.438C291.679 91.158 291.287 90.762 290.999 90.25C290.719 89.73 290.579 89.13 290.579 88.45C290.579 87.778 290.723 87.186 291.011 86.674C291.307 86.154 291.707 85.758 292.211 85.486C292.715 85.206 293.279 85.066 293.903 85.066C294.527 85.066 295.091 85.206 295.595 85.486C296.099 85.758 296.495 86.15 296.783 86.662C297.079 87.174 297.227 87.77 297.227 88.45C297.227 89.13 297.075 89.73 296.771 90.25C296.475 90.762 296.071 91.158 295.559 91.438C295.047 91.718 294.479 91.858 293.855 91.858ZM293.855 90.898C294.247 90.898 294.615 90.806 294.959 90.622C295.303 90.438 295.579 90.162 295.787 89.794C296.003 89.426 296.111 88.978 296.111 88.45C296.111 87.922 296.007 87.474 295.799 87.106C295.591 86.738 295.319 86.466 294.983 86.29C294.647 86.106 294.283 86.014 293.891 86.014C293.491 86.014 293.123 86.106 292.787 86.29C292.459 86.466 292.195 86.738 291.995 87.106C291.795 87.474 291.695 87.922 291.695 88.45C291.695 88.986 291.791 89.438 291.983 89.806C292.183 90.174 292.447 90.45 292.775 90.634C293.103 90.81 293.463 90.898 293.855 90.898ZM301.866 85.054C302.666 85.054 303.314 85.298 303.81 85.786C304.306 86.266 304.554 86.962 304.554 87.874V91.75H303.474V88.03C303.474 87.374 303.31 86.874 302.982 86.53C302.654 86.178 302.206 86.002 301.638 86.002C301.062 86.002 300.602 86.182 300.258 86.542C299.922 86.902 299.754 87.426 299.754 88.114V91.75H298.662V85.174H299.754V86.11C299.97 85.774 300.262 85.514 300.63 85.33C301.006 85.146 301.418 85.054 301.866 85.054ZM308.666 91.858C308.162 91.858 307.71 91.774 307.31 91.606C306.91 91.43 306.594 91.19 306.362 90.886C306.13 90.574 306.002 90.218 305.978 89.818H307.106C307.138 90.146 307.29 90.414 307.562 90.622C307.842 90.83 308.206 90.934 308.654 90.934C309.07 90.934 309.398 90.842 309.638 90.658C309.878 90.474 309.998 90.242 309.998 89.962C309.998 89.674 309.87 89.462 309.614 89.326C309.358 89.182 308.962 89.042 308.426 88.906C307.938 88.778 307.538 88.65 307.226 88.522C306.922 88.386 306.658 88.19 306.434 87.934C306.218 87.67 306.11 87.326 306.11 86.902C306.11 86.566 306.21 86.258 306.41 85.978C306.61 85.698 306.894 85.478 307.262 85.318C307.63 85.15 308.05 85.066 308.522 85.066C309.25 85.066 309.838 85.25 310.286 85.618C310.734 85.986 310.974 86.49 311.006 87.13H309.914C309.89 86.786 309.75 86.51 309.494 86.302C309.246 86.094 308.91 85.99 308.486 85.99C308.094 85.99 307.782 86.074 307.55 86.242C307.318 86.41 307.202 86.63 307.202 86.902C307.202 87.118 307.27 87.298 307.406 87.442C307.55 87.578 307.726 87.69 307.934 87.778C308.15 87.858 308.446 87.95 308.822 88.054C309.294 88.182 309.678 88.31 309.974 88.438C310.27 88.558 310.522 88.742 310.73 88.99C310.946 89.238 311.058 89.562 311.066 89.962C311.066 90.322 310.966 90.646 310.766 90.934C310.566 91.222 310.282 91.45 309.914 91.618C309.554 91.778 309.138 91.858 308.666 91.858Z" fill="#262626"/>
<path d="M274.716 91.834C273.94 91.834 273.232 91.654 272.592 91.294C271.952 90.926 271.444 90.418 271.068 89.77C270.7 89.114 270.516 88.378 270.516 87.562C270.516 86.746 270.7 86.014 271.068 85.366C271.444 84.71 271.952 84.202 272.592 83.842C273.232 83.474 273.94 83.29 274.716 83.29C275.5 83.29 276.212 83.474 276.852 83.842C277.492 84.202 277.996 84.706 278.364 85.354C278.732 86.002 278.916 86.738 278.916 87.562C278.916 88.386 278.732 89.122 278.364 89.77C277.996 90.418 277.492 90.926 276.852 91.294C276.212 91.654 275.5 91.834 274.716 91.834ZM274.716 90.886C275.3 90.886 275.824 90.75 276.288 90.478C276.76 90.206 277.128 89.818 277.392 89.314C277.664 88.81 277.8 88.226 277.8 87.562C277.8 86.89 277.664 86.306 277.392 85.81C277.128 85.306 276.764 84.918 276.3 84.646C275.836 84.374 275.308 84.238 274.716 84.238C274.124 84.238 273.596 84.374 273.132 84.646C272.668 84.918 272.3 85.306 272.028 85.81C271.764 86.306 271.632 86.89 271.632 87.562C271.632 88.226 271.764 88.81 272.028 89.314C272.3 89.818 272.668 90.206 273.132 90.478C273.604 90.75 274.132 90.886 274.716 90.886ZM283.562 85.054C284.362 85.054 285.01 85.298 285.506 85.786C286.002 86.266 286.25 86.962 286.25 87.874V91.75H285.17V88.03C285.17 87.374 285.006 86.874 284.678 86.53C284.35 86.178 283.902 86.002 283.334 86.002C282.758 86.002 282.298 86.182 281.954 86.542C281.618 86.902 281.45 87.426 281.45 88.114V91.75H280.358V85.174H281.45V86.11C281.666 85.774 281.958 85.514 282.326 85.33C282.702 85.146 283.114 85.054 283.562 85.054ZM288.597 84.106C288.389 84.106 288.213 84.034 288.069 83.89C287.925 83.746 287.853 83.57 287.853 83.362C287.853 83.154 287.925 82.978 288.069 82.834C288.213 82.69 288.389 82.618 288.597 82.618C288.797 82.618 288.965 82.69 289.101 82.834C289.245 82.978 289.317 83.154 289.317 83.362C289.317 83.57 289.245 83.746 289.101 83.89C288.965 84.034 288.797 84.106 288.597 84.106ZM289.125 85.174V91.75H288.033V85.174H289.125ZM293.855 91.858C293.239 91.858 292.679 91.718 292.175 91.438C291.679 91.158 291.287 90.762 290.999 90.25C290.719 89.73 290.579 89.13 290.579 88.45C290.579 87.778 290.723 87.186 291.011 86.674C291.307 86.154 291.707 85.758 292.211 85.486C292.715 85.206 293.279 85.066 293.903 85.066C294.527 85.066 295.091 85.206 295.595 85.486C296.099 85.758 296.495 86.15 296.783 86.662C297.079 87.174 297.227 87.77 297.227 88.45C297.227 89.13 297.075 89.73 296.771 90.25C296.475 90.762 296.071 91.158 295.559 91.438C295.047 91.718 294.479 91.858 293.855 91.858ZM293.855 90.898C294.247 90.898 294.615 90.806 294.959 90.622C295.303 90.438 295.579 90.162 295.787 89.794C296.003 89.426 296.111 88.978 296.111 88.45C296.111 87.922 296.007 87.474 295.799 87.106C295.591 86.738 295.319 86.466 294.983 86.29C294.647 86.106 294.283 86.014 293.891 86.014C293.491 86.014 293.123 86.106 292.787 86.29C292.459 86.466 292.195 86.738 291.995 87.106C291.795 87.474 291.695 87.922 291.695 88.45C291.695 88.986 291.791 89.438 291.983 89.806C292.183 90.174 292.447 90.45 292.775 90.634C293.103 90.81 293.463 90.898 293.855 90.898ZM301.866 85.054C302.666 85.054 303.314 85.298 303.81 85.786C304.306 86.266 304.554 86.962 304.554 87.874V91.75H303.474V88.03C303.474 87.374 303.31 86.874 302.982 86.53C302.654 86.178 302.206 86.002 301.638 86.002C301.062 86.002 300.602 86.182 300.258 86.542C299.922 86.902 299.754 87.426 299.754 88.114V91.75H298.662V85.174H299.754V86.11C299.97 85.774 300.262 85.514 300.63 85.33C301.006 85.146 301.418 85.054 301.866 85.054ZM308.666 91.858C308.162 91.858 307.71 91.774 307.31 91.606C306.91 91.43 306.594 91.19 306.362 90.886C306.13 90.574 306.002 90.218 305.978 89.818H307.106C307.138 90.146 307.29 90.414 307.562 90.622C307.842 90.83 308.206 90.934 308.654 90.934C309.07 90.934 309.398 90.842 309.638 90.658C309.878 90.474 309.998 90.242 309.998 89.962C309.998 89.674 309.87 89.462 309.614 89.326C309.358 89.182 308.962 89.042 308.426 88.906C307.938 88.778 307.538 88.65 307.226 88.522C306.922 88.386 306.658 88.19 306.434 87.934C306.218 87.67 306.11 87.326 306.11 86.902C306.11 86.566 306.21 86.258 306.41 85.978C306.61 85.698 306.894 85.478 307.262 85.318C307.63 85.15 308.05 85.066 308.522 85.066C309.25 85.066 309.838 85.25 310.286 85.618C310.734 85.986 310.974 86.49 311.006 87.13H309.914C309.89 86.786 309.75 86.51 309.494 86.302C309.246 86.094 308.91 85.99 308.486 85.99C308.094 85.99 307.782 86.074 307.55 86.242C307.318 86.41 307.202 86.63 307.202 86.902C307.202 87.118 307.27 87.298 307.406 87.442C307.55 87.578 307.726 87.69 307.934 87.778C308.15 87.858 308.446 87.95 308.822 88.054C309.294 88.182 309.678 88.31 309.974 88.438C310.27 88.558 310.522 88.742 310.73 88.99C310.946 89.238 311.058 89.562 311.066 89.962C311.066 90.322 310.966 90.646 310.766 90.934C310.566 91.222 310.282 91.45 309.914 91.618C309.554 91.778 309.138 91.858 308.666 91.858Z" fill="#2367FF" fill-opacity="0.09"/>
<mask id="path-9-inside-1_77_3157" fill="white">
<path d="M280 170C280 187.554 275.379 204.798 266.603 220C257.826 235.202 245.202 247.826 230 256.603C214.798 265.379 197.554 270 180 270C162.446 270 145.202 265.379 130 256.603L180 170H280Z"/>
</mask>
<path d="M280 170C280 187.554 275.379 204.798 266.603 220C257.826 235.202 245.202 247.826 230 256.603C214.798 265.379 197.554 270 180 270C162.446 270 145.202 265.379 130 256.603L180 170H280Z" fill="#6C99FF"/>
<path d="M280 170C280 187.554 275.379 204.798 266.603 220C257.826 235.202 245.202 247.826 230 256.603C214.798 265.379 197.554 270 180 270C162.446 270 145.202 265.379 130 256.603L180 170H280Z" stroke="#262626" stroke-width="0.4" mask="url(#path-9-inside-1_77_3157)"/>
<path d="M280 170C280 187.554 275.379 204.798 266.603 220C257.826 235.202 245.202 247.826 230 256.603C214.798 265.379 197.554 270 180 270C162.446 270 145.202 265.379 130 256.603L180 170H280Z" stroke="#2367FF" stroke-opacity="0.09" stroke-width="0.4" mask="url(#path-9-inside-1_77_3157)"/>
<mask id="path-10-inside-2_77_3157" fill="white">
<path d="M130 256.603C114.798 247.826 102.174 235.202 93.3975 220L180 170L130 256.603Z"/>
</mask>
<path d="M130 256.603C114.798 247.826 102.174 235.202 93.3975 220L180 170L130 256.603Z" fill="#BBD0FF"/>
<path d="M130 256.603C114.798 247.826 102.174 235.202 93.3975 220L180 170L130 256.603Z" stroke="#262626" stroke-width="0.4" mask="url(#path-10-inside-2_77_3157)"/>
<path d="M130 256.603C114.798 247.826 102.174 235.202 93.3975 220L180 170L130 256.603Z" stroke="#2367FF" stroke-opacity="0.09" stroke-width="0.4" mask="url(#path-10-inside-2_77_3157)"/>
<mask id="path-11-inside-3_77_3157" fill="white">
<path d="M93.3975 220C83.5084 202.872 78.9206 183.195 80.2141 163.46C81.5077 143.724 88.6245 124.815 100.665 109.124C112.705 93.4328 129.128 81.6645 147.856 75.307C166.585 68.9495 186.778 68.2885 205.882 73.4074L180 170L93.3975 220Z"/>
</mask>
<path d="M93.3975 220C83.5084 202.872 78.9206 183.195 80.2141 163.46C81.5077 143.724 88.6245 124.815 100.665 109.124C112.705 93.4328 129.128 81.6645 147.856 75.307C166.585 68.9495 186.778 68.2885 205.882 73.4074L180 170L93.3975 220Z" fill="#0F2B6B"/>
<path d="M93.3975 220C83.5084 202.872 78.9206 183.195 80.2141 163.46C81.5077 143.724 88.6245 124.815 100.665 109.124C112.705 93.4328 129.128 81.6645 147.856 75.307C166.585 68.9495 186.778 68.2885 205.882 73.4074L180 170L93.3975 220Z" stroke="#262626" stroke-width="0.4" mask="url(#path-11-inside-3_77_3157)"/>
<path d="M93.3975 220C83.5084 202.872 78.9206 183.195 80.2141 163.46C81.5077 143.724 88.6245 124.815 100.665 109.124C112.705 93.4328 129.128 81.6645 147.856 75.307C166.585 68.9495 186.778 68.2885 205.882 73.4074L180 170L93.3975 220Z" stroke="#2367FF" stroke-opacity="0.09" stroke-width="0.4" mask="url(#path-11-inside-3_77_3157)"/>
<mask id="path-12-inside-4_77_3157" fill="white">
<path d="M205.882 73.4074C222.837 77.9506 238.298 86.877 250.711 99.2893C263.123 111.702 272.049 127.163 276.593 144.118L180 170L205.882 73.4074Z"/>
</mask>
<path d="M205.882 73.4074C222.837 77.9506 238.298 86.877 250.711 99.2893C263.123 111.702 272.049 127.163 276.593 144.118L180 170L205.882 73.4074Z" fill="#1949B5"/>
<path d="M205.882 73.4074C222.837 77.9506 238.298 86.877 250.711 99.2893C263.123 111.702 272.049 127.163 276.593 144.118L180 170L205.882 73.4074Z" stroke="#262626" stroke-width="0.4" mask="url(#path-12-inside-4_77_3157)"/>
<path d="M205.882 73.4074C222.837 77.9506 238.298 86.877 250.711 99.2893C263.123 111.702 272.049 127.163 276.593 144.118L180 170L205.882 73.4074Z" stroke="#2367FF" stroke-opacity="0.09" stroke-width="0.4" mask="url(#path-12-inside-4_77_3157)"/>
<mask id="path-13-inside-5_77_3157" fill="white">
<path d="M276.593 144.118C278.854 152.559 280 161.261 280 170L180 170L276.593 144.118Z"/>
</mask>
<path d="M276.593 144.118C278.854 152.559 280 161.261 280 170L180 170L276.593 144.118Z" fill="#2367FF"/>
<path d="M276.593 144.118C278.854 152.559 280 161.261 280 170L180 170L276.593 144.118Z" stroke="#262626" stroke-width="0.4" mask="url(#path-13-inside-5_77_3157)"/>
<path d="M276.593 144.118C278.854 152.559 280 161.261 280 170L180 170L276.593 144.118Z" stroke="#2367FF" stroke-opacity="0.09" stroke-width="0.4" mask="url(#path-13-inside-5_77_3157)"/>
</svg>
