<svg width="256" height="200" viewBox="0 0 256 200" fill="none" xmlns="http://www.w3.org/2000/svg">
<rect width="256" height="200" rx="16" fill="#BBD0FF"/>
<path d="M33.3 51.288C31.9133 51.288 30.6653 51.0427 29.556 50.552C28.468 50.04 27.604 49.3573 26.964 48.504C26.324 47.6293 25.9827 46.6587 25.94 45.592H29.716C29.78 46.3387 30.132 46.968 30.772 47.48C31.4333 47.9707 32.2547 48.216 33.236 48.216C34.26 48.216 35.0493 48.024 35.604 47.64C36.18 47.2347 36.468 46.7227 36.468 46.104C36.468 45.4427 36.148 44.952 35.508 44.632C34.8893 44.312 33.8973 43.96 32.532 43.576C31.2093 43.2133 30.132 42.8613 29.3 42.52C28.468 42.1787 27.7427 41.656 27.124 40.952C26.5267 40.248 26.228 39.32 26.228 38.168C26.228 37.2293 26.5053 36.376 27.06 35.608C27.6147 34.8187 28.404 34.2 29.428 33.752C30.4733 33.304 31.668 33.08 33.012 33.08C35.0173 33.08 36.628 33.592 37.844 34.616C39.0813 35.6187 39.7427 36.9947 39.828 38.744H36.18C36.116 37.9547 35.796 37.3253 35.22 36.856C34.644 36.3867 33.8653 36.152 32.884 36.152C31.924 36.152 31.188 36.3333 30.676 36.696C30.164 37.0587 29.908 37.5387 29.908 38.136C29.908 38.6053 30.0787 39 30.42 39.32C30.7613 39.64 31.1773 39.896 31.668 40.088C32.1587 40.2587 32.884 40.4827 33.844 40.76C35.124 41.1013 36.1693 41.4533 36.98 41.816C37.812 42.1573 38.5267 42.6693 39.124 43.352C39.7213 44.0347 40.0307 44.9413 40.052 46.072C40.052 47.0747 39.7747 47.9707 39.22 48.76C38.6653 49.5493 37.876 50.168 36.852 50.616C35.8493 51.064 34.6653 51.288 33.3 51.288ZM51.6418 51.288C49.9778 51.288 48.4738 50.9147 47.1298 50.168C45.7858 49.4 44.7298 48.3333 43.9618 46.968C43.1938 45.5813 42.8098 43.9813 42.8098 42.168C42.8098 40.376 43.2044 38.7867 43.9938 37.4C44.7831 36.0133 45.8604 34.9467 47.2258 34.2C48.5911 33.4533 50.1164 33.08 51.8018 33.08C53.4871 33.08 55.0124 33.4533 56.3778 34.2C57.7431 34.9467 58.8204 36.0133 59.6098 37.4C60.3991 38.7867 60.7938 40.376 60.7938 42.168C60.7938 43.96 60.3884 45.5493 59.5778 46.936C58.7671 48.3227 57.6578 49.4 56.2498 50.168C54.8631 50.9147 53.3271 51.288 51.6418 51.288ZM51.6418 48.12C52.5804 48.12 53.4551 47.896 54.2658 47.448C55.0978 47 55.7698 46.328 56.2818 45.432C56.7938 44.536 57.0498 43.448 57.0498 42.168C57.0498 40.888 56.8044 39.8107 56.3138 38.936C55.8231 38.04 55.1724 37.368 54.3618 36.92C53.5511 36.472 52.6764 36.248 51.7378 36.248C50.7991 36.248 49.9244 36.472 49.1138 36.92C48.3244 37.368 47.6951 38.04 47.2258 38.936C46.7564 39.8107 46.5218 40.888 46.5218 42.168C46.5218 44.0667 47.0018 45.5387 47.9618 46.584C48.9431 47.608 50.1698 48.12 51.6418 48.12ZM66.256 31.032C65.5947 31.032 65.04 30.808 64.592 30.36C64.144 29.912 63.92 29.3573 63.92 28.696C63.92 28.0347 64.144 27.48 64.592 27.032C65.04 26.584 65.5947 26.36 66.256 26.36C66.896 26.36 67.44 26.584 67.888 27.032C68.336 27.48 68.56 28.0347 68.56 28.696C68.56 29.3573 68.336 29.912 67.888 30.36C67.44 30.808 66.896 31.032 66.256 31.032ZM68.048 33.368V51H64.4V33.368H68.048ZM76.4855 27.32V51H72.8375V27.32H76.4855ZM110.932 33.08C112.318 33.08 113.556 33.368 114.644 33.944C115.753 34.52 116.617 35.3733 117.236 36.504C117.876 37.6347 118.196 39 118.196 40.6V51H114.58V41.144C114.58 39.5653 114.185 38.36 113.396 37.528C112.606 36.6747 111.529 36.248 110.164 36.248C108.798 36.248 107.71 36.6747 106.9 37.528C106.11 38.36 105.716 39.5653 105.716 41.144V51H102.1V41.144C102.1 39.5653 101.705 38.36 100.916 37.528C100.126 36.6747 99.0488 36.248 97.6835 36.248C96.3182 36.248 95.2302 36.6747 94.4195 37.528C93.6302 38.36 93.2355 39.5653 93.2355 41.144V51H89.5875V33.368H93.2355V35.384C93.8328 34.6587 94.5902 34.0933 95.5075 33.688C96.4248 33.2827 97.4062 33.08 98.4515 33.08C99.8595 33.08 101.118 33.3787 102.228 33.976C103.337 34.5733 104.19 35.4373 104.788 36.568C105.321 35.5013 106.153 34.6587 107.284 34.04C108.414 33.4 109.63 33.08 110.932 33.08ZM130.486 51.288C128.822 51.288 127.318 50.9147 125.974 50.168C124.63 49.4 123.574 48.3333 122.806 46.968C122.038 45.5813 121.654 43.9813 121.654 42.168C121.654 40.376 122.048 38.7867 122.838 37.4C123.627 36.0133 124.704 34.9467 126.07 34.2C127.435 33.4533 128.96 33.08 130.646 33.08C132.331 33.08 133.856 33.4533 135.222 34.2C136.587 34.9467 137.664 36.0133 138.454 37.4C139.243 38.7867 139.638 40.376 139.638 42.168C139.638 43.96 139.232 45.5493 138.422 46.936C137.611 48.3227 136.502 49.4 135.094 50.168C133.707 50.9147 132.171 51.288 130.486 51.288ZM130.486 48.12C131.424 48.12 132.299 47.896 133.11 47.448C133.942 47 134.614 46.328 135.126 45.432C135.638 44.536 135.894 43.448 135.894 42.168C135.894 40.888 135.648 39.8107 135.158 38.936C134.667 38.04 134.016 37.368 133.206 36.92C132.395 36.472 131.52 36.248 130.582 36.248C129.643 36.248 128.768 36.472 127.958 36.92C127.168 37.368 126.539 38.04 126.07 38.936C125.6 39.8107 125.366 40.888 125.366 42.168C125.366 44.0667 125.846 45.5387 126.806 46.584C127.787 47.608 129.014 48.12 130.486 48.12ZM145.1 31.032C144.438 31.032 143.884 30.808 143.436 30.36C142.988 29.912 142.764 29.3573 142.764 28.696C142.764 28.0347 142.988 27.48 143.436 27.032C143.884 26.584 144.438 26.36 145.1 26.36C145.74 26.36 146.284 26.584 146.732 27.032C147.18 27.48 147.404 28.0347 147.404 28.696C147.404 29.3573 147.18 29.912 146.732 30.36C146.284 30.808 145.74 31.032 145.1 31.032ZM146.892 33.368V51H143.244V33.368H146.892ZM158.081 51.288C156.695 51.288 155.447 51.0427 154.337 50.552C153.249 50.04 152.385 49.3573 151.745 48.504C151.105 47.6293 150.764 46.6587 150.721 45.592H154.497C154.561 46.3387 154.913 46.968 155.553 47.48C156.215 47.9707 157.036 48.216 158.017 48.216C159.041 48.216 159.831 48.024 160.385 47.64C160.961 47.2347 161.249 46.7227 161.249 46.104C161.249 45.4427 160.929 44.952 160.289 44.632C159.671 44.312 158.679 43.96 157.313 43.576C155.991 43.2133 154.913 42.8613 154.081 42.52C153.249 42.1787 152.524 41.656 151.905 40.952C151.308 40.248 151.009 39.32 151.009 38.168C151.009 37.2293 151.287 36.376 151.841 35.608C152.396 34.8187 153.185 34.2 154.209 33.752C155.255 33.304 156.449 33.08 157.793 33.08C159.799 33.08 161.409 33.592 162.625 34.616C163.863 35.6187 164.524 36.9947 164.609 38.744H160.961C160.897 37.9547 160.577 37.3253 160.001 36.856C159.425 36.3867 158.647 36.152 157.665 36.152C156.705 36.152 155.969 36.3333 155.457 36.696C154.945 37.0587 154.689 37.5387 154.689 38.136C154.689 38.6053 154.86 39 155.201 39.32C155.543 39.64 155.959 39.896 156.449 40.088C156.94 40.2587 157.665 40.4827 158.625 40.76C159.905 41.1013 160.951 41.4533 161.761 41.816C162.593 42.1573 163.308 42.6693 163.905 43.352C164.503 44.0347 164.812 44.9413 164.833 46.072C164.833 47.0747 164.556 47.9707 164.001 48.76C163.447 49.5493 162.657 50.168 161.633 50.616C160.631 51.064 159.447 51.288 158.081 51.288ZM173.031 36.344V46.104C173.031 46.7653 173.18 47.2453 173.479 47.544C173.799 47.8213 174.332 47.96 175.079 47.96H177.319V51H174.439C172.796 51 171.538 50.616 170.663 49.848C169.788 49.08 169.351 47.832 169.351 46.104V36.344H167.271V33.368H169.351V28.984H173.031V33.368H177.319V36.344H173.031ZM196.649 33.368V51H193.001V48.92C192.425 49.6453 191.668 50.2213 190.729 50.648C189.812 51.0533 188.831 51.256 187.785 51.256C186.399 51.256 185.151 50.968 184.041 50.392C182.953 49.816 182.089 48.9627 181.449 47.832C180.831 46.7013 180.521 45.336 180.521 43.736V33.368H184.137V43.192C184.137 44.7707 184.532 45.9867 185.321 46.84C186.111 47.672 187.188 48.088 188.553 48.088C189.919 48.088 190.996 47.672 191.785 46.84C192.596 45.9867 193.001 44.7707 193.001 43.192V33.368H196.649ZM205.111 35.928C205.644 35.032 206.348 34.3387 207.223 33.848C208.119 33.336 209.175 33.08 210.391 33.08V36.856H209.463C208.033 36.856 206.945 37.2187 206.199 37.944C205.473 38.6693 205.111 39.928 205.111 41.72V51H201.463V33.368H205.111V35.928ZM229.904 41.752C229.904 42.4133 229.861 43.0107 229.776 43.544H216.304C216.41 44.952 216.933 46.0827 217.872 46.936C218.81 47.7893 219.962 48.216 221.328 48.216C223.29 48.216 224.677 47.3947 225.488 45.752H229.424C228.89 47.3733 227.92 48.7067 226.512 49.752C225.125 50.776 223.397 51.288 221.328 51.288C219.642 51.288 218.128 50.9147 216.784 50.168C215.461 49.4 214.416 48.3333 213.648 46.968C212.901 45.5813 212.528 43.9813 212.528 42.168C212.528 40.3547 212.89 38.7653 213.616 37.4C214.362 36.0133 215.397 34.9467 216.72 34.2C218.064 33.4533 219.6 33.08 221.328 33.08C222.992 33.08 224.474 33.4427 225.776 34.168C227.077 34.8933 228.09 35.9173 228.816 37.24C229.541 38.5413 229.904 40.0453 229.904 41.752ZM226.096 40.6C226.074 39.256 225.594 38.1787 224.656 37.368C223.717 36.5573 222.554 36.152 221.168 36.152C219.909 36.152 218.832 36.5573 217.936 37.368C217.04 38.1573 216.506 39.2347 216.336 40.6H226.096Z" fill="#262626"/>
<path d="M33.3 51.288C31.9133 51.288 30.6653 51.0427 29.556 50.552C28.468 50.04 27.604 49.3573 26.964 48.504C26.324 47.6293 25.9827 46.6587 25.94 45.592H29.716C29.78 46.3387 30.132 46.968 30.772 47.48C31.4333 47.9707 32.2547 48.216 33.236 48.216C34.26 48.216 35.0493 48.024 35.604 47.64C36.18 47.2347 36.468 46.7227 36.468 46.104C36.468 45.4427 36.148 44.952 35.508 44.632C34.8893 44.312 33.8973 43.96 32.532 43.576C31.2093 43.2133 30.132 42.8613 29.3 42.52C28.468 42.1787 27.7427 41.656 27.124 40.952C26.5267 40.248 26.228 39.32 26.228 38.168C26.228 37.2293 26.5053 36.376 27.06 35.608C27.6147 34.8187 28.404 34.2 29.428 33.752C30.4733 33.304 31.668 33.08 33.012 33.08C35.0173 33.08 36.628 33.592 37.844 34.616C39.0813 35.6187 39.7427 36.9947 39.828 38.744H36.18C36.116 37.9547 35.796 37.3253 35.22 36.856C34.644 36.3867 33.8653 36.152 32.884 36.152C31.924 36.152 31.188 36.3333 30.676 36.696C30.164 37.0587 29.908 37.5387 29.908 38.136C29.908 38.6053 30.0787 39 30.42 39.32C30.7613 39.64 31.1773 39.896 31.668 40.088C32.1587 40.2587 32.884 40.4827 33.844 40.76C35.124 41.1013 36.1693 41.4533 36.98 41.816C37.812 42.1573 38.5267 42.6693 39.124 43.352C39.7213 44.0347 40.0307 44.9413 40.052 46.072C40.052 47.0747 39.7747 47.9707 39.22 48.76C38.6653 49.5493 37.876 50.168 36.852 50.616C35.8493 51.064 34.6653 51.288 33.3 51.288ZM51.6418 51.288C49.9778 51.288 48.4738 50.9147 47.1298 50.168C45.7858 49.4 44.7298 48.3333 43.9618 46.968C43.1938 45.5813 42.8098 43.9813 42.8098 42.168C42.8098 40.376 43.2044 38.7867 43.9938 37.4C44.7831 36.0133 45.8604 34.9467 47.2258 34.2C48.5911 33.4533 50.1164 33.08 51.8018 33.08C53.4871 33.08 55.0124 33.4533 56.3778 34.2C57.7431 34.9467 58.8204 36.0133 59.6098 37.4C60.3991 38.7867 60.7938 40.376 60.7938 42.168C60.7938 43.96 60.3884 45.5493 59.5778 46.936C58.7671 48.3227 57.6578 49.4 56.2498 50.168C54.8631 50.9147 53.3271 51.288 51.6418 51.288ZM51.6418 48.12C52.5804 48.12 53.4551 47.896 54.2658 47.448C55.0978 47 55.7698 46.328 56.2818 45.432C56.7938 44.536 57.0498 43.448 57.0498 42.168C57.0498 40.888 56.8044 39.8107 56.3138 38.936C55.8231 38.04 55.1724 37.368 54.3618 36.92C53.5511 36.472 52.6764 36.248 51.7378 36.248C50.7991 36.248 49.9244 36.472 49.1138 36.92C48.3244 37.368 47.6951 38.04 47.2258 38.936C46.7564 39.8107 46.5218 40.888 46.5218 42.168C46.5218 44.0667 47.0018 45.5387 47.9618 46.584C48.9431 47.608 50.1698 48.12 51.6418 48.12ZM66.256 31.032C65.5947 31.032 65.04 30.808 64.592 30.36C64.144 29.912 63.92 29.3573 63.92 28.696C63.92 28.0347 64.144 27.48 64.592 27.032C65.04 26.584 65.5947 26.36 66.256 26.36C66.896 26.36 67.44 26.584 67.888 27.032C68.336 27.48 68.56 28.0347 68.56 28.696C68.56 29.3573 68.336 29.912 67.888 30.36C67.44 30.808 66.896 31.032 66.256 31.032ZM68.048 33.368V51H64.4V33.368H68.048ZM76.4855 27.32V51H72.8375V27.32H76.4855ZM110.932 33.08C112.318 33.08 113.556 33.368 114.644 33.944C115.753 34.52 116.617 35.3733 117.236 36.504C117.876 37.6347 118.196 39 118.196 40.6V51H114.58V41.144C114.58 39.5653 114.185 38.36 113.396 37.528C112.606 36.6747 111.529 36.248 110.164 36.248C108.798 36.248 107.71 36.6747 106.9 37.528C106.11 38.36 105.716 39.5653 105.716 41.144V51H102.1V41.144C102.1 39.5653 101.705 38.36 100.916 37.528C100.126 36.6747 99.0488 36.248 97.6835 36.248C96.3182 36.248 95.2302 36.6747 94.4195 37.528C93.6302 38.36 93.2355 39.5653 93.2355 41.144V51H89.5875V33.368H93.2355V35.384C93.8328 34.6587 94.5902 34.0933 95.5075 33.688C96.4248 33.2827 97.4062 33.08 98.4515 33.08C99.8595 33.08 101.118 33.3787 102.228 33.976C103.337 34.5733 104.19 35.4373 104.788 36.568C105.321 35.5013 106.153 34.6587 107.284 34.04C108.414 33.4 109.63 33.08 110.932 33.08ZM130.486 51.288C128.822 51.288 127.318 50.9147 125.974 50.168C124.63 49.4 123.574 48.3333 122.806 46.968C122.038 45.5813 121.654 43.9813 121.654 42.168C121.654 40.376 122.048 38.7867 122.838 37.4C123.627 36.0133 124.704 34.9467 126.07 34.2C127.435 33.4533 128.96 33.08 130.646 33.08C132.331 33.08 133.856 33.4533 135.222 34.2C136.587 34.9467 137.664 36.0133 138.454 37.4C139.243 38.7867 139.638 40.376 139.638 42.168C139.638 43.96 139.232 45.5493 138.422 46.936C137.611 48.3227 136.502 49.4 135.094 50.168C133.707 50.9147 132.171 51.288 130.486 51.288ZM130.486 48.12C131.424 48.12 132.299 47.896 133.11 47.448C133.942 47 134.614 46.328 135.126 45.432C135.638 44.536 135.894 43.448 135.894 42.168C135.894 40.888 135.648 39.8107 135.158 38.936C134.667 38.04 134.016 37.368 133.206 36.92C132.395 36.472 131.52 36.248 130.582 36.248C129.643 36.248 128.768 36.472 127.958 36.92C127.168 37.368 126.539 38.04 126.07 38.936C125.6 39.8107 125.366 40.888 125.366 42.168C125.366 44.0667 125.846 45.5387 126.806 46.584C127.787 47.608 129.014 48.12 130.486 48.12ZM145.1 31.032C144.438 31.032 143.884 30.808 143.436 30.36C142.988 29.912 142.764 29.3573 142.764 28.696C142.764 28.0347 142.988 27.48 143.436 27.032C143.884 26.584 144.438 26.36 145.1 26.36C145.74 26.36 146.284 26.584 146.732 27.032C147.18 27.48 147.404 28.0347 147.404 28.696C147.404 29.3573 147.18 29.912 146.732 30.36C146.284 30.808 145.74 31.032 145.1 31.032ZM146.892 33.368V51H143.244V33.368H146.892ZM158.081 51.288C156.695 51.288 155.447 51.0427 154.337 50.552C153.249 50.04 152.385 49.3573 151.745 48.504C151.105 47.6293 150.764 46.6587 150.721 45.592H154.497C154.561 46.3387 154.913 46.968 155.553 47.48C156.215 47.9707 157.036 48.216 158.017 48.216C159.041 48.216 159.831 48.024 160.385 47.64C160.961 47.2347 161.249 46.7227 161.249 46.104C161.249 45.4427 160.929 44.952 160.289 44.632C159.671 44.312 158.679 43.96 157.313 43.576C155.991 43.2133 154.913 42.8613 154.081 42.52C153.249 42.1787 152.524 41.656 151.905 40.952C151.308 40.248 151.009 39.32 151.009 38.168C151.009 37.2293 151.287 36.376 151.841 35.608C152.396 34.8187 153.185 34.2 154.209 33.752C155.255 33.304 156.449 33.08 157.793 33.08C159.799 33.08 161.409 33.592 162.625 34.616C163.863 35.6187 164.524 36.9947 164.609 38.744H160.961C160.897 37.9547 160.577 37.3253 160.001 36.856C159.425 36.3867 158.647 36.152 157.665 36.152C156.705 36.152 155.969 36.3333 155.457 36.696C154.945 37.0587 154.689 37.5387 154.689 38.136C154.689 38.6053 154.86 39 155.201 39.32C155.543 39.64 155.959 39.896 156.449 40.088C156.94 40.2587 157.665 40.4827 158.625 40.76C159.905 41.1013 160.951 41.4533 161.761 41.816C162.593 42.1573 163.308 42.6693 163.905 43.352C164.503 44.0347 164.812 44.9413 164.833 46.072C164.833 47.0747 164.556 47.9707 164.001 48.76C163.447 49.5493 162.657 50.168 161.633 50.616C160.631 51.064 159.447 51.288 158.081 51.288ZM173.031 36.344V46.104C173.031 46.7653 173.18 47.2453 173.479 47.544C173.799 47.8213 174.332 47.96 175.079 47.96H177.319V51H174.439C172.796 51 171.538 50.616 170.663 49.848C169.788 49.08 169.351 47.832 169.351 46.104V36.344H167.271V33.368H169.351V28.984H173.031V33.368H177.319V36.344H173.031ZM196.649 33.368V51H193.001V48.92C192.425 49.6453 191.668 50.2213 190.729 50.648C189.812 51.0533 188.831 51.256 187.785 51.256C186.399 51.256 185.151 50.968 184.041 50.392C182.953 49.816 182.089 48.9627 181.449 47.832C180.831 46.7013 180.521 45.336 180.521 43.736V33.368H184.137V43.192C184.137 44.7707 184.532 45.9867 185.321 46.84C186.111 47.672 187.188 48.088 188.553 48.088C189.919 48.088 190.996 47.672 191.785 46.84C192.596 45.9867 193.001 44.7707 193.001 43.192V33.368H196.649ZM205.111 35.928C205.644 35.032 206.348 34.3387 207.223 33.848C208.119 33.336 209.175 33.08 210.391 33.08V36.856H209.463C208.033 36.856 206.945 37.2187 206.199 37.944C205.473 38.6693 205.111 39.928 205.111 41.72V51H201.463V33.368H205.111V35.928ZM229.904 41.752C229.904 42.4133 229.861 43.0107 229.776 43.544H216.304C216.41 44.952 216.933 46.0827 217.872 46.936C218.81 47.7893 219.962 48.216 221.328 48.216C223.29 48.216 224.677 47.3947 225.488 45.752H229.424C228.89 47.3733 227.92 48.7067 226.512 49.752C225.125 50.776 223.397 51.288 221.328 51.288C219.642 51.288 218.128 50.9147 216.784 50.168C215.461 49.4 214.416 48.3333 213.648 46.968C212.901 45.5813 212.528 43.9813 212.528 42.168C212.528 40.3547 212.89 38.7653 213.616 37.4C214.362 36.0133 215.397 34.9467 216.72 34.2C218.064 33.4533 219.6 33.08 221.328 33.08C222.992 33.08 224.474 33.4427 225.776 34.168C227.077 34.8933 228.09 35.9173 228.816 37.24C229.541 38.5413 229.904 40.0453 229.904 41.752ZM226.096 40.6C226.074 39.256 225.594 38.1787 224.656 37.368C223.717 36.5573 222.554 36.152 221.168 36.152C219.909 36.152 218.832 36.5573 217.936 37.368C217.04 38.1573 216.506 39.2347 216.336 40.6H226.096Z" fill="#2367FF" fill-opacity="0.09"/>
<path d="M87.625 177.5C84.4874 177.68 81.3616 176.982 78.5987 175.485C75.8357 173.987 73.5449 171.749 71.9833 169.021C70.4218 166.294 69.6515 163.185 69.7587 160.044C69.866 156.903 70.8466 153.855 72.5905 151.24L84.3425 133.749C84.7043 133.21 85.193 132.769 85.7654 132.464C86.3378 132.159 86.9764 132 87.625 132C88.2736 132 88.9122 132.159 89.4846 132.464C90.057 132.769 90.5457 133.21 90.9075 133.749L102.445 150.899C104.353 153.723 105.414 157.034 105.5 160.441C105.384 165.071 103.438 169.466 100.087 172.664C96.7367 175.861 92.2554 177.6 87.625 177.5ZM87.625 140.515L78.083 154.708C76.96 156.34 76.3253 158.258 76.2531 160.238C76.181 162.218 76.6744 164.177 77.6757 165.887C78.6769 167.596 80.1445 168.985 81.9065 169.891C83.6686 170.796 85.6522 171.181 87.625 171C90.5318 171.101 93.3603 170.047 95.4919 168.068C97.6236 166.089 98.8849 163.347 99 160.441C98.9247 158.262 98.2129 156.152 96.9525 154.373L87.625 140.515ZM43.75 132V115.75H47C50.4465 115.746 53.7506 114.375 56.1876 111.938C58.6247 109.501 59.9957 106.196 60 102.75V93H50.25C46.9219 93.0055 43.7242 94.2941 41.3223 96.5977C39.6393 93.542 37.1678 90.9934 34.1651 89.2174C31.1625 87.4414 27.7385 86.5031 24.25 86.5H14.5V96.25C14.506 101.42 16.5624 106.376 20.2181 110.032C23.8737 113.688 28.8301 115.744 34 115.75H37.25V132H14.5V138.5H60V132H43.75ZM50.25 99.5H53.5V102.75C53.4983 104.473 52.8129 106.126 51.5943 107.344C50.3757 108.563 48.7234 109.248 47 109.25H43.75V106C43.7517 104.277 44.4371 102.624 45.6557 101.406C46.8743 100.187 48.5266 99.5017 50.25 99.5ZM34 109.25C30.5535 109.246 27.2494 107.875 24.8124 105.438C22.3753 103.001 21.0043 99.6965 21 96.25V93H24.25C27.6965 93.0043 31.0006 94.3753 33.4376 96.8124C35.8747 99.2494 37.2457 102.554 37.25 106V109.25H34ZM14.5 148.25H60V154.75H14.5V148.25ZM14.5 164.5H60V171H14.5V164.5Z" fill="#262626"/>
<path d="M87.625 177.5C84.4874 177.68 81.3616 176.982 78.5987 175.485C75.8357 173.987 73.5449 171.749 71.9833 169.021C70.4218 166.294 69.6515 163.185 69.7587 160.044C69.866 156.903 70.8466 153.855 72.5905 151.24L84.3425 133.749C84.7043 133.21 85.193 132.769 85.7654 132.464C86.3378 132.159 86.9764 132 87.625 132C88.2736 132 88.9122 132.159 89.4846 132.464C90.057 132.769 90.5457 133.21 90.9075 133.749L102.445 150.899C104.353 153.723 105.414 157.034 105.5 160.441C105.384 165.071 103.438 169.466 100.087 172.664C96.7367 175.861 92.2554 177.6 87.625 177.5ZM87.625 140.515L78.083 154.708C76.96 156.34 76.3253 158.258 76.2531 160.238C76.181 162.218 76.6744 164.177 77.6757 165.887C78.6769 167.596 80.1445 168.985 81.9065 169.891C83.6686 170.796 85.6522 171.181 87.625 171C90.5318 171.101 93.3603 170.047 95.4919 168.068C97.6236 166.089 98.8849 163.347 99 160.441C98.9247 158.262 98.2129 156.152 96.9525 154.373L87.625 140.515ZM43.75 132V115.75H47C50.4465 115.746 53.7506 114.375 56.1876 111.938C58.6247 109.501 59.9957 106.196 60 102.75V93H50.25C46.9219 93.0055 43.7242 94.2941 41.3223 96.5977C39.6393 93.542 37.1678 90.9934 34.1651 89.2174C31.1625 87.4414 27.7385 86.5031 24.25 86.5H14.5V96.25C14.506 101.42 16.5624 106.376 20.2181 110.032C23.8737 113.688 28.8301 115.744 34 115.75H37.25V132H14.5V138.5H60V132H43.75ZM50.25 99.5H53.5V102.75C53.4983 104.473 52.8129 106.126 51.5943 107.344C50.3757 108.563 48.7234 109.248 47 109.25H43.75V106C43.7517 104.277 44.4371 102.624 45.6557 101.406C46.8743 100.187 48.5266 99.5017 50.25 99.5ZM34 109.25C30.5535 109.246 27.2494 107.875 24.8124 105.438C22.3753 103.001 21.0043 99.6965 21 96.25V93H24.25C27.6965 93.0043 31.0006 94.3753 33.4376 96.8124C35.8747 99.2494 37.2457 102.554 37.25 106V109.25H34ZM14.5 148.25H60V154.75H14.5V148.25ZM14.5 164.5H60V171H14.5V164.5Z" fill="#2367FF" fill-opacity="0.09"/>
<path d="M145.376 151.544H135.008V157.016C135.456 156.461 136.096 156.013 136.928 155.672C137.76 155.309 138.645 155.128 139.584 155.128C141.291 155.128 142.688 155.501 143.776 156.248C144.864 156.995 145.653 157.955 146.144 159.128C146.635 160.28 146.88 161.517 146.88 162.84C146.88 165.293 146.176 167.267 144.768 168.76C143.381 170.253 141.397 171 138.816 171C136.384 171 134.443 170.392 132.992 169.176C131.541 167.96 130.72 166.371 130.528 164.408H134.88C135.072 165.261 135.499 165.944 136.16 166.456C136.843 166.968 137.707 167.224 138.752 167.224C140.011 167.224 140.96 166.829 141.6 166.04C142.24 165.251 142.56 164.205 142.56 162.904C142.56 161.581 142.229 160.579 141.568 159.896C140.928 159.192 139.979 158.84 138.72 158.84C137.824 158.84 137.077 159.064 136.48 159.512C135.883 159.96 135.456 160.557 135.2 161.304H130.912V147.608H145.376V151.544ZM162.386 153.496C162.172 152.6 161.799 151.928 161.266 151.48C160.754 151.032 160.007 150.808 159.026 150.808C157.554 150.808 156.466 151.405 155.762 152.6C155.079 153.773 154.727 155.693 154.706 158.36C155.218 157.507 155.964 156.845 156.946 156.376C157.927 155.885 158.994 155.64 160.146 155.64C161.532 155.64 162.759 155.939 163.826 156.536C164.892 157.133 165.724 158.008 166.322 159.16C166.919 160.291 167.218 161.656 167.218 163.256C167.218 164.771 166.908 166.125 166.29 167.32C165.692 168.493 164.807 169.411 163.634 170.072C162.46 170.733 161.063 171.064 159.442 171.064C157.223 171.064 155.474 170.573 154.194 169.592C152.935 168.611 152.05 167.245 151.538 165.496C151.047 163.725 150.802 161.549 150.802 158.968C150.802 155.064 151.474 152.12 152.818 150.136C154.162 148.131 156.284 147.128 159.186 147.128C161.426 147.128 163.164 147.736 164.402 148.952C165.639 150.168 166.354 151.683 166.546 153.496H162.386ZM159.122 159.32C157.991 159.32 157.042 159.651 156.274 160.312C155.506 160.973 155.122 161.933 155.122 163.192C155.122 164.451 155.474 165.443 156.178 166.168C156.903 166.893 157.916 167.256 159.218 167.256C160.37 167.256 161.276 166.904 161.938 166.2C162.62 165.496 162.962 164.547 162.962 163.352C162.962 162.115 162.631 161.133 161.97 160.408C161.33 159.683 160.38 159.32 159.122 159.32ZM170.247 153.4C170.247 151.779 170.716 150.509 171.655 149.592C172.615 148.675 173.841 148.216 175.335 148.216C176.828 148.216 178.044 148.675 178.983 149.592C179.943 150.509 180.423 151.779 180.423 153.4C180.423 155.043 179.943 156.323 178.983 157.24C178.044 158.157 176.828 158.616 175.335 158.616C173.841 158.616 172.615 158.157 171.655 157.24C170.716 156.323 170.247 155.043 170.247 153.4ZM190.791 148.6L178.215 171H173.863L186.407 148.6H190.791ZM175.303 150.904C174.129 150.904 173.543 151.736 173.543 153.4C173.543 155.085 174.129 155.928 175.303 155.928C175.879 155.928 176.327 155.725 176.647 155.32C176.967 154.893 177.127 154.253 177.127 153.4C177.127 151.736 176.519 150.904 175.303 150.904ZM184.295 166.168C184.295 164.525 184.764 163.256 185.703 162.36C186.663 161.443 187.889 160.984 189.383 160.984C190.876 160.984 192.081 161.443 192.999 162.36C193.937 163.256 194.407 164.525 194.407 166.168C194.407 167.811 193.937 169.091 192.999 170.008C192.081 170.925 190.876 171.384 189.383 171.384C187.868 171.384 186.641 170.925 185.703 170.008C184.764 169.091 184.295 167.811 184.295 166.168ZM189.351 163.672C188.135 163.672 187.527 164.504 187.527 166.168C187.527 167.853 188.135 168.696 189.351 168.696C190.545 168.696 191.143 167.853 191.143 166.168C191.143 164.504 190.545 163.672 189.351 163.672Z" fill="#262626"/>
<path d="M145.376 151.544H135.008V157.016C135.456 156.461 136.096 156.013 136.928 155.672C137.76 155.309 138.645 155.128 139.584 155.128C141.291 155.128 142.688 155.501 143.776 156.248C144.864 156.995 145.653 157.955 146.144 159.128C146.635 160.28 146.88 161.517 146.88 162.84C146.88 165.293 146.176 167.267 144.768 168.76C143.381 170.253 141.397 171 138.816 171C136.384 171 134.443 170.392 132.992 169.176C131.541 167.96 130.72 166.371 130.528 164.408H134.88C135.072 165.261 135.499 165.944 136.16 166.456C136.843 166.968 137.707 167.224 138.752 167.224C140.011 167.224 140.96 166.829 141.6 166.04C142.24 165.251 142.56 164.205 142.56 162.904C142.56 161.581 142.229 160.579 141.568 159.896C140.928 159.192 139.979 158.84 138.72 158.84C137.824 158.84 137.077 159.064 136.48 159.512C135.883 159.96 135.456 160.557 135.2 161.304H130.912V147.608H145.376V151.544ZM162.386 153.496C162.172 152.6 161.799 151.928 161.266 151.48C160.754 151.032 160.007 150.808 159.026 150.808C157.554 150.808 156.466 151.405 155.762 152.6C155.079 153.773 154.727 155.693 154.706 158.36C155.218 157.507 155.964 156.845 156.946 156.376C157.927 155.885 158.994 155.64 160.146 155.64C161.532 155.64 162.759 155.939 163.826 156.536C164.892 157.133 165.724 158.008 166.322 159.16C166.919 160.291 167.218 161.656 167.218 163.256C167.218 164.771 166.908 166.125 166.29 167.32C165.692 168.493 164.807 169.411 163.634 170.072C162.46 170.733 161.063 171.064 159.442 171.064C157.223 171.064 155.474 170.573 154.194 169.592C152.935 168.611 152.05 167.245 151.538 165.496C151.047 163.725 150.802 161.549 150.802 158.968C150.802 155.064 151.474 152.12 152.818 150.136C154.162 148.131 156.284 147.128 159.186 147.128C161.426 147.128 163.164 147.736 164.402 148.952C165.639 150.168 166.354 151.683 166.546 153.496H162.386ZM159.122 159.32C157.991 159.32 157.042 159.651 156.274 160.312C155.506 160.973 155.122 161.933 155.122 163.192C155.122 164.451 155.474 165.443 156.178 166.168C156.903 166.893 157.916 167.256 159.218 167.256C160.37 167.256 161.276 166.904 161.938 166.2C162.62 165.496 162.962 164.547 162.962 163.352C162.962 162.115 162.631 161.133 161.97 160.408C161.33 159.683 160.38 159.32 159.122 159.32ZM170.247 153.4C170.247 151.779 170.716 150.509 171.655 149.592C172.615 148.675 173.841 148.216 175.335 148.216C176.828 148.216 178.044 148.675 178.983 149.592C179.943 150.509 180.423 151.779 180.423 153.4C180.423 155.043 179.943 156.323 178.983 157.24C178.044 158.157 176.828 158.616 175.335 158.616C173.841 158.616 172.615 158.157 171.655 157.24C170.716 156.323 170.247 155.043 170.247 153.4ZM190.791 148.6L178.215 171H173.863L186.407 148.6H190.791ZM175.303 150.904C174.129 150.904 173.543 151.736 173.543 153.4C173.543 155.085 174.129 155.928 175.303 155.928C175.879 155.928 176.327 155.725 176.647 155.32C176.967 154.893 177.127 154.253 177.127 153.4C177.127 151.736 176.519 150.904 175.303 150.904ZM184.295 166.168C184.295 164.525 184.764 163.256 185.703 162.36C186.663 161.443 187.889 160.984 189.383 160.984C190.876 160.984 192.081 161.443 192.999 162.36C193.937 163.256 194.407 164.525 194.407 166.168C194.407 167.811 193.937 169.091 192.999 170.008C192.081 170.925 190.876 171.384 189.383 171.384C187.868 171.384 186.641 170.925 185.703 170.008C184.764 169.091 184.295 167.811 184.295 166.168ZM189.351 163.672C188.135 163.672 187.527 164.504 187.527 166.168C187.527 167.853 188.135 168.696 189.351 168.696C190.545 168.696 191.143 167.853 191.143 166.168C191.143 164.504 190.545 163.672 189.351 163.672Z" fill="#2367FF" fill-opacity="0.09"/>
</svg>
