<svg width="456" height="342" viewBox="0 0 456 342" fill="none" xmlns="http://www.w3.org/2000/svg">
<rect x="12" width="400" height="342" rx="16" fill="white"/>
<path d="M175.964 38.14C174.99 38.14 174.11 37.9733 173.324 37.64C172.55 37.3067 171.937 36.8267 171.484 36.2C171.03 35.5733 170.797 34.8333 170.784 33.98H173.784C173.824 34.5533 174.024 35.0067 174.384 35.34C174.757 35.6733 175.264 35.84 175.904 35.84C176.557 35.84 177.07 35.6867 177.444 35.38C177.817 35.06 178.004 34.6467 178.004 34.14C178.004 33.7267 177.877 33.3867 177.624 33.12C177.37 32.8533 177.05 32.6467 176.664 32.5C176.29 32.34 175.77 32.1667 175.104 31.98C174.197 31.7133 173.457 31.4533 172.884 31.2C172.324 30.9333 171.837 30.54 171.424 30.02C171.024 29.4867 170.824 28.78 170.824 27.9C170.824 27.0733 171.03 26.3533 171.444 25.74C171.857 25.1267 172.437 24.66 173.184 24.34C173.93 24.0067 174.784 23.84 175.744 23.84C177.184 23.84 178.35 24.1933 179.244 24.9C180.15 25.5933 180.65 26.5667 180.744 27.82H177.664C177.637 27.34 177.43 26.9467 177.044 26.64C176.67 26.32 176.17 26.16 175.544 26.16C174.997 26.16 174.557 26.3 174.224 26.58C173.904 26.86 173.744 27.2667 173.744 27.8C173.744 28.1733 173.864 28.4867 174.104 28.74C174.357 28.98 174.664 29.18 175.024 29.34C175.397 29.4867 175.917 29.66 176.584 29.86C177.49 30.1267 178.23 30.3933 178.804 30.66C179.377 30.9267 179.87 31.3267 180.284 31.86C180.697 32.3933 180.904 33.0933 180.904 33.96C180.904 34.7067 180.71 35.4 180.324 36.04C179.937 36.68 179.37 37.1933 178.624 37.58C177.877 37.9533 176.99 38.14 175.964 38.14ZM188.251 38.18C187.185 38.18 186.225 37.9467 185.371 37.48C184.518 37 183.845 36.3267 183.351 35.46C182.871 34.5933 182.631 33.5933 182.631 32.46C182.631 31.3267 182.878 30.3267 183.371 29.46C183.878 28.5933 184.565 27.9267 185.431 27.46C186.298 26.98 187.265 26.74 188.331 26.74C189.398 26.74 190.365 26.98 191.231 27.46C192.098 27.9267 192.778 28.5933 193.271 29.46C193.778 30.3267 194.031 31.3267 194.031 32.46C194.031 33.5933 193.771 34.5933 193.251 35.46C192.745 36.3267 192.051 37 191.171 37.48C190.305 37.9467 189.331 38.18 188.251 38.18ZM188.251 35.74C188.758 35.74 189.231 35.62 189.671 35.38C190.125 35.1267 190.485 34.7533 190.751 34.26C191.018 33.7667 191.151 33.1667 191.151 32.46C191.151 31.4067 190.871 30.6 190.311 30.04C189.765 29.4667 189.091 29.18 188.291 29.18C187.491 29.18 186.818 29.4667 186.271 30.04C185.738 30.6 185.471 31.4067 185.471 32.46C185.471 33.5133 185.731 34.3267 186.251 34.9C186.785 35.46 187.451 35.74 188.251 35.74ZM197.505 25.6C197.012 25.6 196.598 25.4467 196.265 25.14C195.945 24.82 195.785 24.4267 195.785 23.96C195.785 23.4933 195.945 23.1067 196.265 22.8C196.598 22.48 197.012 22.32 197.505 22.32C197.998 22.32 198.405 22.48 198.725 22.8C199.058 23.1067 199.225 23.4933 199.225 23.96C199.225 24.4267 199.058 24.82 198.725 25.14C198.405 25.4467 197.998 25.6 197.505 25.6ZM198.885 26.92V38H196.085V26.92H198.885ZM204.451 23.2V38H201.651V23.2H204.451ZM220.944 25.54L215.624 38H212.784L218.144 25.86H211.304V23.46H220.944V25.54ZM222.221 32.42C222.221 31.3 222.441 30.3067 222.881 29.44C223.334 28.5733 223.941 27.9067 224.701 27.44C225.474 26.9733 226.334 26.74 227.281 26.74C228.107 26.74 228.827 26.9067 229.441 27.24C230.067 27.5733 230.567 27.9933 230.941 28.5V26.92H233.761V38H230.941V36.38C230.581 36.9 230.081 37.3333 229.441 37.68C228.814 38.0133 228.087 38.18 227.261 38.18C226.327 38.18 225.474 37.94 224.701 37.46C223.941 36.98 223.334 36.3067 222.881 35.44C222.441 34.56 222.221 33.5533 222.221 32.42ZM230.941 32.46C230.941 31.78 230.807 31.2 230.541 30.72C230.274 30.2267 229.914 29.8533 229.461 29.6C229.007 29.3333 228.521 29.2 228.001 29.2C227.481 29.2 227.001 29.3267 226.561 29.58C226.121 29.8333 225.761 30.2067 225.481 30.7C225.214 31.18 225.081 31.7533 225.081 32.42C225.081 33.0867 225.214 33.6733 225.481 34.18C225.761 34.6733 226.121 35.0533 226.561 35.32C227.014 35.5867 227.494 35.72 228.001 35.72C228.521 35.72 229.007 35.5933 229.461 35.34C229.914 35.0733 230.274 34.7 230.541 34.22C230.807 33.7267 230.941 33.14 230.941 32.46ZM237.915 25.6C237.409 25.6 236.989 25.4467 236.655 25.14C236.335 24.82 236.175 24.4267 236.175 23.96C236.175 23.4933 236.335 23.1067 236.655 22.8C236.989 22.48 237.409 22.32 237.915 22.32C238.409 22.32 238.815 22.48 239.135 22.8C239.455 23.1067 239.615 23.4933 239.615 23.96C239.615 24.4267 239.455 24.82 239.135 25.14C238.815 25.4467 238.409 25.6 237.915 25.6ZM239.295 39.82C239.295 41.0467 238.989 41.9267 238.375 42.46C237.775 43.0067 236.909 43.28 235.775 43.28H234.535V40.9H235.335C235.762 40.9 236.062 40.8133 236.235 40.64C236.409 40.48 236.495 40.2133 236.495 39.84V26.92H239.295V39.82ZM241.342 32.42C241.342 31.3 241.562 30.3067 242.002 29.44C242.455 28.5733 243.062 27.9067 243.822 27.44C244.595 26.9733 245.455 26.74 246.402 26.74C247.228 26.74 247.948 26.9067 248.562 27.24C249.188 27.5733 249.688 27.9933 250.062 28.5V26.92H252.882V38H250.062V36.38C249.702 36.9 249.202 37.3333 248.562 37.68C247.935 38.0133 247.208 38.18 246.382 38.18C245.448 38.18 244.595 37.94 243.822 37.46C243.062 36.98 242.455 36.3067 242.002 35.44C241.562 34.56 241.342 33.5533 241.342 32.42ZM250.062 32.46C250.062 31.78 249.928 31.2 249.662 30.72C249.395 30.2267 249.035 29.8533 248.582 29.6C248.128 29.3333 247.642 29.2 247.122 29.2C246.602 29.2 246.122 29.3267 245.682 29.58C245.242 29.8333 244.882 30.2067 244.602 30.7C244.335 31.18 244.202 31.7533 244.202 32.42C244.202 33.0867 244.335 33.6733 244.602 34.18C244.882 34.6733 245.242 35.0533 245.682 35.32C246.135 35.5867 246.615 35.72 247.122 35.72C247.642 35.72 248.128 35.5933 248.582 35.34C249.035 35.0733 249.395 34.7 249.662 34.22C249.928 33.7267 250.062 33.14 250.062 32.46Z" fill="#262626"/>
<path d="M175.964 38.14C174.99 38.14 174.11 37.9733 173.324 37.64C172.55 37.3067 171.937 36.8267 171.484 36.2C171.03 35.5733 170.797 34.8333 170.784 33.98H173.784C173.824 34.5533 174.024 35.0067 174.384 35.34C174.757 35.6733 175.264 35.84 175.904 35.84C176.557 35.84 177.07 35.6867 177.444 35.38C177.817 35.06 178.004 34.6467 178.004 34.14C178.004 33.7267 177.877 33.3867 177.624 33.12C177.37 32.8533 177.05 32.6467 176.664 32.5C176.29 32.34 175.77 32.1667 175.104 31.98C174.197 31.7133 173.457 31.4533 172.884 31.2C172.324 30.9333 171.837 30.54 171.424 30.02C171.024 29.4867 170.824 28.78 170.824 27.9C170.824 27.0733 171.03 26.3533 171.444 25.74C171.857 25.1267 172.437 24.66 173.184 24.34C173.93 24.0067 174.784 23.84 175.744 23.84C177.184 23.84 178.35 24.1933 179.244 24.9C180.15 25.5933 180.65 26.5667 180.744 27.82H177.664C177.637 27.34 177.43 26.9467 177.044 26.64C176.67 26.32 176.17 26.16 175.544 26.16C174.997 26.16 174.557 26.3 174.224 26.58C173.904 26.86 173.744 27.2667 173.744 27.8C173.744 28.1733 173.864 28.4867 174.104 28.74C174.357 28.98 174.664 29.18 175.024 29.34C175.397 29.4867 175.917 29.66 176.584 29.86C177.49 30.1267 178.23 30.3933 178.804 30.66C179.377 30.9267 179.87 31.3267 180.284 31.86C180.697 32.3933 180.904 33.0933 180.904 33.96C180.904 34.7067 180.71 35.4 180.324 36.04C179.937 36.68 179.37 37.1933 178.624 37.58C177.877 37.9533 176.99 38.14 175.964 38.14ZM188.251 38.18C187.185 38.18 186.225 37.9467 185.371 37.48C184.518 37 183.845 36.3267 183.351 35.46C182.871 34.5933 182.631 33.5933 182.631 32.46C182.631 31.3267 182.878 30.3267 183.371 29.46C183.878 28.5933 184.565 27.9267 185.431 27.46C186.298 26.98 187.265 26.74 188.331 26.74C189.398 26.74 190.365 26.98 191.231 27.46C192.098 27.9267 192.778 28.5933 193.271 29.46C193.778 30.3267 194.031 31.3267 194.031 32.46C194.031 33.5933 193.771 34.5933 193.251 35.46C192.745 36.3267 192.051 37 191.171 37.48C190.305 37.9467 189.331 38.18 188.251 38.18ZM188.251 35.74C188.758 35.74 189.231 35.62 189.671 35.38C190.125 35.1267 190.485 34.7533 190.751 34.26C191.018 33.7667 191.151 33.1667 191.151 32.46C191.151 31.4067 190.871 30.6 190.311 30.04C189.765 29.4667 189.091 29.18 188.291 29.18C187.491 29.18 186.818 29.4667 186.271 30.04C185.738 30.6 185.471 31.4067 185.471 32.46C185.471 33.5133 185.731 34.3267 186.251 34.9C186.785 35.46 187.451 35.74 188.251 35.74ZM197.505 25.6C197.012 25.6 196.598 25.4467 196.265 25.14C195.945 24.82 195.785 24.4267 195.785 23.96C195.785 23.4933 195.945 23.1067 196.265 22.8C196.598 22.48 197.012 22.32 197.505 22.32C197.998 22.32 198.405 22.48 198.725 22.8C199.058 23.1067 199.225 23.4933 199.225 23.96C199.225 24.4267 199.058 24.82 198.725 25.14C198.405 25.4467 197.998 25.6 197.505 25.6ZM198.885 26.92V38H196.085V26.92H198.885ZM204.451 23.2V38H201.651V23.2H204.451ZM220.944 25.54L215.624 38H212.784L218.144 25.86H211.304V23.46H220.944V25.54ZM222.221 32.42C222.221 31.3 222.441 30.3067 222.881 29.44C223.334 28.5733 223.941 27.9067 224.701 27.44C225.474 26.9733 226.334 26.74 227.281 26.74C228.107 26.74 228.827 26.9067 229.441 27.24C230.067 27.5733 230.567 27.9933 230.941 28.5V26.92H233.761V38H230.941V36.38C230.581 36.9 230.081 37.3333 229.441 37.68C228.814 38.0133 228.087 38.18 227.261 38.18C226.327 38.18 225.474 37.94 224.701 37.46C223.941 36.98 223.334 36.3067 222.881 35.44C222.441 34.56 222.221 33.5533 222.221 32.42ZM230.941 32.46C230.941 31.78 230.807 31.2 230.541 30.72C230.274 30.2267 229.914 29.8533 229.461 29.6C229.007 29.3333 228.521 29.2 228.001 29.2C227.481 29.2 227.001 29.3267 226.561 29.58C226.121 29.8333 225.761 30.2067 225.481 30.7C225.214 31.18 225.081 31.7533 225.081 32.42C225.081 33.0867 225.214 33.6733 225.481 34.18C225.761 34.6733 226.121 35.0533 226.561 35.32C227.014 35.5867 227.494 35.72 228.001 35.72C228.521 35.72 229.007 35.5933 229.461 35.34C229.914 35.0733 230.274 34.7 230.541 34.22C230.807 33.7267 230.941 33.14 230.941 32.46ZM237.915 25.6C237.409 25.6 236.989 25.4467 236.655 25.14C236.335 24.82 236.175 24.4267 236.175 23.96C236.175 23.4933 236.335 23.1067 236.655 22.8C236.989 22.48 237.409 22.32 237.915 22.32C238.409 22.32 238.815 22.48 239.135 22.8C239.455 23.1067 239.615 23.4933 239.615 23.96C239.615 24.4267 239.455 24.82 239.135 25.14C238.815 25.4467 238.409 25.6 237.915 25.6ZM239.295 39.82C239.295 41.0467 238.989 41.9267 238.375 42.46C237.775 43.0067 236.909 43.28 235.775 43.28H234.535V40.9H235.335C235.762 40.9 236.062 40.8133 236.235 40.64C236.409 40.48 236.495 40.2133 236.495 39.84V26.92H239.295V39.82ZM241.342 32.42C241.342 31.3 241.562 30.3067 242.002 29.44C242.455 28.5733 243.062 27.9067 243.822 27.44C244.595 26.9733 245.455 26.74 246.402 26.74C247.228 26.74 247.948 26.9067 248.562 27.24C249.188 27.5733 249.688 27.9933 250.062 28.5V26.92H252.882V38H250.062V36.38C249.702 36.9 249.202 37.3333 248.562 37.68C247.935 38.0133 247.208 38.18 246.382 38.18C245.448 38.18 244.595 37.94 243.822 37.46C243.062 36.98 242.455 36.3067 242.002 35.44C241.562 34.56 241.342 33.5533 241.342 32.42ZM250.062 32.46C250.062 31.78 249.928 31.2 249.662 30.72C249.395 30.2267 249.035 29.8533 248.582 29.6C248.128 29.3333 247.642 29.2 247.122 29.2C246.602 29.2 246.122 29.3267 245.682 29.58C245.242 29.8333 244.882 30.2067 244.602 30.7C244.335 31.18 244.202 31.7533 244.202 32.42C244.202 33.0867 244.335 33.6733 244.602 34.18C244.882 34.6733 245.242 35.0533 245.682 35.32C246.135 35.5867 246.615 35.72 247.122 35.72C247.642 35.72 248.128 35.5933 248.582 35.34C249.035 35.0733 249.395 34.7 249.662 34.22C249.928 33.7267 250.062 33.14 250.062 32.46Z" fill="#2367FF" fill-opacity="0.09"/>
<g opacity="0.8">
<path d="M212 198L328.869 123.565H345.565M212 198L351.2 178.8H360.8M212 198L290.4 314.8H300M212 198L112 298H101.6M212 198L257.217 65.8262H278.782" stroke="#262626"/>
<path d="M212 198L328.869 123.565H345.565M212 198L351.2 178.8H360.8M212 198L290.4 314.8H300M212 198L112 298H101.6M212 198L257.217 65.8262H278.782" stroke="#2367FF" stroke-opacity="0.09"/>
<path d="M74.9945 294.912H77.9225V295.8H73.9025V287.436H74.9945V294.912ZM85.0822 292.26C85.0822 292.468 85.0702 292.688 85.0462 292.92H79.7902C79.8302 293.568 80.0502 294.076 80.4502 294.444C80.8582 294.804 81.3502 294.984 81.9262 294.984C82.3982 294.984 82.7902 294.876 83.1022 294.66C83.4222 294.436 83.6462 294.14 83.7742 293.772H84.9502C84.7742 294.404 84.4222 294.92 83.8942 295.32C83.3662 295.712 82.7102 295.908 81.9262 295.908C81.3022 295.908 80.7422 295.768 80.2462 295.488C79.7582 295.208 79.3742 294.812 79.0942 294.3C78.8142 293.78 78.6742 293.18 78.6742 292.5C78.6742 291.82 78.8102 291.224 79.0822 290.712C79.3542 290.2 79.7342 289.808 80.2222 289.536C80.7182 289.256 81.2862 289.116 81.9262 289.116C82.5502 289.116 83.1022 289.252 83.5822 289.524C84.0622 289.796 84.4302 290.172 84.6862 290.652C84.9502 291.124 85.0822 291.66 85.0822 292.26ZM83.9542 292.032C83.9542 291.616 83.8622 291.26 83.6782 290.964C83.4942 290.66 83.2422 290.432 82.9222 290.28C82.6102 290.12 82.2622 290.04 81.8782 290.04C81.3262 290.04 80.8542 290.216 80.4622 290.568C80.0782 290.92 79.8582 291.408 79.8022 292.032H83.9542ZM89.1996 290.124H87.8196V295.8H86.7276V290.124H85.8756V289.224H86.7276V288.756C86.7276 288.02 86.9156 287.484 87.2916 287.148C87.6756 286.804 88.2876 286.632 89.1276 286.632V287.544C88.6476 287.544 88.3076 287.64 88.1076 287.832C87.9156 288.016 87.8196 288.324 87.8196 288.756V289.224H89.1996V290.124ZM91.8048 290.124V294C91.8048 294.32 91.8728 294.548 92.0088 294.684C92.1448 294.812 92.3808 294.876 92.7168 294.876H93.5208V295.8H92.5368C91.9288 295.8 91.4728 295.66 91.1688 295.38C90.8648 295.1 90.7128 294.64 90.7128 294V290.124H89.8608V289.224H90.7128V287.568H91.8048V289.224H93.5208V290.124H91.8048Z" fill="#262626"/>
<path d="M74.9945 294.912H77.9225V295.8H73.9025V287.436H74.9945V294.912ZM85.0822 292.26C85.0822 292.468 85.0702 292.688 85.0462 292.92H79.7902C79.8302 293.568 80.0502 294.076 80.4502 294.444C80.8582 294.804 81.3502 294.984 81.9262 294.984C82.3982 294.984 82.7902 294.876 83.1022 294.66C83.4222 294.436 83.6462 294.14 83.7742 293.772H84.9502C84.7742 294.404 84.4222 294.92 83.8942 295.32C83.3662 295.712 82.7102 295.908 81.9262 295.908C81.3022 295.908 80.7422 295.768 80.2462 295.488C79.7582 295.208 79.3742 294.812 79.0942 294.3C78.8142 293.78 78.6742 293.18 78.6742 292.5C78.6742 291.82 78.8102 291.224 79.0822 290.712C79.3542 290.2 79.7342 289.808 80.2222 289.536C80.7182 289.256 81.2862 289.116 81.9262 289.116C82.5502 289.116 83.1022 289.252 83.5822 289.524C84.0622 289.796 84.4302 290.172 84.6862 290.652C84.9502 291.124 85.0822 291.66 85.0822 292.26ZM83.9542 292.032C83.9542 291.616 83.8622 291.26 83.6782 290.964C83.4942 290.66 83.2422 290.432 82.9222 290.28C82.6102 290.12 82.2622 290.04 81.8782 290.04C81.3262 290.04 80.8542 290.216 80.4622 290.568C80.0782 290.92 79.8582 291.408 79.8022 292.032H83.9542ZM89.1996 290.124H87.8196V295.8H86.7276V290.124H85.8756V289.224H86.7276V288.756C86.7276 288.02 86.9156 287.484 87.2916 287.148C87.6756 286.804 88.2876 286.632 89.1276 286.632V287.544C88.6476 287.544 88.3076 287.64 88.1076 287.832C87.9156 288.016 87.8196 288.324 87.8196 288.756V289.224H89.1996V290.124ZM91.8048 290.124V294C91.8048 294.32 91.8728 294.548 92.0088 294.684C92.1448 294.812 92.3808 294.876 92.7168 294.876H93.5208V295.8H92.5368C91.9288 295.8 91.4728 295.66 91.1688 295.38C90.8648 295.1 90.7128 294.64 90.7128 294V290.124H89.8608V289.224H90.7128V287.568H91.8048V289.224H93.5208V290.124H91.8048Z" fill="#2367FF" fill-opacity="0.09"/>
<path d="M74.9938 294.912H77.9218V295.8H73.9018V287.436H74.9938V294.912ZM85.0815 292.26C85.0815 292.468 85.0695 292.688 85.0455 292.92H79.7895C79.8295 293.568 80.0495 294.076 80.4495 294.444C80.8575 294.804 81.3495 294.984 81.9255 294.984C82.3975 294.984 82.7895 294.876 83.1015 294.66C83.4215 294.436 83.6455 294.14 83.7735 293.772H84.9495C84.7735 294.404 84.4215 294.92 83.8935 295.32C83.3655 295.712 82.7095 295.908 81.9255 295.908C81.3015 295.908 80.7415 295.768 80.2455 295.488C79.7575 295.208 79.3735 294.812 79.0935 294.3C78.8135 293.78 78.6735 293.18 78.6735 292.5C78.6735 291.82 78.8095 291.224 79.0815 290.712C79.3535 290.2 79.7335 289.808 80.2215 289.536C80.7175 289.256 81.2855 289.116 81.9255 289.116C82.5495 289.116 83.1015 289.252 83.5815 289.524C84.0615 289.796 84.4295 290.172 84.6855 290.652C84.9495 291.124 85.0815 291.66 85.0815 292.26ZM83.9535 292.032C83.9535 291.616 83.8615 291.26 83.6775 290.964C83.4935 290.66 83.2415 290.432 82.9215 290.28C82.6095 290.12 82.2615 290.04 81.8775 290.04C81.3255 290.04 80.8535 290.216 80.4615 290.568C80.0775 290.92 79.8575 291.408 79.8015 292.032H83.9535ZM89.1989 290.124H87.8189V295.8H86.7269V290.124H85.8749V289.224H86.7269V288.756C86.7269 288.02 86.9149 287.484 87.2909 287.148C87.6749 286.804 88.2869 286.632 89.1269 286.632V287.544C88.6469 287.544 88.3069 287.64 88.1069 287.832C87.9149 288.016 87.8189 288.324 87.8189 288.756V289.224H89.1989V290.124ZM91.8041 290.124V294C91.8041 294.32 91.8721 294.548 92.0081 294.684C92.1441 294.812 92.3801 294.876 92.7161 294.876H93.5201V295.8H92.5361C91.9281 295.8 91.4721 295.66 91.1681 295.38C90.8641 295.1 90.7121 294.64 90.7121 294V290.124H89.8601V289.224H90.7121V287.568H91.8041V289.224H93.5201V290.124H91.8041Z" fill="#262626"/>
<path d="M74.9938 294.912H77.9218V295.8H73.9018V287.436H74.9938V294.912ZM85.0815 292.26C85.0815 292.468 85.0695 292.688 85.0455 292.92H79.7895C79.8295 293.568 80.0495 294.076 80.4495 294.444C80.8575 294.804 81.3495 294.984 81.9255 294.984C82.3975 294.984 82.7895 294.876 83.1015 294.66C83.4215 294.436 83.6455 294.14 83.7735 293.772H84.9495C84.7735 294.404 84.4215 294.92 83.8935 295.32C83.3655 295.712 82.7095 295.908 81.9255 295.908C81.3015 295.908 80.7415 295.768 80.2455 295.488C79.7575 295.208 79.3735 294.812 79.0935 294.3C78.8135 293.78 78.6735 293.18 78.6735 292.5C78.6735 291.82 78.8095 291.224 79.0815 290.712C79.3535 290.2 79.7335 289.808 80.2215 289.536C80.7175 289.256 81.2855 289.116 81.9255 289.116C82.5495 289.116 83.1015 289.252 83.5815 289.524C84.0615 289.796 84.4295 290.172 84.6855 290.652C84.9495 291.124 85.0815 291.66 85.0815 292.26ZM83.9535 292.032C83.9535 291.616 83.8615 291.26 83.6775 290.964C83.4935 290.66 83.2415 290.432 82.9215 290.28C82.6095 290.12 82.2615 290.04 81.8775 290.04C81.3255 290.04 80.8535 290.216 80.4615 290.568C80.0775 290.92 79.8575 291.408 79.8015 292.032H83.9535ZM89.1989 290.124H87.8189V295.8H86.7269V290.124H85.8749V289.224H86.7269V288.756C86.7269 288.02 86.9149 287.484 87.2909 287.148C87.6749 286.804 88.2869 286.632 89.1269 286.632V287.544C88.6469 287.544 88.3069 287.64 88.1069 287.832C87.9149 288.016 87.8189 288.324 87.8189 288.756V289.224H89.1989V290.124ZM91.8041 290.124V294C91.8041 294.32 91.8721 294.548 92.0081 294.684C92.1441 294.812 92.3801 294.876 92.7161 294.876H93.5201V295.8H92.5361C91.9281 295.8 91.4721 295.66 91.1681 295.38C90.8641 295.1 90.7121 294.64 90.7121 294V290.124H89.8601V289.224H90.7121V287.568H91.8041V289.224H93.5201V290.124H91.8041Z" fill="#2367FF" fill-opacity="0.09"/>
<path d="M320.527 58.0007V66.3047H319.435V60.1127L316.675 66.3047H315.907L313.135 60.1007V66.3047H312.043V58.0007H313.219L316.291 64.8647L319.363 58.0007H320.527ZM321.971 62.9927C321.971 62.3207 322.107 61.7327 322.379 61.2287C322.651 60.7167 323.023 60.3207 323.495 60.0407C323.975 59.7607 324.507 59.6207 325.091 59.6207C325.667 59.6207 326.167 59.7447 326.591 59.9927C327.015 60.2407 327.331 60.5527 327.539 60.9287V59.7287H328.643V66.3047H327.539V65.0807C327.323 65.4647 326.999 65.7847 326.567 66.0407C326.143 66.2887 325.647 66.4127 325.079 66.4127C324.495 66.4127 323.967 66.2687 323.495 65.9807C323.023 65.6927 322.651 65.2887 322.379 64.7687C322.107 64.2487 321.971 63.6567 321.971 62.9927ZM327.539 63.0047C327.539 62.5087 327.439 62.0767 327.239 61.7087C327.039 61.3407 326.767 61.0607 326.423 60.8687C326.087 60.6687 325.715 60.5687 325.307 60.5687C324.899 60.5687 324.527 60.6647 324.191 60.8567C323.855 61.0487 323.587 61.3287 323.387 61.6967C323.187 62.0647 323.087 62.4967 323.087 62.9927C323.087 63.4967 323.187 63.9367 323.387 64.3127C323.587 64.6807 323.855 64.9647 324.191 65.1647C324.527 65.3567 324.899 65.4527 325.307 65.4527C325.715 65.4527 326.087 65.3567 326.423 65.1647C326.767 64.9647 327.039 64.6807 327.239 64.3127C327.439 63.9367 327.539 63.5007 327.539 63.0047ZM333.201 59.6207C333.769 59.6207 334.265 59.7447 334.689 59.9927C335.121 60.2407 335.441 60.5527 335.649 60.9287V59.7287H336.753V66.4487C336.753 67.0487 336.625 67.5807 336.369 68.0447C336.113 68.5167 335.745 68.8847 335.265 69.1487C334.793 69.4127 334.241 69.5447 333.609 69.5447C332.745 69.5447 332.025 69.3407 331.449 68.9327C330.873 68.5247 330.533 67.9687 330.429 67.2647H331.509C331.629 67.6647 331.877 67.9847 332.253 68.2247C332.629 68.4727 333.081 68.5967 333.609 68.5967C334.209 68.5967 334.697 68.4087 335.073 68.0327C335.457 67.6567 335.649 67.1287 335.649 66.4487V65.0687C335.433 65.4527 335.113 65.7727 334.689 66.0287C334.265 66.2847 333.769 66.4127 333.201 66.4127C332.617 66.4127 332.085 66.2687 331.605 65.9807C331.133 65.6927 330.761 65.2887 330.489 64.7687C330.217 64.2487 330.081 63.6567 330.081 62.9927C330.081 62.3207 330.217 61.7327 330.489 61.2287C330.761 60.7167 331.133 60.3207 331.605 60.0407C332.085 59.7607 332.617 59.6207 333.201 59.6207ZM335.649 63.0047C335.649 62.5087 335.549 62.0767 335.349 61.7087C335.149 61.3407 334.877 61.0607 334.533 60.8687C334.197 60.6687 333.825 60.5687 333.417 60.5687C333.009 60.5687 332.637 60.6647 332.301 60.8567C331.965 61.0487 331.697 61.3287 331.497 61.6967C331.297 62.0647 331.197 62.4967 331.197 62.9927C331.197 63.4967 331.297 63.9367 331.497 64.3127C331.697 64.6807 331.965 64.9647 332.301 65.1647C332.637 65.3567 333.009 65.4527 333.417 65.4527C333.825 65.4527 334.197 65.3567 334.533 65.1647C334.877 64.9647 335.149 64.6807 335.349 64.3127C335.549 63.9367 335.649 63.5007 335.649 63.0047ZM341.802 59.6087C342.602 59.6087 343.25 59.8527 343.746 60.3407C344.242 60.8207 344.49 61.5167 344.49 62.4287V66.3047H343.41V62.5847C343.41 61.9287 343.246 61.4287 342.918 61.0847C342.59 60.7327 342.142 60.5567 341.574 60.5567C340.998 60.5567 340.538 60.7367 340.194 61.0967C339.858 61.4567 339.69 61.9807 339.69 62.6687V66.3047H338.598V59.7287H339.69V60.6647C339.906 60.3287 340.198 60.0687 340.566 59.8847C340.942 59.7007 341.354 59.6087 341.802 59.6087ZM346.838 58.6607C346.63 58.6607 346.454 58.5887 346.31 58.4447C346.166 58.3007 346.094 58.1247 346.094 57.9167C346.094 57.7087 346.166 57.5327 346.31 57.3887C346.454 57.2447 346.63 57.1727 346.838 57.1727C347.038 57.1727 347.206 57.2447 347.342 57.3887C347.486 57.5327 347.558 57.7087 347.558 57.9167C347.558 58.1247 347.486 58.3007 347.342 58.4447C347.206 58.5887 347.038 58.6607 346.838 58.6607ZM347.366 59.7287V66.3047H346.274V59.7287H347.366ZM351.555 66.4127C351.051 66.4127 350.599 66.3287 350.199 66.1607C349.799 65.9847 349.483 65.7447 349.251 65.4407C349.019 65.1287 348.891 64.7727 348.867 64.3727H349.995C350.027 64.7007 350.179 64.9687 350.451 65.1767C350.731 65.3847 351.095 65.4887 351.543 65.4887C351.959 65.4887 352.287 65.3967 352.527 65.2127C352.767 65.0287 352.887 64.7967 352.887 64.5167C352.887 64.2287 352.759 64.0167 352.503 63.8807C352.247 63.7367 351.851 63.5967 351.315 63.4607C350.827 63.3327 350.427 63.2047 350.115 63.0767C349.811 62.9407 349.547 62.7447 349.323 62.4887C349.107 62.2247 348.999 61.8807 348.999 61.4567C348.999 61.1207 349.099 60.8127 349.299 60.5327C349.499 60.2527 349.783 60.0327 350.151 59.8727C350.519 59.7047 350.939 59.6207 351.411 59.6207C352.139 59.6207 352.727 59.8047 353.175 60.1727C353.623 60.5407 353.863 61.0447 353.895 61.6847H352.803C352.779 61.3407 352.639 61.0647 352.383 60.8567C352.135 60.6487 351.799 60.5447 351.375 60.5447C350.983 60.5447 350.671 60.6287 350.439 60.7967C350.207 60.9647 350.091 61.1847 350.091 61.4567C350.091 61.6727 350.159 61.8527 350.295 61.9967C350.439 62.1327 350.615 62.2447 350.823 62.3327C351.039 62.4127 351.335 62.5047 351.711 62.6087C352.183 62.7367 352.567 62.8647 352.863 62.9927C353.159 63.1127 353.411 63.2967 353.619 63.5447C353.835 63.7927 353.947 64.1167 353.955 64.5167C353.955 64.8767 353.855 65.2007 353.655 65.4887C353.455 65.7767 353.171 66.0047 352.803 66.1727C352.443 66.3327 352.027 66.4127 351.555 66.4127ZM356.061 58.6607C355.853 58.6607 355.677 58.5887 355.533 58.4447C355.389 58.3007 355.317 58.1247 355.317 57.9167C355.317 57.7087 355.389 57.5327 355.533 57.3887C355.677 57.2447 355.853 57.1727 356.061 57.1727C356.261 57.1727 356.429 57.2447 356.565 57.3887C356.709 57.5327 356.781 57.7087 356.781 57.9167C356.781 58.1247 356.709 58.3007 356.565 58.4447C356.429 58.5887 356.261 58.6607 356.061 58.6607ZM356.589 59.7287V66.3047H355.497V59.7287H356.589ZM364.282 59.7287V66.3047H363.19V65.3327C362.982 65.6687 362.69 65.9327 362.314 66.1247C361.946 66.3087 361.538 66.4007 361.09 66.4007C360.578 66.4007 360.118 66.2967 359.71 66.0887C359.302 65.8727 358.978 65.5527 358.738 65.1287C358.506 64.7047 358.39 64.1887 358.39 63.5807V59.7287H359.47V63.4367C359.47 64.0847 359.634 64.5847 359.962 64.9367C360.29 65.2807 360.738 65.4527 361.306 65.4527C361.89 65.4527 362.35 65.2727 362.686 64.9127C363.022 64.5527 363.19 64.0287 363.19 63.3407V59.7287H364.282ZM374.033 59.6087C374.545 59.6087 375.001 59.7167 375.401 59.9327C375.801 60.1407 376.117 60.4567 376.349 60.8807C376.581 61.3047 376.697 61.8207 376.697 62.4287V66.3047H375.617V62.5847C375.617 61.9287 375.453 61.4287 375.125 61.0847C374.805 60.7327 374.369 60.5567 373.817 60.5567C373.249 60.5567 372.797 60.7407 372.461 61.1087C372.125 61.4687 371.957 61.9927 371.957 62.6807V66.3047H370.877V62.5847C370.877 61.9287 370.713 61.4287 370.385 61.0847C370.065 60.7327 369.629 60.5567 369.077 60.5567C368.509 60.5567 368.057 60.7407 367.721 61.1087C367.385 61.4687 367.217 61.9927 367.217 62.6807V66.3047H366.125V59.7287H367.217V60.6767C367.433 60.3327 367.721 60.0687 368.081 59.8847C368.449 59.7007 368.853 59.6087 369.293 59.6087C369.845 59.6087 370.333 59.7327 370.757 59.9807C371.181 60.2287 371.497 60.5927 371.705 61.0727C371.889 60.6087 372.193 60.2487 372.617 59.9927C373.041 59.7367 373.513 59.6087 374.033 59.6087Z" fill="#262626"/>
<path d="M320.527 58.0007V66.3047H319.435V60.1127L316.675 66.3047H315.907L313.135 60.1007V66.3047H312.043V58.0007H313.219L316.291 64.8647L319.363 58.0007H320.527ZM321.971 62.9927C321.971 62.3207 322.107 61.7327 322.379 61.2287C322.651 60.7167 323.023 60.3207 323.495 60.0407C323.975 59.7607 324.507 59.6207 325.091 59.6207C325.667 59.6207 326.167 59.7447 326.591 59.9927C327.015 60.2407 327.331 60.5527 327.539 60.9287V59.7287H328.643V66.3047H327.539V65.0807C327.323 65.4647 326.999 65.7847 326.567 66.0407C326.143 66.2887 325.647 66.4127 325.079 66.4127C324.495 66.4127 323.967 66.2687 323.495 65.9807C323.023 65.6927 322.651 65.2887 322.379 64.7687C322.107 64.2487 321.971 63.6567 321.971 62.9927ZM327.539 63.0047C327.539 62.5087 327.439 62.0767 327.239 61.7087C327.039 61.3407 326.767 61.0607 326.423 60.8687C326.087 60.6687 325.715 60.5687 325.307 60.5687C324.899 60.5687 324.527 60.6647 324.191 60.8567C323.855 61.0487 323.587 61.3287 323.387 61.6967C323.187 62.0647 323.087 62.4967 323.087 62.9927C323.087 63.4967 323.187 63.9367 323.387 64.3127C323.587 64.6807 323.855 64.9647 324.191 65.1647C324.527 65.3567 324.899 65.4527 325.307 65.4527C325.715 65.4527 326.087 65.3567 326.423 65.1647C326.767 64.9647 327.039 64.6807 327.239 64.3127C327.439 63.9367 327.539 63.5007 327.539 63.0047ZM333.201 59.6207C333.769 59.6207 334.265 59.7447 334.689 59.9927C335.121 60.2407 335.441 60.5527 335.649 60.9287V59.7287H336.753V66.4487C336.753 67.0487 336.625 67.5807 336.369 68.0447C336.113 68.5167 335.745 68.8847 335.265 69.1487C334.793 69.4127 334.241 69.5447 333.609 69.5447C332.745 69.5447 332.025 69.3407 331.449 68.9327C330.873 68.5247 330.533 67.9687 330.429 67.2647H331.509C331.629 67.6647 331.877 67.9847 332.253 68.2247C332.629 68.4727 333.081 68.5967 333.609 68.5967C334.209 68.5967 334.697 68.4087 335.073 68.0327C335.457 67.6567 335.649 67.1287 335.649 66.4487V65.0687C335.433 65.4527 335.113 65.7727 334.689 66.0287C334.265 66.2847 333.769 66.4127 333.201 66.4127C332.617 66.4127 332.085 66.2687 331.605 65.9807C331.133 65.6927 330.761 65.2887 330.489 64.7687C330.217 64.2487 330.081 63.6567 330.081 62.9927C330.081 62.3207 330.217 61.7327 330.489 61.2287C330.761 60.7167 331.133 60.3207 331.605 60.0407C332.085 59.7607 332.617 59.6207 333.201 59.6207ZM335.649 63.0047C335.649 62.5087 335.549 62.0767 335.349 61.7087C335.149 61.3407 334.877 61.0607 334.533 60.8687C334.197 60.6687 333.825 60.5687 333.417 60.5687C333.009 60.5687 332.637 60.6647 332.301 60.8567C331.965 61.0487 331.697 61.3287 331.497 61.6967C331.297 62.0647 331.197 62.4967 331.197 62.9927C331.197 63.4967 331.297 63.9367 331.497 64.3127C331.697 64.6807 331.965 64.9647 332.301 65.1647C332.637 65.3567 333.009 65.4527 333.417 65.4527C333.825 65.4527 334.197 65.3567 334.533 65.1647C334.877 64.9647 335.149 64.6807 335.349 64.3127C335.549 63.9367 335.649 63.5007 335.649 63.0047ZM341.802 59.6087C342.602 59.6087 343.25 59.8527 343.746 60.3407C344.242 60.8207 344.49 61.5167 344.49 62.4287V66.3047H343.41V62.5847C343.41 61.9287 343.246 61.4287 342.918 61.0847C342.59 60.7327 342.142 60.5567 341.574 60.5567C340.998 60.5567 340.538 60.7367 340.194 61.0967C339.858 61.4567 339.69 61.9807 339.69 62.6687V66.3047H338.598V59.7287H339.69V60.6647C339.906 60.3287 340.198 60.0687 340.566 59.8847C340.942 59.7007 341.354 59.6087 341.802 59.6087ZM346.838 58.6607C346.63 58.6607 346.454 58.5887 346.31 58.4447C346.166 58.3007 346.094 58.1247 346.094 57.9167C346.094 57.7087 346.166 57.5327 346.31 57.3887C346.454 57.2447 346.63 57.1727 346.838 57.1727C347.038 57.1727 347.206 57.2447 347.342 57.3887C347.486 57.5327 347.558 57.7087 347.558 57.9167C347.558 58.1247 347.486 58.3007 347.342 58.4447C347.206 58.5887 347.038 58.6607 346.838 58.6607ZM347.366 59.7287V66.3047H346.274V59.7287H347.366ZM351.555 66.4127C351.051 66.4127 350.599 66.3287 350.199 66.1607C349.799 65.9847 349.483 65.7447 349.251 65.4407C349.019 65.1287 348.891 64.7727 348.867 64.3727H349.995C350.027 64.7007 350.179 64.9687 350.451 65.1767C350.731 65.3847 351.095 65.4887 351.543 65.4887C351.959 65.4887 352.287 65.3967 352.527 65.2127C352.767 65.0287 352.887 64.7967 352.887 64.5167C352.887 64.2287 352.759 64.0167 352.503 63.8807C352.247 63.7367 351.851 63.5967 351.315 63.4607C350.827 63.3327 350.427 63.2047 350.115 63.0767C349.811 62.9407 349.547 62.7447 349.323 62.4887C349.107 62.2247 348.999 61.8807 348.999 61.4567C348.999 61.1207 349.099 60.8127 349.299 60.5327C349.499 60.2527 349.783 60.0327 350.151 59.8727C350.519 59.7047 350.939 59.6207 351.411 59.6207C352.139 59.6207 352.727 59.8047 353.175 60.1727C353.623 60.5407 353.863 61.0447 353.895 61.6847H352.803C352.779 61.3407 352.639 61.0647 352.383 60.8567C352.135 60.6487 351.799 60.5447 351.375 60.5447C350.983 60.5447 350.671 60.6287 350.439 60.7967C350.207 60.9647 350.091 61.1847 350.091 61.4567C350.091 61.6727 350.159 61.8527 350.295 61.9967C350.439 62.1327 350.615 62.2447 350.823 62.3327C351.039 62.4127 351.335 62.5047 351.711 62.6087C352.183 62.7367 352.567 62.8647 352.863 62.9927C353.159 63.1127 353.411 63.2967 353.619 63.5447C353.835 63.7927 353.947 64.1167 353.955 64.5167C353.955 64.8767 353.855 65.2007 353.655 65.4887C353.455 65.7767 353.171 66.0047 352.803 66.1727C352.443 66.3327 352.027 66.4127 351.555 66.4127ZM356.061 58.6607C355.853 58.6607 355.677 58.5887 355.533 58.4447C355.389 58.3007 355.317 58.1247 355.317 57.9167C355.317 57.7087 355.389 57.5327 355.533 57.3887C355.677 57.2447 355.853 57.1727 356.061 57.1727C356.261 57.1727 356.429 57.2447 356.565 57.3887C356.709 57.5327 356.781 57.7087 356.781 57.9167C356.781 58.1247 356.709 58.3007 356.565 58.4447C356.429 58.5887 356.261 58.6607 356.061 58.6607ZM356.589 59.7287V66.3047H355.497V59.7287H356.589ZM364.282 59.7287V66.3047H363.19V65.3327C362.982 65.6687 362.69 65.9327 362.314 66.1247C361.946 66.3087 361.538 66.4007 361.09 66.4007C360.578 66.4007 360.118 66.2967 359.71 66.0887C359.302 65.8727 358.978 65.5527 358.738 65.1287C358.506 64.7047 358.39 64.1887 358.39 63.5807V59.7287H359.47V63.4367C359.47 64.0847 359.634 64.5847 359.962 64.9367C360.29 65.2807 360.738 65.4527 361.306 65.4527C361.89 65.4527 362.35 65.2727 362.686 64.9127C363.022 64.5527 363.19 64.0287 363.19 63.3407V59.7287H364.282ZM374.033 59.6087C374.545 59.6087 375.001 59.7167 375.401 59.9327C375.801 60.1407 376.117 60.4567 376.349 60.8807C376.581 61.3047 376.697 61.8207 376.697 62.4287V66.3047H375.617V62.5847C375.617 61.9287 375.453 61.4287 375.125 61.0847C374.805 60.7327 374.369 60.5567 373.817 60.5567C373.249 60.5567 372.797 60.7407 372.461 61.1087C372.125 61.4687 371.957 61.9927 371.957 62.6807V66.3047H370.877V62.5847C370.877 61.9287 370.713 61.4287 370.385 61.0847C370.065 60.7327 369.629 60.5567 369.077 60.5567C368.509 60.5567 368.057 60.7407 367.721 61.1087C367.385 61.4687 367.217 61.9927 367.217 62.6807V66.3047H366.125V59.7287H367.217V60.6767C367.433 60.3327 367.721 60.0687 368.081 59.8847C368.449 59.7007 368.853 59.6087 369.293 59.6087C369.845 59.6087 370.333 59.7327 370.757 59.9807C371.181 60.2287 371.497 60.5927 371.705 61.0727C371.889 60.6087 372.193 60.2487 372.617 59.9927C373.041 59.7367 373.513 59.6087 374.033 59.6087Z" fill="#2367FF" fill-opacity="0.09"/>
<path d="M369.216 176.512H372.144V177.4H368.124V169.036H369.216V176.512ZM376.171 177.508C375.555 177.508 374.995 177.368 374.491 177.088C373.995 176.808 373.603 176.412 373.315 175.9C373.035 175.38 372.895 174.78 372.895 174.1C372.895 173.428 373.039 172.836 373.327 172.324C373.623 171.804 374.023 171.408 374.527 171.136C375.031 170.856 375.595 170.716 376.219 170.716C376.843 170.716 377.407 170.856 377.911 171.136C378.415 171.408 378.811 171.8 379.099 172.312C379.395 172.824 379.543 173.42 379.543 174.1C379.543 174.78 379.391 175.38 379.087 175.9C378.791 176.412 378.387 176.808 377.875 177.088C377.363 177.368 376.795 177.508 376.171 177.508ZM376.171 176.548C376.563 176.548 376.931 176.456 377.275 176.272C377.619 176.088 377.895 175.812 378.103 175.444C378.319 175.076 378.427 174.628 378.427 174.1C378.427 173.572 378.323 173.124 378.115 172.756C377.907 172.388 377.635 172.116 377.299 171.94C376.963 171.756 376.599 171.664 376.207 171.664C375.807 171.664 375.439 171.756 375.103 171.94C374.775 172.116 374.511 172.388 374.311 172.756C374.111 173.124 374.011 173.572 374.011 174.1C374.011 174.636 374.107 175.088 374.299 175.456C374.499 175.824 374.763 176.1 375.091 176.284C375.419 176.46 375.779 176.548 376.171 176.548ZM386.811 170.824V177.4H385.719V176.428C385.511 176.764 385.219 177.028 384.843 177.22C384.475 177.404 384.067 177.496 383.619 177.496C383.107 177.496 382.647 177.392 382.239 177.184C381.831 176.968 381.507 176.648 381.267 176.224C381.035 175.8 380.919 175.284 380.919 174.676V170.824H381.999V174.532C381.999 175.18 382.163 175.68 382.491 176.032C382.819 176.376 383.267 176.548 383.835 176.548C384.419 176.548 384.879 176.368 385.215 176.008C385.551 175.648 385.719 175.124 385.719 174.436V170.824H386.811ZM389.747 172.048C389.971 171.656 390.299 171.336 390.731 171.088C391.163 170.84 391.655 170.716 392.207 170.716C392.799 170.716 393.331 170.856 393.803 171.136C394.275 171.416 394.647 171.812 394.919 172.324C395.191 172.828 395.327 173.416 395.327 174.088C395.327 174.752 395.191 175.344 394.919 175.864C394.647 176.384 394.271 176.788 393.791 177.076C393.319 177.364 392.791 177.508 392.207 177.508C391.639 177.508 391.139 177.384 390.707 177.136C390.283 176.888 389.963 176.572 389.747 176.188V177.4H388.655V168.52H389.747V172.048ZM394.211 174.088C394.211 173.592 394.111 173.16 393.911 172.792C393.711 172.424 393.439 172.144 393.095 171.952C392.759 171.76 392.387 171.664 391.979 171.664C391.579 171.664 391.207 171.764 390.863 171.964C390.527 172.156 390.255 172.44 390.047 172.816C389.847 173.184 389.747 173.612 389.747 174.1C389.747 174.596 389.847 175.032 390.047 175.408C390.255 175.776 390.527 176.06 390.863 176.26C391.207 176.452 391.579 176.548 391.979 176.548C392.387 176.548 392.759 176.452 393.095 176.26C393.439 176.06 393.711 175.776 393.911 175.408C394.111 175.032 394.211 174.592 394.211 174.088ZM397.328 169.756C397.12 169.756 396.944 169.684 396.8 169.54C396.656 169.396 396.584 169.22 396.584 169.012C396.584 168.804 396.656 168.628 396.8 168.484C396.944 168.34 397.12 168.268 397.328 168.268C397.528 168.268 397.696 168.34 397.832 168.484C397.976 168.628 398.048 168.804 398.048 169.012C398.048 169.22 397.976 169.396 397.832 169.54C397.696 169.684 397.528 169.756 397.328 169.756ZM397.856 170.824V177.4H396.764V170.824H397.856ZM399.309 174.088C399.309 173.416 399.445 172.828 399.717 172.324C399.989 171.812 400.361 171.416 400.833 171.136C401.313 170.856 401.845 170.716 402.429 170.716C403.005 170.716 403.505 170.84 403.929 171.088C404.353 171.336 404.669 171.648 404.877 172.024V170.824H405.981V177.4H404.877V176.176C404.661 176.56 404.337 176.88 403.905 177.136C403.481 177.384 402.985 177.508 402.417 177.508C401.833 177.508 401.305 177.364 400.833 177.076C400.361 176.788 399.989 176.384 399.717 175.864C399.445 175.344 399.309 174.752 399.309 174.088ZM404.877 174.1C404.877 173.604 404.777 173.172 404.577 172.804C404.377 172.436 404.105 172.156 403.761 171.964C403.425 171.764 403.053 171.664 402.645 171.664C402.237 171.664 401.865 171.76 401.529 171.952C401.193 172.144 400.925 172.424 400.725 172.792C400.525 173.16 400.425 173.592 400.425 174.088C400.425 174.592 400.525 175.032 400.725 175.408C400.925 175.776 401.193 176.06 401.529 176.26C401.865 176.452 402.237 176.548 402.645 176.548C403.053 176.548 403.425 176.452 403.761 176.26C404.105 176.06 404.377 175.776 404.577 175.408C404.777 175.032 404.877 174.596 404.877 174.1Z" fill="#262626"/>
<path d="M369.216 176.512H372.144V177.4H368.124V169.036H369.216V176.512ZM376.171 177.508C375.555 177.508 374.995 177.368 374.491 177.088C373.995 176.808 373.603 176.412 373.315 175.9C373.035 175.38 372.895 174.78 372.895 174.1C372.895 173.428 373.039 172.836 373.327 172.324C373.623 171.804 374.023 171.408 374.527 171.136C375.031 170.856 375.595 170.716 376.219 170.716C376.843 170.716 377.407 170.856 377.911 171.136C378.415 171.408 378.811 171.8 379.099 172.312C379.395 172.824 379.543 173.42 379.543 174.1C379.543 174.78 379.391 175.38 379.087 175.9C378.791 176.412 378.387 176.808 377.875 177.088C377.363 177.368 376.795 177.508 376.171 177.508ZM376.171 176.548C376.563 176.548 376.931 176.456 377.275 176.272C377.619 176.088 377.895 175.812 378.103 175.444C378.319 175.076 378.427 174.628 378.427 174.1C378.427 173.572 378.323 173.124 378.115 172.756C377.907 172.388 377.635 172.116 377.299 171.94C376.963 171.756 376.599 171.664 376.207 171.664C375.807 171.664 375.439 171.756 375.103 171.94C374.775 172.116 374.511 172.388 374.311 172.756C374.111 173.124 374.011 173.572 374.011 174.1C374.011 174.636 374.107 175.088 374.299 175.456C374.499 175.824 374.763 176.1 375.091 176.284C375.419 176.46 375.779 176.548 376.171 176.548ZM386.811 170.824V177.4H385.719V176.428C385.511 176.764 385.219 177.028 384.843 177.22C384.475 177.404 384.067 177.496 383.619 177.496C383.107 177.496 382.647 177.392 382.239 177.184C381.831 176.968 381.507 176.648 381.267 176.224C381.035 175.8 380.919 175.284 380.919 174.676V170.824H381.999V174.532C381.999 175.18 382.163 175.68 382.491 176.032C382.819 176.376 383.267 176.548 383.835 176.548C384.419 176.548 384.879 176.368 385.215 176.008C385.551 175.648 385.719 175.124 385.719 174.436V170.824H386.811ZM389.747 172.048C389.971 171.656 390.299 171.336 390.731 171.088C391.163 170.84 391.655 170.716 392.207 170.716C392.799 170.716 393.331 170.856 393.803 171.136C394.275 171.416 394.647 171.812 394.919 172.324C395.191 172.828 395.327 173.416 395.327 174.088C395.327 174.752 395.191 175.344 394.919 175.864C394.647 176.384 394.271 176.788 393.791 177.076C393.319 177.364 392.791 177.508 392.207 177.508C391.639 177.508 391.139 177.384 390.707 177.136C390.283 176.888 389.963 176.572 389.747 176.188V177.4H388.655V168.52H389.747V172.048ZM394.211 174.088C394.211 173.592 394.111 173.16 393.911 172.792C393.711 172.424 393.439 172.144 393.095 171.952C392.759 171.76 392.387 171.664 391.979 171.664C391.579 171.664 391.207 171.764 390.863 171.964C390.527 172.156 390.255 172.44 390.047 172.816C389.847 173.184 389.747 173.612 389.747 174.1C389.747 174.596 389.847 175.032 390.047 175.408C390.255 175.776 390.527 176.06 390.863 176.26C391.207 176.452 391.579 176.548 391.979 176.548C392.387 176.548 392.759 176.452 393.095 176.26C393.439 176.06 393.711 175.776 393.911 175.408C394.111 175.032 394.211 174.592 394.211 174.088ZM397.328 169.756C397.12 169.756 396.944 169.684 396.8 169.54C396.656 169.396 396.584 169.22 396.584 169.012C396.584 168.804 396.656 168.628 396.8 168.484C396.944 168.34 397.12 168.268 397.328 168.268C397.528 168.268 397.696 168.34 397.832 168.484C397.976 168.628 398.048 168.804 398.048 169.012C398.048 169.22 397.976 169.396 397.832 169.54C397.696 169.684 397.528 169.756 397.328 169.756ZM397.856 170.824V177.4H396.764V170.824H397.856ZM399.309 174.088C399.309 173.416 399.445 172.828 399.717 172.324C399.989 171.812 400.361 171.416 400.833 171.136C401.313 170.856 401.845 170.716 402.429 170.716C403.005 170.716 403.505 170.84 403.929 171.088C404.353 171.336 404.669 171.648 404.877 172.024V170.824H405.981V177.4H404.877V176.176C404.661 176.56 404.337 176.88 403.905 177.136C403.481 177.384 402.985 177.508 402.417 177.508C401.833 177.508 401.305 177.364 400.833 177.076C400.361 176.788 399.989 176.384 399.717 175.864C399.445 175.344 399.309 174.752 399.309 174.088ZM404.877 174.1C404.877 173.604 404.777 173.172 404.577 172.804C404.377 172.436 404.105 172.156 403.761 171.964C403.425 171.764 403.053 171.664 402.645 171.664C402.237 171.664 401.865 171.76 401.529 171.952C401.193 172.144 400.925 172.424 400.725 172.792C400.525 173.16 400.425 173.592 400.425 174.088C400.425 174.592 400.525 175.032 400.725 175.408C400.925 175.776 401.193 176.06 401.529 176.26C401.865 176.452 402.237 176.548 402.645 176.548C403.053 176.548 403.425 176.452 403.761 176.26C404.105 176.06 404.377 175.776 404.577 175.408C404.777 175.032 404.877 174.596 404.877 174.1Z" fill="#2367FF" fill-opacity="0.09"/>
<path d="M312.472 305.036V305.924H310.192V313.4H309.1V305.924H306.808V305.036H312.472ZM316.684 313.508C316.068 313.508 315.508 313.368 315.004 313.088C314.508 312.808 314.116 312.412 313.828 311.9C313.548 311.38 313.408 310.78 313.408 310.1C313.408 309.428 313.552 308.836 313.84 308.324C314.136 307.804 314.536 307.408 315.04 307.136C315.544 306.856 316.108 306.716 316.732 306.716C317.356 306.716 317.92 306.856 318.424 307.136C318.928 307.408 319.324 307.8 319.612 308.312C319.908 308.824 320.056 309.42 320.056 310.1C320.056 310.78 319.904 311.38 319.6 311.9C319.304 312.412 318.9 312.808 318.388 313.088C317.876 313.368 317.308 313.508 316.684 313.508ZM316.684 312.548C317.076 312.548 317.444 312.456 317.788 312.272C318.132 312.088 318.408 311.812 318.616 311.444C318.832 311.076 318.94 310.628 318.94 310.1C318.94 309.572 318.836 309.124 318.628 308.756C318.42 308.388 318.148 308.116 317.812 307.94C317.476 307.756 317.112 307.664 316.72 307.664C316.32 307.664 315.952 307.756 315.616 307.94C315.288 308.116 315.024 308.388 314.824 308.756C314.624 309.124 314.524 309.572 314.524 310.1C314.524 310.636 314.62 311.088 314.812 311.456C315.012 311.824 315.276 312.1 315.604 312.284C315.932 312.46 316.292 312.548 316.684 312.548ZM329.4 306.704C329.912 306.704 330.368 306.812 330.768 307.028C331.168 307.236 331.484 307.552 331.716 307.976C331.948 308.4 332.064 308.916 332.064 309.524V313.4H330.984V309.68C330.984 309.024 330.82 308.524 330.492 308.18C330.172 307.828 329.736 307.652 329.184 307.652C328.616 307.652 328.164 307.836 327.828 308.204C327.492 308.564 327.324 309.088 327.324 309.776V313.4H326.244V309.68C326.244 309.024 326.08 308.524 325.752 308.18C325.432 307.828 324.996 307.652 324.444 307.652C323.876 307.652 323.424 307.836 323.088 308.204C322.752 308.564 322.584 309.088 322.584 309.776V313.4H321.492V306.824H322.584V307.772C322.8 307.428 323.088 307.164 323.448 306.98C323.816 306.796 324.22 306.704 324.66 306.704C325.212 306.704 325.7 306.828 326.124 307.076C326.548 307.324 326.864 307.688 327.072 308.168C327.256 307.704 327.56 307.344 327.984 307.088C328.408 306.832 328.88 306.704 329.4 306.704ZM333.447 310.088C333.447 309.416 333.583 308.828 333.855 308.324C334.127 307.812 334.499 307.416 334.971 307.136C335.451 306.856 335.983 306.716 336.567 306.716C337.143 306.716 337.643 306.84 338.067 307.088C338.491 307.336 338.807 307.648 339.015 308.024V306.824H340.119V313.4H339.015V312.176C338.799 312.56 338.475 312.88 338.043 313.136C337.619 313.384 337.123 313.508 336.555 313.508C335.971 313.508 335.443 313.364 334.971 313.076C334.499 312.788 334.127 312.384 333.855 311.864C333.583 311.344 333.447 310.752 333.447 310.088ZM339.015 310.1C339.015 309.604 338.915 309.172 338.715 308.804C338.515 308.436 338.243 308.156 337.899 307.964C337.563 307.764 337.191 307.664 336.783 307.664C336.375 307.664 336.003 307.76 335.667 307.952C335.331 308.144 335.063 308.424 334.863 308.792C334.663 309.16 334.563 309.592 334.563 310.088C334.563 310.592 334.663 311.032 334.863 311.408C335.063 311.776 335.331 312.06 335.667 312.26C336.003 312.452 336.375 312.548 336.783 312.548C337.191 312.548 337.563 312.452 337.899 312.26C338.243 312.06 338.515 311.776 338.715 311.408C338.915 311.032 339.015 310.596 339.015 310.1ZM343.296 307.724V311.6C343.296 311.92 343.364 312.148 343.5 312.284C343.636 312.412 343.872 312.476 344.208 312.476H345.012V313.4H344.028C343.42 313.4 342.964 313.26 342.66 312.98C342.356 312.7 342.204 312.24 342.204 311.6V307.724H341.352V306.824H342.204V305.168H343.296V306.824H345.012V307.724H343.296ZM349.203 313.508C348.587 313.508 348.027 313.368 347.523 313.088C347.027 312.808 346.635 312.412 346.347 311.9C346.067 311.38 345.927 310.78 345.927 310.1C345.927 309.428 346.071 308.836 346.359 308.324C346.655 307.804 347.055 307.408 347.559 307.136C348.063 306.856 348.627 306.716 349.251 306.716C349.875 306.716 350.439 306.856 350.943 307.136C351.447 307.408 351.843 307.8 352.131 308.312C352.427 308.824 352.575 309.42 352.575 310.1C352.575 310.78 352.423 311.38 352.119 311.9C351.823 312.412 351.419 312.808 350.907 313.088C350.395 313.368 349.827 313.508 349.203 313.508ZM349.203 312.548C349.595 312.548 349.963 312.456 350.307 312.272C350.651 312.088 350.927 311.812 351.135 311.444C351.351 311.076 351.459 310.628 351.459 310.1C351.459 309.572 351.355 309.124 351.147 308.756C350.939 308.388 350.667 308.116 350.331 307.94C349.995 307.756 349.631 307.664 349.239 307.664C348.839 307.664 348.471 307.756 348.135 307.94C347.807 308.116 347.543 308.388 347.343 308.756C347.143 309.124 347.043 309.572 347.043 310.1C347.043 310.636 347.139 311.088 347.331 311.456C347.531 311.824 347.795 312.1 348.123 312.284C348.451 312.46 348.811 312.548 349.203 312.548ZM360.011 309.86C360.011 310.068 359.999 310.288 359.975 310.52H354.719C354.759 311.168 354.979 311.676 355.379 312.044C355.787 312.404 356.279 312.584 356.855 312.584C357.327 312.584 357.719 312.476 358.031 312.26C358.351 312.036 358.575 311.74 358.703 311.372H359.879C359.703 312.004 359.351 312.52 358.823 312.92C358.295 313.312 357.639 313.508 356.855 313.508C356.231 313.508 355.671 313.368 355.175 313.088C354.687 312.808 354.303 312.412 354.023 311.9C353.743 311.38 353.603 310.78 353.603 310.1C353.603 309.42 353.739 308.824 354.011 308.312C354.283 307.8 354.663 307.408 355.151 307.136C355.647 306.856 356.215 306.716 356.855 306.716C357.479 306.716 358.031 306.852 358.511 307.124C358.991 307.396 359.359 307.772 359.615 308.252C359.879 308.724 360.011 309.26 360.011 309.86ZM358.883 309.632C358.883 309.216 358.791 308.86 358.607 308.564C358.423 308.26 358.171 308.032 357.851 307.88C357.539 307.72 357.191 307.64 356.807 307.64C356.255 307.64 355.783 307.816 355.391 308.168C355.007 308.52 354.787 309.008 354.731 309.632H358.883ZM363.781 313.508C363.277 313.508 362.825 313.424 362.425 313.256C362.025 313.08 361.709 312.84 361.477 312.536C361.245 312.224 361.117 311.868 361.093 311.468H362.221C362.253 311.796 362.405 312.064 362.677 312.272C362.957 312.48 363.321 312.584 363.769 312.584C364.185 312.584 364.513 312.492 364.753 312.308C364.993 312.124 365.113 311.892 365.113 311.612C365.113 311.324 364.985 311.112 364.729 310.976C364.473 310.832 364.077 310.692 363.541 310.556C363.053 310.428 362.653 310.3 362.341 310.172C362.037 310.036 361.773 309.84 361.549 309.584C361.333 309.32 361.225 308.976 361.225 308.552C361.225 308.216 361.325 307.908 361.525 307.628C361.725 307.348 362.009 307.128 362.377 306.968C362.745 306.8 363.165 306.716 363.637 306.716C364.365 306.716 364.953 306.9 365.401 307.268C365.849 307.636 366.089 308.14 366.121 308.78H365.029C365.005 308.436 364.865 308.16 364.609 307.952C364.361 307.744 364.025 307.64 363.601 307.64C363.209 307.64 362.897 307.724 362.665 307.892C362.433 308.06 362.317 308.28 362.317 308.552C362.317 308.768 362.385 308.948 362.521 309.092C362.665 309.228 362.841 309.34 363.049 309.428C363.265 309.508 363.561 309.6 363.937 309.704C364.409 309.832 364.793 309.96 365.089 310.088C365.385 310.208 365.637 310.392 365.845 310.64C366.061 310.888 366.173 311.212 366.181 311.612C366.181 311.972 366.081 312.296 365.881 312.584C365.681 312.872 365.397 313.1 365.029 313.268C364.669 313.428 364.253 313.508 363.781 313.508Z" fill="#262626"/>
<path d="M312.472 305.036V305.924H310.192V313.4H309.1V305.924H306.808V305.036H312.472ZM316.684 313.508C316.068 313.508 315.508 313.368 315.004 313.088C314.508 312.808 314.116 312.412 313.828 311.9C313.548 311.38 313.408 310.78 313.408 310.1C313.408 309.428 313.552 308.836 313.84 308.324C314.136 307.804 314.536 307.408 315.04 307.136C315.544 306.856 316.108 306.716 316.732 306.716C317.356 306.716 317.92 306.856 318.424 307.136C318.928 307.408 319.324 307.8 319.612 308.312C319.908 308.824 320.056 309.42 320.056 310.1C320.056 310.78 319.904 311.38 319.6 311.9C319.304 312.412 318.9 312.808 318.388 313.088C317.876 313.368 317.308 313.508 316.684 313.508ZM316.684 312.548C317.076 312.548 317.444 312.456 317.788 312.272C318.132 312.088 318.408 311.812 318.616 311.444C318.832 311.076 318.94 310.628 318.94 310.1C318.94 309.572 318.836 309.124 318.628 308.756C318.42 308.388 318.148 308.116 317.812 307.94C317.476 307.756 317.112 307.664 316.72 307.664C316.32 307.664 315.952 307.756 315.616 307.94C315.288 308.116 315.024 308.388 314.824 308.756C314.624 309.124 314.524 309.572 314.524 310.1C314.524 310.636 314.62 311.088 314.812 311.456C315.012 311.824 315.276 312.1 315.604 312.284C315.932 312.46 316.292 312.548 316.684 312.548ZM329.4 306.704C329.912 306.704 330.368 306.812 330.768 307.028C331.168 307.236 331.484 307.552 331.716 307.976C331.948 308.4 332.064 308.916 332.064 309.524V313.4H330.984V309.68C330.984 309.024 330.82 308.524 330.492 308.18C330.172 307.828 329.736 307.652 329.184 307.652C328.616 307.652 328.164 307.836 327.828 308.204C327.492 308.564 327.324 309.088 327.324 309.776V313.4H326.244V309.68C326.244 309.024 326.08 308.524 325.752 308.18C325.432 307.828 324.996 307.652 324.444 307.652C323.876 307.652 323.424 307.836 323.088 308.204C322.752 308.564 322.584 309.088 322.584 309.776V313.4H321.492V306.824H322.584V307.772C322.8 307.428 323.088 307.164 323.448 306.98C323.816 306.796 324.22 306.704 324.66 306.704C325.212 306.704 325.7 306.828 326.124 307.076C326.548 307.324 326.864 307.688 327.072 308.168C327.256 307.704 327.56 307.344 327.984 307.088C328.408 306.832 328.88 306.704 329.4 306.704ZM333.447 310.088C333.447 309.416 333.583 308.828 333.855 308.324C334.127 307.812 334.499 307.416 334.971 307.136C335.451 306.856 335.983 306.716 336.567 306.716C337.143 306.716 337.643 306.84 338.067 307.088C338.491 307.336 338.807 307.648 339.015 308.024V306.824H340.119V313.4H339.015V312.176C338.799 312.56 338.475 312.88 338.043 313.136C337.619 313.384 337.123 313.508 336.555 313.508C335.971 313.508 335.443 313.364 334.971 313.076C334.499 312.788 334.127 312.384 333.855 311.864C333.583 311.344 333.447 310.752 333.447 310.088ZM339.015 310.1C339.015 309.604 338.915 309.172 338.715 308.804C338.515 308.436 338.243 308.156 337.899 307.964C337.563 307.764 337.191 307.664 336.783 307.664C336.375 307.664 336.003 307.76 335.667 307.952C335.331 308.144 335.063 308.424 334.863 308.792C334.663 309.16 334.563 309.592 334.563 310.088C334.563 310.592 334.663 311.032 334.863 311.408C335.063 311.776 335.331 312.06 335.667 312.26C336.003 312.452 336.375 312.548 336.783 312.548C337.191 312.548 337.563 312.452 337.899 312.26C338.243 312.06 338.515 311.776 338.715 311.408C338.915 311.032 339.015 310.596 339.015 310.1ZM343.296 307.724V311.6C343.296 311.92 343.364 312.148 343.5 312.284C343.636 312.412 343.872 312.476 344.208 312.476H345.012V313.4H344.028C343.42 313.4 342.964 313.26 342.66 312.98C342.356 312.7 342.204 312.24 342.204 311.6V307.724H341.352V306.824H342.204V305.168H343.296V306.824H345.012V307.724H343.296ZM349.203 313.508C348.587 313.508 348.027 313.368 347.523 313.088C347.027 312.808 346.635 312.412 346.347 311.9C346.067 311.38 345.927 310.78 345.927 310.1C345.927 309.428 346.071 308.836 346.359 308.324C346.655 307.804 347.055 307.408 347.559 307.136C348.063 306.856 348.627 306.716 349.251 306.716C349.875 306.716 350.439 306.856 350.943 307.136C351.447 307.408 351.843 307.8 352.131 308.312C352.427 308.824 352.575 309.42 352.575 310.1C352.575 310.78 352.423 311.38 352.119 311.9C351.823 312.412 351.419 312.808 350.907 313.088C350.395 313.368 349.827 313.508 349.203 313.508ZM349.203 312.548C349.595 312.548 349.963 312.456 350.307 312.272C350.651 312.088 350.927 311.812 351.135 311.444C351.351 311.076 351.459 310.628 351.459 310.1C351.459 309.572 351.355 309.124 351.147 308.756C350.939 308.388 350.667 308.116 350.331 307.94C349.995 307.756 349.631 307.664 349.239 307.664C348.839 307.664 348.471 307.756 348.135 307.94C347.807 308.116 347.543 308.388 347.343 308.756C347.143 309.124 347.043 309.572 347.043 310.1C347.043 310.636 347.139 311.088 347.331 311.456C347.531 311.824 347.795 312.1 348.123 312.284C348.451 312.46 348.811 312.548 349.203 312.548ZM360.011 309.86C360.011 310.068 359.999 310.288 359.975 310.52H354.719C354.759 311.168 354.979 311.676 355.379 312.044C355.787 312.404 356.279 312.584 356.855 312.584C357.327 312.584 357.719 312.476 358.031 312.26C358.351 312.036 358.575 311.74 358.703 311.372H359.879C359.703 312.004 359.351 312.52 358.823 312.92C358.295 313.312 357.639 313.508 356.855 313.508C356.231 313.508 355.671 313.368 355.175 313.088C354.687 312.808 354.303 312.412 354.023 311.9C353.743 311.38 353.603 310.78 353.603 310.1C353.603 309.42 353.739 308.824 354.011 308.312C354.283 307.8 354.663 307.408 355.151 307.136C355.647 306.856 356.215 306.716 356.855 306.716C357.479 306.716 358.031 306.852 358.511 307.124C358.991 307.396 359.359 307.772 359.615 308.252C359.879 308.724 360.011 309.26 360.011 309.86ZM358.883 309.632C358.883 309.216 358.791 308.86 358.607 308.564C358.423 308.26 358.171 308.032 357.851 307.88C357.539 307.72 357.191 307.64 356.807 307.64C356.255 307.64 355.783 307.816 355.391 308.168C355.007 308.52 354.787 309.008 354.731 309.632H358.883ZM363.781 313.508C363.277 313.508 362.825 313.424 362.425 313.256C362.025 313.08 361.709 312.84 361.477 312.536C361.245 312.224 361.117 311.868 361.093 311.468H362.221C362.253 311.796 362.405 312.064 362.677 312.272C362.957 312.48 363.321 312.584 363.769 312.584C364.185 312.584 364.513 312.492 364.753 312.308C364.993 312.124 365.113 311.892 365.113 311.612C365.113 311.324 364.985 311.112 364.729 310.976C364.473 310.832 364.077 310.692 363.541 310.556C363.053 310.428 362.653 310.3 362.341 310.172C362.037 310.036 361.773 309.84 361.549 309.584C361.333 309.32 361.225 308.976 361.225 308.552C361.225 308.216 361.325 307.908 361.525 307.628C361.725 307.348 362.009 307.128 362.377 306.968C362.745 306.8 363.165 306.716 363.637 306.716C364.365 306.716 364.953 306.9 365.401 307.268C365.849 307.636 366.089 308.14 366.121 308.78H365.029C365.005 308.436 364.865 308.16 364.609 307.952C364.361 307.744 364.025 307.64 363.601 307.64C363.209 307.64 362.897 307.724 362.665 307.892C362.433 308.06 362.317 308.28 362.317 308.552C362.317 308.768 362.385 308.948 362.521 309.092C362.665 309.228 362.841 309.34 363.049 309.428C363.265 309.508 363.561 309.6 363.937 309.704C364.409 309.832 364.793 309.96 365.089 310.088C365.385 310.208 365.637 310.392 365.845 310.64C366.061 310.888 366.173 311.212 366.181 311.612C366.181 311.972 366.081 312.296 365.881 312.584C365.681 312.872 365.397 313.1 365.029 313.268C364.669 313.428 364.253 313.508 363.781 313.508Z" fill="#2367FF" fill-opacity="0.09"/>
<path d="M360.02 122.041C359.244 122.041 358.536 121.861 357.896 121.501C357.256 121.133 356.748 120.625 356.372 119.977C356.004 119.321 355.82 118.585 355.82 117.769C355.82 116.953 356.004 116.221 356.372 115.573C356.748 114.917 357.256 114.409 357.896 114.049C358.536 113.681 359.244 113.497 360.02 113.497C360.804 113.497 361.516 113.681 362.156 114.049C362.796 114.409 363.3 114.913 363.668 115.561C364.036 116.209 364.22 116.945 364.22 117.769C364.22 118.593 364.036 119.329 363.668 119.977C363.3 120.625 362.796 121.133 362.156 121.501C361.516 121.861 360.804 122.041 360.02 122.041ZM360.02 121.093C360.604 121.093 361.128 120.957 361.592 120.685C362.064 120.413 362.432 120.025 362.696 119.521C362.968 119.017 363.104 118.433 363.104 117.769C363.104 117.097 362.968 116.513 362.696 116.017C362.432 115.513 362.068 115.125 361.604 114.853C361.14 114.581 360.612 114.445 360.02 114.445C359.428 114.445 358.9 114.581 358.436 114.853C357.972 115.125 357.604 115.513 357.332 116.017C357.068 116.513 356.936 117.097 356.936 117.769C356.936 118.433 357.068 119.017 357.332 119.521C357.604 120.025 357.972 120.413 358.436 120.685C358.908 120.957 359.436 121.093 360.02 121.093ZM368.866 115.261C369.666 115.261 370.314 115.505 370.81 115.993C371.306 116.473 371.554 117.169 371.554 118.081V121.957H370.474V118.237C370.474 117.581 370.31 117.081 369.982 116.737C369.654 116.385 369.206 116.209 368.638 116.209C368.062 116.209 367.602 116.389 367.258 116.749C366.922 117.109 366.754 117.633 366.754 118.321V121.957H365.662V115.381H366.754V116.317C366.97 115.981 367.262 115.721 367.63 115.537C368.006 115.353 368.418 115.261 368.866 115.261ZM373.901 114.313C373.693 114.313 373.517 114.241 373.373 114.097C373.229 113.953 373.157 113.777 373.157 113.569C373.157 113.361 373.229 113.185 373.373 113.041C373.517 112.897 373.693 112.825 373.901 112.825C374.101 112.825 374.269 112.897 374.405 113.041C374.549 113.185 374.621 113.361 374.621 113.569C374.621 113.777 374.549 113.953 374.405 114.097C374.269 114.241 374.101 114.313 373.901 114.313ZM374.429 115.381V121.957H373.337V115.381H374.429ZM379.158 122.065C378.542 122.065 377.982 121.925 377.478 121.645C376.982 121.365 376.59 120.969 376.302 120.457C376.022 119.937 375.882 119.337 375.882 118.657C375.882 117.985 376.026 117.393 376.314 116.881C376.61 116.361 377.01 115.965 377.514 115.693C378.018 115.413 378.582 115.273 379.206 115.273C379.83 115.273 380.394 115.413 380.898 115.693C381.402 115.965 381.798 116.357 382.086 116.869C382.382 117.381 382.53 117.977 382.53 118.657C382.53 119.337 382.378 119.937 382.074 120.457C381.778 120.969 381.374 121.365 380.862 121.645C380.35 121.925 379.782 122.065 379.158 122.065ZM379.158 121.105C379.55 121.105 379.918 121.013 380.262 120.829C380.606 120.645 380.882 120.369 381.09 120.001C381.306 119.633 381.414 119.185 381.414 118.657C381.414 118.129 381.31 117.681 381.102 117.313C380.894 116.945 380.622 116.673 380.286 116.497C379.95 116.313 379.586 116.221 379.194 116.221C378.794 116.221 378.426 116.313 378.09 116.497C377.762 116.673 377.498 116.945 377.298 117.313C377.098 117.681 376.998 118.129 376.998 118.657C376.998 119.193 377.094 119.645 377.286 120.013C377.486 120.381 377.75 120.657 378.078 120.841C378.406 121.017 378.766 121.105 379.158 121.105ZM387.17 115.261C387.97 115.261 388.618 115.505 389.114 115.993C389.61 116.473 389.858 117.169 389.858 118.081V121.957H388.778V118.237C388.778 117.581 388.614 117.081 388.286 116.737C387.958 116.385 387.51 116.209 386.942 116.209C386.366 116.209 385.906 116.389 385.562 116.749C385.226 117.109 385.058 117.633 385.058 118.321V121.957H383.966V115.381H385.058V116.317C385.274 115.981 385.566 115.721 385.934 115.537C386.31 115.353 386.722 115.261 387.17 115.261ZM393.97 122.065C393.466 122.065 393.014 121.981 392.614 121.813C392.214 121.637 391.898 121.397 391.666 121.093C391.434 120.781 391.306 120.425 391.282 120.025H392.41C392.442 120.353 392.594 120.621 392.866 120.829C393.146 121.037 393.51 121.141 393.958 121.141C394.374 121.141 394.702 121.049 394.942 120.865C395.182 120.681 395.302 120.449 395.302 120.169C395.302 119.881 395.174 119.669 394.918 119.533C394.662 119.389 394.266 119.249 393.73 119.113C393.242 118.985 392.842 118.857 392.53 118.729C392.226 118.593 391.962 118.397 391.738 118.141C391.522 117.877 391.414 117.533 391.414 117.109C391.414 116.773 391.514 116.465 391.714 116.185C391.914 115.905 392.198 115.685 392.566 115.525C392.934 115.357 393.354 115.273 393.826 115.273C394.554 115.273 395.142 115.457 395.59 115.825C396.038 116.193 396.278 116.697 396.31 117.337H395.218C395.194 116.993 395.054 116.717 394.798 116.509C394.55 116.301 394.214 116.197 393.79 116.197C393.398 116.197 393.086 116.281 392.854 116.449C392.622 116.617 392.506 116.837 392.506 117.109C392.506 117.325 392.574 117.505 392.71 117.649C392.854 117.785 393.03 117.897 393.238 117.985C393.454 118.065 393.75 118.157 394.126 118.261C394.598 118.389 394.982 118.517 395.278 118.645C395.574 118.765 395.826 118.949 396.034 119.197C396.25 119.445 396.362 119.769 396.37 120.169C396.37 120.529 396.27 120.853 396.07 121.141C395.87 121.429 395.586 121.657 395.218 121.825C394.858 121.985 394.442 122.065 393.97 122.065Z" fill="#262626"/>
<path d="M360.02 122.041C359.244 122.041 358.536 121.861 357.896 121.501C357.256 121.133 356.748 120.625 356.372 119.977C356.004 119.321 355.82 118.585 355.82 117.769C355.82 116.953 356.004 116.221 356.372 115.573C356.748 114.917 357.256 114.409 357.896 114.049C358.536 113.681 359.244 113.497 360.02 113.497C360.804 113.497 361.516 113.681 362.156 114.049C362.796 114.409 363.3 114.913 363.668 115.561C364.036 116.209 364.22 116.945 364.22 117.769C364.22 118.593 364.036 119.329 363.668 119.977C363.3 120.625 362.796 121.133 362.156 121.501C361.516 121.861 360.804 122.041 360.02 122.041ZM360.02 121.093C360.604 121.093 361.128 120.957 361.592 120.685C362.064 120.413 362.432 120.025 362.696 119.521C362.968 119.017 363.104 118.433 363.104 117.769C363.104 117.097 362.968 116.513 362.696 116.017C362.432 115.513 362.068 115.125 361.604 114.853C361.14 114.581 360.612 114.445 360.02 114.445C359.428 114.445 358.9 114.581 358.436 114.853C357.972 115.125 357.604 115.513 357.332 116.017C357.068 116.513 356.936 117.097 356.936 117.769C356.936 118.433 357.068 119.017 357.332 119.521C357.604 120.025 357.972 120.413 358.436 120.685C358.908 120.957 359.436 121.093 360.02 121.093ZM368.866 115.261C369.666 115.261 370.314 115.505 370.81 115.993C371.306 116.473 371.554 117.169 371.554 118.081V121.957H370.474V118.237C370.474 117.581 370.31 117.081 369.982 116.737C369.654 116.385 369.206 116.209 368.638 116.209C368.062 116.209 367.602 116.389 367.258 116.749C366.922 117.109 366.754 117.633 366.754 118.321V121.957H365.662V115.381H366.754V116.317C366.97 115.981 367.262 115.721 367.63 115.537C368.006 115.353 368.418 115.261 368.866 115.261ZM373.901 114.313C373.693 114.313 373.517 114.241 373.373 114.097C373.229 113.953 373.157 113.777 373.157 113.569C373.157 113.361 373.229 113.185 373.373 113.041C373.517 112.897 373.693 112.825 373.901 112.825C374.101 112.825 374.269 112.897 374.405 113.041C374.549 113.185 374.621 113.361 374.621 113.569C374.621 113.777 374.549 113.953 374.405 114.097C374.269 114.241 374.101 114.313 373.901 114.313ZM374.429 115.381V121.957H373.337V115.381H374.429ZM379.158 122.065C378.542 122.065 377.982 121.925 377.478 121.645C376.982 121.365 376.59 120.969 376.302 120.457C376.022 119.937 375.882 119.337 375.882 118.657C375.882 117.985 376.026 117.393 376.314 116.881C376.61 116.361 377.01 115.965 377.514 115.693C378.018 115.413 378.582 115.273 379.206 115.273C379.83 115.273 380.394 115.413 380.898 115.693C381.402 115.965 381.798 116.357 382.086 116.869C382.382 117.381 382.53 117.977 382.53 118.657C382.53 119.337 382.378 119.937 382.074 120.457C381.778 120.969 381.374 121.365 380.862 121.645C380.35 121.925 379.782 122.065 379.158 122.065ZM379.158 121.105C379.55 121.105 379.918 121.013 380.262 120.829C380.606 120.645 380.882 120.369 381.09 120.001C381.306 119.633 381.414 119.185 381.414 118.657C381.414 118.129 381.31 117.681 381.102 117.313C380.894 116.945 380.622 116.673 380.286 116.497C379.95 116.313 379.586 116.221 379.194 116.221C378.794 116.221 378.426 116.313 378.09 116.497C377.762 116.673 377.498 116.945 377.298 117.313C377.098 117.681 376.998 118.129 376.998 118.657C376.998 119.193 377.094 119.645 377.286 120.013C377.486 120.381 377.75 120.657 378.078 120.841C378.406 121.017 378.766 121.105 379.158 121.105ZM387.17 115.261C387.97 115.261 388.618 115.505 389.114 115.993C389.61 116.473 389.858 117.169 389.858 118.081V121.957H388.778V118.237C388.778 117.581 388.614 117.081 388.286 116.737C387.958 116.385 387.51 116.209 386.942 116.209C386.366 116.209 385.906 116.389 385.562 116.749C385.226 117.109 385.058 117.633 385.058 118.321V121.957H383.966V115.381H385.058V116.317C385.274 115.981 385.566 115.721 385.934 115.537C386.31 115.353 386.722 115.261 387.17 115.261ZM393.97 122.065C393.466 122.065 393.014 121.981 392.614 121.813C392.214 121.637 391.898 121.397 391.666 121.093C391.434 120.781 391.306 120.425 391.282 120.025H392.41C392.442 120.353 392.594 120.621 392.866 120.829C393.146 121.037 393.51 121.141 393.958 121.141C394.374 121.141 394.702 121.049 394.942 120.865C395.182 120.681 395.302 120.449 395.302 120.169C395.302 119.881 395.174 119.669 394.918 119.533C394.662 119.389 394.266 119.249 393.73 119.113C393.242 118.985 392.842 118.857 392.53 118.729C392.226 118.593 391.962 118.397 391.738 118.141C391.522 117.877 391.414 117.533 391.414 117.109C391.414 116.773 391.514 116.465 391.714 116.185C391.914 115.905 392.198 115.685 392.566 115.525C392.934 115.357 393.354 115.273 393.826 115.273C394.554 115.273 395.142 115.457 395.59 115.825C396.038 116.193 396.278 116.697 396.31 117.337H395.218C395.194 116.993 395.054 116.717 394.798 116.509C394.55 116.301 394.214 116.197 393.79 116.197C393.398 116.197 393.086 116.281 392.854 116.449C392.622 116.617 392.506 116.837 392.506 117.109C392.506 117.325 392.574 117.505 392.71 117.649C392.854 117.785 393.03 117.897 393.238 117.985C393.454 118.065 393.75 118.157 394.126 118.261C394.598 118.389 394.982 118.517 395.278 118.645C395.574 118.765 395.826 118.949 396.034 119.197C396.25 119.445 396.362 119.769 396.37 120.169C396.37 120.529 396.27 120.853 396.07 121.141C395.87 121.429 395.586 121.657 395.218 121.825C394.858 121.985 394.442 122.065 393.97 122.065Z" fill="#2367FF" fill-opacity="0.09"/>
<mask id="path-10-inside-1_177_2464" fill="white">
<path d="M340 198C340 220.469 334.086 242.542 322.851 262C311.617 281.458 295.458 297.617 276 308.851C256.542 320.086 234.469 326 212 326C189.531 326 167.458 320.086 148 308.851L212 198H340Z"/>
</mask>
<path d="M340 198C340 220.469 334.086 242.542 322.851 262C311.617 281.458 295.458 297.617 276 308.851C256.542 320.086 234.469 326 212 326C189.531 326 167.458 320.086 148 308.851L212 198H340Z" fill="#6C99FF"/>
<path d="M340 198C340 220.469 334.086 242.542 322.851 262C311.617 281.458 295.458 297.617 276 308.851C256.542 320.086 234.469 326 212 326C189.531 326 167.458 320.086 148 308.851L212 198H340Z" stroke="#262626" stroke-width="0.4" mask="url(#path-10-inside-1_177_2464)"/>
<path d="M340 198C340 220.469 334.086 242.542 322.851 262C311.617 281.458 295.458 297.617 276 308.851C256.542 320.086 234.469 326 212 326C189.531 326 167.458 320.086 148 308.851L212 198H340Z" stroke="#2367FF" stroke-opacity="0.09" stroke-width="0.4" mask="url(#path-10-inside-1_177_2464)"/>
<mask id="path-11-inside-2_177_2464" fill="white">
<path d="M302.51 107.49C318.397 123.378 329.823 143.168 335.639 164.871L212 198L302.51 107.49Z"/>
</mask>
<path d="M302.51 107.49C318.397 123.378 329.823 143.168 335.639 164.871L212 198L302.51 107.49Z" fill="#BBD0FF"/>
<path d="M302.51 107.49C318.397 123.378 329.823 143.168 335.639 164.871L212 198L302.51 107.49Z" stroke="#262626" stroke-width="0.4" mask="url(#path-11-inside-2_177_2464)"/>
<path d="M302.51 107.49C318.397 123.378 329.823 143.168 335.639 164.871L212 198L302.51 107.49Z" stroke="#2367FF" stroke-opacity="0.09" stroke-width="0.4" mask="url(#path-11-inside-2_177_2464)"/>
<mask id="path-12-inside-3_177_2464" fill="white">
<path d="M148 308.851C126.076 296.193 108.397 277.318 97.2003 254.613C86.0033 231.908 81.7907 206.392 85.0951 181.293C88.3995 156.193 99.0725 132.637 115.765 113.604C132.457 94.5701 154.418 80.9137 178.871 74.3615L212 198L148 308.851Z"/>
</mask>
<path d="M148 308.851C126.076 296.193 108.397 277.318 97.2003 254.613C86.0033 231.908 81.7907 206.392 85.0951 181.293C88.3995 156.193 99.0725 132.637 115.765 113.604C132.457 94.5701 154.418 80.9137 178.871 74.3615L212 198L148 308.851Z" fill="#0F2B6B"/>
<path d="M148 308.851C126.076 296.193 108.397 277.318 97.2003 254.613C86.0033 231.908 81.7907 206.392 85.0951 181.293C88.3995 156.193 99.0725 132.637 115.765 113.604C132.457 94.5701 154.418 80.9137 178.871 74.3615L212 198L148 308.851Z" stroke="#262626" stroke-width="0.4" mask="url(#path-12-inside-3_177_2464)"/>
<path d="M148 308.851C126.076 296.193 108.397 277.318 97.2003 254.613C86.0033 231.908 81.7907 206.392 85.0951 181.293C88.3995 156.193 99.0725 132.637 115.765 113.604C132.457 94.5701 154.418 80.9137 178.871 74.3615L212 198L148 308.851Z" stroke="#2367FF" stroke-opacity="0.09" stroke-width="0.4" mask="url(#path-12-inside-3_177_2464)"/>
<mask id="path-13-inside-4_177_2464" fill="white">
<path d="M178.871 74.3615C200.574 68.5462 223.426 68.5462 245.129 74.3615C266.832 80.1768 286.622 91.6026 302.51 107.49L212 198L178.871 74.3615Z"/>
</mask>
<path d="M178.871 74.3615C200.574 68.5462 223.426 68.5462 245.129 74.3615C266.832 80.1768 286.622 91.6026 302.51 107.49L212 198L178.871 74.3615Z" fill="#1949B5"/>
<path d="M178.871 74.3615C200.574 68.5462 223.426 68.5462 245.129 74.3615C266.832 80.1768 286.622 91.6026 302.51 107.49L212 198L178.871 74.3615Z" stroke="#262626" stroke-width="0.4" mask="url(#path-13-inside-4_177_2464)"/>
<path d="M178.871 74.3615C200.574 68.5462 223.426 68.5462 245.129 74.3615C266.832 80.1768 286.622 91.6026 302.51 107.49L212 198L178.871 74.3615Z" stroke="#2367FF" stroke-opacity="0.09" stroke-width="0.4" mask="url(#path-13-inside-4_177_2464)"/>
<mask id="path-14-inside-5_177_2464" fill="white">
<path d="M335.639 164.871C338.534 175.676 340 186.814 340 198L212 198L335.639 164.871Z"/>
</mask>
<path d="M335.639 164.871C338.534 175.676 340 186.814 340 198L212 198L335.639 164.871Z" fill="#2367FF"/>
<path d="M335.639 164.871C338.534 175.676 340 186.814 340 198L212 198L335.639 164.871Z" stroke="#262626" stroke-width="0.4" mask="url(#path-14-inside-5_177_2464)"/>
<path d="M335.639 164.871C338.534 175.676 340 186.814 340 198L212 198L335.639 164.871Z" stroke="#2367FF" stroke-opacity="0.09" stroke-width="0.4" mask="url(#path-14-inside-5_177_2464)"/>
</g>
</svg>
