<svg width="28" height="28" viewBox="0 0 28 28" fill="none" xmlns="http://www.w3.org/2000/svg">
<path d="M20.4517 9.06492C20.37 9.05325 20.2883 9.05325 20.2067 9.06492C18.3983 9.00659 16.9633 7.52492 16.9633 5.70492C16.9633 3.84992 18.4683 2.33325 20.335 2.33325C22.19 2.33325 23.7067 3.83825 23.7067 5.70492C23.695 7.52492 22.26 9.00659 20.4517 9.06492Z" fill="#151223"/>
<path d="M24.255 17.15C22.9483 18.025 21.1167 18.3517 19.425 18.13C19.8683 17.1733 20.1017 16.1117 20.1133 14.9917C20.1133 13.825 19.8567 12.7166 19.3667 11.7483C21.0933 11.515 22.925 11.8416 24.2433 12.7166C26.0867 13.93 26.0867 15.925 24.255 17.15Z" fill="#151223"/>
<path d="M7.51335 9.06492C7.59502 9.05325 7.67669 9.05325 7.75835 9.06492C9.56669 9.00659 11.0017 7.52492 11.0017 5.70492C11.0017 3.83825 9.49669 2.33325 7.63002 2.33325C5.77502 2.33325 4.27002 3.83825 4.27002 5.70492C4.27002 7.52492 5.70502 9.00659 7.51335 9.06492Z" fill="#151223"/>
<path d="M7.64168 14.9916C7.64168 16.1233 7.88668 17.1966 8.33001 18.165C6.68501 18.34 4.97001 17.99 3.71001 17.1616C1.86668 15.9366 1.86668 13.9416 3.71001 12.7166C4.95835 11.8766 6.72001 11.5383 8.37668 11.725C7.89835 12.705 7.64168 13.8133 7.64168 14.9916Z" fill="#151223"/>
<path d="M14.14 18.515C14.0467 18.5033 13.9417 18.5033 13.8367 18.515C11.69 18.445 9.97501 16.6833 9.97501 14.5133C9.98667 12.2967 11.7717 10.5 14 10.5C16.2167 10.5 18.0133 12.2967 18.0133 14.5133C18.0017 16.6833 16.2983 18.445 14.14 18.515Z" fill="#151223"/>
<path d="M10.3483 20.9301C8.58665 22.1084 8.58665 24.0451 10.3483 25.2117C12.355 26.5534 15.645 26.5534 17.6517 25.2117C19.4133 24.0334 19.4133 22.0967 17.6517 20.9301C15.6567 19.5884 12.3667 19.5884 10.3483 20.9301Z" fill="#151223"/>
</svg>
