<svg width="256" height="200" viewBox="0 0 256 200" fill="none" xmlns="http://www.w3.org/2000/svg">
<rect width="256" height="200" rx="16" fill="#BBD0FF"/>
<path d="M39.36 28.76L32.768 51H28.64L23.968 34.168L19.008 51L14.912 51.032L8.608 28.76H12.48L17.088 46.872L22.08 28.76H26.176L30.816 46.776L35.456 28.76H39.36ZM41.1528 42.104C41.1528 40.3333 41.5154 38.7653 42.2408 37.4C42.9874 36.0347 43.9901 34.9787 45.2488 34.232C46.5288 33.464 47.9368 33.08 49.4728 33.08C50.8594 33.08 52.0648 33.3573 53.0888 33.912C54.1341 34.4453 54.9661 35.1173 55.5848 35.928V33.368H59.2648V51H55.5848V48.376C54.9661 49.208 54.1234 49.9013 53.0568 50.456C51.9901 51.0107 50.7741 51.288 49.4088 51.288C47.8941 51.288 46.5074 50.904 45.2488 50.136C43.9901 49.3467 42.9874 48.2587 42.2408 46.872C41.5154 45.464 41.1528 43.8747 41.1528 42.104ZM55.5848 42.168C55.5848 40.952 55.3288 39.896 54.8168 39C54.3261 38.104 53.6754 37.4213 52.8648 36.952C52.0541 36.4827 51.1794 36.248 50.2408 36.248C49.3021 36.248 48.4274 36.4827 47.6168 36.952C46.8061 37.4 46.1448 38.072 45.6328 38.968C45.1421 39.8427 44.8968 40.888 44.8968 42.104C44.8968 43.32 45.1421 44.3867 45.6328 45.304C46.1448 46.2213 46.8061 46.9253 47.6168 47.416C48.4488 47.8853 49.3234 48.12 50.2408 48.12C51.1794 48.12 52.0541 47.8853 52.8648 47.416C53.6754 46.9467 54.3261 46.264 54.8168 45.368C55.3288 44.4507 55.5848 43.384 55.5848 42.168ZM68.3123 36.344V46.104C68.3123 46.7653 68.4616 47.2453 68.7603 47.544C69.0803 47.8213 69.6136 47.96 70.3603 47.96H72.6003V51H69.7203C68.0776 51 66.8189 50.616 65.9443 49.848C65.0696 49.08 64.6323 47.832 64.6323 46.104V36.344H62.5523V33.368H64.6323V28.984H68.3123V33.368H72.6003V36.344H68.3123ZM92.1225 41.752C92.1225 42.4133 92.0798 43.0107 91.9945 43.544H78.5225C78.6292 44.952 79.1518 46.0827 80.0905 46.936C81.0292 47.7893 82.1812 48.216 83.5465 48.216C85.5092 48.216 86.8958 47.3947 87.7065 45.752H91.6425C91.1092 47.3733 90.1385 48.7067 88.7305 49.752C87.3438 50.776 85.6158 51.288 83.5465 51.288C81.8612 51.288 80.3465 50.9147 79.0025 50.168C77.6798 49.4 76.6345 48.3333 75.8665 46.968C75.1198 45.5813 74.7465 43.9813 74.7465 42.168C74.7465 40.3547 75.1092 38.7653 75.8345 37.4C76.5812 36.0133 77.6158 34.9467 78.9385 34.2C80.2825 33.4533 81.8185 33.08 83.5465 33.08C85.2105 33.08 86.6932 33.4427 87.9945 34.168C89.2958 34.8933 90.3092 35.9173 91.0345 37.24C91.7598 38.5413 92.1225 40.0453 92.1225 41.752ZM88.3145 40.6C88.2932 39.256 87.8132 38.1787 86.8745 37.368C85.9358 36.5573 84.7732 36.152 83.3865 36.152C82.1278 36.152 81.0505 36.5573 80.1545 37.368C79.2585 38.1573 78.7252 39.2347 78.5545 40.6H88.3145ZM99.3605 35.928C99.8938 35.032 100.598 34.3387 101.473 33.848C102.369 33.336 103.425 33.08 104.641 33.08V36.856H103.713C102.283 36.856 101.195 37.2187 100.449 37.944C99.7232 38.6693 99.3605 39.928 99.3605 41.72V51H95.7125V33.368H99.3605V35.928ZM125.202 33.08C126.589 33.08 127.826 33.368 128.914 33.944C130.024 34.52 130.888 35.3733 131.506 36.504C132.125 37.6347 132.434 39 132.434 40.6V51H128.818V41.144C128.818 39.5653 128.424 38.36 127.634 37.528C126.845 36.6747 125.768 36.248 124.402 36.248C123.037 36.248 121.949 36.6747 121.138 37.528C120.349 38.36 119.954 39.5653 119.954 41.144V51H116.306V33.368H119.954V35.384C120.552 34.6587 121.309 34.0933 122.226 33.688C123.165 33.2827 124.157 33.08 125.202 33.08ZM153.248 41.752C153.248 42.4133 153.205 43.0107 153.12 43.544H139.648C139.754 44.952 140.277 46.0827 141.216 46.936C142.154 47.7893 143.306 48.216 144.672 48.216C146.634 48.216 148.021 47.3947 148.832 45.752H152.767C152.234 47.3733 151.264 48.7067 149.856 49.752C148.469 50.776 146.741 51.288 144.672 51.288C142.986 51.288 141.472 50.9147 140.128 50.168C138.805 49.4 137.76 48.3333 136.992 46.968C136.245 45.5813 135.872 43.9813 135.872 42.168C135.872 40.3547 136.234 38.7653 136.96 37.4C137.706 36.0133 138.741 34.9467 140.064 34.2C141.408 33.4533 142.944 33.08 144.672 33.08C146.336 33.08 147.818 33.4427 149.12 34.168C150.421 34.8933 151.434 35.9173 152.16 37.24C152.885 38.5413 153.248 40.0453 153.248 41.752ZM149.44 40.6C149.418 39.256 148.938 38.1787 148 37.368C147.061 36.5573 145.898 36.152 144.512 36.152C143.253 36.152 142.176 36.5573 141.28 37.368C140.384 38.1573 139.85 39.2347 139.68 40.6H149.44ZM172.998 41.752C172.998 42.4133 172.955 43.0107 172.87 43.544H159.398C159.504 44.952 160.027 46.0827 160.966 46.936C161.904 47.7893 163.056 48.216 164.422 48.216C166.384 48.216 167.771 47.3947 168.582 45.752H172.517C171.984 47.3733 171.014 48.7067 169.606 49.752C168.219 50.776 166.491 51.288 164.422 51.288C162.736 51.288 161.222 50.9147 159.878 50.168C158.555 49.4 157.51 48.3333 156.742 46.968C155.995 45.5813 155.622 43.9813 155.622 42.168C155.622 40.3547 155.984 38.7653 156.71 37.4C157.456 36.0133 158.491 34.9467 159.814 34.2C161.158 33.4533 162.694 33.08 164.422 33.08C166.086 33.08 167.568 33.4427 168.87 34.168C170.171 34.8933 171.184 35.9173 171.91 37.24C172.635 38.5413 172.998 40.0453 172.998 41.752ZM169.19 40.6C169.168 39.256 168.688 38.1787 167.75 37.368C166.811 36.5573 165.648 36.152 164.262 36.152C163.003 36.152 161.926 36.5573 161.03 37.368C160.134 38.1573 159.6 39.2347 159.43 40.6H169.19ZM175.372 42.104C175.372 40.3333 175.734 38.7653 176.46 37.4C177.206 36.0347 178.209 34.9787 179.468 34.232C180.748 33.464 182.166 33.08 183.724 33.08C184.876 33.08 186.006 33.336 187.116 33.848C188.246 34.3387 189.142 35 189.804 35.832V27.32H193.484V51H189.804V48.344C189.206 49.1973 188.374 49.9013 187.308 50.456C186.262 51.0107 185.057 51.288 183.692 51.288C182.156 51.288 180.748 50.904 179.468 50.136C178.209 49.3467 177.206 48.2587 176.46 46.872C175.734 45.464 175.372 43.8747 175.372 42.104ZM189.804 42.168C189.804 40.952 189.548 39.896 189.036 39C188.545 38.104 187.894 37.4213 187.084 36.952C186.273 36.4827 185.398 36.248 184.46 36.248C183.521 36.248 182.646 36.4827 181.836 36.952C181.025 37.4 180.364 38.072 179.852 38.968C179.361 39.8427 179.116 40.888 179.116 42.104C179.116 43.32 179.361 44.3867 179.852 45.304C180.364 46.2213 181.025 46.9253 181.836 47.416C182.668 47.8853 183.542 48.12 184.46 48.12C185.398 48.12 186.273 47.8853 187.084 47.416C187.894 46.9467 188.545 46.264 189.036 45.368C189.548 44.4507 189.804 43.384 189.804 42.168ZM214.435 41.752C214.435 42.4133 214.392 43.0107 214.307 43.544H200.835C200.942 44.952 201.464 46.0827 202.403 46.936C203.342 47.7893 204.494 48.216 205.859 48.216C207.822 48.216 209.208 47.3947 210.019 45.752H213.955C213.422 47.3733 212.451 48.7067 211.043 49.752C209.656 50.776 207.928 51.288 205.859 51.288C204.174 51.288 202.659 50.9147 201.315 50.168C199.992 49.4 198.947 48.3333 198.179 46.968C197.432 45.5813 197.059 43.9813 197.059 42.168C197.059 40.3547 197.422 38.7653 198.147 37.4C198.894 36.0133 199.928 34.9467 201.251 34.2C202.595 33.4533 204.131 33.08 205.859 33.08C207.523 33.08 209.006 33.4427 210.307 34.168C211.608 34.8933 212.622 35.9173 213.347 37.24C214.072 38.5413 214.435 40.0453 214.435 41.752ZM210.627 40.6C210.606 39.256 210.126 38.1787 209.187 37.368C208.248 36.5573 207.086 36.152 205.699 36.152C204.44 36.152 203.363 36.5573 202.467 37.368C201.571 38.1573 201.038 39.2347 200.867 40.6H210.627ZM216.809 42.104C216.809 40.3333 217.172 38.7653 217.897 37.4C218.644 36.0347 219.646 34.9787 220.905 34.232C222.185 33.464 223.604 33.08 225.161 33.08C226.313 33.08 227.444 33.336 228.553 33.848C229.684 34.3387 230.58 35 231.241 35.832V27.32H234.921V51H231.241V48.344C230.644 49.1973 229.812 49.9013 228.745 50.456C227.7 51.0107 226.494 51.288 225.129 51.288C223.593 51.288 222.185 50.904 220.905 50.136C219.646 49.3467 218.644 48.2587 217.897 46.872C217.172 45.464 216.809 43.8747 216.809 42.104ZM231.241 42.168C231.241 40.952 230.985 39.896 230.473 39C229.982 38.104 229.332 37.4213 228.521 36.952C227.71 36.4827 226.836 36.248 225.897 36.248C224.958 36.248 224.084 36.4827 223.273 36.952C222.462 37.4 221.801 38.072 221.289 38.968C220.798 39.8427 220.553 40.888 220.553 42.104C220.553 43.32 220.798 44.3867 221.289 45.304C221.801 46.2213 222.462 46.9253 223.273 47.416C224.105 47.8853 224.98 48.12 225.897 48.12C226.836 48.12 227.71 47.8853 228.521 47.416C229.332 46.9467 229.982 46.264 230.473 45.368C230.985 44.4507 231.241 43.384 231.241 42.168Z" fill="#262626"/>
<path d="M39.36 28.76L32.768 51H28.64L23.968 34.168L19.008 51L14.912 51.032L8.608 28.76H12.48L17.088 46.872L22.08 28.76H26.176L30.816 46.776L35.456 28.76H39.36ZM41.1528 42.104C41.1528 40.3333 41.5154 38.7653 42.2408 37.4C42.9874 36.0347 43.9901 34.9787 45.2488 34.232C46.5288 33.464 47.9368 33.08 49.4728 33.08C50.8594 33.08 52.0648 33.3573 53.0888 33.912C54.1341 34.4453 54.9661 35.1173 55.5848 35.928V33.368H59.2648V51H55.5848V48.376C54.9661 49.208 54.1234 49.9013 53.0568 50.456C51.9901 51.0107 50.7741 51.288 49.4088 51.288C47.8941 51.288 46.5074 50.904 45.2488 50.136C43.9901 49.3467 42.9874 48.2587 42.2408 46.872C41.5154 45.464 41.1528 43.8747 41.1528 42.104ZM55.5848 42.168C55.5848 40.952 55.3288 39.896 54.8168 39C54.3261 38.104 53.6754 37.4213 52.8648 36.952C52.0541 36.4827 51.1794 36.248 50.2408 36.248C49.3021 36.248 48.4274 36.4827 47.6168 36.952C46.8061 37.4 46.1448 38.072 45.6328 38.968C45.1421 39.8427 44.8968 40.888 44.8968 42.104C44.8968 43.32 45.1421 44.3867 45.6328 45.304C46.1448 46.2213 46.8061 46.9253 47.6168 47.416C48.4488 47.8853 49.3234 48.12 50.2408 48.12C51.1794 48.12 52.0541 47.8853 52.8648 47.416C53.6754 46.9467 54.3261 46.264 54.8168 45.368C55.3288 44.4507 55.5848 43.384 55.5848 42.168ZM68.3123 36.344V46.104C68.3123 46.7653 68.4616 47.2453 68.7603 47.544C69.0803 47.8213 69.6136 47.96 70.3603 47.96H72.6003V51H69.7203C68.0776 51 66.8189 50.616 65.9443 49.848C65.0696 49.08 64.6323 47.832 64.6323 46.104V36.344H62.5523V33.368H64.6323V28.984H68.3123V33.368H72.6003V36.344H68.3123ZM92.1225 41.752C92.1225 42.4133 92.0798 43.0107 91.9945 43.544H78.5225C78.6292 44.952 79.1518 46.0827 80.0905 46.936C81.0292 47.7893 82.1812 48.216 83.5465 48.216C85.5092 48.216 86.8958 47.3947 87.7065 45.752H91.6425C91.1092 47.3733 90.1385 48.7067 88.7305 49.752C87.3438 50.776 85.6158 51.288 83.5465 51.288C81.8612 51.288 80.3465 50.9147 79.0025 50.168C77.6798 49.4 76.6345 48.3333 75.8665 46.968C75.1198 45.5813 74.7465 43.9813 74.7465 42.168C74.7465 40.3547 75.1092 38.7653 75.8345 37.4C76.5812 36.0133 77.6158 34.9467 78.9385 34.2C80.2825 33.4533 81.8185 33.08 83.5465 33.08C85.2105 33.08 86.6932 33.4427 87.9945 34.168C89.2958 34.8933 90.3092 35.9173 91.0345 37.24C91.7598 38.5413 92.1225 40.0453 92.1225 41.752ZM88.3145 40.6C88.2932 39.256 87.8132 38.1787 86.8745 37.368C85.9358 36.5573 84.7732 36.152 83.3865 36.152C82.1278 36.152 81.0505 36.5573 80.1545 37.368C79.2585 38.1573 78.7252 39.2347 78.5545 40.6H88.3145ZM99.3605 35.928C99.8938 35.032 100.598 34.3387 101.473 33.848C102.369 33.336 103.425 33.08 104.641 33.08V36.856H103.713C102.283 36.856 101.195 37.2187 100.449 37.944C99.7232 38.6693 99.3605 39.928 99.3605 41.72V51H95.7125V33.368H99.3605V35.928ZM125.202 33.08C126.589 33.08 127.826 33.368 128.914 33.944C130.024 34.52 130.888 35.3733 131.506 36.504C132.125 37.6347 132.434 39 132.434 40.6V51H128.818V41.144C128.818 39.5653 128.424 38.36 127.634 37.528C126.845 36.6747 125.768 36.248 124.402 36.248C123.037 36.248 121.949 36.6747 121.138 37.528C120.349 38.36 119.954 39.5653 119.954 41.144V51H116.306V33.368H119.954V35.384C120.552 34.6587 121.309 34.0933 122.226 33.688C123.165 33.2827 124.157 33.08 125.202 33.08ZM153.248 41.752C153.248 42.4133 153.205 43.0107 153.12 43.544H139.648C139.754 44.952 140.277 46.0827 141.216 46.936C142.154 47.7893 143.306 48.216 144.672 48.216C146.634 48.216 148.021 47.3947 148.832 45.752H152.767C152.234 47.3733 151.264 48.7067 149.856 49.752C148.469 50.776 146.741 51.288 144.672 51.288C142.986 51.288 141.472 50.9147 140.128 50.168C138.805 49.4 137.76 48.3333 136.992 46.968C136.245 45.5813 135.872 43.9813 135.872 42.168C135.872 40.3547 136.234 38.7653 136.96 37.4C137.706 36.0133 138.741 34.9467 140.064 34.2C141.408 33.4533 142.944 33.08 144.672 33.08C146.336 33.08 147.818 33.4427 149.12 34.168C150.421 34.8933 151.434 35.9173 152.16 37.24C152.885 38.5413 153.248 40.0453 153.248 41.752ZM149.44 40.6C149.418 39.256 148.938 38.1787 148 37.368C147.061 36.5573 145.898 36.152 144.512 36.152C143.253 36.152 142.176 36.5573 141.28 37.368C140.384 38.1573 139.85 39.2347 139.68 40.6H149.44ZM172.998 41.752C172.998 42.4133 172.955 43.0107 172.87 43.544H159.398C159.504 44.952 160.027 46.0827 160.966 46.936C161.904 47.7893 163.056 48.216 164.422 48.216C166.384 48.216 167.771 47.3947 168.582 45.752H172.517C171.984 47.3733 171.014 48.7067 169.606 49.752C168.219 50.776 166.491 51.288 164.422 51.288C162.736 51.288 161.222 50.9147 159.878 50.168C158.555 49.4 157.51 48.3333 156.742 46.968C155.995 45.5813 155.622 43.9813 155.622 42.168C155.622 40.3547 155.984 38.7653 156.71 37.4C157.456 36.0133 158.491 34.9467 159.814 34.2C161.158 33.4533 162.694 33.08 164.422 33.08C166.086 33.08 167.568 33.4427 168.87 34.168C170.171 34.8933 171.184 35.9173 171.91 37.24C172.635 38.5413 172.998 40.0453 172.998 41.752ZM169.19 40.6C169.168 39.256 168.688 38.1787 167.75 37.368C166.811 36.5573 165.648 36.152 164.262 36.152C163.003 36.152 161.926 36.5573 161.03 37.368C160.134 38.1573 159.6 39.2347 159.43 40.6H169.19ZM175.372 42.104C175.372 40.3333 175.734 38.7653 176.46 37.4C177.206 36.0347 178.209 34.9787 179.468 34.232C180.748 33.464 182.166 33.08 183.724 33.08C184.876 33.08 186.006 33.336 187.116 33.848C188.246 34.3387 189.142 35 189.804 35.832V27.32H193.484V51H189.804V48.344C189.206 49.1973 188.374 49.9013 187.308 50.456C186.262 51.0107 185.057 51.288 183.692 51.288C182.156 51.288 180.748 50.904 179.468 50.136C178.209 49.3467 177.206 48.2587 176.46 46.872C175.734 45.464 175.372 43.8747 175.372 42.104ZM189.804 42.168C189.804 40.952 189.548 39.896 189.036 39C188.545 38.104 187.894 37.4213 187.084 36.952C186.273 36.4827 185.398 36.248 184.46 36.248C183.521 36.248 182.646 36.4827 181.836 36.952C181.025 37.4 180.364 38.072 179.852 38.968C179.361 39.8427 179.116 40.888 179.116 42.104C179.116 43.32 179.361 44.3867 179.852 45.304C180.364 46.2213 181.025 46.9253 181.836 47.416C182.668 47.8853 183.542 48.12 184.46 48.12C185.398 48.12 186.273 47.8853 187.084 47.416C187.894 46.9467 188.545 46.264 189.036 45.368C189.548 44.4507 189.804 43.384 189.804 42.168ZM214.435 41.752C214.435 42.4133 214.392 43.0107 214.307 43.544H200.835C200.942 44.952 201.464 46.0827 202.403 46.936C203.342 47.7893 204.494 48.216 205.859 48.216C207.822 48.216 209.208 47.3947 210.019 45.752H213.955C213.422 47.3733 212.451 48.7067 211.043 49.752C209.656 50.776 207.928 51.288 205.859 51.288C204.174 51.288 202.659 50.9147 201.315 50.168C199.992 49.4 198.947 48.3333 198.179 46.968C197.432 45.5813 197.059 43.9813 197.059 42.168C197.059 40.3547 197.422 38.7653 198.147 37.4C198.894 36.0133 199.928 34.9467 201.251 34.2C202.595 33.4533 204.131 33.08 205.859 33.08C207.523 33.08 209.006 33.4427 210.307 34.168C211.608 34.8933 212.622 35.9173 213.347 37.24C214.072 38.5413 214.435 40.0453 214.435 41.752ZM210.627 40.6C210.606 39.256 210.126 38.1787 209.187 37.368C208.248 36.5573 207.086 36.152 205.699 36.152C204.44 36.152 203.363 36.5573 202.467 37.368C201.571 38.1573 201.038 39.2347 200.867 40.6H210.627ZM216.809 42.104C216.809 40.3333 217.172 38.7653 217.897 37.4C218.644 36.0347 219.646 34.9787 220.905 34.232C222.185 33.464 223.604 33.08 225.161 33.08C226.313 33.08 227.444 33.336 228.553 33.848C229.684 34.3387 230.58 35 231.241 35.832V27.32H234.921V51H231.241V48.344C230.644 49.1973 229.812 49.9013 228.745 50.456C227.7 51.0107 226.494 51.288 225.129 51.288C223.593 51.288 222.185 50.904 220.905 50.136C219.646 49.3467 218.644 48.2587 217.897 46.872C217.172 45.464 216.809 43.8747 216.809 42.104ZM231.241 42.168C231.241 40.952 230.985 39.896 230.473 39C229.982 38.104 229.332 37.4213 228.521 36.952C227.71 36.4827 226.836 36.248 225.897 36.248C224.958 36.248 224.084 36.4827 223.273 36.952C222.462 37.4 221.801 38.072 221.289 38.968C220.798 39.8427 220.553 40.888 220.553 42.104C220.553 43.32 220.798 44.3867 221.289 45.304C221.801 46.2213 222.462 46.9253 223.273 47.416C224.105 47.8853 224.98 48.12 225.897 48.12C226.836 48.12 227.71 47.8853 228.521 47.416C229.332 46.9467 229.982 46.264 230.473 45.368C230.985 44.4507 231.241 43.384 231.241 42.168Z" fill="#2367FF" fill-opacity="0.09"/>
<path d="M60.0001 178.583C38.8535 178.583 21.6501 161.38 21.6501 140.233C21.5201 115.403 45.1801 94.7332 55.3634 86.9765C58.0934 84.8965 61.9068 84.8965 64.6368 86.9765C74.8202 94.8632 98.4802 115.793 98.3502 140.277C98.3502 161.38 81.1468 178.583 60.0001 178.583ZM60.0001 91.9165C59.7835 91.9165 59.5235 92.0032 59.3068 92.1765C51.9835 97.7665 28.0635 117.743 28.1935 140.233C28.1935 157.827 42.4935 172.083 60.0435 172.083C77.5935 172.083 91.8934 157.827 91.8934 140.277C92.0234 118.09 68.0602 97.8532 60.6935 92.1765C60.4335 92.0032 60.2168 91.9165 60.0001 91.9165Z" fill="#262626"/>
<path d="M60.0001 178.583C38.8535 178.583 21.6501 161.38 21.6501 140.233C21.5201 115.403 45.1801 94.7332 55.3634 86.9765C58.0934 84.8965 61.9068 84.8965 64.6368 86.9765C74.8202 94.8632 98.4802 115.793 98.3502 140.277C98.3502 161.38 81.1468 178.583 60.0001 178.583ZM60.0001 91.9165C59.7835 91.9165 59.5235 92.0032 59.3068 92.1765C51.9835 97.7665 28.0635 117.743 28.1935 140.233C28.1935 157.827 42.4935 172.083 60.0435 172.083C77.5935 172.083 91.8934 157.827 91.8934 140.277C92.0234 118.09 68.0602 97.8532 60.6935 92.1765C60.4335 92.0032 60.2168 91.9165 60.0001 91.9165Z" fill="#06A4FF" fill-opacity="0.09"/>
<path d="M131.104 165.944C133.152 164.237 134.784 162.819 136 161.688C137.216 160.536 138.229 159.341 139.04 158.104C139.851 156.867 140.256 155.651 140.256 154.456C140.256 153.368 140 152.515 139.488 151.896C138.976 151.277 138.187 150.968 137.12 150.968C136.053 150.968 135.232 151.331 134.656 152.056C134.08 152.76 133.781 153.731 133.76 154.968H129.408C129.493 152.408 130.251 150.467 131.68 149.144C133.131 147.821 134.965 147.16 137.184 147.16C139.616 147.16 141.483 147.811 142.784 149.112C144.085 150.392 144.736 152.088 144.736 154.2C144.736 155.864 144.288 157.453 143.392 158.968C142.496 160.483 141.472 161.805 140.32 162.936C139.168 164.045 137.664 165.389 135.808 166.968H145.248V170.68H129.44V167.352L131.104 165.944ZM149.479 165.944C151.527 164.237 153.159 162.819 154.375 161.688C155.591 160.536 156.604 159.341 157.415 158.104C158.226 156.867 158.631 155.651 158.631 154.456C158.631 153.368 158.375 152.515 157.863 151.896C157.351 151.277 156.562 150.968 155.495 150.968C154.428 150.968 153.607 151.331 153.031 152.056C152.455 152.76 152.156 153.731 152.135 154.968H147.783C147.868 152.408 148.626 150.467 150.055 149.144C151.506 147.821 153.34 147.16 155.559 147.16C157.991 147.16 159.858 147.811 161.159 149.112C162.46 150.392 163.111 152.088 163.111 154.2C163.111 155.864 162.663 157.453 161.767 158.968C160.871 160.483 159.847 161.805 158.695 162.936C157.543 164.045 156.039 165.389 154.183 166.968H163.623V170.68H147.815V167.352L149.479 165.944ZM167.854 165.944C169.902 164.237 171.534 162.819 172.75 161.688C173.966 160.536 174.979 159.341 175.79 158.104C176.601 156.867 177.006 155.651 177.006 154.456C177.006 153.368 176.75 152.515 176.238 151.896C175.726 151.277 174.937 150.968 173.87 150.968C172.803 150.968 171.982 151.331 171.406 152.056C170.83 152.76 170.531 153.731 170.51 154.968H166.158C166.243 152.408 167.001 150.467 168.43 149.144C169.881 147.821 171.715 147.16 173.934 147.16C176.366 147.16 178.233 147.811 179.534 149.112C180.835 150.392 181.486 152.088 181.486 154.2C181.486 155.864 181.038 157.453 180.142 158.968C179.246 160.483 178.222 161.805 177.07 162.936C175.918 164.045 174.414 165.389 172.558 166.968H181.998V170.68H166.19V167.352L167.854 165.944ZM197.438 167.448H204.798V171H192.958V148.664H197.438V167.448Z" fill="#262626"/>
<path d="M131.104 165.944C133.152 164.237 134.784 162.819 136 161.688C137.216 160.536 138.229 159.341 139.04 158.104C139.851 156.867 140.256 155.651 140.256 154.456C140.256 153.368 140 152.515 139.488 151.896C138.976 151.277 138.187 150.968 137.12 150.968C136.053 150.968 135.232 151.331 134.656 152.056C134.08 152.76 133.781 153.731 133.76 154.968H129.408C129.493 152.408 130.251 150.467 131.68 149.144C133.131 147.821 134.965 147.16 137.184 147.16C139.616 147.16 141.483 147.811 142.784 149.112C144.085 150.392 144.736 152.088 144.736 154.2C144.736 155.864 144.288 157.453 143.392 158.968C142.496 160.483 141.472 161.805 140.32 162.936C139.168 164.045 137.664 165.389 135.808 166.968H145.248V170.68H129.44V167.352L131.104 165.944ZM149.479 165.944C151.527 164.237 153.159 162.819 154.375 161.688C155.591 160.536 156.604 159.341 157.415 158.104C158.226 156.867 158.631 155.651 158.631 154.456C158.631 153.368 158.375 152.515 157.863 151.896C157.351 151.277 156.562 150.968 155.495 150.968C154.428 150.968 153.607 151.331 153.031 152.056C152.455 152.76 152.156 153.731 152.135 154.968H147.783C147.868 152.408 148.626 150.467 150.055 149.144C151.506 147.821 153.34 147.16 155.559 147.16C157.991 147.16 159.858 147.811 161.159 149.112C162.46 150.392 163.111 152.088 163.111 154.2C163.111 155.864 162.663 157.453 161.767 158.968C160.871 160.483 159.847 161.805 158.695 162.936C157.543 164.045 156.039 165.389 154.183 166.968H163.623V170.68H147.815V167.352L149.479 165.944ZM167.854 165.944C169.902 164.237 171.534 162.819 172.75 161.688C173.966 160.536 174.979 159.341 175.79 158.104C176.601 156.867 177.006 155.651 177.006 154.456C177.006 153.368 176.75 152.515 176.238 151.896C175.726 151.277 174.937 150.968 173.87 150.968C172.803 150.968 171.982 151.331 171.406 152.056C170.83 152.76 170.531 153.731 170.51 154.968H166.158C166.243 152.408 167.001 150.467 168.43 149.144C169.881 147.821 171.715 147.16 173.934 147.16C176.366 147.16 178.233 147.811 179.534 149.112C180.835 150.392 181.486 152.088 181.486 154.2C181.486 155.864 181.038 157.453 180.142 158.968C179.246 160.483 178.222 161.805 177.07 162.936C175.918 164.045 174.414 165.389 172.558 166.968H181.998V170.68H166.19V167.352L167.854 165.944ZM197.438 167.448H204.798V171H192.958V148.664H197.438V167.448Z" fill="#2367FF" fill-opacity="0.09"/>
</svg>
