<svg width="880" height="68" viewBox="0 0 880 68" fill="none" xmlns="http://www.w3.org/2000/svg">
<rect width="880" height="68" rx="16" fill="white"/>
<path d="M56.048 25.248L51.368 42H47.408L44.264 30.072L40.976 42L37.04 42.024L32.528 25.248H36.128L39.08 38.256L42.488 25.248H46.232L49.448 38.184L52.424 25.248H56.048ZM57.3779 35.304C57.3779 33.96 57.6419 32.768 58.1699 31.728C58.7139 30.688 59.4419 29.888 60.3539 29.328C61.2819 28.768 62.3139 28.488 63.4499 28.488C64.4419 28.488 65.3059 28.688 66.0419 29.088C66.7939 29.488 67.3939 29.992 67.8419 30.6V28.704H71.2259V42H67.8419V40.056C67.4099 40.68 66.8099 41.2 66.0419 41.616C65.2899 42.016 64.4179 42.216 63.4259 42.216C62.3059 42.216 61.2819 41.928 60.3539 41.352C59.4419 40.776 58.7139 39.968 58.1699 38.928C57.6419 37.872 57.3779 36.664 57.3779 35.304ZM67.8419 35.352C67.8419 34.536 67.6819 33.84 67.3619 33.264C67.0419 32.672 66.6099 32.224 66.0659 31.92C65.5219 31.6 64.9379 31.44 64.3139 31.44C63.6899 31.44 63.1139 31.592 62.5859 31.896C62.0579 32.2 61.6259 32.648 61.2899 33.24C60.9699 33.816 60.8099 34.504 60.8099 35.304C60.8099 36.104 60.9699 36.808 61.2899 37.416C61.6259 38.008 62.0579 38.464 62.5859 38.784C63.1299 39.104 63.7059 39.264 64.3139 39.264C64.9379 39.264 65.5219 39.112 66.0659 38.808C66.6099 38.488 67.0419 38.04 67.3619 37.464C67.6819 36.872 67.8419 36.168 67.8419 35.352ZM78.4196 31.464V37.896C78.4196 38.344 78.5236 38.672 78.7316 38.88C78.9556 39.072 79.3236 39.168 79.8356 39.168H81.3956V42H79.2836C76.4516 42 75.0356 40.624 75.0356 37.872V31.464H73.4516V28.704H75.0356V25.416H78.4196V28.704H81.3956V31.464H78.4196ZM96.1723 35.064C96.1723 35.544 96.1403 35.976 96.0763 36.36H86.3563C86.4363 37.32 86.7723 38.072 87.3643 38.616C87.9563 39.16 88.6843 39.432 89.5483 39.432C90.7963 39.432 91.6843 38.896 92.2123 37.824H95.8363C95.4523 39.104 94.7163 40.16 93.6283 40.992C92.5403 41.808 91.2043 42.216 89.6203 42.216C88.3403 42.216 87.1883 41.936 86.1643 41.376C85.1563 40.8 84.3643 39.992 83.7883 38.952C83.2283 37.912 82.9482 36.712 82.9482 35.352C82.9482 33.976 83.2283 32.768 83.7883 31.728C84.3483 30.688 85.1323 29.888 86.1403 29.328C87.1483 28.768 88.3083 28.488 89.6203 28.488C90.8843 28.488 92.0123 28.76 93.0043 29.304C94.0123 29.848 94.7883 30.624 95.3323 31.632C95.8923 32.624 96.1723 33.768 96.1723 35.064ZM92.6923 34.104C92.6763 33.24 92.3643 32.552 91.7563 32.04C91.1483 31.512 90.4043 31.248 89.5243 31.248C88.6923 31.248 87.9883 31.504 87.4123 32.016C86.8523 32.512 86.5083 33.208 86.3803 34.104H92.6923ZM101.985 30.768C102.417 30.064 102.977 29.512 103.665 29.112C104.369 28.712 105.169 28.512 106.065 28.512V32.04H105.177C104.121 32.04 103.321 32.288 102.777 32.784C102.249 33.28 101.985 34.144 101.985 35.376V42H98.6248V28.704H101.985V30.768ZM117.407 39.336H122.927V42H114.047V25.248H117.407V39.336ZM137.422 35.064C137.422 35.544 137.39 35.976 137.326 36.36H127.606C127.686 37.32 128.022 38.072 128.614 38.616C129.206 39.16 129.934 39.432 130.798 39.432C132.046 39.432 132.934 38.896 133.462 37.824H137.086C136.702 39.104 135.966 40.16 134.878 40.992C133.79 41.808 132.454 42.216 130.87 42.216C129.59 42.216 128.438 41.936 127.414 41.376C126.406 40.8 125.614 39.992 125.038 38.952C124.478 37.912 124.198 36.712 124.198 35.352C124.198 33.976 124.478 32.768 125.038 31.728C125.598 30.688 126.382 29.888 127.39 29.328C128.398 28.768 129.558 28.488 130.87 28.488C132.134 28.488 133.262 28.76 134.254 29.304C135.262 29.848 136.038 30.624 136.582 31.632C137.142 32.624 137.422 33.768 137.422 35.064ZM133.942 34.104C133.926 33.24 133.614 32.552 133.006 32.04C132.398 31.512 131.654 31.248 130.774 31.248C129.942 31.248 129.238 31.504 128.662 32.016C128.102 32.512 127.758 33.208 127.63 34.104H133.942ZM145.419 38.904L148.779 28.704H152.355L147.435 42H143.355L138.459 28.704H142.059L145.419 38.904ZM166.602 35.064C166.602 35.544 166.57 35.976 166.506 36.36H156.786C156.866 37.32 157.202 38.072 157.794 38.616C158.386 39.16 159.114 39.432 159.978 39.432C161.226 39.432 162.114 38.896 162.642 37.824H166.266C165.882 39.104 165.146 40.16 164.058 40.992C162.97 41.808 161.634 42.216 160.05 42.216C158.77 42.216 157.618 41.936 156.594 41.376C155.586 40.8 154.794 39.992 154.218 38.952C153.658 37.912 153.378 36.712 153.378 35.352C153.378 33.976 153.658 32.768 154.218 31.728C154.778 30.688 155.562 29.888 156.57 29.328C157.578 28.768 158.738 28.488 160.05 28.488C161.314 28.488 162.442 28.76 163.434 29.304C164.442 29.848 165.218 30.624 165.762 31.632C166.322 32.624 166.602 33.768 166.602 35.064ZM163.122 34.104C163.106 33.24 162.794 32.552 162.186 32.04C161.578 31.512 160.834 31.248 159.954 31.248C159.122 31.248 158.418 31.504 157.842 32.016C157.282 32.512 156.938 33.208 156.81 34.104H163.122ZM172.414 24.24V42H169.054V24.24H172.414Z" fill="#151223"/>
<path d="M208.272 33.024C208.272 30.256 208.768 28.088 209.76 26.52C210.768 24.952 212.432 24.168 214.752 24.168C217.072 24.168 218.728 24.952 219.72 26.52C220.728 28.088 221.232 30.256 221.232 33.024C221.232 35.808 220.728 37.992 219.72 39.576C218.728 41.16 217.072 41.952 214.752 41.952C212.432 41.952 210.768 41.16 209.76 39.576C208.768 37.992 208.272 35.808 208.272 33.024ZM217.92 33.024C217.92 31.84 217.84 30.848 217.68 30.048C217.536 29.232 217.232 28.568 216.768 28.056C216.32 27.544 215.648 27.288 214.752 27.288C213.856 27.288 213.176 27.544 212.712 28.056C212.264 28.568 211.96 29.232 211.8 30.048C211.656 30.848 211.584 31.84 211.584 33.024C211.584 34.24 211.656 35.264 211.8 36.096C211.944 36.912 212.248 37.576 212.712 38.088C213.176 38.584 213.856 38.832 214.752 38.832C215.648 38.832 216.328 38.584 216.792 38.088C217.256 37.576 217.56 36.912 217.704 36.096C217.848 35.264 217.92 34.24 217.92 33.024ZM227.532 39.336H233.052V42H224.172V25.248H227.532V39.336Z" fill="#151223"/>
<rect x="250" y="28" width="509" height="12" rx="6" fill="#CBCACD"/>
<rect x="250" y="28" width="97.4578" height="12" rx="6" fill="url(#paint0_linear_19_2189)"/>
<path d="M785.344 28.872C785.184 28.2 784.904 27.696 784.504 27.36C784.12 27.024 783.56 26.856 782.824 26.856C781.72 26.856 780.904 27.304 780.376 28.2C779.864 29.08 779.6 30.52 779.584 32.52C779.968 31.88 780.528 31.384 781.264 31.032C782 30.664 782.8 30.48 783.664 30.48C784.704 30.48 785.624 30.704 786.424 31.152C787.224 31.6 787.848 32.256 788.296 33.12C788.744 33.968 788.968 34.992 788.968 36.192C788.968 37.328 788.736 38.344 788.272 39.24C787.824 40.12 787.16 40.808 786.28 41.304C785.4 41.8 784.352 42.048 783.136 42.048C781.472 42.048 780.16 41.68 779.2 40.944C778.256 40.208 777.592 39.184 777.208 37.872C776.84 36.544 776.656 34.912 776.656 32.976C776.656 30.048 777.16 27.84 778.168 26.352C779.176 24.848 780.768 24.096 782.944 24.096C784.624 24.096 785.928 24.552 786.856 25.464C787.784 26.376 788.32 27.512 788.464 28.872H785.344ZM782.896 33.24C782.048 33.24 781.336 33.488 780.76 33.984C780.184 34.48 779.896 35.2 779.896 36.144C779.896 37.088 780.16 37.832 780.688 38.376C781.232 38.92 781.992 39.192 782.968 39.192C783.832 39.192 784.512 38.928 785.008 38.4C785.52 37.872 785.776 37.16 785.776 36.264C785.776 35.336 785.528 34.6 785.032 34.056C784.552 33.512 783.84 33.24 782.896 33.24ZM791.624 33.024C791.624 30.256 792.12 28.088 793.112 26.52C794.12 24.952 795.784 24.168 798.104 24.168C800.424 24.168 802.08 24.952 803.072 26.52C804.08 28.088 804.584 30.256 804.584 33.024C804.584 35.808 804.08 37.992 803.072 39.576C802.08 41.16 800.424 41.952 798.104 41.952C795.784 41.952 794.12 41.16 793.112 39.576C792.12 37.992 791.624 35.808 791.624 33.024ZM801.272 33.024C801.272 31.84 801.192 30.848 801.032 30.048C800.888 29.232 800.584 28.568 800.12 28.056C799.672 27.544 799 27.288 798.104 27.288C797.208 27.288 796.528 27.544 796.064 28.056C795.616 28.568 795.312 29.232 795.152 30.048C795.008 30.848 794.936 31.84 794.936 33.024C794.936 34.24 795.008 35.264 795.152 36.096C795.296 36.912 795.6 37.576 796.064 38.088C796.528 38.584 797.208 38.832 798.104 38.832C799 38.832 799.68 38.584 800.144 38.088C800.608 37.576 800.912 36.912 801.056 36.096C801.2 35.264 801.272 34.24 801.272 33.024ZM807.139 33.024C807.139 30.256 807.635 28.088 808.627 26.52C809.635 24.952 811.299 24.168 813.619 24.168C815.939 24.168 817.595 24.952 818.587 26.52C819.595 28.088 820.099 30.256 820.099 33.024C820.099 35.808 819.595 37.992 818.587 39.576C817.595 41.16 815.939 41.952 813.619 41.952C811.299 41.952 809.635 41.16 808.627 39.576C807.635 37.992 807.139 35.808 807.139 33.024ZM816.787 33.024C816.787 31.84 816.707 30.848 816.547 30.048C816.403 29.232 816.099 28.568 815.635 28.056C815.187 27.544 814.515 27.288 813.619 27.288C812.723 27.288 812.043 27.544 811.579 28.056C811.131 28.568 810.827 29.232 810.667 30.048C810.523 30.848 810.451 31.84 810.451 33.024C810.451 34.24 810.523 35.264 810.667 36.096C810.811 36.912 811.115 37.576 811.579 38.088C812.043 38.584 812.723 38.832 813.619 38.832C814.515 38.832 815.195 38.584 815.659 38.088C816.123 37.576 816.427 36.912 816.571 36.096C816.715 35.264 816.787 34.24 816.787 33.024ZM822.655 33.024C822.655 30.256 823.151 28.088 824.143 26.52C825.151 24.952 826.815 24.168 829.135 24.168C831.455 24.168 833.111 24.952 834.103 26.52C835.111 28.088 835.615 30.256 835.615 33.024C835.615 35.808 835.111 37.992 834.103 39.576C833.111 41.16 831.455 41.952 829.135 41.952C826.815 41.952 825.151 41.16 824.143 39.576C823.151 37.992 822.655 35.808 822.655 33.024ZM832.303 33.024C832.303 31.84 832.223 30.848 832.063 30.048C831.919 29.232 831.615 28.568 831.151 28.056C830.703 27.544 830.031 27.288 829.135 27.288C828.239 27.288 827.559 27.544 827.095 28.056C826.647 28.568 826.343 29.232 826.183 30.048C826.039 30.848 825.967 31.84 825.967 33.024C825.967 34.24 826.039 35.264 826.183 36.096C826.327 36.912 826.631 37.576 827.095 38.088C827.559 38.584 828.239 38.832 829.135 38.832C830.031 38.832 830.711 38.584 831.175 38.088C831.639 37.576 831.943 36.912 832.087 36.096C832.231 35.264 832.303 34.24 832.303 33.024ZM841.914 39.336H847.434V42H838.554V25.248H841.914V39.336Z" fill="#151223"/>
<defs>
<linearGradient id="paint0_linear_19_2189" x1="250" y1="34" x2="347.458" y2="34" gradientUnits="userSpaceOnUse">
<stop stop-color="#2367FF"/>
<stop offset="1" stop-color="#55C7FE"/>
</linearGradient>
</defs>
</svg>
