<svg width="249" height="244" viewBox="0 0 249 244" fill="none" xmlns="http://www.w3.org/2000/svg">
<rect y="8" width="20" height="20" rx="10" fill="#F7DD9B"/>
<path d="M41.088 23.168H48.624V26H37.2V23.408L44.688 12.08H37.2V9.248H48.624V11.84L41.088 23.168ZM57.3881 26.216C56.1081 26.216 54.9561 25.936 53.9321 25.376C52.9081 24.8 52.1001 23.992 51.5081 22.952C50.9321 21.912 50.6441 20.712 50.6441 19.352C50.6441 17.992 50.9401 16.792 51.5321 15.752C52.1401 14.712 52.9641 13.912 54.0041 13.352C55.0441 12.776 56.2041 12.488 57.4841 12.488C58.7641 12.488 59.9241 12.776 60.9641 13.352C62.0041 13.912 62.8201 14.712 63.4121 15.752C64.0201 16.792 64.3241 17.992 64.3241 19.352C64.3241 20.712 64.0121 21.912 63.3881 22.952C62.7801 23.992 61.9481 24.8 60.8921 25.376C59.8521 25.936 58.6841 26.216 57.3881 26.216ZM57.3881 23.288C57.9961 23.288 58.5641 23.144 59.0921 22.856C59.6361 22.552 60.0681 22.104 60.3881 21.512C60.7081 20.92 60.8681 20.2 60.8681 19.352C60.8681 18.088 60.5321 17.12 59.8601 16.448C59.2041 15.76 58.3961 15.416 57.4361 15.416C56.4761 15.416 55.6681 15.76 55.0121 16.448C54.3721 17.12 54.0521 18.088 54.0521 19.352C54.0521 20.616 54.3641 21.592 54.9881 22.28C55.6281 22.952 56.4281 23.288 57.3881 23.288ZM74.1568 12.512C75.7408 12.512 77.0208 13.016 77.9968 14.024C78.9728 15.016 79.4608 16.408 79.4608 18.2V26H76.1008V18.656C76.1008 17.6 75.8368 16.792 75.3088 16.232C74.7808 15.656 74.0608 15.368 73.1488 15.368C72.2208 15.368 71.4848 15.656 70.9408 16.232C70.4128 16.792 70.1488 17.6 70.1488 18.656V26H66.7888V12.704H70.1488V14.36C70.5968 13.784 71.1648 13.336 71.8528 13.016C72.5568 12.68 73.3248 12.512 74.1568 12.512ZM95.016 19.064C95.016 19.544 94.984 19.976 94.92 20.36H85.2C85.28 21.32 85.616 22.072 86.208 22.616C86.8 23.16 87.528 23.432 88.392 23.432C89.64 23.432 90.528 22.896 91.056 21.824H94.68C94.296 23.104 93.56 24.16 92.472 24.992C91.384 25.808 90.048 26.216 88.464 26.216C87.184 26.216 86.032 25.936 85.008 25.376C84 24.8 83.208 23.992 82.632 22.952C82.072 21.912 81.792 20.712 81.792 19.352C81.792 17.976 82.072 16.768 82.632 15.728C83.192 14.688 83.976 13.888 84.984 13.328C85.992 12.768 87.152 12.488 88.464 12.488C89.728 12.488 90.856 12.76 91.848 13.304C92.856 13.848 93.632 14.624 94.176 15.632C94.736 16.624 95.016 17.768 95.016 19.064ZM91.536 18.104C91.52 17.24 91.208 16.552 90.6 16.04C89.992 15.512 89.248 15.248 88.368 15.248C87.536 15.248 86.832 15.504 86.256 16.016C85.696 16.512 85.352 17.208 85.224 18.104H91.536ZM113.459 22.808H106.787L105.683 26H102.155L108.179 9.224H112.091L118.115 26H114.563L113.459 22.808ZM112.547 20.12L110.123 13.112L107.699 20.12H112.547ZM121.855 26.168C121.247 26.168 120.743 25.984 120.343 25.616C119.959 25.232 119.767 24.76 119.767 24.2C119.767 23.64 119.959 23.176 120.343 22.808C120.743 22.424 121.247 22.232 121.855 22.232C122.447 22.232 122.935 22.424 123.319 22.808C123.703 23.176 123.895 23.64 123.895 24.2C123.895 24.76 123.703 25.232 123.319 25.616C122.935 25.984 122.447 26.168 121.855 26.168ZM121.855 16.232C121.247 16.232 120.743 16.048 120.343 15.68C119.959 15.296 119.767 14.824 119.767 14.264C119.767 13.704 119.959 13.24 120.343 12.872C120.743 12.488 121.247 12.296 121.855 12.296C122.447 12.296 122.935 12.488 123.319 12.872C123.703 13.24 123.895 13.704 123.895 14.264C123.895 14.824 123.703 15.296 123.319 15.68C122.935 16.048 122.447 16.232 121.855 16.232Z" fill="#151223"/>
<path d="M155.032 14.168C155.032 15.56 154.552 16.72 153.592 17.648C152.648 18.56 151.2 19.016 149.248 19.016H146.032V26H143.848V9.272H149.248C151.136 9.272 152.568 9.728 153.544 10.64C154.536 11.552 155.032 12.728 155.032 14.168ZM149.248 17.216C150.464 17.216 151.36 16.952 151.936 16.424C152.512 15.896 152.8 15.144 152.8 14.168C152.8 12.104 151.616 11.072 149.248 11.072H146.032V17.216H149.248ZM163.482 26.216C162.25 26.216 161.13 25.936 160.122 25.376C159.13 24.816 158.346 24.024 157.77 23C157.21 21.96 156.93 20.76 156.93 19.4C156.93 18.056 157.218 16.872 157.794 15.848C158.386 14.808 159.186 14.016 160.194 13.472C161.202 12.912 162.33 12.632 163.578 12.632C164.826 12.632 165.954 12.912 166.962 13.472C167.97 14.016 168.762 14.8 169.338 15.824C169.93 16.848 170.226 18.04 170.226 19.4C170.226 20.76 169.922 21.96 169.314 23C168.722 24.024 167.914 24.816 166.89 25.376C165.866 25.936 164.73 26.216 163.482 26.216ZM163.482 24.296C164.266 24.296 165.002 24.112 165.69 23.744C166.378 23.376 166.93 22.824 167.346 22.088C167.778 21.352 167.994 20.456 167.994 19.4C167.994 18.344 167.786 17.448 167.37 16.712C166.954 15.976 166.41 15.432 165.738 15.08C165.066 14.712 164.338 14.528 163.554 14.528C162.754 14.528 162.018 14.712 161.346 15.08C160.69 15.432 160.162 15.976 159.762 16.712C159.362 17.448 159.162 18.344 159.162 19.4C159.162 20.472 159.354 21.376 159.738 22.112C160.138 22.848 160.666 23.4 161.322 23.768C161.978 24.12 162.698 24.296 163.482 24.296ZM175.762 14.648V22.4C175.762 23.04 175.898 23.496 176.17 23.768C176.442 24.024 176.914 24.152 177.586 24.152H179.194V26H177.226C176.01 26 175.098 25.72 174.49 25.16C173.882 24.6 173.578 23.68 173.578 22.4V14.648H171.874V12.848H173.578V9.536H175.762V12.848H179.194V14.648H175.762ZM181.024 19.376C181.024 18.032 181.296 16.856 181.84 15.848C182.384 14.824 183.128 14.032 184.072 13.472C185.032 12.912 186.096 12.632 187.264 12.632C188.416 12.632 189.416 12.88 190.264 13.376C191.112 13.872 191.744 14.496 192.16 15.248V12.848H194.368V26H192.16V23.552C191.728 24.32 191.08 24.96 190.216 25.472C189.368 25.968 188.376 26.216 187.24 26.216C186.072 26.216 185.016 25.928 184.072 25.352C183.128 24.776 182.384 23.968 181.84 22.928C181.296 21.888 181.024 20.704 181.024 19.376ZM192.16 19.4C192.16 18.408 191.96 17.544 191.56 16.808C191.16 16.072 190.616 15.512 189.928 15.128C189.256 14.728 188.512 14.528 187.696 14.528C186.88 14.528 186.136 14.72 185.464 15.104C184.792 15.488 184.256 16.048 183.856 16.784C183.456 17.52 183.256 18.384 183.256 19.376C183.256 20.384 183.456 21.264 183.856 22.016C184.256 22.752 184.792 23.32 185.464 23.72C186.136 24.104 186.88 24.296 187.696 24.296C188.512 24.296 189.256 24.104 189.928 23.72C190.616 23.32 191.16 22.752 191.56 22.016C191.96 21.264 192.16 20.392 192.16 19.4ZM200.723 14.648V22.4C200.723 23.04 200.859 23.496 201.131 23.768C201.403 24.024 201.875 24.152 202.547 24.152H204.155V26H202.187C200.971 26 200.059 25.72 199.451 25.16C198.843 24.6 198.539 23.68 198.539 22.4V14.648H196.835V12.848H198.539V9.536H200.723V12.848H204.155V14.648H200.723ZM212.537 26.216C211.305 26.216 210.185 25.936 209.177 25.376C208.185 24.816 207.401 24.024 206.825 23C206.265 21.96 205.985 20.76 205.985 19.4C205.985 18.056 206.273 16.872 206.849 15.848C207.441 14.808 208.241 14.016 209.249 13.472C210.257 12.912 211.385 12.632 212.633 12.632C213.881 12.632 215.009 12.912 216.017 13.472C217.025 14.016 217.817 14.8 218.393 15.824C218.985 16.848 219.281 18.04 219.281 19.4C219.281 20.76 218.977 21.96 218.369 23C217.777 24.024 216.969 24.816 215.945 25.376C214.921 25.936 213.785 26.216 212.537 26.216ZM212.537 24.296C213.321 24.296 214.057 24.112 214.745 23.744C215.433 23.376 215.985 22.824 216.401 22.088C216.833 21.352 217.049 20.456 217.049 19.4C217.049 18.344 216.841 17.448 216.425 16.712C216.009 15.976 215.465 15.432 214.793 15.08C214.121 14.712 213.393 14.528 212.609 14.528C211.809 14.528 211.073 14.712 210.401 15.08C209.745 15.432 209.217 15.976 208.817 16.712C208.417 17.448 208.217 18.344 208.217 19.4C208.217 20.472 208.409 21.376 208.793 22.112C209.193 22.848 209.721 23.4 210.377 23.768C211.033 24.12 211.753 24.296 212.537 24.296Z" fill="#151223"/>
<rect y="60" width="20" height="20" rx="10" fill="#8DE1F3"/>
<path d="M41.088 75.168H48.624V78H37.2V75.408L44.688 64.08H37.2V61.248H48.624V63.84L41.088 75.168ZM57.3881 78.216C56.1081 78.216 54.9561 77.936 53.9321 77.376C52.9081 76.8 52.1001 75.992 51.5081 74.952C50.9321 73.912 50.6441 72.712 50.6441 71.352C50.6441 69.992 50.9401 68.792 51.5321 67.752C52.1401 66.712 52.9641 65.912 54.0041 65.352C55.0441 64.776 56.2041 64.488 57.4841 64.488C58.7641 64.488 59.9241 64.776 60.9641 65.352C62.0041 65.912 62.8201 66.712 63.4121 67.752C64.0201 68.792 64.3241 69.992 64.3241 71.352C64.3241 72.712 64.0121 73.912 63.3881 74.952C62.7801 75.992 61.9481 76.8 60.8921 77.376C59.8521 77.936 58.6841 78.216 57.3881 78.216ZM57.3881 75.288C57.9961 75.288 58.5641 75.144 59.0921 74.856C59.6361 74.552 60.0681 74.104 60.3881 73.512C60.7081 72.92 60.8681 72.2 60.8681 71.352C60.8681 70.088 60.5321 69.12 59.8601 68.448C59.2041 67.76 58.3961 67.416 57.4361 67.416C56.4761 67.416 55.6681 67.76 55.0121 68.448C54.3721 69.12 54.0521 70.088 54.0521 71.352C54.0521 72.616 54.3641 73.592 54.9881 74.28C55.6281 74.952 56.4281 75.288 57.3881 75.288ZM74.1568 64.512C75.7408 64.512 77.0208 65.016 77.9968 66.024C78.9728 67.016 79.4608 68.408 79.4608 70.2V78H76.1008V70.656C76.1008 69.6 75.8368 68.792 75.3088 68.232C74.7808 67.656 74.0608 67.368 73.1488 67.368C72.2208 67.368 71.4848 67.656 70.9408 68.232C70.4128 68.792 70.1488 69.6 70.1488 70.656V78H66.7888V64.704H70.1488V66.36C70.5968 65.784 71.1648 65.336 71.8528 65.016C72.5568 64.68 73.3248 64.512 74.1568 64.512ZM95.016 71.064C95.016 71.544 94.984 71.976 94.92 72.36H85.2C85.28 73.32 85.616 74.072 86.208 74.616C86.8 75.16 87.528 75.432 88.392 75.432C89.64 75.432 90.528 74.896 91.056 73.824H94.68C94.296 75.104 93.56 76.16 92.472 76.992C91.384 77.808 90.048 78.216 88.464 78.216C87.184 78.216 86.032 77.936 85.008 77.376C84 76.8 83.208 75.992 82.632 74.952C82.072 73.912 81.792 72.712 81.792 71.352C81.792 69.976 82.072 68.768 82.632 67.728C83.192 66.688 83.976 65.888 84.984 65.328C85.992 64.768 87.152 64.488 88.464 64.488C89.728 64.488 90.856 64.76 91.848 65.304C92.856 65.848 93.632 66.624 94.176 67.632C94.736 68.624 95.016 69.768 95.016 71.064ZM91.536 70.104C91.52 69.24 91.208 68.552 90.6 68.04C89.992 67.512 89.248 67.248 88.368 67.248C87.536 67.248 86.832 67.504 86.256 68.016C85.696 68.512 85.352 69.208 85.224 70.104H91.536ZM112.691 69.408C113.635 69.584 114.411 70.056 115.019 70.824C115.627 71.592 115.931 72.472 115.931 73.464C115.931 74.36 115.707 75.152 115.259 75.84C114.827 76.512 114.195 77.04 113.363 77.424C112.531 77.808 111.547 78 110.411 78H103.187V61.248H110.099C111.235 61.248 112.211 61.432 113.027 61.8C113.859 62.168 114.483 62.68 114.899 63.336C115.331 63.992 115.547 64.736 115.547 65.568C115.547 66.544 115.283 67.36 114.755 68.016C114.243 68.672 113.555 69.136 112.691 69.408ZM106.547 68.16H109.619C110.419 68.16 111.035 67.984 111.467 67.632C111.899 67.264 112.115 66.744 112.115 66.072C112.115 65.4 111.899 64.88 111.467 64.512C111.035 64.144 110.419 63.96 109.619 63.96H106.547V68.16ZM109.931 75.264C110.747 75.264 111.379 75.072 111.827 74.688C112.291 74.304 112.523 73.76 112.523 73.056C112.523 72.336 112.283 71.776 111.803 71.376C111.323 70.96 110.675 70.752 109.859 70.752H106.547V75.264H109.931ZM120.097 78.168C119.489 78.168 118.985 77.984 118.585 77.616C118.201 77.232 118.009 76.76 118.009 76.2C118.009 75.64 118.201 75.176 118.585 74.808C118.985 74.424 119.489 74.232 120.097 74.232C120.689 74.232 121.177 74.424 121.561 74.808C121.945 75.176 122.137 75.64 122.137 76.2C122.137 76.76 121.945 77.232 121.561 77.616C121.177 77.984 120.689 78.168 120.097 78.168ZM120.097 68.232C119.489 68.232 118.985 68.048 118.585 67.68C118.201 67.296 118.009 66.824 118.009 66.264C118.009 65.704 118.201 65.24 118.585 64.872C118.985 64.488 119.489 64.296 120.097 64.296C120.689 64.296 121.177 64.488 121.561 64.872C121.945 65.24 122.137 65.704 122.137 66.264C122.137 66.824 121.945 67.296 121.561 67.68C121.177 68.048 120.689 68.232 120.097 68.232Z" fill="#151223"/>
<path d="M149.432 78.168C147.88 78.168 146.464 77.808 145.184 77.088C143.904 76.352 142.888 75.336 142.136 74.04C141.4 72.728 141.032 71.256 141.032 69.624C141.032 67.992 141.4 66.528 142.136 65.232C142.888 63.92 143.904 62.904 145.184 62.184C146.464 61.448 147.88 61.08 149.432 61.08C151 61.08 152.424 61.448 153.704 62.184C154.984 62.904 155.992 63.912 156.728 65.208C157.464 66.504 157.832 67.976 157.832 69.624C157.832 71.272 157.464 72.744 156.728 74.04C155.992 75.336 154.984 76.352 153.704 77.088C152.424 77.808 151 78.168 149.432 78.168ZM149.432 76.272C150.6 76.272 151.648 76 152.576 75.456C153.52 74.912 154.256 74.136 154.784 73.128C155.328 72.12 155.6 70.952 155.6 69.624C155.6 68.28 155.328 67.112 154.784 66.12C154.256 65.112 153.528 64.336 152.6 63.792C151.672 63.248 150.616 62.976 149.432 62.976C148.248 62.976 147.192 63.248 146.264 63.792C145.336 64.336 144.6 65.112 144.056 66.12C143.528 67.112 143.264 68.28 143.264 69.624C143.264 70.952 143.528 72.12 144.056 73.128C144.6 74.136 145.336 74.912 146.264 75.456C147.208 76 148.264 76.272 149.432 76.272ZM167.123 64.608C168.723 64.608 170.019 65.096 171.011 66.072C172.003 67.032 172.499 68.424 172.499 70.248V78H170.339V70.56C170.339 69.248 170.011 68.248 169.355 67.56C168.699 66.856 167.803 66.504 166.667 66.504C165.515 66.504 164.595 66.864 163.907 67.584C163.235 68.304 162.899 69.352 162.899 70.728V78H160.715V64.848H162.899V66.72C163.331 66.048 163.915 65.528 164.651 65.16C165.403 64.792 166.227 64.608 167.123 64.608ZM177.195 62.712C176.779 62.712 176.427 62.568 176.139 62.28C175.851 61.992 175.707 61.64 175.707 61.224C175.707 60.808 175.851 60.456 176.139 60.168C176.427 59.88 176.779 59.736 177.195 59.736C177.595 59.736 177.931 59.88 178.203 60.168C178.491 60.456 178.635 60.808 178.635 61.224C178.635 61.64 178.491 61.992 178.203 62.28C177.931 62.568 177.595 62.712 177.195 62.712ZM178.251 64.848V78H176.067V64.848H178.251ZM187.709 78.216C186.477 78.216 185.357 77.936 184.349 77.376C183.357 76.816 182.573 76.024 181.997 75C181.437 73.96 181.157 72.76 181.157 71.4C181.157 70.056 181.445 68.872 182.021 67.848C182.613 66.808 183.413 66.016 184.421 65.472C185.429 64.912 186.557 64.632 187.805 64.632C189.053 64.632 190.181 64.912 191.189 65.472C192.197 66.016 192.989 66.8 193.565 67.824C194.157 68.848 194.453 70.04 194.453 71.4C194.453 72.76 194.149 73.96 193.541 75C192.949 76.024 192.141 76.816 191.117 77.376C190.093 77.936 188.957 78.216 187.709 78.216ZM187.709 76.296C188.493 76.296 189.229 76.112 189.917 75.744C190.605 75.376 191.157 74.824 191.573 74.088C192.005 73.352 192.221 72.456 192.221 71.4C192.221 70.344 192.013 69.448 191.597 68.712C191.181 67.976 190.637 67.432 189.965 67.08C189.293 66.712 188.565 66.528 187.781 66.528C186.981 66.528 186.245 66.712 185.573 67.08C184.917 67.432 184.389 67.976 183.989 68.712C183.589 69.448 183.389 70.344 183.389 71.4C183.389 72.472 183.581 73.376 183.965 74.112C184.365 74.848 184.893 75.4 185.549 75.768C186.205 76.12 186.925 76.296 187.709 76.296ZM203.733 64.608C205.333 64.608 206.629 65.096 207.621 66.072C208.613 67.032 209.109 68.424 209.109 70.248V78H206.949V70.56C206.949 69.248 206.621 68.248 205.965 67.56C205.309 66.856 204.413 66.504 203.277 66.504C202.125 66.504 201.205 66.864 200.517 67.584C199.845 68.304 199.509 69.352 199.509 70.728V78H197.325V64.848H199.509V66.72C199.941 66.048 200.525 65.528 201.261 65.16C202.013 64.792 202.837 64.608 203.733 64.608Z" fill="#151223"/>
<rect y="112" width="20" height="20" rx="10" fill="#95F0E0"/>
<path d="M41.088 127.168H48.624V130H37.2V127.408L44.688 116.08H37.2V113.248H48.624V115.84L41.088 127.168ZM57.3881 130.216C56.1081 130.216 54.9561 129.936 53.9321 129.376C52.9081 128.8 52.1001 127.992 51.5081 126.952C50.9321 125.912 50.6441 124.712 50.6441 123.352C50.6441 121.992 50.9401 120.792 51.5321 119.752C52.1401 118.712 52.9641 117.912 54.0041 117.352C55.0441 116.776 56.2041 116.488 57.4841 116.488C58.7641 116.488 59.9241 116.776 60.9641 117.352C62.0041 117.912 62.8201 118.712 63.4121 119.752C64.0201 120.792 64.3241 121.992 64.3241 123.352C64.3241 124.712 64.0121 125.912 63.3881 126.952C62.7801 127.992 61.9481 128.8 60.8921 129.376C59.8521 129.936 58.6841 130.216 57.3881 130.216ZM57.3881 127.288C57.9961 127.288 58.5641 127.144 59.0921 126.856C59.6361 126.552 60.0681 126.104 60.3881 125.512C60.7081 124.92 60.8681 124.2 60.8681 123.352C60.8681 122.088 60.5321 121.12 59.8601 120.448C59.2041 119.76 58.3961 119.416 57.4361 119.416C56.4761 119.416 55.6681 119.76 55.0121 120.448C54.3721 121.12 54.0521 122.088 54.0521 123.352C54.0521 124.616 54.3641 125.592 54.9881 126.28C55.6281 126.952 56.4281 127.288 57.3881 127.288ZM74.1568 116.512C75.7408 116.512 77.0208 117.016 77.9968 118.024C78.9728 119.016 79.4608 120.408 79.4608 122.2V130H76.1008V122.656C76.1008 121.6 75.8368 120.792 75.3088 120.232C74.7808 119.656 74.0608 119.368 73.1488 119.368C72.2208 119.368 71.4848 119.656 70.9408 120.232C70.4128 120.792 70.1488 121.6 70.1488 122.656V130H66.7888V116.704H70.1488V118.36C70.5968 117.784 71.1648 117.336 71.8528 117.016C72.5568 116.68 73.3248 116.512 74.1568 116.512ZM95.016 123.064C95.016 123.544 94.984 123.976 94.92 124.36H85.2C85.28 125.32 85.616 126.072 86.208 126.616C86.8 127.16 87.528 127.432 88.392 127.432C89.64 127.432 90.528 126.896 91.056 125.824H94.68C94.296 127.104 93.56 128.16 92.472 128.992C91.384 129.808 90.048 130.216 88.464 130.216C87.184 130.216 86.032 129.936 85.008 129.376C84 128.8 83.208 127.992 82.632 126.952C82.072 125.912 81.792 124.712 81.792 123.352C81.792 121.976 82.072 120.768 82.632 119.728C83.192 118.688 83.976 117.888 84.984 117.328C85.992 116.768 87.152 116.488 88.464 116.488C89.728 116.488 90.856 116.76 91.848 117.304C92.856 117.848 93.632 118.624 94.176 119.632C94.736 120.624 95.016 121.768 95.016 123.064ZM91.536 122.104C91.52 121.24 91.208 120.552 90.6 120.04C89.992 119.512 89.248 119.248 88.368 119.248C87.536 119.248 86.832 119.504 86.256 120.016C85.696 120.512 85.352 121.208 85.224 122.104H91.536ZM102.371 121.6C102.371 119.952 102.739 118.48 103.475 117.184C104.227 115.872 105.243 114.856 106.523 114.136C107.819 113.4 109.267 113.032 110.867 113.032C112.739 113.032 114.379 113.512 115.787 114.472C117.195 115.432 118.179 116.76 118.739 118.456H114.875C114.491 117.656 113.947 117.056 113.243 116.656C112.555 116.256 111.755 116.056 110.843 116.056C109.867 116.056 108.995 116.288 108.227 116.752C107.475 117.2 106.883 117.84 106.451 118.672C106.035 119.504 105.827 120.48 105.827 121.6C105.827 122.704 106.035 123.68 106.451 124.528C106.883 125.36 107.475 126.008 108.227 126.472C108.995 126.92 109.867 127.144 110.843 127.144C111.755 127.144 112.555 126.944 113.243 126.544C113.947 126.128 114.491 125.52 114.875 124.72H118.739C118.179 126.432 117.195 127.768 115.787 128.728C114.395 129.672 112.755 130.144 110.867 130.144C109.267 130.144 107.819 129.784 106.523 129.064C105.243 128.328 104.227 127.312 103.475 126.016C102.739 124.72 102.371 123.248 102.371 121.6ZM123.097 130.168C122.489 130.168 121.985 129.984 121.585 129.616C121.201 129.232 121.009 128.76 121.009 128.2C121.009 127.64 121.201 127.176 121.585 126.808C121.985 126.424 122.489 126.232 123.097 126.232C123.689 126.232 124.177 126.424 124.561 126.808C124.945 127.176 125.137 127.64 125.137 128.2C125.137 128.76 124.945 129.232 124.561 129.616C124.177 129.984 123.689 130.168 123.097 130.168ZM123.097 120.232C122.489 120.232 121.985 120.048 121.585 119.68C121.201 119.296 121.009 118.824 121.009 118.264C121.009 117.704 121.201 117.24 121.585 116.872C121.985 116.488 122.489 116.296 123.097 116.296C123.689 116.296 124.177 116.488 124.561 116.872C124.945 117.24 125.137 117.704 125.137 118.264C125.137 118.824 124.945 119.296 124.561 119.68C124.177 120.048 123.689 120.232 123.097 120.232Z" fill="#151223"/>
<path d="M155.144 113.272V115.048H150.584V130H148.4V115.048H143.816V113.272H155.144ZM163.568 130.216C162.336 130.216 161.216 129.936 160.208 129.376C159.216 128.816 158.432 128.024 157.856 127C157.296 125.96 157.016 124.76 157.016 123.4C157.016 122.056 157.304 120.872 157.88 119.848C158.472 118.808 159.272 118.016 160.28 117.472C161.288 116.912 162.416 116.632 163.664 116.632C164.912 116.632 166.04 116.912 167.048 117.472C168.056 118.016 168.848 118.8 169.424 119.824C170.016 120.848 170.312 122.04 170.312 123.4C170.312 124.76 170.008 125.96 169.4 127C168.808 128.024 168 128.816 166.976 129.376C165.952 129.936 164.816 130.216 163.568 130.216ZM163.568 128.296C164.352 128.296 165.088 128.112 165.776 127.744C166.464 127.376 167.016 126.824 167.432 126.088C167.864 125.352 168.08 124.456 168.08 123.4C168.08 122.344 167.872 121.448 167.456 120.712C167.04 119.976 166.496 119.432 165.824 119.08C165.152 118.712 164.424 118.528 163.64 118.528C162.84 118.528 162.104 118.712 161.432 119.08C160.776 119.432 160.248 119.976 159.848 120.712C159.448 121.448 159.248 122.344 159.248 123.4C159.248 124.472 159.44 125.376 159.824 126.112C160.224 126.848 160.752 127.4 161.408 127.768C162.064 128.12 162.784 128.296 163.568 128.296ZM189 116.608C190.024 116.608 190.936 116.824 191.736 117.256C192.536 117.672 193.168 118.304 193.632 119.152C194.096 120 194.328 121.032 194.328 122.248V130H192.168V122.56C192.168 121.248 191.84 120.248 191.184 119.56C190.544 118.856 189.672 118.504 188.568 118.504C187.432 118.504 186.528 118.872 185.856 119.608C185.184 120.328 184.848 121.376 184.848 122.752V130H182.688V122.56C182.688 121.248 182.36 120.248 181.704 119.56C181.064 118.856 180.192 118.504 179.088 118.504C177.952 118.504 177.048 118.872 176.376 119.608C175.704 120.328 175.368 121.376 175.368 122.752V130H173.184V116.848H175.368V118.744C175.8 118.056 176.376 117.528 177.096 117.16C177.832 116.792 178.64 116.608 179.52 116.608C180.624 116.608 181.6 116.856 182.448 117.352C183.296 117.848 183.928 118.576 184.344 119.536C184.712 118.608 185.32 117.888 186.168 117.376C187.016 116.864 187.96 116.608 189 116.608ZM197.095 123.376C197.095 122.032 197.367 120.856 197.911 119.848C198.455 118.824 199.199 118.032 200.143 117.472C201.103 116.912 202.167 116.632 203.335 116.632C204.487 116.632 205.487 116.88 206.335 117.376C207.183 117.872 207.815 118.496 208.231 119.248V116.848H210.439V130H208.231V127.552C207.799 128.32 207.151 128.96 206.287 129.472C205.439 129.968 204.447 130.216 203.311 130.216C202.143 130.216 201.087 129.928 200.143 129.352C199.199 128.776 198.455 127.968 197.911 126.928C197.367 125.888 197.095 124.704 197.095 123.376ZM208.231 123.4C208.231 122.408 208.031 121.544 207.631 120.808C207.231 120.072 206.687 119.512 205.999 119.128C205.327 118.728 204.583 118.528 203.767 118.528C202.951 118.528 202.207 118.72 201.535 119.104C200.863 119.488 200.327 120.048 199.927 120.784C199.527 121.52 199.327 122.384 199.327 123.376C199.327 124.384 199.527 125.264 199.927 126.016C200.327 126.752 200.863 127.32 201.535 127.72C202.207 128.104 202.951 128.296 203.767 128.296C204.583 128.296 205.327 128.104 205.999 127.72C206.687 127.32 207.231 126.752 207.631 126.016C208.031 125.264 208.231 124.392 208.231 123.4ZM216.793 118.648V126.4C216.793 127.04 216.929 127.496 217.201 127.768C217.473 128.024 217.945 128.152 218.617 128.152H220.225V130H218.257C217.041 130 216.129 129.72 215.521 129.16C214.913 128.6 214.609 127.68 214.609 126.4V118.648H212.905V116.848H214.609V113.536H216.793V116.848H220.225V118.648H216.793ZM228.607 130.216C227.375 130.216 226.255 129.936 225.247 129.376C224.255 128.816 223.471 128.024 222.895 127C222.335 125.96 222.055 124.76 222.055 123.4C222.055 122.056 222.343 120.872 222.919 119.848C223.511 118.808 224.311 118.016 225.319 117.472C226.327 116.912 227.455 116.632 228.703 116.632C229.951 116.632 231.079 116.912 232.087 117.472C233.095 118.016 233.887 118.8 234.463 119.824C235.055 120.848 235.351 122.04 235.351 123.4C235.351 124.76 235.047 125.96 234.439 127C233.847 128.024 233.039 128.816 232.015 129.376C230.991 129.936 229.855 130.216 228.607 130.216ZM228.607 128.296C229.391 128.296 230.127 128.112 230.815 127.744C231.503 127.376 232.055 126.824 232.471 126.088C232.903 125.352 233.119 124.456 233.119 123.4C233.119 122.344 232.911 121.448 232.495 120.712C232.079 119.976 231.535 119.432 230.863 119.08C230.191 118.712 229.463 118.528 228.679 118.528C227.879 118.528 227.143 118.712 226.471 119.08C225.815 119.432 225.287 119.976 224.887 120.712C224.487 121.448 224.287 122.344 224.287 123.4C224.287 124.472 224.479 125.376 224.863 126.112C225.263 126.848 225.791 127.4 226.447 127.768C227.103 128.12 227.823 128.296 228.607 128.296Z" fill="#151223"/>
<rect y="164" width="20" height="20" rx="10" fill="#EE7FC9"/>
<path d="M41.088 179.168H48.624V182H37.2V179.408L44.688 168.08H37.2V165.248H48.624V167.84L41.088 179.168ZM57.3881 182.216C56.1081 182.216 54.9561 181.936 53.9321 181.376C52.9081 180.8 52.1001 179.992 51.5081 178.952C50.9321 177.912 50.6441 176.712 50.6441 175.352C50.6441 173.992 50.9401 172.792 51.5321 171.752C52.1401 170.712 52.9641 169.912 54.0041 169.352C55.0441 168.776 56.2041 168.488 57.4841 168.488C58.7641 168.488 59.9241 168.776 60.9641 169.352C62.0041 169.912 62.8201 170.712 63.4121 171.752C64.0201 172.792 64.3241 173.992 64.3241 175.352C64.3241 176.712 64.0121 177.912 63.3881 178.952C62.7801 179.992 61.9481 180.8 60.8921 181.376C59.8521 181.936 58.6841 182.216 57.3881 182.216ZM57.3881 179.288C57.9961 179.288 58.5641 179.144 59.0921 178.856C59.6361 178.552 60.0681 178.104 60.3881 177.512C60.7081 176.92 60.8681 176.2 60.8681 175.352C60.8681 174.088 60.5321 173.12 59.8601 172.448C59.2041 171.76 58.3961 171.416 57.4361 171.416C56.4761 171.416 55.6681 171.76 55.0121 172.448C54.3721 173.12 54.0521 174.088 54.0521 175.352C54.0521 176.616 54.3641 177.592 54.9881 178.28C55.6281 178.952 56.4281 179.288 57.3881 179.288ZM74.1568 168.512C75.7408 168.512 77.0208 169.016 77.9968 170.024C78.9728 171.016 79.4608 172.408 79.4608 174.2V182H76.1008V174.656C76.1008 173.6 75.8368 172.792 75.3088 172.232C74.7808 171.656 74.0608 171.368 73.1488 171.368C72.2208 171.368 71.4848 171.656 70.9408 172.232C70.4128 172.792 70.1488 173.6 70.1488 174.656V182H66.7888V168.704H70.1488V170.36C70.5968 169.784 71.1648 169.336 71.8528 169.016C72.5568 168.68 73.3248 168.512 74.1568 168.512ZM95.016 175.064C95.016 175.544 94.984 175.976 94.92 176.36H85.2C85.28 177.32 85.616 178.072 86.208 178.616C86.8 179.16 87.528 179.432 88.392 179.432C89.64 179.432 90.528 178.896 91.056 177.824H94.68C94.296 179.104 93.56 180.16 92.472 180.992C91.384 181.808 90.048 182.216 88.464 182.216C87.184 182.216 86.032 181.936 85.008 181.376C84 180.8 83.208 179.992 82.632 178.952C82.072 177.912 81.792 176.712 81.792 175.352C81.792 173.976 82.072 172.768 82.632 171.728C83.192 170.688 83.976 169.888 84.984 169.328C85.992 168.768 87.152 168.488 88.464 168.488C89.728 168.488 90.856 168.76 91.848 169.304C92.856 169.848 93.632 170.624 94.176 171.632C94.736 172.624 95.016 173.768 95.016 175.064ZM91.536 174.104C91.52 173.24 91.208 172.552 90.6 172.04C89.992 171.512 89.248 171.248 88.368 171.248C87.536 171.248 86.832 171.504 86.256 172.016C85.696 172.512 85.352 173.208 85.224 174.104H91.536ZM109.043 165.248C110.803 165.248 112.347 165.592 113.675 166.28C115.019 166.968 116.051 167.952 116.771 169.232C117.507 170.496 117.875 171.968 117.875 173.648C117.875 175.328 117.507 176.8 116.771 178.064C116.051 179.312 115.019 180.28 113.675 180.968C112.347 181.656 110.803 182 109.043 182H103.187V165.248H109.043ZM108.923 179.144C110.683 179.144 112.043 178.664 113.003 177.704C113.963 176.744 114.443 175.392 114.443 173.648C114.443 171.904 113.963 170.544 113.003 169.568C112.043 168.576 110.683 168.08 108.923 168.08H106.547V179.144H108.923ZM121.878 182.168C121.27 182.168 120.766 181.984 120.366 181.616C119.982 181.232 119.79 180.76 119.79 180.2C119.79 179.64 119.982 179.176 120.366 178.808C120.766 178.424 121.27 178.232 121.878 178.232C122.47 178.232 122.958 178.424 123.342 178.808C123.726 179.176 123.918 179.64 123.918 180.2C123.918 180.76 123.726 181.232 123.342 181.616C122.958 181.984 122.47 182.168 121.878 182.168ZM121.878 172.232C121.27 172.232 120.766 172.048 120.366 171.68C119.982 171.296 119.79 170.824 119.79 170.264C119.79 169.704 119.982 169.24 120.366 168.872C120.766 168.488 121.27 168.296 121.878 168.296C122.47 168.296 122.958 168.488 123.342 168.872C123.726 169.24 123.918 169.704 123.918 170.264C123.918 170.824 123.726 171.296 123.342 171.68C122.958 172.048 122.47 172.232 121.878 172.232Z" fill="#151223"/>
<path d="M152.92 182L146.032 174.368V182H143.848V165.272H146.032V173.024L152.944 165.272H155.704L148.12 173.648L155.776 182H152.92ZM164.743 168.608C165.735 168.608 166.631 168.824 167.431 169.256C168.231 169.672 168.855 170.304 169.303 171.152C169.767 172 169.999 173.032 169.999 174.248V182H167.839V174.56C167.839 173.248 167.511 172.248 166.855 171.56C166.199 170.856 165.303 170.504 164.167 170.504C163.015 170.504 162.095 170.864 161.407 171.584C160.735 172.304 160.399 173.352 160.399 174.728V182H158.215V164.24H160.399V170.72C160.831 170.048 161.423 169.528 162.175 169.16C162.943 168.792 163.799 168.608 164.743 168.608ZM179.303 182.216C178.071 182.216 176.951 181.936 175.943 181.376C174.951 180.816 174.167 180.024 173.591 179C173.031 177.96 172.751 176.76 172.751 175.4C172.751 174.056 173.039 172.872 173.615 171.848C174.207 170.808 175.007 170.016 176.015 169.472C177.023 168.912 178.151 168.632 179.399 168.632C180.647 168.632 181.775 168.912 182.783 169.472C183.791 170.016 184.583 170.8 185.159 171.824C185.751 172.848 186.047 174.04 186.047 175.4C186.047 176.76 185.743 177.96 185.135 179C184.543 180.024 183.735 180.816 182.711 181.376C181.687 181.936 180.551 182.216 179.303 182.216ZM179.303 180.296C180.087 180.296 180.823 180.112 181.511 179.744C182.199 179.376 182.751 178.824 183.167 178.088C183.599 177.352 183.815 176.456 183.815 175.4C183.815 174.344 183.607 173.448 183.191 172.712C182.775 171.976 182.231 171.432 181.559 171.08C180.887 170.712 180.159 170.528 179.375 170.528C178.575 170.528 177.839 170.712 177.167 171.08C176.511 171.432 175.983 171.976 175.583 172.712C175.183 173.448 174.983 174.344 174.983 175.4C174.983 176.472 175.175 177.376 175.559 178.112C175.959 178.848 176.487 179.4 177.143 179.768C177.799 180.12 178.519 180.296 179.303 180.296ZM191.102 170.984C191.486 170.232 192.03 169.648 192.734 169.232C193.454 168.816 194.326 168.608 195.35 168.608V170.864H194.774C192.326 170.864 191.102 172.192 191.102 174.848V182H188.918V168.848H191.102V170.984ZM197.055 175.4C197.055 174.04 197.327 172.856 197.871 171.848C198.415 170.824 199.167 170.032 200.127 169.472C201.103 168.912 202.215 168.632 203.463 168.632C205.079 168.632 206.407 169.024 207.447 169.808C208.503 170.592 209.199 171.68 209.535 173.072H207.183C206.959 172.272 206.519 171.64 205.863 171.176C205.223 170.712 204.423 170.48 203.463 170.48C202.215 170.48 201.207 170.912 200.439 171.776C199.671 172.624 199.287 173.832 199.287 175.4C199.287 176.984 199.671 178.208 200.439 179.072C201.207 179.936 202.215 180.368 203.463 180.368C204.423 180.368 205.223 180.144 205.863 179.696C206.503 179.248 206.943 178.608 207.183 177.776H209.535C209.183 179.12 208.479 180.2 207.423 181.016C206.367 181.816 205.047 182.216 203.463 182.216C202.215 182.216 201.103 181.936 200.127 181.376C199.167 180.816 198.415 180.024 197.871 179C197.327 177.976 197.055 176.776 197.055 175.4ZM218.978 168.608C219.97 168.608 220.866 168.824 221.666 169.256C222.466 169.672 223.09 170.304 223.538 171.152C224.002 172 224.234 173.032 224.234 174.248V182H222.074V174.56C222.074 173.248 221.746 172.248 221.09 171.56C220.434 170.856 219.538 170.504 218.402 170.504C217.25 170.504 216.33 170.864 215.642 171.584C214.97 172.304 214.634 173.352 214.634 174.728V182H212.45V164.24H214.634V170.72C215.066 170.048 215.658 169.528 216.41 169.16C217.178 168.792 218.034 168.608 218.978 168.608ZM239.801 174.92C239.801 175.336 239.777 175.776 239.729 176.24H229.217C229.297 177.536 229.737 178.552 230.537 179.288C231.353 180.008 232.337 180.368 233.489 180.368C234.433 180.368 235.217 180.152 235.841 179.72C236.481 179.272 236.929 178.68 237.185 177.944H239.537C239.185 179.208 238.481 180.24 237.425 181.04C236.369 181.824 235.057 182.216 233.489 182.216C232.241 182.216 231.121 181.936 230.129 181.376C229.153 180.816 228.385 180.024 227.825 179C227.265 177.96 226.985 176.76 226.985 175.4C226.985 174.04 227.257 172.848 227.801 171.824C228.345 170.8 229.105 170.016 230.081 169.472C231.073 168.912 232.209 168.632 233.489 168.632C234.737 168.632 235.841 168.904 236.801 169.448C237.761 169.992 238.497 170.744 239.009 171.704C239.537 172.648 239.801 173.72 239.801 174.92ZM237.545 174.464C237.545 173.632 237.361 172.92 236.993 172.328C236.625 171.72 236.121 171.264 235.481 170.96C234.857 170.64 234.161 170.48 233.393 170.48C232.289 170.48 231.345 170.832 230.561 171.536C229.793 172.24 229.353 173.216 229.241 174.464H237.545ZM248.036 170.648H245.276V182H243.092V170.648H241.388V168.848H243.092V167.912C243.092 166.44 243.468 165.368 244.22 164.696C244.988 164.008 246.212 163.664 247.892 163.664V165.488C246.932 165.488 246.252 165.68 245.852 166.064C245.468 166.432 245.276 167.048 245.276 167.912V168.848H248.036V170.648Z" fill="#151223"/>
<rect y="216" width="20" height="20" rx="10" fill="#CBCACD"/>
<path d="M41.088 231.168H48.624V234H37.2V231.408L44.688 220.08H37.2V217.248H48.624V219.84L41.088 231.168ZM57.3881 234.216C56.1081 234.216 54.9561 233.936 53.9321 233.376C52.9081 232.8 52.1001 231.992 51.5081 230.952C50.9321 229.912 50.6441 228.712 50.6441 227.352C50.6441 225.992 50.9401 224.792 51.5321 223.752C52.1401 222.712 52.9641 221.912 54.0041 221.352C55.0441 220.776 56.2041 220.488 57.4841 220.488C58.7641 220.488 59.9241 220.776 60.9641 221.352C62.0041 221.912 62.8201 222.712 63.4121 223.752C64.0201 224.792 64.3241 225.992 64.3241 227.352C64.3241 228.712 64.0121 229.912 63.3881 230.952C62.7801 231.992 61.9481 232.8 60.8921 233.376C59.8521 233.936 58.6841 234.216 57.3881 234.216ZM57.3881 231.288C57.9961 231.288 58.5641 231.144 59.0921 230.856C59.6361 230.552 60.0681 230.104 60.3881 229.512C60.7081 228.92 60.8681 228.2 60.8681 227.352C60.8681 226.088 60.5321 225.12 59.8601 224.448C59.2041 223.76 58.3961 223.416 57.4361 223.416C56.4761 223.416 55.6681 223.76 55.0121 224.448C54.3721 225.12 54.0521 226.088 54.0521 227.352C54.0521 228.616 54.3641 229.592 54.9881 230.28C55.6281 230.952 56.4281 231.288 57.3881 231.288ZM74.1568 220.512C75.7408 220.512 77.0208 221.016 77.9968 222.024C78.9728 223.016 79.4608 224.408 79.4608 226.2V234H76.1008V226.656C76.1008 225.6 75.8368 224.792 75.3088 224.232C74.7808 223.656 74.0608 223.368 73.1488 223.368C72.2208 223.368 71.4848 223.656 70.9408 224.232C70.4128 224.792 70.1488 225.6 70.1488 226.656V234H66.7888V220.704H70.1488V222.36C70.5968 221.784 71.1648 221.336 71.8528 221.016C72.5568 220.68 73.3248 220.512 74.1568 220.512ZM95.016 227.064C95.016 227.544 94.984 227.976 94.92 228.36H85.2C85.28 229.32 85.616 230.072 86.208 230.616C86.8 231.16 87.528 231.432 88.392 231.432C89.64 231.432 90.528 230.896 91.056 229.824H94.68C94.296 231.104 93.56 232.16 92.472 232.992C91.384 233.808 90.048 234.216 88.464 234.216C87.184 234.216 86.032 233.936 85.008 233.376C84 232.8 83.208 231.992 82.632 230.952C82.072 229.912 81.792 228.712 81.792 227.352C81.792 225.976 82.072 224.768 82.632 223.728C83.192 222.688 83.976 221.888 84.984 221.328C85.992 220.768 87.152 220.488 88.464 220.488C89.728 220.488 90.856 220.76 91.848 221.304C92.856 221.848 93.632 222.624 94.176 223.632C94.736 224.624 95.016 225.768 95.016 227.064ZM91.536 226.104C91.52 225.24 91.208 224.552 90.6 224.04C89.992 223.512 89.248 223.248 88.368 223.248C87.536 223.248 86.832 223.504 86.256 224.016C85.696 224.512 85.352 225.208 85.224 226.104H91.536ZM106.547 219.96V224.16H112.187V226.824H106.547V231.264H112.907V234H103.187V217.224H112.907V219.96H106.547ZM117.449 234.168C116.841 234.168 116.337 233.984 115.937 233.616C115.553 233.232 115.361 232.76 115.361 232.2C115.361 231.64 115.553 231.176 115.937 230.808C116.337 230.424 116.841 230.232 117.449 230.232C118.041 230.232 118.529 230.424 118.913 230.808C119.297 231.176 119.489 231.64 119.489 232.2C119.489 232.76 119.297 233.232 118.913 233.616C118.529 233.984 118.041 234.168 117.449 234.168ZM117.449 224.232C116.841 224.232 116.337 224.048 115.937 223.68C115.553 223.296 115.361 222.824 115.361 222.264C115.361 221.704 115.553 221.24 115.937 220.872C116.337 220.488 116.841 220.296 117.449 220.296C118.041 220.296 118.529 220.488 118.913 220.872C119.297 221.24 119.489 221.704 119.489 222.264C119.489 222.824 119.297 223.296 118.913 223.68C118.529 224.048 118.041 224.232 117.449 224.232Z" fill="#151223"/>
<path d="M140.984 217.272V227.856C140.984 229.344 141.344 230.448 142.064 231.168C142.8 231.888 143.816 232.248 145.112 232.248C146.392 232.248 147.392 231.888 148.112 231.168C148.848 230.448 149.216 229.344 149.216 227.856V217.272H151.4V227.832C151.4 229.224 151.12 230.4 150.56 231.36C150 232.304 149.24 233.008 148.28 233.472C147.336 233.936 146.272 234.168 145.088 234.168C143.904 234.168 142.832 233.936 141.872 233.472C140.928 233.008 140.176 232.304 139.616 231.36C139.072 230.4 138.8 229.224 138.8 227.832V217.272H140.984ZM161.451 220.608C163.051 220.608 164.347 221.096 165.339 222.072C166.331 223.032 166.827 224.424 166.827 226.248V234H164.667V226.56C164.667 225.248 164.339 224.248 163.683 223.56C163.027 222.856 162.131 222.504 160.995 222.504C159.843 222.504 158.923 222.864 158.235 223.584C157.563 224.304 157.227 225.352 157.227 226.728V234H155.043V220.848H157.227V222.72C157.659 222.048 158.243 221.528 158.979 221.16C159.731 220.792 160.555 220.608 161.451 220.608ZM182.059 220.848V234H179.875V232.056C179.459 232.728 178.875 233.256 178.123 233.64C177.387 234.008 176.571 234.192 175.675 234.192C174.651 234.192 173.731 233.984 172.915 233.568C172.099 233.136 171.451 232.496 170.971 231.648C170.507 230.8 170.275 229.768 170.275 228.552V220.848H172.435V228.264C172.435 229.56 172.763 230.56 173.419 231.264C174.075 231.952 174.971 232.296 176.107 232.296C177.275 232.296 178.195 231.936 178.867 231.216C179.539 230.496 179.875 229.448 179.875 228.072V220.848H182.059ZM190.402 234.216C189.394 234.216 188.49 234.048 187.69 233.712C186.89 233.36 186.258 232.88 185.794 232.272C185.33 231.648 185.074 230.936 185.026 230.136H187.282C187.346 230.792 187.65 231.328 188.194 231.744C188.754 232.16 189.482 232.368 190.378 232.368C191.21 232.368 191.866 232.184 192.346 231.816C192.826 231.448 193.066 230.984 193.066 230.424C193.066 229.848 192.81 229.424 192.298 229.152C191.786 228.864 190.994 228.584 189.922 228.312C188.946 228.056 188.146 227.8 187.522 227.544C186.914 227.272 186.386 226.88 185.938 226.368C185.506 225.84 185.29 225.152 185.29 224.304C185.29 223.632 185.49 223.016 185.89 222.456C186.29 221.896 186.858 221.456 187.594 221.136C188.33 220.8 189.17 220.632 190.114 220.632C191.57 220.632 192.746 221 193.642 221.736C194.538 222.472 195.018 223.48 195.082 224.76H192.898C192.85 224.072 192.57 223.52 192.058 223.104C191.562 222.688 190.89 222.48 190.042 222.48C189.258 222.48 188.634 222.648 188.17 222.984C187.706 223.32 187.474 223.76 187.474 224.304C187.474 224.736 187.61 225.096 187.882 225.384C188.17 225.656 188.522 225.88 188.938 226.056C189.37 226.216 189.962 226.4 190.714 226.608C191.658 226.864 192.426 227.12 193.018 227.376C193.61 227.616 194.114 227.984 194.53 228.48C194.962 228.976 195.186 229.624 195.202 230.424C195.202 231.144 195.002 231.792 194.602 232.368C194.202 232.944 193.634 233.4 192.898 233.736C192.178 234.056 191.346 234.216 190.402 234.216ZM210.286 226.92C210.286 227.336 210.262 227.776 210.214 228.24H199.702C199.782 229.536 200.222 230.552 201.022 231.288C201.838 232.008 202.822 232.368 203.974 232.368C204.918 232.368 205.702 232.152 206.326 231.72C206.966 231.272 207.414 230.68 207.67 229.944H210.022C209.67 231.208 208.966 232.24 207.91 233.04C206.854 233.824 205.542 234.216 203.974 234.216C202.726 234.216 201.606 233.936 200.614 233.376C199.638 232.816 198.87 232.024 198.31 231C197.75 229.96 197.47 228.76 197.47 227.4C197.47 226.04 197.742 224.848 198.286 223.824C198.83 222.8 199.59 222.016 200.566 221.472C201.558 220.912 202.694 220.632 203.974 220.632C205.222 220.632 206.326 220.904 207.286 221.448C208.246 221.992 208.982 222.744 209.494 223.704C210.022 224.648 210.286 225.72 210.286 226.92ZM208.03 226.464C208.03 225.632 207.846 224.92 207.478 224.328C207.11 223.72 206.606 223.264 205.966 222.96C205.342 222.64 204.646 222.48 203.878 222.48C202.774 222.48 201.83 222.832 201.046 223.536C200.278 224.24 199.838 225.216 199.726 226.464H208.03ZM212.352 227.376C212.352 226.032 212.624 224.856 213.168 223.848C213.712 222.824 214.456 222.032 215.4 221.472C216.36 220.912 217.432 220.632 218.616 220.632C219.64 220.632 220.592 220.872 221.472 221.352C222.352 221.816 223.024 222.432 223.488 223.2V216.24H225.696V234H223.488V231.528C223.056 232.312 222.416 232.96 221.568 233.472C220.72 233.968 219.728 234.216 218.592 234.216C217.424 234.216 216.36 233.928 215.4 233.352C214.456 232.776 213.712 231.968 213.168 230.928C212.624 229.888 212.352 228.704 212.352 227.376ZM223.488 227.4C223.488 226.408 223.288 225.544 222.888 224.808C222.488 224.072 221.944 223.512 221.256 223.128C220.584 222.728 219.84 222.528 219.024 222.528C218.208 222.528 217.464 222.72 216.792 223.104C216.12 223.488 215.584 224.048 215.184 224.784C214.784 225.52 214.584 226.384 214.584 227.376C214.584 228.384 214.784 229.264 215.184 230.016C215.584 230.752 216.12 231.32 216.792 231.72C217.464 232.104 218.208 232.296 219.024 232.296C219.84 232.296 220.584 232.104 221.256 231.72C221.944 231.32 222.488 230.752 222.888 230.016C223.288 229.264 223.488 228.392 223.488 227.4Z" fill="#151223"/>
</svg>
