<svg width="416" height="248" viewBox="0 0 416 248" fill="none" xmlns="http://www.w3.org/2000/svg">
<g clip-path="url(#clip0_177_2415)">
<rect width="416" height="248" rx="16" fill="#BBD0FF"/>
<g opacity="0.3">
<path d="M0.0462898 47.3022L82.1495 82.6574L65.7597 120.719L-69.0854 62.6516L-53.8662 27.3092L78.2677 -55.0154L-3.29184 -90.1365L13.098 -128.198L147.943 -70.1307L132.724 -34.7882L0.0462898 47.3022ZM164.245 165.706C149.383 159.307 137.337 150.359 128.106 138.865C119.057 127.448 113.626 114.367 111.811 99.62C110.178 84.9515 112.757 69.7331 119.547 53.9649C126.259 38.378 135.595 26.177 147.556 17.362C159.594 8.36571 172.96 3.27136 187.654 2.07894C202.347 0.886517 217.125 3.49023 231.987 9.89007C246.849 16.2899 258.895 25.2371 268.126 36.7318C277.356 48.2264 282.839 61.4376 284.575 76.3654C286.39 91.112 283.941 106.279 277.229 121.866C270.517 137.453 261.051 149.705 248.831 158.623C236.871 167.438 223.453 172.403 208.578 173.518C193.885 174.71 179.107 172.106 164.245 165.706ZM181.571 125.47C190.452 129.295 199.379 129.271 208.351 125.4C217.504 121.607 224.695 113.639 229.924 101.495C235.153 89.3522 236.092 78.6913 232.739 69.513C229.568 60.4127 223.542 53.9504 214.661 50.1261C205.598 46.2237 196.672 46.2472 187.881 50.1964C179.169 53.9644 172.159 62.0106 166.852 74.3352C161.622 86.4785 160.503 97.0612 163.493 106.083C166.664 115.184 172.69 121.646 181.571 125.47ZM427.691 94.8086C445.453 102.457 457.092 114.345 462.609 130.471C468.386 146.494 466.942 164.565 458.279 184.683L420.114 273.311L373.897 253.409L409.37 171.033C413.74 160.884 414.507 151.868 411.671 143.986C408.834 136.104 402.975 130.251 394.094 126.427C385.213 122.603 376.935 122.368 369.26 125.723C361.584 129.078 355.561 135.831 351.191 145.98L315.718 228.356L269.229 208.336L334.555 56.6359L381.043 76.6549L372.38 96.7729C379.98 92.0961 388.587 89.5717 398.201 89.1996C407.893 88.6464 417.723 90.516 427.691 94.8086ZM629.137 270.504C627.264 274.853 625.041 279.268 622.468 283.746L517.256 238.439C513.922 248.176 513.791 256.714 516.862 264.052C520.192 271.287 525.754 276.582 533.547 279.938C545.147 284.933 555.319 283.513 564.065 275.677L613.544 296.984C606.714 305.86 598.229 312.841 588.089 317.928C578.13 323.093 567.191 325.795 555.272 326.033C543.352 326.272 531.23 323.737 518.906 318.43C504.044 312.03 492.179 303.161 483.311 291.823C474.443 280.484 469.283 267.52 467.831 252.929C466.38 238.339 469.049 223.159 475.839 207.391C482.629 191.623 491.732 179.214 503.149 170.165C514.747 161.194 527.711 156.034 542.042 154.686C556.373 153.337 571.061 155.902 586.104 162.38C600.785 168.701 612.507 177.402 621.272 188.481C630.037 199.56 635.132 212.175 636.559 226.325C638.167 240.553 635.693 255.279 629.137 270.504ZM586.829 237.782C590.263 229.808 590.276 222.293 586.868 215.24C583.459 208.186 577.677 202.903 569.522 199.391C561.728 196.035 554.137 195.452 546.749 197.641C539.541 199.909 533.508 204.939 528.649 212.729L586.829 237.782Z" fill="#F7F7F7"/>
<path d="M0.0462898 47.3022L82.1495 82.6574L65.7597 120.719L-69.0854 62.6516L-53.8662 27.3092L78.2677 -55.0154L-3.29184 -90.1365L13.098 -128.198L147.943 -70.1307L132.724 -34.7882L0.0462898 47.3022ZM164.245 165.706C149.383 159.307 137.337 150.359 128.106 138.865C119.057 127.448 113.626 114.367 111.811 99.62C110.178 84.9515 112.757 69.7331 119.547 53.9649C126.259 38.378 135.595 26.177 147.556 17.362C159.594 8.36571 172.96 3.27136 187.654 2.07894C202.347 0.886517 217.125 3.49023 231.987 9.89007C246.849 16.2899 258.895 25.2371 268.126 36.7318C277.356 48.2264 282.839 61.4376 284.575 76.3654C286.39 91.112 283.941 106.279 277.229 121.866C270.517 137.453 261.051 149.705 248.831 158.623C236.871 167.438 223.453 172.403 208.578 173.518C193.885 174.71 179.107 172.106 164.245 165.706ZM181.571 125.47C190.452 129.295 199.379 129.271 208.351 125.4C217.504 121.607 224.695 113.639 229.924 101.495C235.153 89.3522 236.092 78.6913 232.739 69.513C229.568 60.4127 223.542 53.9504 214.661 50.1261C205.598 46.2237 196.672 46.2472 187.881 50.1964C179.169 53.9644 172.159 62.0106 166.852 74.3352C161.622 86.4785 160.503 97.0612 163.493 106.083C166.664 115.184 172.69 121.646 181.571 125.47ZM427.691 94.8086C445.453 102.457 457.092 114.345 462.609 130.471C468.386 146.494 466.942 164.565 458.279 184.683L420.114 273.311L373.897 253.409L409.37 171.033C413.74 160.884 414.507 151.868 411.671 143.986C408.834 136.104 402.975 130.251 394.094 126.427C385.213 122.603 376.935 122.368 369.26 125.723C361.584 129.078 355.561 135.831 351.191 145.98L315.718 228.356L269.229 208.336L334.555 56.6359L381.043 76.6549L372.38 96.7729C379.98 92.0961 388.587 89.5717 398.201 89.1996C407.893 88.6464 417.723 90.516 427.691 94.8086ZM629.137 270.504C627.264 274.853 625.041 279.268 622.468 283.746L517.256 238.439C513.922 248.176 513.791 256.714 516.862 264.052C520.192 271.287 525.754 276.582 533.547 279.938C545.147 284.933 555.319 283.513 564.065 275.677L613.544 296.984C606.714 305.86 598.229 312.841 588.089 317.928C578.13 323.093 567.191 325.795 555.272 326.033C543.352 326.272 531.23 323.737 518.906 318.43C504.044 312.03 492.179 303.161 483.311 291.823C474.443 280.484 469.283 267.52 467.831 252.929C466.38 238.339 469.049 223.159 475.839 207.391C482.629 191.623 491.732 179.214 503.149 170.165C514.747 161.194 527.711 156.034 542.042 154.686C556.373 153.337 571.061 155.902 586.104 162.38C600.785 168.701 612.507 177.402 621.272 188.481C630.037 199.56 635.132 212.175 636.559 226.325C638.167 240.553 635.693 255.279 629.137 270.504ZM586.829 237.782C590.263 229.808 590.276 222.293 586.868 215.24C583.459 208.186 577.677 202.903 569.522 199.391C561.728 196.035 554.137 195.452 546.749 197.641C539.541 199.909 533.508 204.939 528.649 212.729L586.829 237.782Z" fill="#2367FF" fill-opacity="0.01"/>
</g>
<path d="M34.176 67.336H49.248V73H26.4V67.816L41.376 45.16H26.4V39.496H49.248V44.68L34.176 67.336ZM66.7763 73.432C64.2163 73.432 61.9123 72.872 59.8643 71.752C57.8163 70.6 56.2003 68.984 55.0163 66.904C53.8643 64.824 53.2883 62.424 53.2883 59.704C53.2883 56.984 53.8803 54.584 55.0643 52.504C56.2803 50.424 57.9283 48.824 60.0083 47.704C62.0883 46.552 64.4083 45.976 66.9683 45.976C69.5283 45.976 71.8483 46.552 73.9283 47.704C76.0083 48.824 77.6403 50.424 78.8243 52.504C80.0403 54.584 80.6483 56.984 80.6483 59.704C80.6483 62.424 80.0243 64.824 78.7762 66.904C77.5603 68.984 75.8963 70.6 73.7843 71.752C71.7043 72.872 69.3683 73.432 66.7763 73.432ZM66.7763 67.576C67.9923 67.576 69.1283 67.288 70.1843 66.712C71.2723 66.104 72.1363 65.208 72.7763 64.024C73.4163 62.84 73.7363 61.4 73.7363 59.704C73.7363 57.176 73.0643 55.24 71.7203 53.896C70.4083 52.52 68.7923 51.832 66.8723 51.832C64.9523 51.832 63.3363 52.52 62.0243 53.896C60.7443 55.24 60.1043 57.176 60.1043 59.704C60.1043 62.232 60.7283 64.184 61.9763 65.56C63.2563 66.904 64.8563 67.576 66.7763 67.576ZM100.314 46.024C103.482 46.024 106.042 47.032 107.994 49.048C109.946 51.032 110.922 53.816 110.922 57.4V73H104.202V58.312C104.202 56.2 103.674 54.584 102.618 53.464C101.562 52.312 100.122 51.736 98.2976 51.736C96.4416 51.736 94.9696 52.312 93.8816 53.464C92.8256 54.584 92.2976 56.2 92.2976 58.312V73H85.5776V46.408H92.2976V49.72C93.1936 48.568 94.3296 47.672 95.7056 47.032C97.1136 46.36 98.6496 46.024 100.314 46.024ZM142.032 59.128C142.032 60.088 141.968 60.952 141.84 61.72H122.4C122.56 63.64 123.232 65.144 124.416 66.232C125.6 67.32 127.056 67.864 128.784 67.864C131.28 67.864 133.056 66.792 134.112 64.648H141.36C140.592 67.208 139.12 69.32 136.944 70.984C134.768 72.616 132.096 73.432 128.928 73.432C126.368 73.432 124.064 72.872 122.016 71.752C120 70.6 118.416 68.984 117.264 66.904C116.144 64.824 115.584 62.424 115.584 59.704C115.584 56.952 116.144 54.536 117.264 52.456C118.384 50.376 119.952 48.776 121.968 47.656C123.984 46.536 126.304 45.976 128.928 45.976C131.456 45.976 133.712 46.52 135.696 47.608C137.712 48.696 139.264 50.248 140.352 52.264C141.472 54.248 142.032 56.536 142.032 59.128ZM135.072 57.208C135.04 55.48 134.416 54.104 133.2 53.08C131.984 52.024 130.496 51.496 128.736 51.496C127.072 51.496 125.664 52.008 124.512 53.032C123.392 54.024 122.704 55.416 122.448 57.208H135.072Z" fill="#262626"/>
<path d="M34.176 67.336H49.248V73H26.4V67.816L41.376 45.16H26.4V39.496H49.248V44.68L34.176 67.336ZM66.7763 73.432C64.2163 73.432 61.9123 72.872 59.8643 71.752C57.8163 70.6 56.2003 68.984 55.0163 66.904C53.8643 64.824 53.2883 62.424 53.2883 59.704C53.2883 56.984 53.8803 54.584 55.0643 52.504C56.2803 50.424 57.9283 48.824 60.0083 47.704C62.0883 46.552 64.4083 45.976 66.9683 45.976C69.5283 45.976 71.8483 46.552 73.9283 47.704C76.0083 48.824 77.6403 50.424 78.8243 52.504C80.0403 54.584 80.6483 56.984 80.6483 59.704C80.6483 62.424 80.0243 64.824 78.7762 66.904C77.5603 68.984 75.8963 70.6 73.7843 71.752C71.7043 72.872 69.3683 73.432 66.7763 73.432ZM66.7763 67.576C67.9923 67.576 69.1283 67.288 70.1843 66.712C71.2723 66.104 72.1363 65.208 72.7763 64.024C73.4163 62.84 73.7363 61.4 73.7363 59.704C73.7363 57.176 73.0643 55.24 71.7203 53.896C70.4083 52.52 68.7923 51.832 66.8723 51.832C64.9523 51.832 63.3363 52.52 62.0243 53.896C60.7443 55.24 60.1043 57.176 60.1043 59.704C60.1043 62.232 60.7283 64.184 61.9763 65.56C63.2563 66.904 64.8563 67.576 66.7763 67.576ZM100.314 46.024C103.482 46.024 106.042 47.032 107.994 49.048C109.946 51.032 110.922 53.816 110.922 57.4V73H104.202V58.312C104.202 56.2 103.674 54.584 102.618 53.464C101.562 52.312 100.122 51.736 98.2976 51.736C96.4416 51.736 94.9696 52.312 93.8816 53.464C92.8256 54.584 92.2976 56.2 92.2976 58.312V73H85.5776V46.408H92.2976V49.72C93.1936 48.568 94.3296 47.672 95.7056 47.032C97.1136 46.36 98.6496 46.024 100.314 46.024ZM142.032 59.128C142.032 60.088 141.968 60.952 141.84 61.72H122.4C122.56 63.64 123.232 65.144 124.416 66.232C125.6 67.32 127.056 67.864 128.784 67.864C131.28 67.864 133.056 66.792 134.112 64.648H141.36C140.592 67.208 139.12 69.32 136.944 70.984C134.768 72.616 132.096 73.432 128.928 73.432C126.368 73.432 124.064 72.872 122.016 71.752C120 70.6 118.416 68.984 117.264 66.904C116.144 64.824 115.584 62.424 115.584 59.704C115.584 56.952 116.144 54.536 117.264 52.456C118.384 50.376 119.952 48.776 121.968 47.656C123.984 46.536 126.304 45.976 128.928 45.976C131.456 45.976 133.712 46.52 135.696 47.608C137.712 48.696 139.264 50.248 140.352 52.264C141.472 54.248 142.032 56.536 142.032 59.128ZM135.072 57.208C135.04 55.48 134.416 54.104 133.2 53.08C131.984 52.024 130.496 51.496 128.736 51.496C127.072 51.496 125.664 52.008 124.512 53.032C123.392 54.024 122.704 55.416 122.448 57.208H135.072Z" fill="#2367FF" fill-opacity="0.09"/>
<path d="M295.376 169.336H237.552L227.984 197H197.408L249.616 51.608H283.52L335.728 197H304.944L295.376 169.336ZM287.472 146.04L266.464 85.304L245.456 146.04H287.472Z" fill="#262626"/>
<path d="M295.376 169.336H237.552L227.984 197H197.408L249.616 51.608H283.52L335.728 197H304.944L295.376 169.336ZM287.472 146.04L266.464 85.304L245.456 146.04H287.472Z" fill="#2367FF" fill-opacity="0.09"/>
</g>
<defs>
<clipPath id="clip0_177_2415">
<rect width="416" height="248" rx="16" fill="white"/>
</clipPath>
</defs>
</svg>
